<?xml version="1.0" encoding="utf-8"?>
<!-- Generator: Adobe Illustrator 21.0.0, SVG Export Plug-In . SVG Version: 6.00 Build 0)  -->
<svg xmlns="http://www.w3.org/2000/svg" xmlns:xlink="http://www.w3.org/1999/xlink" version="1.1" id="Layer_1" x="0px" y="0px" viewBox="0 0 256 256" style="enable-background:new 0 0 256 256;" xml:space="preserve" width="512" height="512">
<style type="text/css">
	.st0{fill:#6DCC6D;}
	.st1{fill:#FFCD29;}
	.st2{fill:#55ACD5;}
	.st3{fill:#6D6C6B;}
	.st4{fill:#898989;}
	.st5{fill:#E9E9EA;}
	.st6{fill:#F9D0B4;}
	.st7{fill:#B26E3B;}
	.st8{fill:#FC7783;}
	.st9{fill:#EA4647;}
	.st10{fill:#231F20;}
</style>
<g id="Layer_32">
	<path class="st0" d="M162.1,2.5H93.9c-9.2,0-16.6,7.5-16.6,16.6v29.1c0,9.2,7.5,16.6,16.6,16.6h17.6c2,0,4,1,5.1,2.7l9.9,15.1   c0.5,0.8,1.6,1,2.4,0.5c0.2-0.1,0.4-0.3,0.5-0.5l9.9-15.1c1.1-1.7,3-2.7,5.1-2.7h17.6c9.2,0,16.6-7.5,16.6-16.6V19.1   C178.7,10,171.3,2.5,162.1,2.5z"/>
	<path class="st1" d="M234.9,32.7h-49.8c-2.3,0-4.5,0.6-6.4,1.9v13.6c0,4.8-2.1,9.4-5.7,12.5v5.4c0,6.7,5.4,12.1,12.1,12.2H198   c1.5,0,2.9,0.8,3.7,2l7.3,11c0.4,0.6,1.2,0.7,1.8,0.4c0.1-0.1,0.3-0.2,0.4-0.4l7.3-11c0.8-1.2,2.2-2,3.7-2h12.9   c6.7,0,12.1-5.4,12.1-12.2V44.9C247,38.2,241.6,32.8,234.9,32.7z"/>
	<path class="st2" d="M77.3,48.2V34.6c-1.9-1.2-4.1-1.9-6.4-1.9H21.1C14.4,32.8,9,38.2,9,44.9v21.3c0,6.7,5.4,12.1,12.1,12.2H34   c1.5,0,2.9,0.8,3.7,2l7.3,11c0.4,0.6,1.2,0.7,1.8,0.4c0.1-0.1,0.3-0.2,0.4-0.4l7.3-11c0.8-1.2,2.2-2,3.7-2h12.9   c6.7,0,12.1-5.4,12.2-12.2v-5.4C79.4,57.6,77.3,53,77.3,48.2z"/>
	<path class="st3" d="M146.6,96.7c-2.5,0-4.9,0.7-7.1,2c-2.5-4.2-7-6.7-11.8-6.8h-7.1c-13.8,0-24.9,11.2-25,25v11.2   c2.2-1.8,5.1-2.5,7.8-2.1v-1.2c0-0.7,0.6-1.3,1.3-1.3c0.1,0,0.2,0,0.3,0c4.4,0.9,17.4,2.5,26.2-8.6c0.4-0.6,1.3-0.7,1.8-0.2   c0,0,0.1,0.1,0.1,0.1c2,2,7.3,6,17.4,6.3c0.7,0,1.2,0.6,1.2,1.3c0,0.1,0,0.3,0,0.4v3.2c3.1-0.5,6.3,0.5,8.6,2.7v-18.2   C160.3,102.9,154.2,96.7,146.6,96.7z"/>
	<path class="st4" d="M45.2,104.8c-14.8,0-26.7,12-26.8,26.8v18.5c0,3.8,0.8,7.7,2.4,11.1c1.1,2.5,3.6,4,6.3,4h10.3v-2   C31,160,27,153.4,27.1,146.2v-8.4c0-1.2,1-2.2,2.2-2.2c0,0,0.1,0,0.1,0c0.2,0,0.4,0,0.6,0c5.6,0,10.9-2.5,14.4-6.9   c0.8-0.9,2.1-1.1,3.1-0.3c0.1,0.1,0.2,0.2,0.3,0.3c3.5,4.4,8.8,6.9,14.4,6.9h0c1.2,0,2.2,0.9,2.2,2.1c0,0,0,0,0,0v8.8   c0,6.8-3.8,13.1-9.8,16.4v2.3h8.6c2.7,0,5.2-1.6,6.3-4c1.6-3.5,2.5-7.3,2.4-11.1v-18.5C71.9,116.8,59.9,104.8,45.2,104.8z"/>
	<path class="st5" d="M210,101.5c-14.3,0-26,10.9-26,24.3v8.3c1.3-0.8,2.9-1.2,4.4-1.2c0.4,0,0.9,0,1.3,0.1v-0.5   c0,0,5.6-3.1,5.6-7.9c0,0,0-0.1,0-0.1c0-2.2,1.8-3.9,3.9-3.9c0.3,0,0.6,0,0.9,0.1c6.5,1.4,13.2,1.4,19.6,0c2.1-0.5,4.2,0.7,4.8,2.8   c0.1,0.3,0.1,0.6,0.1,0.9c0,0,0,0.1,0,0.1c0,4.7,5.6,7.9,5.6,7.9v0.5c0.4-0.1,0.9-0.1,1.3-0.1c1.5,0,3.1,0.4,4.4,1.2v-8.3   C236,112.5,224.3,101.5,210,101.5z"/>
	<path class="st6" d="M45.7,165.3L45.7,165.3c-2.9,0-5.7-0.7-8.3-2v6.9l2.9,8.4c0.2,0.5,0.6,0.8,1.2,0.8h9c0.5,0,1-0.3,1.2-0.8   l2.9-8.4V163C51.9,164.5,48.8,165.3,45.7,165.3z"/>
	<path class="st6" d="M231.6,133c-0.5,0-0.9,0-1.4,0.1c0,0.4,0.1,0.8,0.1,1.3v13.1c0,0.4,0,0.9-0.1,1.3c0.4,0.1,0.9,0.1,1.4,0.1   c4.4,0.3,8.2-3,8.5-7.4s-3-8.2-7.4-8.5C232.3,132.9,232,132.9,231.6,133L231.6,133z"/>
	<path class="st6" d="M189.7,134.3c0-0.4,0-0.9,0.1-1.3c-0.4-0.1-0.9-0.1-1.4-0.1c-4.4-0.3-8.2,3-8.5,7.4s3,8.2,7.4,8.5   c0.4,0,0.7,0,1.1,0c0.5,0,0.9,0,1.4-0.1c0-0.4-0.1-0.8-0.1-1.3V134.3z"/>
	<path class="st6" d="M224.7,124.7c0,0,0-0.1,0-0.1c0-2.2-1.8-3.9-3.9-3.9c-0.3,0-0.6,0-0.9,0.1c-6.5,1.4-13.2,1.4-19.6,0   c-2.1-0.5-4.2,0.7-4.8,2.8c-0.1,0.3-0.1,0.6-0.1,0.9c0,0,0,0.1,0,0.1c0,4.7-5.6,7.9-5.6,7.9V147c0,9.8,7.8,18.4,18.3,19.3   c12,1.1,22.3-7.8,22.3-18.9v-14.9C230.3,132.6,224.7,129.4,224.7,124.7z"/>
	<path class="st6" d="M153.4,125.9c-0.5,0-1.1,0-1.6,0.1c0,0.5,0.1,1.1,0.1,1.6v16.7c0,0.5,0,1.1-0.1,1.6c5.5,0.9,10.7-2.8,11.6-8.3   c0.9-5.5-2.8-10.7-8.3-11.6C154.5,125.9,153.9,125.9,153.4,125.9L153.4,125.9z"/>
	<path class="st6" d="M103.5,127.6c0-0.5,0-1.1,0.1-1.6c-5.5-0.9-10.7,2.8-11.6,8.3s2.8,10.7,8.3,11.6c1.1,0.2,2.3,0.2,3.4,0   c0-0.5-0.1-1.1-0.1-1.6L103.5,127.6z"/>
	<path class="st6" d="M151.8,122.4c0-0.7-0.6-1.2-1.2-1.3c-10-0.3-15.3-4.3-17.4-6.3c-0.5-0.5-1.3-0.5-1.8,0c0,0-0.1,0.1-0.1,0.1   c-8.8,11.1-21.9,9.5-26.2,8.6c-0.7-0.1-1.4,0.3-1.5,1c0,0.1,0,0.2,0,0.3v19.5c0.1,13.4,11,24.1,24.3,24c13.2-0.1,23.9-10.8,24-24   v-21.5C151.8,122.6,151.8,122.5,151.8,122.4z"/>
	<path class="st6" d="M127.6,168.5L127.6,168.5c-3.7,0-7.4-0.9-10.8-2.6v8.9l3.8,10.9c0.2,0.6,0.8,1.1,1.5,1.1h11.7   c0.7,0,1.3-0.4,1.5-1.1l3.8-10.9v-9.3C135.6,167.5,131.7,168.5,127.6,168.5z"/>
	<path class="st6" d="M62.1,135.7L62.1,135.7c-5.6,0-10.9-2.5-14.5-6.9c-0.8-0.9-2.1-1.1-3.1-0.3c-0.1,0.1-0.2,0.2-0.3,0.3   c-3.5,4.4-8.8,6.9-14.4,6.9c-0.2,0-0.4,0-0.6,0c-1.2,0-2.2,0.9-2.2,2.1c0,0,0,0.1,0,0.1v8.4c-0.1,9.7,7.2,17.9,16.8,19   c10.3,1,19.4-6.5,20.4-16.8c0.1-0.6,0.1-1.2,0.1-1.7v-8.8C64.4,136.6,63.4,135.7,62.1,135.7C62.2,135.7,62.1,135.7,62.1,135.7z"/>
	<path class="st6" d="M208,166.3c-2.3-0.2-4.5-0.8-6.6-1.7v5.7l2.9,8.4c0.2,0.5,0.6,0.8,1.2,0.8h9c0.5,0,1-0.3,1.2-0.8l2.9-8.4v-5.6   C215.3,166,211.6,166.6,208,166.3z"/>
	<path class="st5" d="M179.4,246.9l-3-53.1c-0.2-4.2-3.1-7.7-7.2-8.7l-18.8-4.7l-11.3-5.6l-3.8,10.9c-0.2,0.6-0.8,1.1-1.5,1.1h-11.7   c-0.7,0-1.3-0.4-1.5-1.1l-3.8-10.9l-11.3,5.6l-18.8,4.7c-4.1,1-7,4.6-7.2,8.7l-3,53.1c-0.2,3.4,2.4,6.4,5.9,6.6c0.1,0,0.2,0,0.3,0   h90.3c3.4,0,6.2-2.8,6.2-6.2C179.4,247.2,179.4,247.1,179.4,246.9z"/>
	<path class="st7" d="M249.6,225.1l-1.8-31.6c-0.5-8.3-6.3-15.4-14.4-17.4l-6.1-1.5l-8.7-4.3l-2.9,8.4c-0.2,0.5-0.6,0.8-1.2,0.8h-9   c-0.5,0-1-0.3-1.2-0.8l-2.9-8.4l-8.7,4.3l-6.1,1.5c-6,1.5-10.8,5.8-13.1,11.5c1.7,1.7,2.8,3.9,2.9,6.3l2.1,37h65.7   c3,0,5.5-2.4,5.5-5.5C249.6,225.3,249.6,225.2,249.6,225.1z"/>
	<path class="st8" d="M69.4,176l-6.1-1.5l-8.7-4.3l-2.9,8.4c-0.2,0.5-0.6,0.8-1.2,0.8h-9c-0.5,0-1-0.3-1.2-0.8l-2.9-8.4l-8.7,4.3   l-6.1,1.5c-8.1,2-13.9,9.1-14.4,17.4l-1.8,31.6c-0.2,3,2.1,5.6,5.2,5.8c0.1,0,0.2,0,0.3,0h65.7l2.1-37c0.1-2.4,1.2-4.7,2.9-6.3   C80.2,181.8,75.4,177.5,69.4,176z"/>
	<path class="st1" d="M225,2c0-0.2-0.1-0.3-0.1-0.5c-0.1-0.1-0.1-0.3-0.2-0.4c-0.1-0.1-0.2-0.3-0.3-0.4c-1-1-2.5-1-3.5,0   c0,0,0,0,0,0c-0.1,0.1-0.2,0.2-0.3,0.4c-0.1,0.1-0.2,0.3-0.2,0.4c-0.1,0.1-0.1,0.3-0.1,0.5c0,0.2-0.1,0.3-0.1,0.5   c0,0.2,0,0.3,0.1,0.5c0,0.2,0.1,0.3,0.1,0.5c0.1,0.2,0.1,0.3,0.2,0.4c0.1,0.1,0.2,0.3,0.3,0.4c1,0.9,2.5,0.9,3.5,0   c0.1-0.1,0.2-0.2,0.3-0.4c0.1-0.1,0.2-0.3,0.2-0.4C225,3.3,225,3.2,225,3c0-0.2,0-0.3,0.1-0.5C225.1,2.3,225.1,2.2,225,2z"/>
	<path class="st2" d="M57,17.4c-0.1-0.3-0.2-0.6-0.4-0.9c-0.1-0.1-0.2-0.3-0.3-0.4c-1-0.9-2.5-0.9-3.5,0c-0.1,0.1-0.2,0.2-0.3,0.4   c-0.1,0.1-0.2,0.3-0.2,0.4c-0.1,0.2-0.1,0.3-0.1,0.5c-0.1,0.3-0.1,0.7,0,1c0,0.2,0.1,0.3,0.1,0.5c0.1,0.1,0.1,0.3,0.2,0.4   c0.1,0.1,0.2,0.3,0.3,0.4c1,1,2.5,1,3.5,0c0,0,0,0,0,0c0.1-0.1,0.2-0.2,0.3-0.4c0.1-0.1,0.2-0.3,0.2-0.4c0.1-0.1,0.1-0.3,0.1-0.5   C57.1,18.1,57.1,17.7,57,17.4z"/>
	<path class="st9" d="M209.8,12.4c-3.8-0.7-6.8-3.7-7.5-7.5c0-0.1-0.1-0.2-0.2-0.1c-0.1,0-0.1,0.1-0.1,0.1c-0.7,3.8-3.7,6.8-7.5,7.5   c-0.1,0-0.2,0.1-0.1,0.2c0,0.1,0.1,0.1,0.1,0.1c3.8,0.7,6.8,3.7,7.5,7.5c0,0.1,0.1,0.2,0.2,0.1c0.1,0,0.1-0.1,0.1-0.1   c0.7-3.8,3.7-6.8,7.5-7.5c0.1,0,0.2-0.1,0.1-0.2C209.9,12.5,209.9,12.4,209.8,12.4z"/>
	<path class="st0" d="M84.1,96.7h-1.8v-1.8c0-1.4-1.1-2.5-2.5-2.5s-2.5,1.1-2.5,2.5v1.8h-1.8c-1.4,0-2.5,1.1-2.5,2.5   s1.1,2.5,2.5,2.5h1.8v1.8c0,1.4,1.1,2.5,2.5,2.5s2.5-1.1,2.5-2.5v-1.8h1.8c1.4,0,2.5-1.1,2.5-2.5S85.5,96.7,84.1,96.7L84.1,96.7z"/>
	<path class="st10" d="M162.1,0H93.9C83.4,0,74.8,8.6,74.8,19.1v29.1c0,10.6,8.6,19.1,19.1,19.1h17.6c1.2,0,2.3,0.6,3,1.6l9.9,15.1   c1.3,1.9,3.9,2.5,5.9,1.2c0.5-0.3,0.9-0.7,1.2-1.2l9.9-15.1c0.7-1,1.8-1.6,3-1.6h17.6c10.6,0,19.1-8.6,19.1-19.1V19.1   C181.2,8.6,172.6,0,162.1,0z M176.2,48.2c0,7.8-6.3,14.1-14.1,14.1h-17.6c-2.9,0-5.6,1.4-7.2,3.9L128,80.3l-9.3-14.1   c-1.6-2.4-4.3-3.9-7.2-3.9H93.9c-7.8,0-14.1-6.3-14.1-14.1V19.1C79.8,11.3,86.1,5,93.9,5h68.1c7.8,0,14.1,6.3,14.1,14.1V48.2z"/>
	<path class="st10" d="M234.9,30.2h-49.8c-2.7,0-5.4,0.8-7.8,2.2c-0.7,0.5-1.2,1.3-1.2,2.1v13.6c0,4.1-1.8,8-4.9,10.6   c-0.5,0.5-0.9,1.2-0.9,1.9v5.4c0,8.1,6.6,14.6,14.6,14.7H198c0.7,0,1.3,0.3,1.6,0.9l7.3,11c1.1,1.7,3.5,2.2,5.2,1.1   c0.4-0.3,0.8-0.6,1.1-1.1l7.3-11c0.4-0.5,1-0.9,1.6-0.9h12.9c8.1,0,14.6-6.6,14.6-14.7V44.9C249.5,36.8,243,30.3,234.9,30.2z    M244.5,66.1c0,5.3-4.3,9.6-9.6,9.7H222c-2.3,0-4.5,1.2-5.8,3.1l-6.2,9.4l-6.2-9.4c-1.3-2-3.5-3.1-5.8-3.1h-12.9   c-5.3,0-9.6-4.3-9.6-9.7v-4.3c3.7-3.6,5.7-8.5,5.7-13.6V36.1c1.2-0.6,2.6-0.9,3.9-0.9h49.8c5.3,0,9.6,4.3,9.6,9.7V66.1z"/>
	<path class="st10" d="M84.7,58.9c-3.1-2.7-4.9-6.6-4.9-10.6V34.6c0-0.9-0.4-1.7-1.2-2.1c-2.3-1.5-5-2.2-7.8-2.2H21.1   c-8.1,0-14.6,6.6-14.6,14.6v21.3c0,8.1,6.6,14.6,14.6,14.7H34c0.7,0,1.3,0.3,1.6,0.9l7.3,11c1.1,1.7,3.5,2.2,5.2,1.1   c0.4-0.3,0.8-0.6,1.1-1.1l7.3-11c0.4-0.5,1-0.9,1.6-0.9h12.9c8.1,0,14.6-6.6,14.7-14.7v-5.4C85.5,60,85.2,59.3,84.7,58.9z    M80.5,66.1c0,5.3-4.3,9.6-9.7,9.7H58c-2.3,0-4.5,1.2-5.8,3.1L46,88.3l-6.2-9.4c-1.3-2-3.5-3.1-5.8-3.1H21.1   c-5.3,0-9.6-4.3-9.6-9.7V44.9c0-5.3,4.3-9.6,9.6-9.7h49.8c1.4,0,2.7,0.3,3.9,0.9v12.1c0,5.1,2.1,10,5.7,13.6L80.5,66.1z"/>
	<path class="st10" d="M154.8,17.9L154.8,17.9l-54.5,0.2c-1.4,0-2.5,1.1-2.5,2.5s1.1,2.5,2.5,2.5h0l54.5-0.2c1.4,0,2.5-1.1,2.5-2.5   C157.3,19,156.2,17.9,154.8,17.9z"/>
	<path class="st10" d="M154.9,31.1l-54.5,0.2c-1.4,0-2.5,1.1-2.5,2.5s1.1,2.5,2.5,2.5h0l54.5-0.2c1.4,0,2.5-1.1,2.5-2.5   S156.3,31.1,154.9,31.1L154.9,31.1L154.9,31.1z"/>
	<path class="st10" d="M154.9,44.3l-54.5,0.2c-1.4,0-2.5,1.1-2.5,2.5s1.1,2.5,2.5,2.5h0l54.5-0.2c1.4,0,2.5-1.1,2.5-2.5c0,0,0,0,0,0   C157.4,45.5,156.3,44.4,154.9,44.3z"/>
	<path class="st10" d="M67.8,200.3c-1.4,0-2.5,1.1-2.5,2.5v28.1c0,1.4,1.1,2.5,2.5,2.5s2.5-1.1,2.5-2.5v-28.1   C70.3,201.4,69.2,200.3,67.8,200.3z"/>
	<path class="st10" d="M23.6,200.3c-1.4,0-2.5,1.1-2.5,2.5v28.1c0,1.4,1.1,2.5,2.5,2.5s2.5-1.1,2.5-2.5v-28.1   C26.1,201.4,25,200.3,23.6,200.3z"/>
	<path class="st10" d="M55.8,160.9c-0.8-0.5-1.7-0.5-2.5,0c-2.4,1.3-5,1.9-7.7,2c-2.5,0-5-0.6-7.2-1.7c-1.2-0.6-2.7-0.1-3.4,1.1   c-0.2,0.3-0.3,0.7-0.3,1.1v6.9c0,0.3,0,0.6,0.1,0.8l2.9,8.4c0.5,1.5,1.9,2.5,3.5,2.5h9c1.6,0,3-1,3.5-2.5l2.9-8.4   c0.1-0.3,0.1-0.5,0.1-0.8V163C57.1,162.1,56.6,161.3,55.8,160.9z M52.1,169.8l-2.5,7.2h-7.2l-2.5-7.2V167c4,1.1,8.2,1.1,12.2-0.2   V169.8z"/>
	<path class="st10" d="M231.6,130.5c-0.6,0-1.2,0-1.7,0.1c-1.3,0.2-2.2,1.3-2.1,2.6c0,0.4,0,0.7,0,1.1v13.1c0,0.4,0,0.7,0,1.1   c-0.1,1.3,0.8,2.5,2.1,2.7c0.6,0.1,1.1,0.1,1.7,0.1c6,0,11-4.7,11-10.4S237.7,130.5,231.6,130.5z M232.8,146.2v-10.6   c2.9,0.3,5.1,2.9,4.7,5.9C237.3,143.9,235.3,145.9,232.8,146.2L232.8,146.2z"/>
	<path class="st10" d="M192.2,134.3c0-0.4,0-0.7,0-1.1c0.1-1.3-0.8-2.5-2.1-2.7c-0.6-0.1-1.1-0.1-1.7-0.1c-6,0-11,4.7-11,10.4   s4.9,10.4,11,10.4c0.6,0,1.2,0,1.7-0.1c1.3-0.2,2.2-1.3,2.1-2.7c0-0.4,0-0.7,0-1.1V134.3z M187.2,146.2c-2.9-0.3-5.1-2.9-4.7-5.9   c0.3-2.5,2.2-4.5,4.7-4.7V146.2z"/>
	<path class="st10" d="M231.5,130.4c-1.2-0.7-4.3-3-4.3-5.7v-0.1c0-1.9-0.8-3.8-2.3-5c-1.6-1.3-3.6-1.7-5.6-1.3   c-6.1,1.3-12.4,1.3-18.5,0c-2-0.5-4,0-5.6,1.3c-1.5,1.2-2.4,3.1-2.3,5.1c0,2.7-3.1,5-4.3,5.7c-0.8,0.4-1.3,1.3-1.3,2.2V147   c0,11.2,9,20.7,20.6,21.8c0.7,0.1,1.5,0.1,2.2,0.1c5.9,0,11.5-2.1,15.9-6.1c4.4-3.9,6.9-9.5,6.9-15.4v-14.9   C232.8,131.7,232.3,130.8,231.5,130.4z M227.8,147.4c0,4.5-2,8.7-5.3,11.7c-3.9,3.5-9.1,5.2-14.2,4.7c-9-0.8-16-8.2-16-16.8v-13.1   c2-1.4,5.6-4.7,5.6-9.2v-0.2c0-0.4,0.2-0.7,0.5-1c0.4-0.3,0.9-0.4,1.3-0.3c6.8,1.5,13.9,1.5,20.8,0c0.5-0.1,1,0,1.3,0.3   c0.3,0.2,0.5,0.6,0.5,1v0.2c0,4.5,3.6,7.8,5.6,9.2L227.8,147.4z"/>
	<path class="st10" d="M231.8,200.3c-1.4,0-2.5,1.1-2.5,2.5v28.1c0,1.4,1.1,2.5,2.5,2.5s2.5-1.1,2.5-2.5v-28.1   C234.3,201.4,233.2,200.3,231.8,200.3z"/>
	<path class="st10" d="M187.7,200.3c-1.4,0-2.5,1.1-2.5,2.5v28.1c0,1.4,1.1,2.5,2.5,2.5s2.5-1.1,2.5-2.5v-28.1   C190.2,201.4,189,200.3,187.7,200.3z"/>
	<path class="st10" d="M181.9,246.8L181.9,246.8l-3-53.1c-0.3-5.3-4-9.7-9.1-11l-18.5-4.7l-11.1-5.4c-1.2-0.6-2.7-0.1-3.3,1.1   c0,0.1-0.1,0.2-0.1,0.3l-3.6,10.3h-10.4l-3.6-10.3c-0.5-1.3-1.9-2-3.2-1.5c-0.1,0-0.2,0.1-0.3,0.1l-11.1,5.4l-18.5,4.7   c-5.1,1.3-8.8,5.7-9.1,11l-3,53.1c-0.3,4.8,3.4,8.9,8.2,9.2c0.2,0,0.3,0,0.5,0h90.3c4.8,0,8.7-3.9,8.7-8.7   C181.9,247.1,181.9,247,181.9,246.8L181.9,246.8z M175.9,249.8c-0.7,0.7-1.7,1.2-2.7,1.2H82.8c-2.1,0-3.7-1.7-3.7-3.7   c0-0.1,0-0.1,0-0.2l3-53.1c0.2-3.1,2.3-5.7,5.3-6.4l18.8-4.7c0.2,0,0.3-0.1,0.5-0.2l8.8-4.3l2.9,8.3c0.6,1.6,2.1,2.7,3.9,2.7h11.7   c1.7,0,3.3-1.1,3.9-2.7l2.9-8.3l8.8,4.3c0.2,0.1,0.3,0.1,0.5,0.2l18.8,4.7c3,0.7,5.1,3.4,5.3,6.4l3,53.1   C176.9,248.1,176.6,249.1,175.9,249.8L175.9,249.8z"/>
	<path class="st10" d="M153.4,123.4c-0.7,0-1.3,0.1-2,0.2c-1.3,0.2-2.2,1.3-2.1,2.6c0,0.5,0.1,1,0.1,1.5v16.7c0,0.5,0,1-0.1,1.5   c-0.1,1.3,0.8,2.4,2.1,2.6c6.9,1.1,13.3-3.6,14.4-10.4s-3.6-13.3-10.4-14.4C154.7,123.4,154,123.4,153.4,123.4L153.4,123.4z    M154.3,143.5v-15.1c4.2,0.5,7.1,4.3,6.6,8.5C160.5,140.3,157.8,143,154.3,143.5z"/>
	<path class="st10" d="M106,127.6c0-0.5,0-1,0.1-1.5c0.1-1.3-0.8-2.4-2.1-2.6c-6.9-1.1-13.3,3.6-14.4,10.4   c-1.1,6.9,3.6,13.3,10.4,14.4c0.7,0.1,1.3,0.2,2,0.2c0.7,0,1.3-0.1,2-0.2c1.3-0.2,2.2-1.3,2.1-2.6c0-0.5-0.1-1-0.1-1.5L106,127.6z    M101,143.5c-4.2-0.5-7.1-4.3-6.6-8.5c0.4-3.4,3.1-6.2,6.6-6.6V143.5z"/>
	<path class="st10" d="M154.3,122.3c0-2-1.7-3.7-3.7-3.7c-9.3-0.3-14.1-4-15.7-5.6c-1.5-1.5-3.9-1.4-5.4,0c-0.1,0.1-0.2,0.2-0.3,0.3   c-7.8,9.8-19.2,8.7-23.8,7.7c-2-0.4-4.1,0.9-4.5,2.9c-0.1,0.3-0.1,0.5-0.1,0.8v19.4c0,14.7,11.9,26.7,26.7,26.7   s26.7-11.9,26.7-26.7v-21.5L154.3,122.3z M149.3,144.3c0,12-9.7,21.7-21.7,21.7s-21.7-9.7-21.7-21.7l0,0v-18   c5.3,0.8,17.6,1.4,26.4-8.8c2.8,2.4,8.1,5.6,16.9,6.1V144.3z"/>
	<path class="st10" d="M146.6,94.2c-2.1,0-4.3,0.4-6.3,1.3c-3.1-3.8-7.7-6-12.6-6.1h-7.1c-15.2,0-27.4,12.3-27.5,27.5v11.2   c0,1.4,1.1,2.5,2.5,2.5c0.6,0,1.1-0.2,1.6-0.5c1.6-1.4,3.8-1.9,5.9-1.6c1.4,0.2,2.6-0.7,2.9-2.1c0,0,0-0.1,0-0.1   c5.3,0.8,17.6,1.4,26.5-8.8c2.8,2.4,8.1,5.6,16.9,6.1v2.4c0,1.4,1.1,2.5,2.5,2.5c0.1,0,0.3,0,0.4,0c0.4-0.1,0.8-0.1,1.2-0.1   c2,0,3.9,0.8,5.3,2.1c1,1,2.6,0.9,3.5-0.1c0.4-0.5,0.7-1.1,0.7-1.7v-18.2C162.9,101.5,155.6,94.2,146.6,94.2z M157.9,124.2   c-1.1-0.4-2.3-0.7-3.6-0.8v-1.1c0-2-1.7-3.7-3.7-3.7c-9.3-0.3-14.1-4-15.7-5.6c-1.5-1.5-3.9-1.4-5.4,0c-0.1,0.1-0.2,0.2-0.3,0.3   c-7.8,9.8-19.2,8.7-23.8,7.7c-1.1-0.2-2.3,0-3.2,0.8c-0.5,0.4-0.9,0.9-1.1,1.5c-1.1,0.1-2.1,0.3-3.1,0.6v-7.1   c0-12.4,10.1-22.4,22.5-22.5h7.1c4,0,7.7,2.1,9.7,5.5c0.7,1.2,2.2,1.6,3.4,0.9c0,0,0,0,0,0c5.3-3.2,12.3-1.5,15.5,3.8   c1.1,1.8,1.6,3.8,1.6,5.9L157.9,124.2z"/>
	<path class="st10" d="M129.8,198.4c-0.6-0.6-1.4-0.8-2.3-0.7c-0.2,0-0.3,0.1-0.5,0.1c-0.2,0.1-0.3,0.1-0.4,0.2   c-0.1,0.1-0.3,0.2-0.4,0.3c-0.1,0.1-0.2,0.2-0.3,0.4c-0.1,0.1-0.2,0.3-0.2,0.4c-0.1,0.2-0.1,0.3-0.1,0.5c-0.1,0.3-0.1,0.7,0,1   c0,0.2,0.1,0.3,0.1,0.5c0.1,0.1,0.1,0.3,0.2,0.4c0.1,0.1,0.2,0.3,0.3,0.4c0.1,0.1,0.2,0.2,0.4,0.3c0.1,0.1,0.3,0.2,0.4,0.2   c0.2,0.1,0.3,0.1,0.5,0.1c0.2,0,0.3,0.1,0.5,0.1c1.4,0,2.5-1.1,2.5-2.5C130.5,199.5,130.2,198.8,129.8,198.4L129.8,198.4z"/>
	<path class="st10" d="M129.8,211.3c-0.6-0.6-1.4-0.8-2.3-0.7c-0.2,0-0.3,0.1-0.5,0.1c-0.1,0.1-0.3,0.1-0.4,0.2   c-0.1,0.1-0.3,0.2-0.4,0.3c-0.1,0.1-0.2,0.2-0.3,0.4c-0.1,0.1-0.2,0.3-0.2,0.4c-0.1,0.2-0.1,0.3-0.1,0.5c-0.1,0.3-0.1,0.7,0,1   c0,0.2,0.1,0.3,0.1,0.5c0.1,0.1,0.1,0.3,0.2,0.4c0.1,0.1,0.2,0.3,0.3,0.4c0.1,0.1,0.2,0.2,0.4,0.3c0.1,0.1,0.3,0.2,0.4,0.2   c0.2,0.1,0.3,0.1,0.5,0.1c0.2,0,0.3,0,0.5,0.1c0.7,0,1.3-0.3,1.8-0.7C130.7,213.8,130.7,212.3,129.8,211.3z"/>
	<path class="st10" d="M129.8,224.2c-0.6-0.6-1.4-0.8-2.3-0.7c-0.2,0-0.3,0.1-0.5,0.1c-0.2,0.1-0.3,0.1-0.4,0.2   c-0.1,0.1-0.3,0.2-0.4,0.3c-0.1,0.1-0.2,0.2-0.3,0.4c-0.1,0.1-0.2,0.3-0.2,0.4c-0.1,0.2-0.1,0.3-0.1,0.5c-0.1,0.3-0.1,0.7,0,1   c0,0.2,0.1,0.3,0.1,0.5c0.1,0.1,0.1,0.3,0.2,0.4c0.1,0.1,0.2,0.3,0.3,0.4c0.1,0.1,0.2,0.2,0.4,0.3c0.1,0.1,0.3,0.2,0.4,0.2   c0.2,0.1,0.3,0.1,0.5,0.1c0.2,0,0.3,0,0.5,0.1c0.7,0,1.3-0.3,1.8-0.7C130.7,226.8,130.7,225.2,129.8,224.2z"/>
	<path class="st10" d="M129.8,237.1c-0.6-0.6-1.4-0.8-2.3-0.7c-0.2,0-0.3,0.1-0.5,0.1c-0.2,0.1-0.3,0.1-0.4,0.2   c-0.1,0.1-0.3,0.2-0.4,0.3c-0.1,0.1-0.2,0.2-0.3,0.4c-0.1,0.1-0.2,0.3-0.2,0.4c-0.1,0.2-0.1,0.3-0.1,0.5c-0.1,0.3-0.1,0.7,0,1   c0,0.2,0.1,0.3,0.1,0.5c0.1,0.1,0.1,0.3,0.2,0.4c0.1,0.1,0.2,0.3,0.3,0.4c0.1,0.1,0.2,0.2,0.4,0.3c0.1,0.1,0.3,0.2,0.4,0.2   c0.2,0.1,0.3,0.1,0.5,0.1c0.2,0,0.3,0,0.5,0c1.4,0,2.5-1.1,2.5-2.5C130.5,238.2,130.2,237.6,129.8,237.1L129.8,237.1z"/>
	<path class="st10" d="M156.3,214.6c-1.4,0-2.5,1.1-2.5,2.5v36.4c0,1.4,1.1,2.5,2.5,2.5s2.5-1.1,2.5-2.5v-36.4   C158.8,215.7,157.7,214.6,156.3,214.6z"/>
	<path class="st10" d="M99,214.6c-1.4,0-2.5,1.1-2.5,2.5v36.4c0,1.4,1.1,2.5,2.5,2.5s2.5-1.1,2.5-2.5v-36.4   C101.5,215.7,100.4,214.6,99,214.6z"/>
	<path class="st10" d="M140.4,163.4c-0.8-0.5-1.7-0.5-2.5,0c-3.2,1.7-6.7,2.6-10.3,2.6c-3.4,0-6.7-0.8-9.7-2.3   c-1.2-0.6-2.7-0.1-3.4,1.1c-0.2,0.3-0.3,0.7-0.3,1.1v8.9c0,0.3,0,0.6,0.1,0.8l3.8,10.9c0.6,1.6,2.1,2.7,3.9,2.7h11.7   c1.7,0,3.3-1.1,3.9-2.7l3.8-10.9c0.1-0.3,0.1-0.5,0.1-0.8v-9.3C141.6,164.6,141.2,163.8,140.4,163.4z M136.6,174.4l-3.5,9.9h-10.4   l-3.5-9.9v-4.8c5.6,1.8,11.7,1.7,17.3-0.2L136.6,174.4z"/>
	<path class="st10" d="M65.5,134.6c-0.9-0.9-2.1-1.4-3.4-1.4h0v2.5l0-2.5c-4.9,0-9.4-2.2-12.5-6c-1.6-2-4.6-2.3-6.6-0.7   c-0.3,0.2-0.5,0.4-0.7,0.7c-3.1,3.9-7.9,6.1-13,6c-1.3-0.1-2.5,0.4-3.4,1.3c-0.9,0.9-1.4,2.1-1.4,3.4v8.4c0,11,8.4,20.4,19.1,21.5   c0.7,0.1,1.4,0.1,2,0.1c11.7,0,21.2-9.5,21.2-21.2v-8.8C66.9,136.6,66.4,135.4,65.5,134.6z M61.9,146.6c0,4.6-1.9,8.9-5.3,11.9   c-3.4,3.1-7.9,4.6-12.4,4.1c-8.3-1-14.6-8.1-14.6-16.5v-8c6.3,0.1,12.4-2.7,16.4-7.5c3.9,4.7,9.7,7.5,15.9,7.5L61.9,146.6z"/>
	<path class="st10" d="M45.2,102.3c-16.2,0-29.3,13.1-29.3,29.3v18.5c0,4.2,0.9,8.4,2.7,12.2c1.6,3.3,4.9,5.5,8.6,5.5h10.3   c1.4,0,2.5-1.1,2.5-2.5v-2c0-0.9-0.5-1.8-1.4-2.2c-5.5-2.9-9-8.6-9-14.9v-8c6.3,0.1,12.4-2.7,16.4-7.5c3.9,4.7,9.7,7.5,15.9,7.5   v8.4c0,5.9-3.3,11.4-8.5,14.2c-0.8,0.4-1.3,1.3-1.3,2.2v2.3c0,1.4,1.1,2.5,2.5,2.5h8.6c3.7,0,7-2.1,8.6-5.5c1.8-3.8,2.7-8,2.7-12.2   v-18.5C74.4,115.4,61.3,102.3,45.2,102.3z M69.4,150.1c0,3.5-0.8,6.9-2.2,10.1c-0.7,1.6-2.3,2.6-4.1,2.6h-3.8   c4.8-4,7.5-9.9,7.5-16.1v-8.8c0-1.2-0.5-2.4-1.4-3.3c-0.9-0.9-2.1-1.4-3.4-1.4c-4.9,0-9.4-2.2-12.5-6c-1.6-2-4.6-2.3-6.6-0.7   c-0.3,0.2-0.5,0.4-0.7,0.7c-3.1,3.9-7.9,6.1-13,6c-1.3-0.1-2.5,0.4-3.4,1.3c-0.9,0.9-1.4,2.1-1.4,3.4v8.4c0,6.4,2.8,12.4,7.6,16.6   h-5c-1.7,0-3.3-1-4.1-2.6c-1.5-3.2-2.2-6.6-2.2-10.1v-18.5c0-13.4,10.9-24.3,24.3-24.3s24.3,10.9,24.3,24.3V150.1z"/>
	<path class="st10" d="M46,177c-1.4,0-2.5,1.1-2.5,2.5v11.2c0,1.4,1.1,2.5,2.5,2.5s2.5-1.1,2.5-2.5v-11.2   C48.5,178.1,47.4,177,46,177z"/>
	<path class="st10" d="M223.1,198h-7.5c-1.4,0-2.5,1.1-2.5,2.5s1.1,2.5,2.5,2.5h7.5c1.4,0,2.5-1.1,2.5-2.5S224.4,198,223.1,198z"/>
	<path class="st10" d="M210,99c-15.7,0-28.5,12-28.5,26.8v8.3c0,1.4,1.1,2.5,2.5,2.5c0.4,0,0.9-0.1,1.2-0.3c1-0.5,2.1-0.8,3.2-0.8   c0.3,0,0.6,0,0.9,0.1c1.1,0.2,2.2-0.4,2.7-1.5c1.9-1.4,5.8-4.7,5.8-9.4v-0.2c0-0.4,0.2-0.7,0.5-1c0.4-0.3,0.9-0.4,1.3-0.3   c6.8,1.5,13.9,1.5,20.8,0c0.5-0.1,1,0,1.3,0.3c0.3,0.2,0.5,0.6,0.5,1v0.2c0,4.7,3.9,8,5.8,9.4c0.4,1,1.5,1.7,2.7,1.5   c0.3,0,0.6-0.1,0.9-0.1c1.1,0,2.2,0.3,3.2,0.8c1.2,0.7,2.7,0.3,3.4-0.9c0.2-0.4,0.3-0.8,0.3-1.2v-8.3C238.5,111,225.7,99,210,99z    M233.5,130.6c-0.6-0.1-1.2-0.2-1.8-0.2c0,0-0.1-0.1-0.1-0.1c-1.2-0.7-4.3-3-4.3-5.8c0-1.9-0.8-3.8-2.3-5c-1.6-1.3-3.7-1.8-5.6-1.3   c-6.1,1.3-12.4,1.3-18.5,0c-2-0.5-4,0-5.6,1.3c-1.5,1.2-2.4,3.1-2.3,5.1c0,2.7-3.1,5-4.3,5.7c0,0-0.1,0.1-0.1,0.1   c-0.6,0-1.2,0.1-1.8,0.2v-4.8c0-12,10.5-21.8,23.5-21.8s23.5,9.8,23.5,21.8L233.5,130.6z"/>
	<path class="st10" d="M220,162.5c-0.7-0.5-1.6-0.5-2.4-0.2c-2.9,1.3-6.2,1.8-9.4,1.5c-2-0.2-4-0.7-5.8-1.5c-1.3-0.6-2.7,0-3.3,1.3   c-0.1,0.3-0.2,0.7-0.2,1v5.7c0,0.3,0,0.6,0.1,0.8l2.9,8.4c0.5,1.5,1.9,2.5,3.5,2.5h9c1.6,0,3-1,3.5-2.5l2.9-8.4   c0.1-0.3,0.1-0.5,0.1-0.8v-5.6C221.1,163.7,220.7,162.9,220,162.5z M216.1,169.8l-2.5,7.2h-7.2l-2.5-7.2v-1.7   c1.3,0.3,2.6,0.6,3.9,0.7c2.8,0.3,5.6,0,8.3-0.7L216.1,169.8z"/>
	<path class="st10" d="M219.9,148.4l-3.9-1.6c-1.9-0.8-4.1-0.4-5.6,1c-0.2,0.2-0.5,0.2-0.7,0c-1.6-1.3-3.7-1.7-5.6-1l-3.9,1.6   c-1.3,0.5-1.9,1.9-1.4,3.2c0.5,1.3,1.9,1.9,3.2,1.4c0,0,0,0,0,0l3.9-1.6c0.2-0.1,0.4,0,0.5,0.1c2.1,1.8,5.1,1.8,7.2,0   c0.1-0.1,0.3-0.2,0.5-0.1l3.9,1.6c1.3,0.5,2.7-0.1,3.2-1.4C221.8,150.3,221.2,148.9,219.9,148.4L219.9,148.4z"/>
	<path class="st10" d="M252.1,225L252.1,225l-1.8-31.6c-0.5-9.4-7.1-17.4-16.3-19.7l-5.9-1.5l-8.5-4.2c-1.2-0.6-2.7-0.1-3.3,1.1   c0,0.1-0.1,0.2-0.1,0.3l-2.6,7.6h-7.2l-2.6-7.6c-0.5-1.3-1.9-2-3.2-1.5c-0.1,0-0.2,0.1-0.3,0.1l-8.5,4.2l-5.9,1.5   c-6.7,1.7-12.2,6.5-14.8,13c-0.4,0.9-0.1,2,0.6,2.7c1.3,1.2,2,2.9,2.1,4.7l2.1,37c0.1,1.3,1.2,2.4,2.5,2.4h65.7c4.4,0,8-3.6,8-8   C252.1,225.3,252.1,225.1,252.1,225L252.1,225z M246.3,227.5c-0.6,0.6-1.3,0.9-2.2,0.9h-63.3l-1.9-34.7c-0.1-2.4-1-4.7-2.5-6.6   c2.2-4.3,6.1-7.4,10.8-8.6l6.1-1.5c0.2,0,0.3-0.1,0.5-0.2l6.2-3l2,5.8c0.5,1.5,1.9,2.5,3.5,2.5h9c1.6,0,3-1,3.5-2.5l2-5.8l6.2,3   c0.2,0.1,0.3,0.1,0.5,0.2l6.1,1.5c7,1.8,12.1,7.9,12.5,15.1l1.8,31.6C247.2,226.1,246.9,226.9,246.3,227.5L246.3,227.5z"/>
	<path class="st10" d="M84.8,186.6c-2.6-6.5-8.1-11.3-14.8-13l-5.9-1.5l-8.5-4.2c-1.2-0.6-2.7-0.1-3.3,1.1c0,0.1-0.1,0.2-0.1,0.3   l-2.6,7.6h-7.2l-2.6-7.6c-0.5-1.3-1.9-2-3.2-1.5c-0.1,0-0.2,0.1-0.3,0.1l-8.5,4.2l-5.9,1.5c-9.2,2.3-15.8,10.3-16.3,19.7L3.9,225   c-0.2,4.4,3.1,8.2,7.5,8.4c0.1,0,0.3,0,0.4,0h65.7c1.3,0,2.4-1,2.5-2.4l2.1-37l0,0c0.1-1.8,0.9-3.4,2.1-4.7   C85,188.6,85.2,187.6,84.8,186.6z M77.1,193.7l-1.9,34.7H11.9c-1.6,0-3-1.3-3-3c0-0.1,0-0.1,0-0.2l1.8-31.6   c0.4-7.3,5.5-13.4,12.5-15.1l6.1-1.5c0.2,0,0.3-0.1,0.5-0.2l6.2-3l2,5.8c0.5,1.5,1.9,2.5,3.5,2.5h9c1.6,0,3-1,3.5-2.5l2-5.8l6.2,3   c0.2,0.1,0.3,0.1,0.5,0.2l6.1,1.5c4.7,1.2,8.6,4.3,10.8,8.6C78.1,189,77.2,191.3,77.1,193.7L77.1,193.7z"/>
</g>
</svg>
