<?xml version="1.0" encoding="iso-8859-1"?>
<!-- Generator: Adobe Illustrator 19.0.0, SVG Export Plug-In . SVG Version: 6.00 Build 0)  -->
<svg version="1.1" id="Layer_1" xmlns="http://www.w3.org/2000/svg" xmlns:xlink="http://www.w3.org/1999/xlink" x="0px" y="0px"
	 viewBox="0 0 512.001 512.001" style="enable-background:new 0 0 512.001 512.001;" xml:space="preserve">
<path style="fill:#F94848;" d="M450.182,289.227c0,58.102-37.783,138.399-83.466,182.264c-20.261,19.48-42.082,31.772-62.856,31.772
	c-13.13,0-26.226-2.109-37.492-5.511c-15.437-4.672-31.853-4.672-47.29,0c-11.266,3.402-24.362,5.511-37.492,5.511
	c-21.764,0-44.692-13.503-65.768-34.626c-44.366-44.424-80.553-122.554-80.553-179.41c0-83.885,50.18-134.566,97.365-146.799
	c22.602-5.86,48.828-2.085,70.009,3.425c21.903,5.709,44.669,6.664,66.852,2.866c4.474-0.769,8.913-1.724,13.317-2.866
	c21.181-5.511,47.395-9.286,70.009-3.425C400.003,154.661,450.182,205.342,450.182,289.227z"/>
<path style="fill:#DD2C2C;" d="M366.714,471.488c-56.062,9.907-99.243,7.162-131.78-0.717
	c-53.13-12.865-92.654-57.677-99.241-111.944c-16.497-135.912,72.306-175.481,72.306-175.481
	c26.028,11.826,55.294,5.511,55.294,5.511c-18.676-18.665,6.198-40.137,6.198-40.137c-22.183,3.798-44.949,2.843-66.852-2.866
	c-21.181-5.511-47.407-9.286-70.009-3.425c-47.185,12.233-97.365,62.914-97.365,146.799c0,83.874,78.747,214.036,146.322,214.036
	c13.13,0,26.226-2.109,37.492-5.511c15.437-4.672,31.853-4.672,47.29,0c11.266,3.402,24.362,5.511,37.492,5.511
	c20.773,0,42.595-12.292,62.856-31.772C366.714,471.488,366.716,471.491,366.714,471.488z"/>
<path style="fill:#23B75F;" d="M476.734,13.932c0,0-11.651,81.217-73.015,104.857c-58.661,22.602-110.95-38.506-132.399-33.694
	c-0.967,0.198-1.864,0.548-2.703,1.049c-0.035,0.012-0.047,0.023-0.047,0.023l0.012-0.047c0.722-2.19,24.245-72.258,84.654-76.848
	C414.601,4.611,447.992,32.573,476.734,13.932z"/>
<path style="fill:#A3E261;" d="M476.734,13.932c0,0-37.282,45.438-89.711,45.438c-46.102,0-102.713,20.715-115.703,25.725
	c-1.561,0.594-2.482,0.967-2.703,1.049c-0.035,0.012-0.047,0.023-0.047,0.023l0.012-0.047c0.722-2.19,24.245-72.258,84.654-76.848
	C414.601,4.611,447.992,32.573,476.734,13.932z"/>
<ellipse transform="matrix(-0.0989 -0.9951 0.9951 -0.0989 168.2671 659.9136)" style="fill:#FC8181;" cx="382.923" cy="253.771" rx="41.935" ry="27.135"/>
<path d="M428.965,203.384c-4.319,2.153-6.075,7.399-3.923,11.718c10.883,21.832,16.401,46.771,16.401,74.123
	c0,38.699-17.777,89.927-46.393,133.692c-29.319,44.838-63.407,71.607-91.186,71.607c-11.574,0-23.992-1.826-34.967-5.141
	c-17.122-5.172-35.224-5.172-52.346,0c-10.976,3.316-23.395,5.141-34.969,5.141c-27.779,0-61.867-26.77-91.186-71.607
	c-28.617-43.765-46.393-94.993-46.393-133.692c0-36.561,10.115-69.423,29.25-95.034c16.099-21.547,38.541-37.329,61.568-43.3
	c17.205-4.461,39.891-3.277,65.611,3.419c2.811,0.732,5.687,1.402,8.545,1.989c4.726,0.969,9.346-2.074,10.318-6.801
	c0.972-4.727-2.074-9.346-6.801-10.318c-2.562-0.527-5.138-1.125-7.657-1.781c-29.003-7.552-54.035-8.703-74.402-3.424
	c-27.197,7.051-52.477,24.722-71.183,49.756c-21.409,28.654-32.726,65.133-32.726,105.494c0,41.911,18.868,96.804,49.243,143.256
	c33.044,50.535,71.611,79.519,105.812,79.519c13.43,0,27.27-2.037,40.021-5.887c13.815-4.173,28.422-4.173,42.239,0
	c12.752,3.852,26.59,5.887,40.021,5.887c34.201,0,72.768-28.984,105.812-79.519c30.373-46.453,49.243-101.345,49.243-143.256
	c0-30.082-6.135-57.644-18.236-81.92C438.53,202.987,433.284,201.231,428.965,203.384z"/>
<path d="M408.88,189.942c1.727,2.124,4.246,3.226,6.785,3.226c1.938,0,3.887-0.641,5.507-1.958
	c3.745-3.044,4.312-8.548,1.268-12.293c-18.244-22.437-42.191-38.399-67.43-44.942c-20.366-5.28-45.399-4.129-74.403,3.424
	c-6.283,1.637-12.735,2.877-19.177,3.686c-4.788,0.601-8.182,4.97-7.581,9.759s4.977,8.186,9.759,7.581
	c7.191-0.903,14.392-2.287,21.405-4.114c25.723-6.697,48.41-7.878,65.612-3.419C372.282,156.508,392.971,170.375,408.88,189.942z"/>
<path d="M481.442,6.571c-2.887-1.845-6.586-1.834-9.463,0.03c-12.548,8.138-26.645,5.153-47.985,0.636
	c-1.855-0.393-3.745-0.792-5.673-1.193c-4.724-0.981-9.351,2.054-10.332,6.78c-0.981,4.726,2.054,9.351,6.78,10.332
	c1.905,0.395,3.773,0.791,5.605,1.179c16.031,3.394,30.528,6.463,44.187,3.795c-6.571,23.479-23.847,67.041-63.981,82.506
	c-33.939,13.077-65.831-5.257-91.457-19.988c-10.281-5.91-19.364-11.131-27.436-13.401c9.093-19.298,31.648-56.181,72.21-59.261
	c11.803-0.897,23.541-0.606,35.882,0.887c4.795,0.576,9.145-2.835,9.725-7.625c0.58-4.791-2.835-9.145-7.625-9.725
	c-13.489-1.632-26.348-1.947-39.304-0.964c-27.732,2.106-52.546,17.247-71.758,43.783c-12.302,16.993-18.561,33.428-20.151,37.945
	l-23,34.928c-6.473-19.576-12.894-31.846-13.41-32.818c-2.264-4.262-7.554-5.882-11.816-3.619
	c-4.262,2.264-5.882,7.553-3.619,11.815c0.217,0.407,20.374,38.904,24.442,89.348c-6.698-0.751-12.855-2.288-17.652-4.461
	c-5.79-2.623-7.589-5.284-7.589-5.956c0-4.826-3.912-8.738-8.738-8.738c-4.826,0-8.738,3.912-8.738,8.738
	c0,5.148,2.32,14.837,17.854,21.874c9.311,4.219,21.499,6.542,34.318,6.542c12.824,0,25.015-2.323,34.328-6.541
	c15.535-7.037,17.856-16.726,17.856-21.874c0-4.826-3.912-8.738-8.738-8.738s-8.738,3.912-8.738,8.738
	c0,0.672-1.799,3.332-7.59,5.955c-5.125,2.322-11.806,3.913-19.038,4.601c-1.146-15.528-3.693-29.963-6.791-42.719l30.164-45.806
	c1.029,0.043,2.889,0.365,6.023,1.603c5.508,2.179,12.326,6.098,20.221,10.636c20.497,11.782,46.669,26.832,76.079,26.829
	c9.794,0,19.952-1.671,30.371-5.686c65.39-25.197,78.013-108.246,78.519-111.769C485.871,11.781,484.329,8.416,481.442,6.571z"/>
<g>
</g>
<g>
</g>
<g>
</g>
<g>
</g>
<g>
</g>
<g>
</g>
<g>
</g>
<g>
</g>
<g>
</g>
<g>
</g>
<g>
</g>
<g>
</g>
<g>
</g>
<g>
</g>
<g>
</g>
</svg>
