<svg id="Capa_1" enable-background="new 0 0 512 512" height="512" viewBox="0 0 512 512" width="512" xmlns="http://www.w3.org/2000/svg"><g><path d="m429.385 89.618c-.008-.007-.013-.012-.021-.019l-72.841-25.064-127.156 25.065v55.467l208.299 34.365 37.145-34.365c-12.076-20.866-27.463-39.594-45.426-55.449z" fill="#e7a52e"/><g fill="#e7a52e"><path d="m429.366 422.4-95.074-18.089-104.925 18.089v55.467h53.266c55.705 0 106.612-20.532 145.573-54.439"/><path d="m229.367 366.933 150.01 21.715 95.434-21.715c9.932-17.168 17.634-35.788 22.699-55.467l-111.598-32.173-156.545 32.173z"/></g><path d="m497.51 200.533-68.144-40.701-199.998 40.701v55.467l218.373 39.43 56.759-39.43c0-19.156-2.425-37.737-6.99-55.467z" fill="#e7a52e"/><path d="m473.564 256c0-122.534-99.333-221.867-221.867-221.867-7.538 0-14.986.38-22.33 1.114v441.506c7.344.734 14.793 1.114 22.33 1.114 122.534 0 221.867-99.333 221.867-221.867z" fill="#e28424"/><g fill="#c85929"><path d="m429.366 89.6c-39.11-34.514-90.471-55.467-146.732-55.467h-53.266v55.467z"/><path d="m229.367 200.533h268.143c-5.065-19.679-12.767-38.299-22.699-55.467h-245.444z"/><path d="m229.367 311.467h268.143c4.563-17.728 6.99-36.314 6.99-55.467h-275.133z"/><path d="m229.367 422.4h199.998c17.975-15.863 33.366-34.585 45.445-55.467h-245.443z"/></g><path d="m443.875 366.933h-214.508v55.467h169.063c17.975-15.863 33.365-34.585 45.445-55.467z" fill="#b94029"/><path d="m473.564 256h-244.197v55.467h237.207c4.563-17.729 6.99-36.314 6.99-55.467z" fill="#b94029"/><path d="m443.875 145.066h-214.508v55.467h237.207c-5.065-19.679-12.767-38.298-22.699-55.467z" fill="#b94029"/><path d="m251.697 34.133c-7.538 0-14.986.38-22.33 1.114v54.353h169.063c-39.11-34.514-90.471-55.467-146.733-55.467z" fill="#b94029"/><circle cx="229.367" cy="256" fill="#f6e266" r="221.867"/><path d="m82.106 421.931c11.216 9.961 23.441 18.811 36.515 26.358l60.86-408.522c-14.825 3.406-29.078 8.306-42.604 14.518z" fill="#fbf4af"/><path d="m229.367 34.133c-4.032 0-8.038.114-12.017.327 116.945 6.243 209.85 103.039 209.85 221.54s-92.905 215.297-209.85 221.54c3.979.212 7.985.327 12.017.327 122.534 0 221.867-99.333 221.867-221.867s-99.333-221.867-221.867-221.867z" fill="#eab14d"/><circle cx="229.367" cy="256" fill="#e7a52e" r="178.684"/><path d="m229.367 77.316c-4.469 0-8.899.169-13.286.492 92.479 6.798 165.398 83.977 165.398 178.192s-72.919 171.394-165.398 178.192c4.387.323 8.817.492 13.286.492 98.685 0 178.684-80 178.684-178.684s-79.999-178.684-178.684-178.684z" fill="#e28424"/><path d="m90.142 367.991c10.233 12.705 22.161 23.985 35.453 33.483l46.915-314.917c-15.637 5.245-30.306 12.595-43.676 21.711z" fill="#eab14d"/><path d="m234.822 157.563 33.731 51.821c.875 1.344 2.215 2.318 3.764 2.735l59.708 16.067c4.545 1.223 6.329 6.716 3.372 10.377l-38.861 48.094c-1.008 1.247-1.52 2.823-1.438 4.425l3.171 61.75c.241 4.7-4.431 8.095-8.827 6.413l-57.748-22.097c-1.498-.573-3.155-.573-4.652 0l-57.748 22.097c-4.396 1.682-9.068-1.713-8.827-6.413l3.171-61.75c.082-1.602-.43-3.177-1.438-4.425l-38.861-48.094c-2.958-3.661-1.173-9.154 3.372-10.377l59.708-16.067c1.549-.417 2.889-1.391 3.764-2.735l33.731-51.821c2.565-3.944 8.341-3.944 10.908 0z" fill="#c85929"/><path d="m332.025 228.185-59.708-16.066c-1.549-.417-2.889-1.391-3.764-2.735l-2.84-4.363c-.286 32.925-5.036 85.938-28.361 134.291l52.09 19.932c4.396 1.682 9.068-1.713 8.827-6.413l-3.171-61.75c-.082-1.602.43-3.177 1.438-4.425l38.861-48.094c2.958-3.661 1.173-9.154-3.372-10.377z" fill="#b94029"/><g><path d="m512 256c0-126.763-102.585-229.367-229.367-229.367h-53.266c-126.763 0-229.367 102.584-229.367 229.367 0 26.076 4.359 51.688 12.956 76.127 1.375 3.906 5.657 5.955 9.564 4.586 3.908-1.375 5.961-5.656 4.586-9.564-8.033-22.834-12.106-46.773-12.106-71.149 0-118.475 95.876-214.367 214.367-214.367 118.475 0 214.367 95.876 214.367 214.367 0 118.474-95.876 214.367-214.367 214.367-81.614 0-154.541-45.947-190.814-116.582-1.892-3.686-6.412-5.138-10.098-3.246-3.685 1.893-5.138 6.413-3.246 10.098 38.868 75.687 116.973 124.73 204.158 124.73h53.266c125.879 0 229.367-101.785 229.367-229.367zm-85.498 158.901h-31.741c11.973-12.449 22.382-26.017 31.126-40.467h35.449c-9.845 14.83-21.518 28.407-34.834 40.467zm7.71-55.467c6.553-12.946 11.837-26.487 15.804-40.467h37.63c-4.296 14.051-10.046 27.598-17.156 40.467zm57.402-55.467h-37.891c2.794-13.2 4.438-26.729 4.876-40.467h38.257c-.461 13.521-2.181 27.066-5.242 40.467zm5.243-55.467h-38.257c-.439-13.739-2.082-27.267-4.876-40.467h37.914c2.995 13.17 4.749 26.707 5.219 40.467zm-9.252-55.467h-37.589c-3.967-13.979-9.25-27.521-15.804-40.467h36.223c7.112 12.885 12.866 26.448 17.17 40.467zm-26.217-55.466h-35.5c-8.744-14.45-19.153-28.017-31.126-40.467h31.768c13.103 11.894 24.856 25.438 34.858 40.467zm-53.35-55.467h-29.09c-18.192-15.697-38.474-28.261-60.175-37.444 32.304 5.454 62.712 18.21 89.265 37.444zm-29.091 347.801h29.09c-26.552 19.233-56.96 31.99-89.264 37.444 21.7-9.184 41.982-21.748 60.174-37.444z"/><path d="m352.983 137.586c2.863 2.991 7.613 3.093 10.604.227 2.991-2.865 3.093-7.613.227-10.604-35.463-37.011-83.21-57.394-134.446-57.394-102.663.001-186.185 83.523-186.185 186.185s83.522 186.184 186.185 186.184 186.183-83.522 186.183-186.184c0-37.419-11.06-73.509-31.984-104.365-2.324-3.428-6.988-4.325-10.416-1.998-3.429 2.324-4.323 6.988-1.998 10.416 19.232 28.363 29.398 61.541 29.398 95.947 0 94.391-76.793 171.184-171.184 171.184-94.392 0-171.185-76.793-171.185-171.184 0-94.392 76.793-171.185 171.185-171.185 47.107.001 91.008 18.742 123.616 52.771z"/><path d="m343.658 230.142c-1.471-4.524-5.091-7.963-9.684-9.198l-59.342-15.968-33.525-51.505c-2.595-3.986-6.984-6.366-11.74-6.366-4.757 0-9.146 2.38-11.741 6.366l-33.525 51.505-59.34 15.968c-4.594 1.235-8.214 4.674-9.684 9.197-1.47 4.524-.563 9.434 2.427 13.135l38.623 47.799-3.151 61.371c-.244 4.751 1.908 9.257 5.756 12.053 3.849 2.794 8.797 3.45 13.241 1.751l57.394-21.963 13.478 5.158c3.868 1.477 8.205-.456 9.686-4.324 1.48-3.869-.456-8.205-4.324-9.686l-13.832-5.293c-3.228-1.233-6.784-1.233-10.013 0l-56.327 21.554 3.093-60.231c.177-3.454-.923-6.836-3.095-9.522l-37.904-46.909 58.243-15.672c3.337-.901 6.213-2.991 8.096-5.885l32.9-50.546 32.9 50.545c1.884 2.895 4.759 4.985 8.101 5.887l58.238 15.671-37.903 46.909c-2.173 2.688-3.271 6.069-3.095 9.523l3.092 60.23-14.381-5.504c-3.869-1.479-8.204.457-9.686 4.324-1.48 3.869.456 8.205 4.324 9.686l15.805 6.048c4.433 1.696 9.385 1.051 13.241-1.752 3.849-2.796 5.999-7.302 5.755-12.052l-3.15-61.371 38.623-47.799c2.988-3.701 3.895-8.611 2.426-13.134z"/></g></g></svg>