<?xml version="1.0" encoding="iso-8859-1"?>
<!-- Generator: Adobe Illustrator 19.0.0, SVG Export Plug-In . SVG Version: 6.00 Build 0)  -->
<svg version="1.1" id="Capa_1" xmlns="http://www.w3.org/2000/svg" xmlns:xlink="http://www.w3.org/1999/xlink" x="0px" y="0px"
	 viewBox="0 0 480 480" style="enable-background:new 0 0 480 480;" xml:space="preserve">
<path style="fill:#A2DAE7;" d="M32,216h416v256H32V216z"/>
<path style="fill:#8DD3E7;" d="M32,216h416v32H32V216z"/>
<path style="fill:#A2DAE7;" d="M8,136h464v80H8V136z"/>
<g>
	<path style="fill:#FC5B68;" d="M208,136h64v336h-64V136z"/>
	<path style="fill:#FC5B68;" d="M208,136l-80,176l-24-32H64l72-144H208z"/>
</g>
<path style="fill:#F04855;" d="M232.8,46.344C222.604,23.043,199.578,7.991,174.144,8h-64c25.388,0.145,48.338,15.147,58.656,38.344
	L208,136h64L232.8,46.344z"/>
<g>
	<path style="fill:#FC5B68;" d="M104,72c0.005-24.074,13.533-46.105,35-57c-8.935-4.569-18.821-6.967-28.856-7H104
		C68.654,8,40,36.654,40,72s28.654,64,64,64h64C132.654,136,104,107.346,104,72z"/>
	<path style="fill:#FC5B68;" d="M247.2,46.344C257.396,23.043,280.422,7.991,305.856,8h64
		c-25.388,0.145-48.338,15.147-58.656,38.344L272,136h-64L247.2,46.344z"/>
	<path style="fill:#FC5B68;" d="M376,72c-0.005-24.074-13.533-46.105-35-57c8.935-4.569,18.821-6.967,28.856-7H376
		c35.346,0,64,28.654,64,64s-28.654,64-64,64h-64C347.346,136,376,107.346,376,72z"/>
	<path style="fill:#FC5B68;" d="M272,136l80,176l24-32h40l-72-144H272z"/>
</g>
<path style="fill:#F04855;" d="M208,136h64v40h-64V136z"/>
<path d="M472,128h-50.848c30.959-24.906,35.866-70.193,10.96-101.152C418.443,9.857,397.806-0.017,376,0h-70.144
	C277.334,0.01,251.507,16.855,240,42.952C228.493,16.855,202.666,0.01,174.144,0H104C64.266-0.031,32.031,32.155,32,71.888
	C31.983,93.694,41.857,114.331,58.848,128H8c-4.418,0-8,3.582-8,8v80c0,4.418,3.582,8,8,8h16v248c0,4.418,3.582,8,8,8h416
	c4.418,0,8-3.582,8-8V224h16c4.418,0,8-3.582,8-8v-80C480,131.582,476.418,128,472,128z M432,72c-0.035,30.913-25.087,55.965-56,56
	h-18.792c30.928-24.923,35.796-70.199,10.873-101.127c-2.82-3.5-5.962-6.727-9.385-9.641c1.032-0.216,2.072-0.408,3.12-0.568
	c0.648-0.096,1.288-0.224,1.936-0.304c2.026-0.232,4.064-0.352,6.104-0.36H376C406.913,16.035,431.965,41.087,432,72L432,72z
	 M403.056,272H376c-2.518,0-4.889,1.186-6.4,3.2l-15.904,21.2l-38.04-83.68L284.424,144h54.632l37.784,75.576L403.056,272z
	 M280,172.928L295.944,208H280V172.928z M341.056,24.344c26.395,15.975,34.842,50.323,18.866,76.718
	C349.777,117.824,331.593,128.046,312,128h-27.768l34.32-78.448C323.27,39.027,331.132,30.221,341.056,24.344z M305.856,16H324.8
	c-9.046,7.229-16.206,16.543-20.864,27.144L266.768,128h-46.536l34.32-78.448C263.47,29.17,283.608,16,305.856,16L305.856,16z
	 M126.304,296.4L110.4,275.2c-1.511-2.014-3.882-3.2-6.4-3.2H76.944l26.256-52.424L140.944,144h54.632l-31.2,68.688L126.304,296.4z
	 M200,172.928V208h-15.944L200,172.928z M174.144,16c22.248,0,42.386,13.17,51.304,33.552l5.816,13.304L208,116.04l-31.896-72.896
	C171.446,32.543,164.286,23.229,155.24,16L174.144,16z M161.448,49.552L195.768,128H168c-30.853,0.072-55.922-24.881-55.994-55.734
	c-0.046-19.593,10.176-37.777,26.938-47.922C148.868,30.221,156.73,39.027,161.448,49.552L161.448,49.552z M48,72
	c0.035-30.913,25.087-55.965,56-56h6.144c2.04,0.008,4.078,0.128,6.104,0.36c0.648,0.08,1.288,0.208,1.936,0.304
	c1.048,0.16,2.088,0.352,3.12,0.568c-30.247,25.745-33.897,71.136-8.153,101.383c2.913,3.423,6.141,6.565,9.641,9.385H104
	C73.087,127.965,48.035,102.913,48,72z M16,144h107.056l-32,64H16V144z M40,224h43.056L56.84,276.424
	c-1.975,3.952-0.372,8.757,3.58,10.732c1.112,0.555,2.337,0.844,3.58,0.844h36l21.6,28.8c1.511,2.014,3.882,3.2,6.4,3.2
	c0.289,0,0.577-0.016,0.864-0.048c2.802-0.311,5.233-2.074,6.4-4.64L176.8,224H200v240H40L40,224z M216,464V144h48v320H216z
	 M440,464H280V224h23.2l41.52,91.312c1.167,2.566,3.598,4.329,6.4,4.64c0.292,0.033,0.586,0.049,0.88,0.048
	c2.518,0,4.889-1.186,6.4-3.2L380,288h36c4.418,0.024,8.02-3.538,8.044-7.956c0.007-1.256-0.282-2.496-0.844-3.62L396.944,224H440
	V464z M464,208h-75.056l-32-64H464V208z"/>
<g>
</g>
<g>
</g>
<g>
</g>
<g>
</g>
<g>
</g>
<g>
</g>
<g>
</g>
<g>
</g>
<g>
</g>
<g>
</g>
<g>
</g>
<g>
</g>
<g>
</g>
<g>
</g>
<g>
</g>
</svg>
