<?xml version="1.0" encoding="iso-8859-1"?>
<!-- Generator: Adobe Illustrator 19.0.0, SVG Export Plug-In . SVG Version: 6.00 Build 0)  -->
<svg version="1.1" id="Capa_1" xmlns="http://www.w3.org/2000/svg" xmlns:xlink="http://www.w3.org/1999/xlink" x="0px" y="0px"
	 viewBox="0 0 512 512" style="enable-background:new 0 0 512 512;" xml:space="preserve">
<path style="fill:#FF3636;" d="M256,0C115.3,0,0,115.3,0,256s115.3,256,256,256s256-115.3,256-256S396.7,0,256,0z M61,256
	c0-107.401,87.599-195,195-195c40.499,0,79.501,12.599,112.8,36.299L256,210.099L97.301,368.8C73.599,335.499,61,296.499,61,256z
	 M256,451c-40.499,0-79.501-12.601-112.8-36.301l271.5-271.5c23.701,33.3,36.3,72.3,36.3,112.801C451,363.399,363.401,451,256,451z"
	/>
<path style="fill:#F40000;" d="M512,256c0,140.7-115.3,256-256,256v-61c107.401,0,195-87.601,195-195
	c0-40.501-12.599-79.501-36.301-112.8L256,301.899v-91.8l112.8-112.8C335.501,73.599,296.499,61,256,61V0C396.7,0,512,115.3,512,256
	z"/>
<g>
</g>
<g>
</g>
<g>
</g>
<g>
</g>
<g>
</g>
<g>
</g>
<g>
</g>
<g>
</g>
<g>
</g>
<g>
</g>
<g>
</g>
<g>
</g>
<g>
</g>
<g>
</g>
<g>
</g>
</svg>
