<svg viewBox="0 0 511 511.99978" xmlns="http://www.w3.org/2000/svg"><path d="m491.203125 230.09375c-12.605469-10.621094-31.40625-9.070312-42.089844 3.542969l-68.378906 70.28125h.070313c-3.699219-12.710938-15.441407-21.996094-29.339844-21.996094h-113.25c-14.695313-6.425781-30.941406-9.996094-48.015625-9.996094-47.308594 0-88.21875 22.933594-107.753907 66.390625l90.398438 89.9375.167969-.132812 15.566406-15.015625c7.449219-7.195313 17.40625-11.214844 27.761719-11.214844h133.238281c20.746094 0 40.675781-8.09375 55.546875-22.566406l89.621094-107.144531c10.640625-12.589844 9.058594-31.433594-3.542969-42.085938zm0 0" fill="#fed2a4"/><path d="m398.140625 109.96875c0 55.214844-44.757813 99.972656-99.972656 99.972656-55.214844 0-99.972657-44.757812-99.972657-99.972656 0-55.210938 44.757813-99.972656 99.972657-99.972656 55.214843 0 99.972656 44.761718 99.972656 99.972656zm0 0" fill="#ffe781"/><path d="m170.914062 454.304688-48.417968 47.699218-112.25-113.109375 47.558594-47.699219c7.804687-7.804687 20.472656-7.808593 28.28125 0l84.828124 84.828126c7.855469 7.855468 7.761719 20.519531 0 28.28125zm0 0" fill="#e87288"/><path d="m235.792969 347.265625c3.902343-3.910156 3.902343-10.238281 0-14.148437-3.90625-3.898438-10.234375-3.898438-14.144531 0-3.898438 3.910156-3.898438 10.238281 0 14.148437 3.910156 3.898437 10.238281 3.898437 14.144531 0zm0 0"/><path d="m188.449219 109.96875c0 60.636719 49.332031 109.972656 109.96875 109.972656s109.96875-49.335937 109.96875-109.972656-49.332031-109.96875-109.96875-109.96875-109.96875 49.332031-109.96875 109.96875zm199.945312 0c0 49.613281-40.363281 89.976562-89.976562 89.976562s-89.976563-40.363281-89.976563-89.976562c0-49.609375 40.363282-89.972656 89.976563-89.972656s89.976562 40.363281 89.976562 89.972656zm0 0"/><path d="m115.652344 509.042969c3.875 3.90625 10.183594 3.949219 14.109375.082031l48.46875-47.75c8.234375-8.234375 10.738281-20.425781 7.117187-31.023438l10.425782-10.054687c5.613281-5.421875 13.003906-8.410156 20.816406-8.410156h132.902344c23.578124 0 45.863281-9.054688 62.757812-25.496094.695312-.675781-5.277344 6.359375 90.667969-108.3125 14.230469-16.835937 12.101562-42.117187-4.75-56.363281-16.746094-14.113282-41.832031-12.085938-56.101563 4.460937l-58.992187 60.632813c-7.449219-9.167969-18.808594-14.882813-31.082031-14.882813h-111.480469c-15.863281-6.636719-32.695313-9.996093-50.0625-9.996093-48.140625 0-90.175781 22.234374-112.734375 63.921874-9.503906-1.800781-19.527344 1.074219-26.738282 8.285157l-47.558593 47.699219c-3.882813 3.894531-3.890625 10.195312-.015625 14.101562zm74.792968-227.121094c15.3125 0 30.117188 3.082031 44.011719 9.160156 1.265625.554688 2.628907.839844 4.007813.839844h113.527344c10.839843 0 19.996093 8.839844 19.996093 19.992187 0 11.027344-8.96875 19.996094-19.996093 19.996094h-81.566407c-5.519531 0-9.996093 4.476563-9.996093 9.996094 0 5.523438 4.476562 9.996094 9.996093 9.996094h81.566407c22.050781 0 39.988281-17.9375 39.988281-39.988282 0-1.757812-.125-3.5-.351563-5.226562 57.066406-58.660156 65.113282-66.902344 65.457032-67.3125 7.125-8.410156 19.773437-9.476562 28.1875-2.382812 8.421874 7.121093 9.488281 19.761718 2.34375 28.21875l-89.667969 107.195312c-13.09375 12.570312-30.285157 19.488281-48.457031 19.488281h-132.902344c-13.023438 0-25.351563 4.980469-34.703125 14.015625l-8.496094 8.199219-78.320313-78.316406c18.304688-34.339844 52.652344-53.871094 95.375-53.871094zm-125.320312 66.34375c3.296875-3.296875 8.359375-3.890625 12.378906-1.40625 1.730469 1.054687-3.238281-3.46875 86.589844 86.234375 3.996094 3.996094 3.78125 10.363281.054688 14.089844l-41.320313 40.707031-98.230469-98.980469zm0 0"/><path d="m286.171875 50.296875v11.40625c-11.636719 4.125-19.996094 15.238281-19.996094 28.273437 0 16.476563 13.355469 29.894532 29.8125 29.988282 5.085938.03125 9.542969 3.789062 10.113281 8.84375.679688 6.027344-4.039062 11.152344-9.933593 11.152344-4.21875 0-8.769531-2.621094-12.832031-7.382813-3.183594-3.738281-8.648438-4.890625-12.863282-2.375-5.449218 3.253906-6.496094 10.414063-2.589844 15.0625 5.34375 6.355469 11.628907 10.785156 18.289063 13.019531v11.355469c0 5.007813 3.554687 9.488281 8.511719 10.203125 6.179687.886719 11.480468-3.882812 11.480468-9.890625v-11.71875c11.636719-4.125 19.996094-15.238281 19.996094-28.273437 0-16.476563-13.355468-29.890626-29.8125-29.988282-5.085937-.03125-9.542968-3.789062-10.113281-8.84375-.679687-6.027344 4.039063-11.152344 9.933594-11.152344 3.460937 0 7.113281 1.726563 10.574219 5 3.589843 3.386719 9.121093 4.0625 13.085937 1.121094 5.109375-3.785156 5.429687-11.035156 1.058594-15.265625-5.074219-4.910156-10.152344-7.6875-14.722657-9.203125v-11.640625c0-6.011719-5.300781-10.78125-11.480468-9.890625-4.957032.710938-8.511719 5.191406-8.511719 10.199219zm0 0"/></svg>