<svg height="512" viewBox="0 0 64 64" width="512" xmlns="http://www.w3.org/2000/svg"><g id="Ecommerce-transfer_money-buy-smartphone-hands" data-name="Ecommerce-transfer money-buy-smartphone-hands"><rect fill="#46f8ff" height="46" rx="2" width="28" x="9" y="3"/><path d="m37 29v-17a3 3 0 0 1 6 0v20a3 3 0 0 1 6 0v1a2.993 2.993 0 0 1 .88-2.12 2.838 2.838 0 0 1 1.12-.7 2.772 2.772 0 0 1 1-.18 3 3 0 0 1 3 3v1a3 3 0 0 1 6 0v3.96a6.045 6.045 0 0 1 -.35 2.02l-4.65 13.02h-20l-1.43-4-3.22-9.02a6.045 6.045 0 0 1 -.35-2.02v-8.97a2.992 2.992 0 0 1 2.99-2.99 3.034 3.034 0 0 1 2.13.88 2.993 2.993 0 0 1 .88 2.12z" fill="#ffc477"/><path d="m61 34v3.96a6.045 6.045 0 0 1 -.35 2.02l-4.65 13.02h-3l4.65-13.02a6.045 6.045 0 0 0 .35-2.02v-3.96a2.993 2.993 0 0 0 -.88-2.12 3.3 3.3 0 0 0 -.62-.48 3.026 3.026 0 0 1 1.5-.4 3 3 0 0 1 3 3z" fill="#ffa733"/><path d="m51 53h5v8h-5z" fill="#57a4ff"/><path d="m46 53h5v8h-5z" fill="#2488ff"/><path d="m41 53h5v8h-5z" fill="#57a4ff"/><path d="m36 53h5v8h-5z" fill="#2488ff"/><path d="m31.2 49-4.2 6h-22l-2-21v-4a4 4 0 0 1 4-4h7a4 4 0 1 1 0 8h-5v13a2.006 2.006 0 0 0 2 2z" fill="#ffc477"/><circle cx="23" cy="16" fill="#ffcd00" r="9"/><path d="m32 16a9 9 0 0 1 -9 9 9.356 9.356 0 0 1 -2-.22 9.006 9.006 0 0 0 0-17.56 9.356 9.356 0 0 1 2-.22 9 9 0 0 1 9 9z" fill="#ddb200"/><path d="m5 55h22v6h-22z" fill="#2488ff"/><path d="m43 12v20h-3v-20a3 3 0 0 0 -1.5-2.6 3 3 0 0 1 4.5 2.6z" fill="#ffa733"/><path d="m56.293 14.293 1.414 1.414 4-4a1 1 0 0 0 0-1.414l-4-4-1.414 1.414 2.293 2.293h-11.586v2h11.586z"/><path d="m50.293 23.707 1.414-1.414-2.293-2.293h11.586v-2h-11.586l2.293-2.293-1.414-1.414-4 4a1 1 0 0 0 0 1.414z"/><path d="m60.83 31.17a3.979 3.979 0 0 0 -5.41-.21 3.966 3.966 0 0 0 -3.42-1.96 3.56 3.56 0 0 0 -1.31.23 3.839 3.839 0 0 0 -1.26.74 4 4 0 0 0 -3.43-1.97 3.953 3.953 0 0 0 -2 .55v-16.55a4 4 0 0 0 -4-4 3.953 3.953 0 0 0 -2 .55v-3.55a3.009 3.009 0 0 0 -3-3h-24a3.009 3.009 0 0 0 -3 3v20h-1a5 5 0 0 0 -5 5v4.09l2 20.96v5.95a1 1 0 0 0 1 1h22a1 1 0 0 0 1-1v-5.68l3.72-5.32h2.15l1.13 3.17v7.83a1 1 0 0 0 1 1h20a1 1 0 0 0 1-1v-7.83l4.59-12.86a7 7 0 0 0 .41-2.35v-3.96a4 4 0 0 0 -1.17-2.83zm-34.83 28.83h-20v-4h20zm.48-6h-20.57l-1.91-20v-4a3.009 3.009 0 0 1 3-3h7a3 3 0 1 1 0 6h-5a1 1 0 0 0 -1 1v13a3.009 3.009 0 0 0 3 3h18.28zm-15.48-6a1 1 0 0 1 -1-1v-3h18v-2h-18v-7h4a5 5 0 0 0 0-10h-4v-20a1 1 0 0 1 1-1h24a1 1 0 0 1 1 1v20.56a3.927 3.927 0 0 0 -2.01-.56 4 4 0 0 0 -3.99 3.99v8.97a7.1 7.1 0 0 0 .41 2.36l2.74 7.68zm29 12h-3v-6h3zm5 0h-3v-6h3zm5 0h-3v-6h3zm5 0h-3v-6h3zm5-22.04a5.073 5.073 0 0 1 -.29 1.68l-4.41 12.36h-18.6l-4.41-12.35a5.176 5.176 0 0 1 -.29-1.69v-8.97a2 2 0 0 1 4 .01v8h2v-25a2.015 2.015 0 0 1 2-2 2.006 2.006 0 0 1 2 2v25h2v-5a2.015 2.015 0 0 1 2-2 2.006 2.006 0 0 1 2 2v5h2v-4a1.983 1.983 0 0 1 .59-1.41 1.8 1.8 0 0 1 .77-.48 1.868 1.868 0 0 1 .64-.11 2.006 2.006 0 0 1 2 2v5h2v-4a2.006 2.006 0 0 1 2-2 2.015 2.015 0 0 1 2 2z"/><path d="m23 6a10 10 0 1 0 10 10 10.016 10.016 0 0 0 -10-10zm0 18a8 8 0 1 1 8-8 8.011 8.011 0 0 1 -8 8z"/><path d="m26 18a3.01 3.01 0 0 1 -2 2.82v1.18h-2v-1.18a3.01 3.01 0 0 1 -2-2.82h2a1 1 0 1 0 1-1 3 3 0 0 1 -1-5.82v-1.18h2v1.18a3.01 3.01 0 0 1 2 2.82h-2a1 1 0 1 0 -1 1 3.009 3.009 0 0 1 3 3z"/></g></svg>