<svg id="Capa_1" enable-background="new 0 0 512 512" height="512" viewBox="0 0 512 512" width="512" xmlns="http://www.w3.org/2000/svg"><g><g><path d="m419.019 96.559h-326.039c-3.263 0-6.327 1.574-8.226 4.228l-82.864 115.781c-2.816 3.934-2.451 9.311.869 12.83l245.883 260.572c3.992 4.231 10.722 4.231 14.714 0l245.884-260.572c3.32-3.519 3.684-8.896.869-12.83l-82.864-115.781c-1.899-2.654-4.962-4.228-8.226-4.228z" fill="#79ff79"/><path d="m511.962 223.344h-178.973c51.852-10.197 94.833-45.115 116.146-91.98l60.976 85.203c1.446 2.023 2.053 4.43 1.851 6.777z" fill="#29e088"/><path d="m511.962 223.34c-.182 2.053-.991 4.046-2.387 5.695-.111.122-.223.243-.334.364l-245.887 260.575c-.02.02-.051.051-.071.071-1.123 1.173-2.458 2.013-3.895 2.519-.728.253-1.487.425-2.256.506-.749.101-1.517.101-2.266 0-.769-.081-1.527-.253-2.256-.506-1.436-.506-2.772-1.345-3.895-2.519-.02-.02-.051-.051-.071-.071l-245.886-260.575c-.111-.121-.223-.243-.334-.364-1.396-1.649-2.205-3.641-2.387-5.695z" fill="#0cc166"/><path d="m511.962 223.344c-.182 2.053-.991 4.046-2.387 5.695-.111.121-.223.243-.334.364l-245.887 260.575-.071.071c-1.123 1.174-2.458 2.013-3.895 2.519-.728.253-1.487.425-2.256.506-.749.101-1.517.101-2.266 0-.769-.081-1.527-.253-2.256-.506-1.436-.506-2.772-1.345-3.895-2.519l-.071-.071-63.202-66.985c101.721-17.378 181.927-97.817 198.982-199.65h127.538z" fill="#04a550"/><path d="m434.487 223.34-175.099 269.223c-.728.253-1.487.425-2.256.506-.749.101-1.517.101-2.266 0-.769-.081-1.527-.253-2.256-.506l-175.098-269.223 62.544-126.778h231.888z" fill="#c2ffc2"/><path d="m434.487 223.34-175.099 269.223c-.728.253-1.487.425-2.256.506-.749.101-1.517.101-2.266 0-.769-.081-1.527-.253-2.256-.506l-175.098-269.223z" fill="#29e088"/><path d="m434.487 223.344-175.099 269.224c-.728.253-1.487.425-2.256.506-.749.101-1.517.101-2.266 0-.769-.081-1.527-.253-2.256-.506l-47.917-73.671c92.476-23.66 163.77-100.235 179.732-195.553z" fill="#0cc166"/><path d="m322.327 223.34-65.194 269.73c-.749.101-1.517.101-2.266 0l-65.194-269.73 23.245-126.778h86.164z" fill="#79ff79"/><path d="m322.327 223.34-65.194 269.73c-.749.101-1.517.101-2.266 0l-65.194-269.73z" fill="#0cc166"/></g><path d="m243.698 130.104h-128.481c-9.263 0-16.773-7.509-16.773-16.773 0-9.263 7.509-16.773 16.773-16.773h128.481c9.263 0 16.773 7.509 16.773 16.773-.001 9.263-7.51 16.773-16.773 16.773z" fill="#c2ffc2"/><path d="m212.918 96.566-6.151 33.533h-83.25l16.539-33.533z" fill="#efe"/><path d="m283.878 382.431-26.745 110.643c-.749.101-1.517.101-2.266 0l-20.292-83.938c17.53-7.011 34.059-16.003 49.303-26.705z" fill="#04a550"/><path d="m434.487 223.344h-101.458c30.984-6.11 58.791-21.04 80.701-42.07z" fill="#79ff79"/><g><g><g><g><g><g><path d="m469.252 135.451c3.604-2.374 3.604-7.646 0-10.02-9.301-6.127-18.13-13.256-26.328-21.392s-15.382-16.898-21.556-26.128c-2.392-3.576-7.704-3.576-10.096 0-6.174 9.23-13.357 17.992-21.556 26.128s-17.027 15.265-26.328 21.392c-3.604 2.374-3.604 7.646 0 10.02 9.301 6.127 18.13 13.256 26.328 21.392s15.382 16.898 21.556 26.128c2.392 3.576 7.704 3.576 10.096 0 6.174-9.23 13.357-17.992 21.556-26.128s17.027-15.265 26.328-21.392z" fill="#29e088"/></g></g><g><g><path d="m469.254 135.447c-9.3 6.128-18.127 13.254-26.329 21.393-8.202 8.14-15.383 16.9-21.557 26.129-2.394 3.571-7.699 3.571-10.093 0-6.174-9.229-13.355-17.989-21.557-26.129-1.067-1.059-2.15-2.103-3.247-3.132 1.448.121 2.912.181 4.391.181 28.143 0 51.088-22.18 52.033-49.882.015.015.015.015.031.03 8.202 8.14 17.029 15.266 26.329 21.393 3.597 2.376 3.597 7.641-.001 10.017z" fill="#0cc166"/></g></g></g></g></g><g><g><g><g><g><path d="m476.703 50.636c1.902-1.253 1.902-4.035 0-5.288-4.909-3.234-9.569-6.996-13.896-11.291s-8.119-8.919-11.377-13.79c-1.263-1.887-4.066-1.887-5.329 0-3.259 4.872-7.05 9.496-11.377 13.79s-8.987 8.057-13.896 11.291c-1.902 1.253-1.902 4.035 0 5.288 4.909 3.234 9.569 6.996 13.896 11.291s8.119 8.919 11.377 13.79c1.263 1.887 4.066 1.887 5.329 0 3.259-4.872 7.05-9.496 11.377-13.79s8.987-8.058 13.896-11.291z" fill="#79ff79"/></g></g><g><g><path d="m476.704 50.633c-4.908 3.234-9.567 6.995-13.897 11.291-4.329 4.296-8.119 8.92-11.378 13.791-1.263 1.885-4.064 1.885-5.327 0-3.259-4.871-7.049-9.495-11.378-13.791-.563-.559-1.135-1.11-1.714-1.653.764.064 1.537.096 2.317.096 14.854 0 26.964-11.707 27.463-26.328.008.008.008.008.016.016 4.329 4.296 8.988 8.057 13.897 11.291 1.9 1.255 1.9 4.034.001 5.287z" fill="#29e088"/></g></g></g></g></g></g></g></svg>