<?xml version="1.0" encoding="iso-8859-1"?>
<!-- Generator: Adobe Illustrator 19.0.0, SVG Export Plug-In . SVG Version: 6.00 Build 0)  -->
<svg version="1.1" id="Capa_1" xmlns="http://www.w3.org/2000/svg" xmlns:xlink="http://www.w3.org/1999/xlink" x="0px" y="0px"
	 viewBox="0 0 384 384" style="enable-background:new 0 0 384 384;" xml:space="preserve">
<circle style="fill:#4DD0E1;" cx="192" cy="192" r="176"/>
<g>
	<path style="fill:#012E52;" d="M192,384c105.872,0,192-86.128,192-192c0-8.832-7.168-16-16-16s-16,7.168-16,16
		c0,88.224-71.776,160-160,160S32,280.224,32,192S103.776,32,192,32c42.952,0,83.264,16.792,113.52,47.272
		c6.224,6.272,16.352,6.312,22.632,0.088c6.272-6.224,6.312-16.352,0.08-22.624C291.928,20.152,243.544,0,192,0
		C86.128,0,0,86.128,0,192S86.128,384,192,384z"/>
	<path style="fill:#012E52;" d="M192,272c8.832,0,16-7.168,16-16v-48h48c8.832,0,16-7.168,16-16s-7.168-16-16-16h-48v-48
		c0-8.832-7.168-16-16-16s-16,7.168-16,16v48h-48c-8.832,0-16,7.168-16,16s7.168,16,16,16h48v48C176,264.832,183.168,272,192,272z"
		/>
</g>
<g>
</g>
<g>
</g>
<g>
</g>
<g>
</g>
<g>
</g>
<g>
</g>
<g>
</g>
<g>
</g>
<g>
</g>
<g>
</g>
<g>
</g>
<g>
</g>
<g>
</g>
<g>
</g>
<g>
</g>
</svg>
