<svg id="Filled_cutting_cutting_Ex" height="512" viewBox="0 0 512 512" width="512" xmlns="http://www.w3.org/2000/svg" data-name="Filled cutting cutting Ex"><g><path d="m90 448h-2v-24a24 24 0 0 0 -24-24h-16a24 24 0 0 0 -24 24v64h96v-10a30 30 0 0 0 -30-30z" fill="#79d8eb"/><path d="m422 448h2v-24a24 24 0 0 1 24-24h16a24 24 0 0 1 24 24v64h-96v-10a30 30 0 0 1 30-30z" fill="#79d8eb"/><path d="m120 256h272v232h-272z" fill="#fac850" transform="matrix(-1 0 0 -1 512 744)"/><path d="m120 456h72v32h-72z" fill="#fa5d3f"/><path d="m320 456h72v32h-72z" fill="#fa5d3f"/><g><path d="m192 208h128v280h-128z" fill="#fa5d3f"/><path d="m232 424h48v64h-48z" fill="#fac850"/></g><path d="m256.004 24 22.419 45.427 50.132 7.284-36.276 35.36 8.564 49.929-44.839-23.573-44.839 23.573 8.563-49.929-36.275-35.36 50.131-7.284z" fill="#fac850"/><path d="m300.842 170a8 8 0 0 1 -3.722-.919l-41.12-21.616-41.116 21.616a8 8 0 0 1 -11.608-8.434l7.853-45.783-33.26-32.424a8 8 0 0 1 4.431-13.646l45.969-6.679 20.561-41.656a8 8 0 0 1 14.348 0l20.558 41.656 45.969 6.679a8 8 0 0 1 4.434 13.646l-33.264 32.424 7.853 45.783a8 8 0 0 1 -7.886 9.353zm-44.842-39.573a7.991 7.991 0 0 1 3.723.919l30.491 16.03-5.814-33.952a8 8 0 0 1 2.3-7.081l24.663-24.043-34.09-4.953a8 8 0 0 1 -6.023-4.377l-15.25-30.893-15.246 30.89a8 8 0 0 1 -6.023 4.377l-34.086 4.956 24.667 24.046a8 8 0 0 1 2.3 7.081l-5.823 33.952 30.491-16.03a7.991 7.991 0 0 1 3.72-.922z"/><g fill="#fac850"><path d="m386.327 112 15.551 31.511 34.775 5.053-25.163 24.528 5.94 34.635-31.103-16.352-31.104 16.352 5.94-34.635-25.163-24.528 34.775-5.053z"/><path d="m453.486 216 10.666 21.61 23.848 3.466-17.257 16.821 4.074 23.752-21.331-11.214-21.33 11.214 4.074-23.752-17.257-16.821 23.848-3.466z"/><path d="m125.673 112-15.551 31.511-34.775 5.053 25.163 24.528-5.94 34.635 31.103-16.352 31.104 16.352-5.94-34.635 25.163-24.528-34.775-5.053z"/><path d="m58.514 216-10.666 21.61-23.848 3.466 17.257 16.821-4.074 23.752 21.331-11.214 21.33 11.214-4.074-23.752 17.257-16.821-23.848-3.466z"/><path d="m224 184h64v48h-64z"/></g><g><path d="m216 320h16v16h-16z"/><path d="m248 320h16v16h-16z"/><path d="m280 320h16v16h-16z"/><path d="m216 352h16v16h-16z"/><path d="m248 352h16v16h-16z"/><path d="m280 352h16v16h-16z"/><path d="m216 384h16v16h-16z"/><path d="m248 384h16v16h-16z"/><path d="m280 384h16v16h-16z"/><path d="m216 256h16v16h-16z"/><path d="m248 256h16v16h-16z"/><path d="m280 256h16v16h-16z"/><path d="m216 288h16v16h-16z"/><path d="m248 288h16v16h-16z"/><path d="m280 288h16v16h-16z"/><path d="m330.416 154.293 22.151 21.592-5.229 30.489a8 8 0 0 0 11.608 8.434l27.381-14.395 27.381 14.395a8 8 0 0 0 11.607-8.434l-5.23-30.489 22.152-21.592a8 8 0 0 0 -4.434-13.646l-30.612-4.447-13.691-27.741a8 8 0 0 0 -14.347 0l-13.691 27.741-30.612 4.448a8 8 0 0 0 -4.434 13.646zm41.509-2.865a8 8 0 0 0 6.024-4.376l8.378-16.976 8.378 16.976a8 8 0 0 0 6.023 4.376l18.733 2.722-13.555 13.214a8 8 0 0 0 -2.3 7.081l3.2 18.658-16.756-8.81a8 8 0 0 0 -7.445 0l-16.756 8.81 3.2-18.658a8 8 0 0 0 -2.3-7.081l-13.557-13.214z"/><path d="m417.822 233.159a8 8 0 0 0 -4.433 13.645l14.245 13.886-3.363 19.61a8 8 0 0 0 11.607 8.434l17.608-9.257 17.608 9.257a8 8 0 0 0 11.606-8.434l-3.363-19.606 14.247-13.894a8 8 0 0 0 -4.434-13.645l-19.686-2.855-8.8-17.839a8 8 0 0 0 -14.348 0l-8.8 17.839zm32.178 7.992 3.491-7.074 3.492 7.074a8 8 0 0 0 6.017 4.376l7.807 1.135-5.649 5.506a8 8 0 0 0 -2.3 7.082l1.334 7.775-6.983-3.671a8 8 0 0 0 -7.445 0l-6.983 3.671 1.333-7.775a8 8 0 0 0 -2.3-7.082l-5.648-5.506 7.807-1.135a8 8 0 0 0 6.027-4.376z"/><path d="m69.763 154.293 22.152 21.592-5.23 30.489a8 8 0 0 0 11.607 8.434l27.381-14.395 27.381 14.395a8 8 0 0 0 11.608-8.434l-5.229-30.489 22.151-21.592a8 8 0 0 0 -4.434-13.646l-30.612-4.447-13.691-27.74a8 8 0 0 0 -14.347 0l-13.691 27.74-30.609 4.447a8 8 0 0 0 -4.434 13.646zm41.509-2.865a8 8 0 0 0 6.023-4.376l8.378-16.976 8.378 16.976a8 8 0 0 0 6.024 4.376l18.733 2.722-13.555 13.214a8 8 0 0 0 -2.3 7.081l3.2 18.658-16.756-8.81a8.006 8.006 0 0 0 -7.445 0l-16.752 8.807 3.2-18.658a8 8 0 0 0 -2.3-7.081l-13.561-13.211z"/><path d="m18.416 246.8 14.245 13.89-3.361 19.61a8 8 0 0 0 11.608 8.434l17.608-9.257 17.608 9.257a8 8 0 0 0 11.605-8.434l-3.363-19.61 14.245-13.89a8 8 0 0 0 -4.433-13.645l-19.687-2.855-8.8-17.839a8 8 0 0 0 -14.348 0l-8.8 17.839-19.693 2.859a8 8 0 0 0 -4.434 13.641zm30.584-1.273a8 8 0 0 0 6.023-4.376l3.492-7.074 3.491 7.074a8 8 0 0 0 6.023 4.376l7.807 1.135-5.648 5.506a8 8 0 0 0 -2.3 7.082l1.333 7.775-6.983-3.671a8 8 0 0 0 -7.445 0l-6.983 3.671 1.334-7.775a8 8 0 0 0 -2.3-7.082l-5.649-5.506z"/><path d="m144 288h24v16h-24z"/><path d="m144 328h24v16h-24z"/><path d="m144 368h24v16h-24z"/><path d="m144 408h24v16h-24z"/><path d="m464 392h-16a32.036 32.036 0 0 0 -32 32v16.474a37.8 37.8 0 0 0 -16 6.558v-39.032h-16v40h-56v-184h56v128h16v-136a8 8 0 0 0 -8-8h-64v-40a8 8 0 0 0 -8-8h-24v-16a8 8 0 0 0 -8-8h-64a8 8 0 0 0 -8 8v16h-24a8 8 0 0 0 -8 8v40h-64a8 8 0 0 0 -8 8v48h16v-40h56v184h-56v-128h-16v127.032a37.8 37.8 0 0 0 -16-6.558v-16.474a32.036 32.036 0 0 0 -32-32h-16a32.036 32.036 0 0 0 -32 32v64a8 8 0 0 0 8 8h464a8 8 0 0 0 8-8v-64a32.036 32.036 0 0 0 -32-32zm-232-200h48v32h-48zm-200 232a16.019 16.019 0 0 1 16-16h16a16.019 16.019 0 0 1 16 16v16.474a38.061 38.061 0 0 0 -32 37.526v2h-16zm32 56v-2a22.025 22.025 0 0 1 22-22h4a22.025 22.025 0 0 1 22 22v2zm64-16h56v16h-56zm72-248h16v16a8 8 0 0 0 8 8h64a8 8 0 0 0 8-8v-16h16v264h-24v-56a8 8 0 0 0 -8-8h-48a8 8 0 0 0 -8 8v56h-24zm40 264v-48h32v48zm88-16h56v16h-56zm72 16v-2a22.025 22.025 0 0 1 22-22h4a22.025 22.025 0 0 1 22 22v2zm80 0h-16v-2a38.061 38.061 0 0 0 -32-37.526v-16.474a16.019 16.019 0 0 1 16-16h16a16.019 16.019 0 0 1 16 16z"/><path d="m344 368h24v16h-24z"/><path d="m344 408h24v16h-24z"/><path d="m344 288h24v16h-24z"/><path d="m344 328h24v16h-24z"/></g></g></svg>