<svg height="512" viewBox="0 0 128 128" width="512" xmlns="http://www.w3.org/2000/svg"><g><g><path d="m26.229 70.874h12v55.373h-12z" fill="#54528e"/><path d="m93.573 90.311h3.227a4.919 4.919 0 0 0 4.872-4.253l.051-.373a4.917 4.917 0 0 0 -4.87-5.585h-15l3.127-20.436a7 7 0 0 0 -3.137-6.948l-4.988-3.2-4.318 11.202a31.191 31.191 0 0 1 -23.059 19.382h-11.249v36.915h9.476a8.373 8.373 0 0 1 6.839 3.542 8.371 8.371 0 0 0 6.838 3.543h30.808a4.917 4.917 0 0 0 4.872-4.252 4.918 4.918 0 0 0 -4.872-5.583h1.342a4.916 4.916 0 0 0 4.872-4.252l.293-2.144a4.918 4.918 0 0 0 -4.872-5.583h1.342a4.917 4.917 0 0 0 4.872-4.252l.293-2.144a4.917 4.917 0 0 0 -4.872-5.582z" fill="#fed9b6"/><g fill="#fff06d"><path d="m64 1.747 6.468 13.107 14.464 2.101-10.466 10.202 2.471 14.406-12.937-6.802-12.937 6.802 2.471-14.406-10.466-10.202 14.464-2.101z"/><path d="m109.403 18.601 5.206 10.549 11.641 1.691-8.424 8.211 1.989 11.594-10.412-5.474-10.413 5.474 1.989-11.594-8.424-8.211 11.642-1.691z"/><path d="m18.597 18.601-5.206 10.549-11.641 1.691 8.424 8.211-1.989 11.594 10.412-5.474 10.412 5.474-1.988-11.594 8.424-8.211-11.642-1.691z"/></g></g><g><path d="m62.542 71.9a29.615 29.615 0 0 1 -3.033 2.268 1.75 1.75 0 0 0 1.912 2.932 33.15 33.15 0 0 0 3.392-2.537 1.75 1.75 0 0 0 -2.271-2.663z"/><path d="m96.852 78.353h-12.959l2.817-18.424a8.759 8.759 0 0 0 -3.922-8.686l-4.988-3.203a1.75 1.75 0 0 0 -2.578.843l-4.322 11.206c-.3.79-.649 1.581-1.025 2.352a1.75 1.75 0 1 0 3.144 1.536c.421-.862.807-1.747 1.147-2.63l3.547-9.2 3.18 2.043a5.256 5.256 0 0 1 2.358 5.21l-3.126 20.438a1.748 1.748 0 0 0 1.729 2.015h15a3.166 3.166 0 0 1 3.138 3.6l-.05.372a3.179 3.179 0 0 1 -3.142 2.735h-3.227a1.75 1.75 0 1 0 0 3.5h1.887a3.168 3.168 0 0 1 3.138 3.6l-.292 2.14a3.182 3.182 0 0 1 -3.139 2.74h-2.595a1.75 1.75 0 0 0 0 3.5h1.253a3.166 3.166 0 0 1 3.138 3.595l-.292 2.144a3.182 3.182 0 0 1 -3.139 2.74h-1.961a1.75 1.75 0 0 0 0 3.5h.619a3.167 3.167 0 0 1 0 6.333h-30.807a6.631 6.631 0 0 1 -5.409-2.8 10.141 10.141 0 0 0 -8.269-4.283h-7.726v-33.416h9.5a1.75 1.75 0 0 0 0-3.5h-9.5v-7.479a1.75 1.75 0 0 0 -1.75-1.75h-12a1.751 1.751 0 0 0 -1.75 1.75v55.373a1.751 1.751 0 0 0 1.75 1.75h12a1.75 1.75 0 0 0 1.75-1.75v-7.479h7.726a6.63 6.63 0 0 1 5.409 2.8 10.137 10.137 0 0 0 8.269 4.282h30.807a6.667 6.667 0 0 0 5.078-10.987 6.68 6.68 0 0 0 2.871-4.612l.293-2.145a6.669 6.669 0 0 0 -1.53-5.222 6.673 6.673 0 0 0 2.871-4.612l.293-2.145a6.665 6.665 0 0 0 -1.529-5.222 6.678 6.678 0 0 0 2.871-4.613l.051-.372a6.667 6.667 0 0 0 -6.607-7.569zm-60.373 46.147h-8.5v-51.876h8.5z"/><path d="m51.654 27.768-2.315 13.5a1.749 1.749 0 0 0 2.539 1.844l12.122-6.374 12.122 6.373a1.749 1.749 0 0 0 2.539-1.844l-2.315-13.5 9.808-9.56a1.75 1.75 0 0 0 -.969-2.985l-13.554-1.968-6.062-12.281a1.749 1.749 0 0 0 -3.138 0l-6.062 12.281-13.554 1.969a1.75 1.75 0 0 0 -.969 2.985zm6.129-11.183a1.751 1.751 0 0 0 1.318-.957l4.899-9.928 4.9 9.927a1.75 1.75 0 0 0 1.318.957l10.955 1.592-7.929 7.724a1.752 1.752 0 0 0 -.5 1.549l1.871 10.91-9.8-5.151a1.751 1.751 0 0 0 -1.629 0l-9.8 5.151 1.871-10.91a1.752 1.752 0 0 0 -.5-1.549l-7.928-7.727z"/><path d="m127.914 30.3a1.749 1.749 0 0 0 -1.412-1.191l-10.732-1.559-4.8-9.723a1.75 1.75 0 1 0 -3.139 1.549l5.206 10.548a1.751 1.751 0 0 0 1.317.958l8.133 1.182-5.887 5.736a1.748 1.748 0 0 0 -.5 1.549l1.388 8.1-7.273-3.824a1.751 1.751 0 0 0 -1.629 0l-7.274 3.824 1.39-8.1a1.749 1.749 0 0 0 -.5-1.549l-5.885-5.735 8.132-1.182a1.75 1.75 0 1 0 -.5-3.464l-11.649 1.69a1.751 1.751 0 0 0 -.97 2.986l7.77 7.568-1.834 10.688a1.75 1.75 0 0 0 2.539 1.849l9.6-5.046 9.595 5.046a1.749 1.749 0 0 0 2.539-1.844l-1.833-10.688 7.766-7.568a1.753 1.753 0 0 0 .442-1.8z"/><path d="m29.01 52.4a1.749 1.749 0 0 0 1.724-2.045l-1.834-10.692 7.766-7.563a1.751 1.751 0 0 0 -.97-2.986l-10.73-1.564-4.8-9.723a1.75 1.75 0 0 0 -3.139 0l-4.8 9.723-10.727 1.559a1.751 1.751 0 0 0 -.972 2.991l7.766 7.568-1.833 10.683a1.749 1.749 0 0 0 2.539 1.849l9.6-5.046 9.6 5.046a1.745 1.745 0 0 0 .81.2zm-9.6-8.773a1.751 1.751 0 0 0 -1.629 0l-7.271 3.82 1.388-8.1a1.746 1.746 0 0 0 -.5-1.549l-5.887-5.734 8.133-1.182a1.751 1.751 0 0 0 1.317-.958l3.639-7.369 3.636 7.369a1.751 1.751 0 0 0 1.318.958l8.132 1.182-5.886 5.736a1.749 1.749 0 0 0 -.5 1.549l1.389 8.1z"/></g></g></svg>