<svg height="512" viewBox="0 0 128 128" width="512" xmlns="http://www.w3.org/2000/svg" xmlns:xlink="http://www.w3.org/1999/xlink"><linearGradient id="a" gradientUnits="userSpaceOnUse" x1="109.245" x2="13.906" y1="111.549" y2="16.21"><stop offset="0" stop-color="#f37"/><stop offset="1" stop-color="#ffbf2d"/></linearGradient><path d="m65.009 72.1a1.749 1.749 0 0 1 -.2 2.467 33.15 33.15 0 0 1 -3.388 2.533 1.75 1.75 0 1 1 -1.912-2.932 29.615 29.615 0 0 0 3.033-2.268 1.75 1.75 0 0 1 2.467.2zm36.867 8.541a6.666 6.666 0 0 1 1.583 5.286l-.051.372a6.678 6.678 0 0 1 -2.871 4.613 6.665 6.665 0 0 1 1.529 5.222l-.293 2.145a6.673 6.673 0 0 1 -2.871 4.612 6.669 6.669 0 0 1 1.53 5.222l-.293 2.145a6.68 6.68 0 0 1 -2.871 4.612 6.667 6.667 0 0 1 -5.078 10.987h-30.807a10.137 10.137 0 0 1 -8.269-4.282 6.63 6.63 0 0 0 -5.409-2.8h-7.726v7.479a1.75 1.75 0 0 1 -1.75 1.75h-12a1.751 1.751 0 0 1 -1.75-1.75v-55.38a1.751 1.751 0 0 1 1.75-1.75h12a1.75 1.75 0 0 1 1.75 1.75v7.479h9.5a1.75 1.75 0 0 1 0 3.5h-9.5v33.415h7.726a10.141 10.141 0 0 1 8.269 4.283 6.631 6.631 0 0 0 5.409 2.8h30.807a3.167 3.167 0 1 0 0-6.333h-.619a1.75 1.75 0 0 1 0-3.5h1.961a3.182 3.182 0 0 0 3.139-2.74l.292-2.144a3.166 3.166 0 0 0 -3.138-3.595h-1.253a1.75 1.75 0 0 1 0-3.5h2.595a3.182 3.182 0 0 0 3.139-2.74l.292-2.144a3.168 3.168 0 0 0 -3.138-3.6h-1.887a1.75 1.75 0 1 1 0-3.5h3.227a3.179 3.179 0 0 0 3.138-2.739l.05-.372a3.166 3.166 0 0 0 -3.138-3.6h-15a1.748 1.748 0 0 1 -1.729-2.015l3.13-20.429a5.256 5.256 0 0 0 -2.351-5.212l-3.18-2.043-3.547 9.2c-.34.883-.726 1.768-1.147 2.63a1.75 1.75 0 1 1 -3.144-1.536c.376-.771.721-1.562 1.025-2.352l4.319-11.206a1.75 1.75 0 0 1 2.574-.841l4.987 3.2a8.759 8.759 0 0 1 3.922 8.686l-2.816 18.427h12.959a6.668 6.668 0 0 1 5.024 2.283zm-65.4 36.382v-44.399h-8.5v51.876h8.5zm5.367-98.81a1.75 1.75 0 0 1 .969-2.985l13.554-1.969 6.065-12.286a1.749 1.749 0 0 1 3.138 0l6.062 12.281 13.554 1.969a1.75 1.75 0 0 1 .969 2.985l-9.808 9.56 2.315 13.5a1.749 1.749 0 0 1 -2.539 1.844l-12.122-6.374-12.122 6.373a1.749 1.749 0 0 1 -2.539-1.844l2.315-13.5zm4.982-.031 7.931 7.718a1.752 1.752 0 0 1 .5 1.549l-1.871 10.91 9.8-5.151a1.751 1.751 0 0 1 1.629 0l9.8 5.151-1.871-10.91a1.752 1.752 0 0 1 .5-1.549l7.928-7.727-10.954-1.588a1.75 1.75 0 0 1 -1.318-.957l-4.899-9.928-4.9 9.927a1.751 1.751 0 0 1 -1.318.957zm81.089 12.118a1.749 1.749 0 0 0 -1.412-1.191l-10.732-1.559-4.8-9.723a1.75 1.75 0 1 0 -3.139 1.549l5.206 10.548a1.751 1.751 0 0 0 1.317.958l8.133 1.182-5.887 5.736a1.748 1.748 0 0 0 -.5 1.549l1.388 8.1-7.273-3.824a1.751 1.751 0 0 0 -1.629 0l-7.274 3.824 1.39-8.1a1.749 1.749 0 0 0 -.5-1.549l-5.885-5.735 8.132-1.182a1.75 1.75 0 1 0 -.5-3.464l-11.649 1.69a1.751 1.751 0 0 0 -.97 2.986l7.77 7.568-1.834 10.688a1.75 1.75 0 0 0 2.539 1.849l9.6-5.046 9.595 5.046a1.749 1.749 0 0 0 2.539-1.844l-1.833-10.688 7.766-7.568a1.753 1.753 0 0 0 .442-1.8zm-99.714 21.9-9.6-5.046-9.6 5.046a1.749 1.749 0 0 1 -2.539-1.844l1.833-10.693-7.766-7.563a1.751 1.751 0 0 1 .97-2.986l10.731-1.564 4.8-9.723a1.75 1.75 0 0 1 3.139 0l4.8 9.723 10.732 1.559a1.751 1.751 0 0 1 .97 2.986l-7.77 7.568 1.833 10.688a1.75 1.75 0 0 1 -2.533 1.849zm-1.51-4.748-1.389-8.1a1.749 1.749 0 0 1 .5-1.549l5.885-5.735-8.132-1.182a1.751 1.751 0 0 1 -1.318-.958l-3.636-7.373-3.637 7.369a1.751 1.751 0 0 1 -1.317.958l-8.135 1.182 5.889 5.736a1.746 1.746 0 0 1 .5 1.549l-1.388 8.1 7.273-3.824a1.751 1.751 0 0 1 1.629 0z" fill="url(#a)"/></svg>