<?xml version="1.0" encoding="iso-8859-1"?>
<!-- Generator: Adobe Illustrator 19.0.0, SVG Export Plug-In . SVG Version: 6.00 Build 0)  -->
<svg version="1.1" id="Capa_1" xmlns="http://www.w3.org/2000/svg" xmlns:xlink="http://www.w3.org/1999/xlink" x="0px" y="0px"
	 viewBox="0 0 512 512" style="enable-background:new 0 0 512 512;" xml:space="preserve">
<path style="fill:#FF5A5A;" d="M170.409,299.115v-35.797c0-12.434-10.08-22.513-22.513-22.513H10v259.351h137.896
	c12.434,0,22.513-10.08,22.513-22.513v-111.44V299.115z"/>
<path style="fill:#FFCDAC;" d="M469.581,307.487l-26.021-0.003c17.904,0,32.419-14.514,32.419-32.419l0,0
	c0-17.904-14.514-32.419-32.419-32.419h-125.2l19-56.41c10.346-30.717-6.74-63.908-37.75-73.336l-17.545-5.334l-27.569,76.195
	c-8.648,23.902-25.749,43.811-48.072,55.966l-36.685,19.976l0.669,223.224l23.329,9.149c16.72,6.557,34.52,9.923,52.48,9.923
	h105.381h34.218h35.136c17.904,0,32.419-14.514,32.419-32.419l0,0c0-17.904-14.514-32.419-32.419-32.419h25.201
	c17.904,0,32.419-14.514,32.419-32.419l0,0c0-17.904-14.514-32.419-32.419-32.419h23.428c17.904,0,32.419-14.514,32.419-32.419l0,0
	C502,322.001,487.486,307.487,469.581,307.487z"/>
<circle style="fill:#FFFFFF;" cx="109.17" cy="443.54" r="18.01"/>
<path d="M170.41,327.89c-2.631,0-5.21,1.061-7.07,2.92c-1.86,1.87-2.93,4.45-2.93,7.07c0,2.64,1.069,5.21,2.93,7.07
	c1.86,1.869,4.439,2.93,7.07,2.93c2.63,0,5.21-1.061,7.069-2.93c1.86-1.86,2.931-4.431,2.931-7.07c0-2.62-1.07-5.2-2.931-7.07
	C175.62,328.95,173.04,327.89,170.41,327.89z"/>
<path d="M512,339.906c0-20.195-14.191-37.128-33.122-41.38c4.482-6.724,7.101-14.792,7.101-23.461
	c0-23.39-19.029-42.419-42.419-42.419H332.28l14.557-43.217c5.875-17.441,4.471-36.058-3.952-52.421
	c-8.423-16.362-22.759-28.322-40.365-33.675L284.975,98c-5.099-1.551-10.503,1.163-12.313,6.165l-27.569,76.194
	c-7.825,21.625-23.256,39.59-43.451,50.586l-27.541,14.998c-5.924-8.056-15.462-13.296-26.205-13.296H10c-5.522,0-10,4.478-10,10
	v259.352c0,5.522,4.478,10,10,10h137.896c11.963,0,22.43-6.499,28.076-16.147l14.115,5.536C208.045,508.43,226.93,512,246.217,512
	h174.735c23.39,0,42.419-19.029,42.419-42.419c0-8.739-2.658-16.867-7.205-23.624c18.572-4.513,32.406-21.274,32.406-41.214
	c0-8.911-2.768-17.185-7.481-24.019C498.903,375.694,512,359.306,512,339.906z M469.581,362.324h-23.428h-45.926h-33.501
	c-5.522,0-10,4.478-10,10s4.478,10,10,10h33.501h45.926c12.362,0,22.419,10.057,22.419,22.419s-10.057,22.419-22.419,22.419h-25.201
	h-50.819h-3.406c-5.522,0-10,4.478-10,10s4.478,10,10,10h3.406h50.819c12.362,0,22.419,10.057,22.419,22.419
	S433.314,492,420.952,492H246.217c-16.778,0-33.206-3.106-48.828-9.232l-16.979-6.659V378c0-5.522-4.478-10-10-10s-10,4.478-10,10
	v101.484c0,6.9-5.613,12.514-12.514,12.514H20V252.646h127.896c6.9,0,12.514,5.613,12.514,12.514v33.955c0,5.522,4.478,10,10,10
	s10-4.478,10-10V265.28l30.797-16.771c24.491-13.335,43.204-35.121,52.693-61.346l24.34-67.268l8.462,2.572
	c12.389,3.767,22.475,12.181,28.401,23.694c5.927,11.513,6.914,24.611,2.781,36.882l-19,56.409
	c-1.028,3.052-0.523,6.411,1.354,9.026c1.879,2.615,4.902,4.166,8.122,4.166h125.2c12.362,0,22.419,10.057,22.419,22.419
	s-10.057,22.419-22.419,22.419h-76.834c-5.522,0-10,4.478-10,10s4.478,10,10,10h33.443c0.02,0,0.039,0.003,0.058,0.003h69.354
	c12.362,0,22.419,10.057,22.419,22.419C492,352.268,481.943,362.324,469.581,362.324z"/>
<path d="M109.173,415.53c-15.445,0-28.011,12.565-28.011,28.01s12.565,28.011,28.011,28.011s28.011-12.565,28.011-28.011
	C137.184,428.096,124.618,415.53,109.173,415.53z M109.173,451.551c-4.417,0-8.011-3.594-8.011-8.011s3.594-8.01,8.011-8.01
	s8.011,3.593,8.011,8.01S113.59,451.551,109.173,451.551z"/>
<path d="M298.819,20c2.631,0,5.21-1.07,7.07-2.931c1.86-1.859,2.93-4.439,2.93-7.069s-1.069-5.21-2.93-7.07S301.45,0,298.819,0
	c-2.63,0-5.21,1.069-7.069,2.93c-1.86,1.86-2.931,4.44-2.931,7.07s1.07,5.21,2.931,7.069C293.609,18.93,296.189,20,298.819,20z"/>
<path d="M298.82,37.333c-5.522,0-10,4.478-10,10v24.334c0,5.522,4.478,10,10,10s10-4.478,10-10V47.333
	C308.82,41.811,304.343,37.333,298.82,37.333z"/>
<path d="M358.393,141.266c0,5.522,4.478,10,10,10h61.666c5.522,0,10-4.478,10-10s-4.478-10-10-10h-61.666
	C362.87,131.266,358.393,135.743,358.393,141.266z"/>
<path d="M167.554,151.239h61.667c5.522,0,10-4.478,10-10s-4.478-10-10-10h-61.667c-5.522,0-10,4.478-10,10
	S162.031,151.239,167.554,151.239z"/>
<path d="M235.207,91.776c1.953,1.952,4.512,2.929,7.071,2.929s5.118-0.977,7.071-2.929c3.905-3.905,3.905-10.237,0-14.143
	l-29.115-29.115c-3.906-3.904-10.236-3.904-14.143,0c-3.905,3.905-3.905,10.237,0,14.143L235.207,91.776z"/>
<path d="M355.354,94.724c2.56,0,5.118-0.977,7.071-2.929L391.54,62.68c3.905-3.905,3.905-10.237,0-14.143
	c-3.906-3.904-10.236-3.904-14.143,0l-29.115,29.115c-3.905,3.905-3.905,10.237,0,14.143
	C350.235,93.747,352.794,94.724,355.354,94.724z"/>
<g>
</g>
<g>
</g>
<g>
</g>
<g>
</g>
<g>
</g>
<g>
</g>
<g>
</g>
<g>
</g>
<g>
</g>
<g>
</g>
<g>
</g>
<g>
</g>
<g>
</g>
<g>
</g>
<g>
</g>
</svg>
