<svg height="512" viewBox="0 0 60 60" width="512" xmlns="http://www.w3.org/2000/svg"><g id="Page-1" fill="none" fill-rule="evenodd"><g id="023---Reactions-To-Post" transform="translate(-1)"><path id="Path" d="m28 43c-.0022354 1.37008.1725446 2.734708.52 4.06-5.5520425 4.8583782-13.7051193 5.2940673-19.74331367 1.0550553-6.0381944-4.239012-8.39817188-12.0552126-5.71487021-18.9275417 2.68330166-6.872329 9.71515528-11.0214882 17.02818388-10.0475136.6471521.0827838 1.2884289.2063631 1.92.37-.01.16-.01.33-.01.49-.0054822 6.1151217 2.9400065 11.8571489 7.91 15.42-1.2575182 2.3283583-1.9140243 4.9337596-1.91 7.58z" fill="#ef314c"/><path id="Path" d="m29.91 35.42c-4.9699935-3.5628511-7.9154822-9.3048783-7.91-15.42 0-.16 0-.33.01-.49-.6315711-.1636369-1.2728479-.2872162-1.92-.37-.6928456-.0924203-1.391018-.1391878-2.09-.14-.518 0-1.029.029-1.534.077.209.02.419.036.624.063.6471521.0827838 1.2884289.2063631 1.92.37-.01.16-.01.33-.01.49-.0054822 6.1151217 2.9400065 11.8571489 7.91 15.42-1.9159308 3.5654706-2.4124816 7.7236365-1.39 11.64-2.5183112 2.1963739-5.6615799 3.5483851-8.988 3.866.484.044.968.074 1.468.074 3.867988.0033977 7.6058756-1.3965335 10.52-3.94-1.0224816-3.9163635-.5259308-8.0745294 1.39-11.64z" fill="#bb193b"/><path id="Path" d="m28.82 34.57c-.75 3.37-3.97 7.12-10.82 10.43-7.94-3.84-11-8.26-11-12 0-3.23 2.24-6 5.5-6 2.152882-.0018053 4.1846949.9956302 5.5 2.7 1.2794434-1.6606999 3.2439739-2.650323 5.34-2.69 1.1631815 2.9400079 3.0477556 5.5398948 5.48 7.56z" fill="#f5f5f5"/><path id="Path" d="m23.34 27.01c-.9438262.0157295-1.8741139.2271894-2.732.621 1.1737079 2.6870577 2.9583802 5.0630824 5.212 6.939-.693 3.113-3.5 6.549-9.322 9.664.481.258.979.513 1.5.766 6.85-3.31 10.07-7.06 10.82-10.43-2.4315135-2.0203431-4.3153848-4.6202093-5.478-7.56z" fill="#cfd8dc"/><path id="Path" d="m60 43c-.0017539 5.6237464-2.9549401 10.8339432-7.7790696 13.724324-4.8241295 2.8903807-10.8112842 3.0367958-15.7709304.385676l-9.45 1.8900138 4.23-6.3400138c-1.258825-1.6727235-2.1793408-3.5748963-2.71-5.6-1.0224816-3.9163635-.5259308-8.0745294 1.39-11.64 8.1305823 5.8565705 19.4129166 4.3855327 25.77-3.36 2.7811022 2.9631672 4.3262668 6.8761533 4.32 10.94z" fill="#02a9f4"/><path id="Path" d="m55.68 32.06c-.5027849.6075931-1.0424708 1.1836811-1.616 1.725 3.2962446 4.6575281 3.8586089 10.7193626 1.4754145 15.9037797s-7.3502072 8.7044845-13.0314145 9.2352203c.492.045.992.076 1.492.076 6.3776686.0018093 12.1473304-3.7841375 14.6842361-9.6355279s1.3564952-12.6505832-3.0042361-17.3044721z" fill="#0377bc"/><path id="Path" d="m60 20c.0029946 7.1286856-3.9862713 13.6587065-10.3304225 16.9098468-6.3441512 3.2511402-13.9746434 2.6758109-19.7595775-1.4898468-.37-.27-.74-.55-1.09-.85-4.3241866-3.6029164-6.8231158-8.9415378-6.82-14.57 0-.16 0-.33.01-.49.3299064-10.34764062 8.8833576-18.52648589 19.2353949-18.39296396 10.3520373.13352194 18.6916945 8.53025673 18.7546051 18.88296396z" fill="#ffdf00"/><path id="Path" d="m41 1c-.51 0-1.012.036-1.512.075 9.8889751.77242023 17.5172189 9.0262924 17.5093597 18.9453851-.0078592 9.9190926-7.649173 18.1608663-17.5393597 18.9176149.5093333.0413333 1.0233333.062 1.542.062 10.4934101-.0000002 18.9999997-8.5065899 18.9999997-19 0-10.49341014-8.5065896-18.99999984-18.9999997-19z" fill="#fec108"/><path id="Path" d="m55 20c-.0081672 1.1011688-.8988312 1.9918328-2 2h-1c1.1032019.0032948 1.9967052.8967981 2 2-.0081672 1.1011688-.8988312 1.9918328-2 2h-1c1.1032019.0032948 1.9967052.8967981 2 2-.0081672 1.1011688-.8988312 1.9918328-2 2h-12c-1.6568542 0-3-1.3431458-3-3v-9c1.2797939-.641463 2.2539702-1.763024 2.71-3.12.8524295-2.5708359 1.2879365-5.26152648 1.29-7.97-.0024176-.62127909.4393403-1.1555958 1.05-1.27 1.56-.29 2.55.8 3.15 1.97.5441917 1.09252122.8185252 2.29958859.8 3.52v2.87h8c1.1032019.0032948 1.9967052.8967981 2 2-.0081672 1.1011688-.8988312 1.9918328-2 2 1.1032019.0032948 1.9967052.8967981 2 2z" fill="#f5f5f5"/><path id="Path" d="m53 18c1.1011688-.0081672 1.9918328-.8988312 2-2-.0032948-1.1032019-.8967981-1.9967052-2-2h-3c1.1032019.0032948 1.9967052.8967981 2 2-.0081672 1.1011688-.8988312 1.9918328-2 2 1.1032019.0032948 1.9967052.8967981 2 2-.0081672 1.1011688-.8988312 1.9918328-2 2h-1c1.1032019.0032948 1.9967052.8967981 2 2-.0081672 1.1011688-.8988312 1.9918328-2 2h-1c1.1032019.0032948 1.9967052.8967981 2 2-.0081672 1.1011688-.8988312 1.9918328-2 2h3c1.1011688-.0081672 1.9918328-.8988312 2-2-.0032948-1.1032019-.8967981-1.9967052-2-2h1c1.1011688-.0081672 1.9918328-.8988312 2-2-.0032948-1.1032019-.8967981-1.9967052-2-2h1c1.1011688-.0081672 1.9918328-.8988312 2-2-.0032948-1.1032019-.8967981-1.9967052-2-2z" fill="#cfd8dc"/><rect id="Rectangle" fill="#02a9f4" height="13" rx="2" width="8" x="28" y="17"/><path id="Path" d="m34 17h-3c1.1032019.0032948 1.9967052.8967981 2 2v9c-.0032948 1.1032019-.8967981 1.9967052-2 2h3c1.1032019-.0032948 1.9967052-.8967981 2-2v-9c-.0032948-1.1032019-.8967981-1.9967052-2-2z" fill="#0377bc"/><g fill="#000"><path id="Shape" d="m29.68 30.97h.02c.0993918.0153556.1995356.02537.3.03h4c.2731181-.0037429.5443866-.0454765.806-.124.032-.011.064-.016.094-.029.5291893-.1680008 1.0013757-.4795607 1.364-.9.014 0 .029 0 .043-.009.7322204.6799882 1.6937389 1.0591685 2.693 1.062h12c1.6568542 0 3-1.3431458 3-3-.0029438-.5168022-.1408282-1.0238723-.4-1.471 1.3621357-.8420957 1.8056041-2.6159693 1-4 .7499633-.4670461 1.2531566-1.2436432 1.3729866-2.1189819.11983-.8753386-.1561362-1.7585992-.7529866-2.4100181.7990291-.8759347 1.0043504-2.1415341.5232243-3.2251516-.4811262-1.0836174-1.5576099-1.7800954-2.7432243-1.7748484h-7v-1.866c.0193116-1.38229441-.2938113-2.74899186-.913-3.985-.988-1.923-2.488-2.811-4.22-2.5-1.0883522.20248187-1.8750166 1.15600177-1.867 2.263.0006458 2.60057016-.418755 5.1841735-1.242 7.651-.3096635.9192295-.917943 1.708444-1.728 2.242-.5504825-.5154484-1.2758684-.8031014-2.03-.805h-4c-1.6568542 0-3 1.3431458-3 3v9c.0044936 1.5188248 1.1458839 2.7934848 2.655 2.965.009 0 .016.005.025.005zm7.32-12.387c1.2521349-.7841202 2.1914504-1.9805451 2.656-3.383.8915588-2.6722244 1.3454094-5.47096996 1.344-8.288-.0025447-.13743858.0904853-.25829448.224-.291.336-.059 1.228-.224 2.084 1.442.4697344.9547308.7068627 2.0070731.692 3.071v2.866c0 .5522847.4477153 1 1 1h8c.5522847 0 1 .4477153 1 1s-.4477153 1-1 1h-3c-.5522847 0-1 .4477153-1 1s.4477153 1 1 1h3c.5522847 0 1 .4477153 1 1s-.4477153 1-1 1h-3c-.5522847 0-1 .4477153-1 1s.4477153 1 1 1h2c.5522847 0 1 .4477153 1 1s-.4477153 1-1 1h-2c-.5522847 0-1 .4477153-1 1s.4477153 1 1 1h1c.5522847 0 1 .4477153 1 1s-.4477153 1-1 1h-12c-1.1045695 0-2-.8954305-2-2zm-8 .417c0-.5522847.4477153-1 1-1h4c.5522847 0 1 .4477153 1 1v9c0 .5522847-.4477153 1-1 1h-4c-.5522847 0-1-.4477153-1-1z" fill-rule="nonzero"/><path id="Shape" d="m41 0c-10.3728293.01551056-19.0155313 7.95205696-19.913 18.286-.295-.054-.585-.1-.865-.137-7.5766709-1.0020165-14.89066213 3.1752292-17.87716286 10.2101984-2.98650074 7.0349693-.91129028 15.1981397 5.07231609 19.9527621s14.40456007 4.9317896 20.58284677.4330395c.4971558 1.3938207 1.1731369 2.7172109 2.011 3.937l-3.846 5.763c-.2050337.3073066-.2239399.7026198-.0491693 1.0280909.1747707.3254711.5147443.5280739.8841693.5269091.0671927.0005626.1342492-.0061431.2-.02l9.1-1.82c7.2162531 3.6745542 16.0229342 1.7454167 21.0422193-4.6093794 5.0192852-6.3547961 4.8559689-15.3688147-.3902193-21.5376206 4.5787893-6.0465047 5.3354197-14.1655202 1.9527506-20.9539723-3.3826691-6.78845197-10.3202056-11.07348283-17.9047506-11.0590277zm0 2c9.9411255 0 18 8.0588745 18 18s-8.0588745 18-18 18-18-8.0588745-18-18c.0115721-9.9363282 8.0636718-17.98842786 18-18zm-13.3 32.892c-.984 3.187-4.39 6.352-9.7 8.994-8.687-4.321-10-8.662-10-10.886 0-2.851 1.935-5 4.5-5 1.8249194-.0083319 3.5509807.8283001 4.675 2.266.1866294.2718345.495266.4341961.825.434.3273924.0000163.6340589-.1602272.821-.429.9641242-1.2114591 2.3638219-1.9978021 3.9-2.191 1.1586682 2.5975648 2.8557704 4.9194487 4.979 6.812zm-9.7 15.108c-5.600718.0093015-10.74011437-3.1023933-13.32784196-8.0694642-2.58772758-4.967071-2.19270447-10.9620686 1.02440154-15.5466468 3.21710602-4.5845782 8.72036682-6.9950057 14.27144042-6.250889.336.041.686.1 1.048.178.0275972 1.9869329.352878 3.9585052.965 5.849-1.4946611.2856514-2.8761785.993588-3.981 2.04-1.4789411-1.4184012-3.4508349-2.2071587-5.5-2.2-1.7959587.0496118-3.49653547.8193005-4.71906373 2.1358694-1.22252827 1.3165689-1.8643121 3.0694224-1.78093627 4.8641306 0 2.729 1.5 8.034 11.564 12.9.275083.1330817.595917.1330817.871 0 3.412963-1.4920128 6.4660242-3.6990286 8.953-6.472-.5217023 2.386967-.5172661 4.8589209.013 7.244-2.6633863 2.1472791-5.9798321 3.3213172-9.401 3.328zm41-7c.0010128 5.2729273-2.7666809 10.1591439-7.2896786 12.8695415-4.5229977 2.7103975-10.1369638 2.8468742-14.7863214.3594585-.2048976-.1102673-.441834-.145631-.67-.1l-7.082 1.417 2.89-4.331c.2353401-.3528317.2225149-.8157401-.032-1.155-3.2976706-4.3701494-3.9559539-10.1885613-1.718-15.185 8.1302563 5.1926152 18.8152287 3.7977498 25.34-3.308 2.1678924 2.6655782 3.3503482 5.9971509 3.348 9.433z" fill-rule="nonzero"/><path id="Path" d="m44 50h-8c-.5522847 0-1 .4477153-1 1s.4477153 1 1 1h8c.5522847 0 1-.4477153 1-1s-.4477153-1-1-1z"/><path id="Path" d="m52 46h-16c-.5522847 0-1 .4477153-1 1s.4477153 1 1 1h16c.5522847 0 1-.4477153 1-1s-.4477153-1-1-1z"/><path id="Path" d="m52 42h-16c-.5522847 0-1 .4477153-1 1s.4477153 1 1 1h16c.5522847 0 1-.4477153 1-1s-.4477153-1-1-1z"/></g></g></g></svg>