<svg id="Capa_1" enable-background="new 0 0 511.982 511.982" height="512" viewBox="0 0 511.982 511.982" width="512" xmlns="http://www.w3.org/2000/svg"><g><path d="m270.991 264.039v184c0 8.28-6.72 15-15 15s-15-6.72-15-15v-184c0-8.28 6.72-15 15-15s15 6.72 15 15z" fill="#425796"/><path d="m270.991 264.039v184c0 8.28-6.72 15-15 15v-214c8.28 0 15 6.72 15 15z" fill="#283758"/><path d="m165.384 312.136c-46.505-46.503-46.512-121.781 0-168.291 5.858-5.858 15.355-5.858 21.213 0 5.858 5.857 5.858 15.355 0 21.213-34.78 34.779-34.786 91.08 0 125.865 5.858 5.857 5.858 15.355 0 21.213-5.858 5.859-15.355 5.858-21.213 0z" fill="#dd5958"/><path d="m120.129 357.391c-71.352-71.352-71.352-187.449 0-258.801 5.857-5.857 15.355-5.857 21.213 0s5.858 15.355 0 21.213c-59.654 59.655-59.654 156.72 0 216.375 5.858 5.857 5.858 15.355 0 21.213-5.855 5.856-15.354 5.859-21.213 0z" fill="#ffe278"/><path d="m74.874 402.646c-99.941-99.94-99.724-249.587 0-349.311 5.857-5.857 15.355-5.857 21.213 0s5.858 15.355 0 21.213c-87.476 87.477-87.476 219.408 0 306.885 5.858 5.857 5.858 15.355 0 21.213-5.855 5.856-15.354 5.859-21.213 0z" fill="#94dfda"/><path d="m325.384 312.136c-5.858-5.857-5.858-15.355 0-21.213 34.701-34.701 34.701-91.164 0-125.865-5.858-5.857-5.858-15.355 0-21.213 5.857-5.857 15.355-5.857 21.213 0 46.398 46.397 46.398 121.894 0 168.291-5.858 5.859-15.355 5.858-21.213 0z" fill="#d8225b"/><path d="m370.639 357.391c-5.858-5.857-5.858-15.355 0-21.213 59.654-59.655 59.654-156.72 0-216.375-5.858-5.857-5.858-15.355 0-21.213 5.857-5.857 15.355-5.857 21.213 0 71.352 71.352 71.352 187.449 0 258.801-5.859 5.858-15.355 5.858-21.213 0z" fill="#ffb454"/><path d="m415.894 402.646c-5.858-5.857-5.858-15.355 0-21.213 87.477-87.477 87.477-219.408 0-306.885-5.858-5.857-5.858-15.355 0-21.213 5.857-5.857 15.355-5.857 21.213 0 99.94 99.938 99.725 249.587 0 349.311-5.859 5.858-15.355 5.857-21.213 0z" fill="#61a7c5"/><circle cx="255.991" cy="224.039" fill="#eef4ff" r="55"/><path d="m310.991 224.039c0 30.33-24.67 55-55 55v-110c30.33 0 55 24.67 55 55z" fill="#d9e6fc"/></g></svg>