<svg id="Capa_1" enable-background="new 0 0 512 512" height="512" viewBox="0 0 512 512" width="512" xmlns="http://www.w3.org/2000/svg"><g><g><path d="m120.237 0v216.14h-48.538c-39.535 0-71.699 32.167-71.699 71.706v6.525c0 39.539 32.164 71.706 71.699 71.706h6.835c15.785 0 30.387-5.139 42.244-13.817l23.782-123.94-23.781-228.32z" fill="#5c7099"/><path d="m135.236 0h-14.457v352.259c17.84-13.056 29.456-34.137 29.456-57.889v-262.895c34.927 6.967 61.326 37.777 61.326 74.618v13.676h29.997v-13.676c-.001-58.5-47.695-106.093-106.322-106.093z" fill="#404a80"/></g><g><path d="m270.536 147.9-.003 214.163h-48.538c-39.535 0-71.699 32.167-71.699 71.706v6.525c0 39.539 32.164 71.706 71.699 71.706h6.836c39.535 0 71.699-32.167 71.699-71.706l.002-205.379 90.736-12.869 30.572-47.686-30.572-43.582z" fill="#404a80"/><path d="m391.268 130.778v91.268l90.682-12.861v122.894h-48.538c-39.535 0-71.699 32.167-71.699 71.706v6.525c0 39.539 32.164 71.706 71.699 71.706h6.836c39.535 0 71.699-32.167 71.699-71.706l.053-296.655z" fill="#1f2859"/></g></g></svg>