<svg id="Capa_1" enable-background="new 0 0 511.99 511.99" height="512" viewBox="0 0 511.99 511.99" width="512" xmlns="http://www.w3.org/2000/svg"><g><g id="_x31_3_music"><path d="m244.351 7.5c-125.29 0-226.858 101.568-226.858 226.858s101.568 226.858 226.858 226.858 226.858-101.568 226.858-226.858-101.568-226.858-226.858-226.858zm0 279.751c-29.165 0-52.893-23.728-52.893-52.894s23.728-52.894 52.893-52.894c29.166 0 52.894 23.728 52.894 52.894 0 29.167-23.728 52.894-52.894 52.894z" fill="#596c76"/><path d="m244.351 121.607c-62.171 0-112.75 50.58-112.75 112.751s50.58 112.751 112.75 112.751c29.954 0 57.214-11.744 77.426-30.865v-41.92c0-3.075 2.098-5.753 5.083-6.49l27.014-6.669c2.104-8.596 3.228-17.571 3.228-26.806 0-62.173-50.579-112.752-112.751-112.752zm0 165.644c-29.165 0-52.893-23.728-52.893-52.894s23.728-52.894 52.893-52.894c29.166 0 52.894 23.728 52.894 52.894 0 29.167-23.728 52.894-52.894 52.894z" fill="#384949"/><g><path d="m244.351 7.5c-6.489 0-12.91.288-19.261.822 116.273 9.778 207.596 107.235 207.596 226.036s-91.323 216.258-207.596 226.036c6.351.534 12.772.822 19.261.822 125.29 0 226.858-101.568 226.858-226.858s-101.568-226.858-226.858-226.858z" fill="#465a61"/></g><ellipse cx="449.312" cy="431.739" fill="#fe646f" rx="47.667" ry="31.167" transform="matrix(.906 -.423 .423 .906 -140.364 230.338)"/><path d="m494.488 234.987c0-4.341-4.073-7.531-8.287-6.49l-159.341 39.336c-2.985.737-5.083 3.415-5.083 6.49v65.827h.002v95.09c-9.485-.671-20.415 1.347-31.074 6.317-23.859 11.126-37.304 32.791-30.029 48.392s32.513 19.228 56.372 8.102c19.507-9.096 32.045-25.237 31.997-39.349h.008c0-2.722 0-79.208 0-125.285l145.436-35.904v-62.526z" fill="#fe646f"/><g fill="#fd4755"><path d="m465.385 397.081h.002z"/><path d="m486.201 228.497-18.986 4.687v32.375 130.902c-.003 0-.005-.001-.008-.001v22.348h-.042c.733 14.366-11.944 31.117-31.962 40.452-4.36 2.033-8.765 3.568-13.099 4.633 11.145 3.397 26.001 2.069 40.373-4.633 19.602-9.14 32.162-25.393 31.991-39.553h.021c0-9.061 0-177.428 0-184.72-.001-4.341-4.074-7.531-8.288-6.49z"/></g></g><g><path d="m244.348 173.964c-33.301 0-60.393 27.093-60.393 60.394s27.092 60.394 60.393 60.394 60.394-27.092 60.394-60.394-27.093-60.394-60.394-60.394zm0 105.787c-25.03 0-45.393-20.363-45.393-45.394s20.363-45.394 45.393-45.394 45.394 20.364 45.394 45.394-20.364 45.394-45.394 45.394z"/><path d="m501.983 419.746c0-.013.002-.026.002-.039 0-2.399 0-160.464 0-162.179 0-4.143-3.358-7.5-7.501-7.5-4.142 0-7.499 3.358-7.499 7.5l.001 34.11c-6.639 1.639-151.005 37.279-157.712 38.935 0-20.325 0-35.27 0-55.612 6.819-1.683 151.348-37.364 158.41-39.107 4.021-.993 6.477-5.058 5.483-9.079-.992-4.022-5.059-6.478-9.079-5.484l-5.699 1.407c-6.05-124.01-108.338-222.698-234.041-222.698-129.529 0-234.357 104.818-234.357 234.358 0 50.66 16.34 101.846 49.862 144.542 2.559 3.26 7.275 3.825 10.53 1.268 3.258-2.558 3.826-7.272 1.268-10.53-31.22-39.766-46.66-87.583-46.66-135.279 0-120.956 98.403-219.359 219.357-219.359 117.848 0 214.966 94.277 219.197 211.363l-100.125 24.718c.776-5.534 1.179-11.124 1.179-16.723 0-66.307-53.944-120.251-120.251-120.251-66.306 0-120.25 53.944-120.25 120.251s53.944 120.251 120.25 120.251c25.311 0 49.616-7.893 69.926-22.474v8.015c0 .011.002.023.002.034v87.545c-18.838 1.181-38.908 10.866-51.314 25.2-62.738 5.28-123.226-16.079-168.456-58.375-3.025-2.829-7.772-2.671-10.601.355-2.829 3.025-2.67 7.771.355 10.601 44.773 41.87 104.783 65.555 169.225 63.013-3.191 8.607-3.1 17.114.389 24.595 9.406 20.174 39.33 24.324 66.339 11.73 22.935-10.695 36.992-29.795 36.335-47.149v-17.575c45.997-25.149 82.481-65.243 103.162-113.274v62.817c-8.788.551-17.97 2.938-26.744 7.029-28.036 13.074-42.82 38.708-33.656 58.358 9.162 19.651 38.302 24.803 66.34 11.73 22.388-10.441 36.911-29.521 36.333-47.038zm-27.158-29.069c-.039-.008-.075-.02-.113-.028v-80.529l12.273-3.03v88.115c-3.54-2.054-7.626-3.576-12.16-4.528zm-133.276-47.684v88.036c-.725.359-1.445.727-2.175 1.078-3.186-1.566-6.718-2.689-10.098-3.391v-82.693c4.808-1.187 2.412-.596 12.273-3.03zm-97.201-3.384c-58.035 0-105.25-47.215-105.25-105.251s47.215-105.251 105.25-105.251 105.251 47.215 105.251 105.251c0 6.935-.685 13.858-2.039 20.639-24.062 5.94-21.215 5.237-22.498 5.554 0 0-10.788 2.564-10.788 13.772v38.626c-19.316 17.216-44.022 26.66-69.926 26.66zm69.527 151.643c-20.253 9.445-41.17 6.751-46.405-4.475-4.871-10.446 4.611-26.237 21.667-35.974.019-.011.037-.021.056-.032 24.824-14.137 52.292-8.908 52.35 7.954 0 .131.014.26.021.389-.147 11.009-11.266 24.48-27.689 32.138zm42.674-68.392v-83.57l91.127-22.496c-17.974 44.239-50.168 81.616-91.127 106.066zm102.762 30.328c-19.733 9.202-40.983 7.152-46.406-4.474-5.421-11.627 6.669-29.223 26.402-38.425 23.004-10.727 46.978-5.864 47.652 9.742.003.073.015.144.02.217.314 10.344-9.672 24.549-27.668 32.94z"/></g></g></svg>