<svg height="512pt" viewBox="0 0 512 512" width="512pt" xmlns="http://www.w3.org/2000/svg" xmlns:xlink="http://www.w3.org/1999/xlink"><linearGradient id="a" gradientTransform="matrix(1 0 0 -1 0 -17294)" gradientUnits="userSpaceOnUse" x1="0" x2="512" y1="-17550" y2="-17550"><stop offset="0" stop-color="#00f38d"/><stop offset="1" stop-color="#009eff"/></linearGradient><path d="m512 256c0 141.386719-114.613281 256-256 256s-256-114.613281-256-256 114.613281-256 256-256 256 114.613281 256 256zm0 0" fill="url(#a)"/><g fill="#fff"><path d="m256 56c-110.28125 0-200 89.71875-200 200s89.71875 200 200 200 200-89.71875 200-200-89.71875-200-200-200zm0 370c-93.738281 0-170-76.261719-170-170s76.261719-170 170-170 170 76.261719 170 170-76.261719 170-170 170zm0 0"/><path d="m185.34375 360.3125 181.5-104.3125-181.5-104.3125zm30-156.78125 91.292969 52.46875-91.292969 52.46875zm0 0"/></g></svg>