<svg height="480pt" viewBox="-28 0 480 480" width="480pt" xmlns="http://www.w3.org/2000/svg" xmlns:xlink="http://www.w3.org/1999/xlink"><linearGradient id="a" gradientUnits="userSpaceOnUse" x1="212.205037" x2="212.205037" y1="476.432" y2="-26.208"><stop offset="0" stop-color="#006df0"/><stop offset="1" stop-color="#00e7f0"/></linearGradient><g fill="url(#a)"><path d="m212.203125 200c-22.089844 0-40 17.910156-40 40s17.910156 40 40 40c22.09375 0 40-17.910156 40-40-.023437-22.082031-17.917969-39.972656-40-40zm0 64c-13.253906 0-24-10.746094-24-24s10.746094-24 24-24c13.257813 0 24 10.746094 24 24s-10.742187 24-24 24zm0 0"/><path d="m351.40625 240c12.023438-10.164062 23.449219-21.015625 34.222656-32.496094 34.214844-37.007812 46.128906-67.273437 34.449219-87.503906-16.800781-29.0625-73.234375-23.671875-138.242187-.566406-12.519532-67.847656-36.078126-119.433594-69.632813-119.433594-33.550781 0-57.109375 51.585938-69.597656 119.441406-65.007813-23.105468-121.464844-28.496094-138.242188.558594-11.679687 20.230469.234375 50.496094 34.449219 87.503906 10.765625 11.480469 22.179688 22.328125 34.191406 32.496094-12.023437 10.164062-23.449218 21.015625-34.222656 32.496094-34.191406 37.007812-46.105469 67.273437-34.425781 87.503906 8 13.871094 25.050781 19.894531 47.753906 19.894531 31.011719-1.519531 61.574219-8.050781 90.496094-19.34375 12.488281 67.863281 36.046875 119.449219 69.597656 119.449219 33.554687 0 57.113281-51.585938 69.601563-119.441406 28.921874 11.285156 59.480468 17.816406 90.488281 19.335937 22.695312 0 39.742187-6.03125 47.753906-19.894531 11.679687-20.230469-.234375-50.496094-34.449219-87.503906-10.765625-11.480469-22.179687-22.328125-34.191406-32.496094zm54.816406-112c7.488282 12.976562-4.601562 38.640625-32.335937 68.640625-10.984375 11.6875-22.65625 22.703125-34.960938 32.992187-14.769531-11.878906-30.855469-23.65625-48.121093-35.066406-1.253907-20.253906-3.359376-40.207031-6.273438-59.199218 64.472656-23.144532 111.480469-24.96875 121.664062-7.367188zm-162.019531 167.425781c-10.847656 6.25-21.511719 12.066407-32 17.453125-10.472656-5.375-21.140625-11.195312-32-17.453125-10.710937-6.1875-21.046875-12.59375-31.117187-19.089843-.585938-11.726563-.882813-23.839844-.882813-36.335938s.296875-24.609375.882813-36.335938c10.070312-6.496093 20.40625-12.902343 31.117187-19.089843 10.839844-6.253907 21.507813-12.070313 32-17.445313 10.480469 5.390625 21.167969 11.199219 32 17.445313 10.714844 6.1875 21.050781 12.59375 31.121094 19.089843.585937 11.726563.878906 23.839844.878906 36.335938s-.292969 24.609375-.878906 36.335938c-10.070313 6.496093-20.40625 12.902343-31.121094 19.089843zm29.867187.710938c-1.167968 15.046875-2.785156 29.328125-4.800781 42.742187-12.625-4.984375-25.808593-10.726562-39.433593-17.246094 7.519531-4 14.992187-8.105468 22.34375-12.34375 7.351562-4.242187 14.738281-8.695312 21.890624-13.152343zm-79.519531 25.464843c-13.601562 6.511719-26.808593 12.261719-39.433593 17.246094-1.992188-13.414062-3.609376-27.695312-4.800782-42.742187 7.152344 4.453125 14.441406 8.835937 21.863282 13.152343 7.378906 4.269532 14.847656 8.34375 22.371093 12.34375zm-61.890625-56.21875c-12.175781-8.335937-23.671875-16.796874-34.496094-25.382812 10.796876-8.570312 22.292969-17.042969 34.496094-25.414062-.289062 8.476562-.457031 16.964843-.457031 25.414062s.167969 16.9375.457031 25.414062zm17.679688-81.550781c1.167968-15.039062 2.785156-29.3125 4.800781-42.71875 12.609375 4.976563 25.777344 10.726563 39.382813 17.230469-7.507813 3.988281-14.941407 8.101562-22.292969 12.335938-7.457031 4.320312-14.753907 8.714843-21.890625 13.183593zm79.539062-25.433593c13.597656-6.511719 26.796875-12.253907 39.414063-17.238282 1.992187 13.414063 3.609375 27.695313 4.800781 42.742188-7.167969-4.484375-14.464844-8.882813-21.890625-13.191406-7.34375-4.238282-14.804687-8.3125-22.324219-12.3125zm61.871094 56.226562c12.175781 8.328125 23.671875 16.789062 34.496094 25.375-10.796875 8.566406-22.292969 17.039062-34.496094 25.414062.285156-8.476562.453125-16.964843.453125-25.414062s-.167969-16.9375-.453125-25.414062zm-79.546875-198.625c20.363281 0 42.273437 41.65625 54.441406 109.078125-17.902343 6.96875-36.246093 15.128906-54.398437 24.179687-18.191406-9.050781-36.546875-17.210937-54.402344-24.179687 12.089844-67.414063 34-109.078125 54.359375-109.078125zm-161.652344 180.640625c-27.738281-30-39.824219-55.664063-32.335937-68.640625 4.519531-7.824219 16.277344-11.816406 33.597656-11.816406 30.207031 1.589844 59.957031 8.074218 88.089844 19.199218-2.914063 18.960938-5.015625 38.90625-6.273438 59.152344-17.265625 11.410156-33.351562 23.199219-48.121094 35.066406-12.300781-10.277343-23.976562-21.285156-34.957031-32.960937zm-32.335937 155.359375c-7.488282-12.976562 4.597656-38.640625 32.335937-68.640625 10.980469-11.6875 22.652344-22.703125 34.957031-32.992187 14.769532 11.878906 30.855469 23.65625 48.121094 35.066406 1.257813 20.253906 3.359375 40.207031 6.273438 59.199218-64.496094 23.144532-111.503906 24.96875-121.6875 7.367188zm193.988281 112c-20.359375 0-42.261719-41.65625-54.398437-109.070312 17.894531-6.96875 36.25-15.128907 54.441406-24.175782 18.191406 9.046875 36.542968 17.207032 54.4375 24.175782-12.214844 67.414062-34.117188 109.070312-54.480469 109.070312zm193.992187-112c-10.175781 17.601562-57.214843 15.777344-121.6875-7.390625 2.914063-18.96875 5.015626-38.921875 6.273438-59.203125 17.265625-11.40625 33.351562-23.199219 48.121094-35.0625 12.304687 10.285156 23.976562 21.304688 34.957031 32.992188 27.738281 30.023437 39.824219 55.6875 32.335937 68.664062zm0 0"/></g></svg>