<?xml version="1.0" encoding="iso-8859-1"?>
<!-- Generator: Adobe Illustrator 19.0.0, SVG Export Plug-In . SVG Version: 6.00 Build 0)  -->
<svg version="1.1" id="Capa_1" xmlns="http://www.w3.org/2000/svg" xmlns:xlink="http://www.w3.org/1999/xlink" x="0px" y="0px"
	 viewBox="0 0 512 512" style="enable-background:new 0 0 512 512;" xml:space="preserve">
<path style="fill:#F7AC16;" d="M499.113,170.114l-43.066-15.461h-0.001c-2.435-7.412-5.449-14.681-8.957-21.608l19.527-41.389
	c1.303-2.763,0.731-6.044-1.427-8.203l-37.253-37.256c-2.159-2.16-5.44-2.73-8.203-1.428l-41.39,19.527h-0.001
	c-6.92-3.506-14.191-6.52-21.609-8.957l-15.458-43.067c-1.031-2.873-3.756-4.791-6.81-4.791h-52.686
	c-3.053,0-5.778,1.917-6.81,4.791l-15.458,43.067c-7.416,2.436-14.687,5.45-21.611,8.957L196.511,44.77
	c-2.763-1.303-6.044-0.731-8.203,1.429l-37.256,37.254c-2.159,2.158-2.73,5.44-1.427,8.201l19.526,41.389
	c-3.515,6.948-6.527,14.218-8.955,21.609l-43.069,15.461c-2.873,1.031-4.79,3.755-4.79,6.81v52.684c0,3.053,1.917,5.778,4.791,6.81
	l43.068,15.458c2.431,7.404,5.443,14.675,8.955,21.607l-19.526,41.393c-1.303,2.761-0.731,6.044,1.427,8.202l37.256,37.254
	c2.159,2.158,5.439,2.73,8.203,1.429l41.388-19.525c6.93,3.51,14.202,6.522,21.611,8.956l15.457,43.066
	c1.031,2.873,3.757,4.791,6.81,4.791h52.686c3.054,0,5.778-1.918,6.81-4.791l15.457-43.066c7.406-2.433,14.678-5.444,21.61-8.956
	l41.391,19.528c2.761,1.3,6.044,0.73,8.203-1.429l37.253-37.257c2.16-2.16,2.73-5.441,1.427-8.204l-19.527-41.386
	c3.51-6.93,6.523-14.202,8.956-21.612l43.068-15.457c2.874-1.031,4.791-3.756,4.791-6.81v-52.685
	C503.904,173.871,501.987,171.147,499.113,170.114z M308.951,265.954c-34.622,0-62.689-28.066-62.689-62.688
	s28.068-62.689,62.689-62.689c34.62,0,62.689,28.066,62.689,62.689C371.641,237.888,343.572,265.954,308.951,265.954z"/>
<path style="fill:#F27019;" d="M308.12,122.975c-44.343,0-80.291,35.947-80.291,80.292c0,44.342,35.948,80.289,80.291,80.289
	c44.342,0,80.292-35.947,80.292-80.289C388.411,158.922,352.461,122.975,308.12,122.975z M308.12,252.894
	c-27.409,0-49.629-22.219-49.629-49.628s22.22-49.629,49.629-49.629c27.409,0,49.629,22.219,49.629,49.629
	C357.749,230.675,335.527,252.894,308.12,252.894z"/>
<path style="fill:#F2961D;" d="M199.512,203.264c0-89.715,60.346-165.332,142.661-188.485c-0.752-2.097-2.004-7.299-7.711-7.299
	h-52.686c-3.053,0-5.778,1.917-6.81,4.791L259.51,55.339c-7.416,2.436-14.687,5.45-21.611,8.957L196.51,44.771
	c-2.763-1.303-6.044-0.731-8.203,1.429l-37.256,37.254c-2.159,2.158-2.73,5.44-1.427,8.201l19.526,41.389
	c-3.515,6.948-6.527,14.218-8.955,21.609l-43.069,15.461c-2.873,1.031-4.79,3.755-4.79,6.81v52.684c0,3.053,1.917,5.778,4.791,6.81
	l43.068,15.458c2.431,7.404,5.443,14.675,8.955,21.607l-19.526,41.393c-1.303,2.761-0.731,6.044,1.427,8.202l37.256,37.254
	c2.159,2.158,5.439,2.73,8.203,1.429l41.388-19.525c6.93,3.51,14.202,6.522,21.611,8.956l15.457,43.066
	c1.031,2.873,3.757,4.791,6.81,4.791h52.686c5.728,0,6.978-5.259,7.711-7.299C259.859,368.597,199.512,292.981,199.512,203.264z"/>
<path style="fill:#F7AC16;" d="M275.822,346.708l-29.687-10.657h-0.001c-1.679-5.109-3.757-10.12-6.174-14.895l13.46-28.531
	c0.898-1.904,0.505-4.166-0.984-5.655l-25.679-25.681c-1.488-1.488-3.75-1.882-5.655-0.984l-28.532,13.46h-0.001
	c-4.771-2.417-9.782-4.495-14.896-6.174l-10.655-29.688c-0.711-1.98-2.589-3.303-4.694-3.303h-36.318
	c-2.105,0-3.983,1.322-4.694,3.303l-10.655,29.688c-5.112,1.68-10.124,3.758-14.897,6.174l-28.53-13.459
	c-1.904-0.898-4.166-0.505-5.655,0.984l-25.681,25.68c-1.488,1.487-1.882,3.751-0.984,5.654l13.459,28.531
	c-2.423,4.79-4.5,9.801-6.172,14.896l-29.69,10.657c-1.981,0.711-3.303,2.589-3.303,4.694v36.316c0,2.105,1.322,3.983,3.303,4.694
	l29.688,10.656c1.676,5.104,3.753,10.116,6.172,14.895l-13.459,28.533c-0.898,1.903-0.504,4.166,0.984,5.654l25.681,25.68
	c1.488,1.487,3.75,1.882,5.655,0.984l28.53-13.459c4.778,2.42,9.789,4.497,14.897,6.173l10.655,29.687
	c0.711,1.98,2.589,3.303,4.694,3.303h36.318c2.105,0,3.983-1.322,4.694-3.303l10.655-29.687c5.106-1.677,10.118-3.754,14.897-6.173
	l28.532,13.461c1.903,0.896,4.166,0.504,5.655-0.984l25.68-25.682c1.488-1.488,1.882-3.751,0.984-5.655l-13.46-28.53
	c2.42-4.777,4.497-9.789,6.174-14.897l29.688-10.655c1.981-0.711,3.303-2.589,3.303-4.694v-36.317
	C279.124,349.298,277.803,347.42,275.822,346.708z M144.166,409.708c-22.173,0-40.148-17.975-40.148-40.148
	c0-22.173,17.975-40.148,40.148-40.148s40.148,17.975,40.148,40.148C184.314,391.732,166.338,409.708,144.166,409.708z"/>
<path style="fill:#F27019;" d="M144.166,314.214c-30.567,0-55.347,24.779-55.347,55.347c0,30.567,24.78,55.345,55.347,55.345
	c30.568,0,55.347-24.779,55.347-55.345C199.512,338.993,174.732,314.214,144.166,314.214z M144.166,397.232
	c-15.283,0-27.674-12.39-27.674-27.672c0-15.284,12.39-27.674,27.674-27.674c15.283,0,27.674,12.39,27.674,27.674
	C171.839,384.843,159.449,397.232,144.166,397.232z"/>
<g>
	<path style="fill:#E26814;" d="M248.277,203.266c0-40.879,30.556-74.596,70.067-79.621c-48.408-6.155-90.515,31.546-90.515,79.621
		c0,48.034,42.064,85.773,90.515,79.618C278.833,277.86,248.277,244.143,248.277,203.266z"/>
	<path style="fill:#E26814;" d="M109.266,369.561c0-27.073,19.443-49.59,45.123-54.388c-34.171-6.386-65.571,19.798-65.571,54.388
		c0,34.539,31.347,60.782,65.571,54.386C128.71,419.149,109.266,396.632,109.266,369.561z"/>
</g>
<path style="fill:#F2961D;" d="M71.918,369.229c0-60.906,40.448-112.356,95.943-128.978c-0.752-2.097-1.552-5.652-5.537-5.652
	h-36.318c-2.105,0-3.983,1.322-4.694,3.303l-10.655,29.688c-5.112,1.68-10.124,3.758-14.897,6.174l-28.53-13.459
	c-1.904-0.898-4.166-0.505-5.655,0.984l-25.681,25.68c-1.488,1.487-1.882,3.751-0.984,5.654l13.459,28.531
	c-2.423,4.79-4.5,9.801-6.172,14.896l-29.69,10.657c-1.981,0.711-3.303,2.589-3.303,4.694v36.316c0,2.105,1.322,3.983,3.303,4.694
	l29.688,10.656c1.676,5.104,3.753,10.116,6.172,14.895l-13.459,28.533c-0.898,1.903-0.504,4.166,0.984,5.654l25.681,25.68
	c1.488,1.487,3.75,1.882,5.655,0.984l28.53-13.459c4.778,2.42,9.789,4.497,14.897,6.173l10.655,29.687
	c0.711,1.98,2.589,3.303,4.694,3.303h36.318c2.105,0,3.983-1.322,4.694-3.303l1.058-2.947
	C112.47,481.717,71.918,430.213,71.918,369.229z"/>
<g>
	<path style="fill:#020202;" d="M505.875,164.791l-44.468-15.961c-1.909-5.394-4.109-10.702-6.569-15.853
		c21.942-46.513,20.874-43.608,20.874-45.927c0-1.984-0.788-3.886-2.19-5.29c-48.243-48.246-45.571-46.643-49.743-46.643
		c-2.356,0,0.487-1.02-45.925,20.874c-5.146-2.458-10.455-4.657-15.854-6.568L346.04,4.954C344.973,1.982,342.155,0,338.998,0
		h-62.867c-3.157,0-5.975,1.982-7.041,4.953l-15.962,44.469c-5.394,1.91-10.703,4.11-15.852,6.568l-42.733-20.16
		c-2.856-1.347-6.249-0.757-8.483,1.476l-44.454,44.455c-2.231,2.232-2.823,5.627-1.476,8.482l20.16,42.733
		c-2.461,5.153-4.66,10.461-6.568,15.852l-44.47,15.962c-2.971,1.066-4.953,3.884-4.953,7.041v62.865
		c0,5.817,5.356,7.185,6.884,7.733l-6.914,19.265c-3.091,1.128-6.137,2.39-9.111,3.775l-28.465-13.429
		c-2.856-1.347-6.25-0.756-8.483,1.475l-30.643,30.643c-2.232,2.232-2.823,5.627-1.475,8.483l13.429,28.465
		c-1.387,2.978-2.649,6.025-3.774,9.11L6.123,340.853c-2.971,1.066-4.953,3.884-4.953,7.041v43.334c0,3.157,1.982,5.975,4.954,7.042
		l29.622,10.63c1.126,3.088,2.388,6.133,3.774,9.111l-13.427,28.467c-1.348,2.855-0.756,6.249,1.475,8.481l30.641,30.643
		c2.232,2.231,5.624,2.823,8.483,1.476l28.466-13.429c2.974,1.387,6.022,2.648,9.112,3.775l10.631,29.62
		c1.065,2.971,3.884,4.954,7.041,4.954h43.335c3.157,0,5.975-1.982,7.041-4.954l10.631-29.62c3.09-1.127,6.135-2.39,9.112-3.775
		l28.465,13.43c2.857,1.346,6.255,0.755,8.486-1.477l30.64-30.643c2.232-2.232,2.823-5.627,1.475-8.482l-13.43-28.464
		c1.387-2.974,2.649-6.022,3.776-9.113l18.003-6.463c1.264,2.482,3.814,4.092,6.653,4.092h62.867c3.157,0,5.975-1.982,7.042-4.954
		l15.959-44.467c5.399-1.91,10.708-4.11,15.855-6.568l42.732,20.16c2.074,0.978,4.487,0.95,6.542-0.077
		c1.551-0.775-1.585,2.129,46.394-45.856c2.232-2.232,2.823-5.627,1.475-8.482l-20.159-42.731c2.462-5.152,4.661-10.46,6.569-15.856
		l44.468-15.96c2.973-1.066,4.954-3.885,4.954-7.042v-62.865C510.829,168.675,508.846,165.858,505.875,164.791z M271.088,385.965
		c-41.188,14.782-26.944,6.087-38.357,28.621c-1.043,2.06-1.077,4.485-0.093,6.572l12.712,26.943l-23.199,23.201l-26.945-12.712
		c-2.087-0.984-4.512-0.95-6.572,0.093c-13.232,6.7-16.646,4.991-18.558,10.321l-10.062,28.034h-32.81l-10.062-28.034
		c-0.779-2.172-2.516-3.861-4.708-4.581c-23.717-7.787-7.655-11.856-47.366,6.879l-23.2-23.2l12.711-26.945
		c0.985-2.088,0.951-4.514-0.092-6.571c-11.264-22.25,2.984-13.782-38.357-28.621v-32.808l28.037-10.066
		c5.326-1.912,3.614-5.306,10.321-18.56c1.041-2.059,1.074-4.483,0.091-6.569l-12.711-26.943l23.2-23.2l26.944,12.711
		c2.09,0.986,4.513,0.95,6.572-0.093c22.261-11.274,13.783,2.983,28.62-38.357h32.81l10.062,28.035
		c0.779,2.171,2.515,3.86,4.706,4.58c14.118,4.639,15.312,8.248,20.425,5.834l26.946-12.712l23.198,23.201l-12.712,26.943
		c-0.984,2.088-0.951,4.513,0.093,6.572c11.265,22.248-2.983,13.78,38.357,28.622v32.81H271.088z M495.867,229.435l-42.905,15.399
		c-5.814,2.087-3.481,6.274-13.103,25.273c-1.043,2.06-1.077,4.485-0.093,6.572l19.452,41.231l-37.009,37.012l-41.233-19.453
		c-5.623-2.652-6.72,1.912-27.136,8.613c-2.191,0.72-3.929,2.41-4.709,4.581l-15.397,42.904h-47.692
		c0.012-0.279,0.008-43.394,0.008-43.673c0-3.157-1.982-5.974-4.953-7.041l-29.622-10.634c-1.128-3.091-2.39-6.136-3.776-9.111
		c14.533-30.805,14.195-29.424,14.144-31.816c-0.04-1.888-0.794-3.738-2.189-5.132c-33.401-33.402-31.64-32.443-35.194-32.795
		c-2.746-0.273-1.232-0.596-32.397,14.107c-2.971-1.385-6.019-2.647-9.111-3.776l-10.631-29.621
		c-1.066-2.971-3.885-4.954-7.042-4.954c-46.923,0-44.236-0.194-46.017,0.497v-50.52l42.906-15.4c2.171-0.779,3.86-2.516,4.58-4.707
		c6.71-20.434,11.27-21.504,8.613-27.136l-19.452-41.232l37.012-37.013l41.231,19.452c5.627,2.653,6.691-1.894,27.138-8.615
		c2.19-0.72,3.927-2.41,4.705-4.579l15.399-42.904h52.342l15.397,42.904c2.106,5.865,6.133,3.412,25.274,13.103
		c2.06,1.043,4.485,1.077,6.571,0.092l41.235-19.453l37.008,37.01l-19.453,41.235c-0.985,2.088-0.951,4.513,0.093,6.571
		c9.698,19.151,7.233,23.164,13.103,25.272l42.905,15.399v52.34H495.867z"/>
	<path style="fill:#020202;" d="M163.424,309.94c-3.918-1.304-8.155,0.819-9.457,4.741c-1.304,3.921,0.819,8.155,4.741,9.458
		c19.599,6.512,32.769,24.765,32.769,45.422c0,26.392-21.473,47.864-47.866,47.864s-47.866-21.472-47.866-47.864
		c0-20.657,13.169-38.91,32.769-45.422c3.922-1.303,6.045-5.537,4.741-9.458c-1.302-3.921-5.535-6.045-9.457-4.741
		c-25.728,8.546-43.014,32.507-43.014,59.621c0,34.642,28.185,62.826,62.828,62.826c34.644,0,62.828-28.184,62.828-62.826
		C206.438,342.446,189.152,318.487,163.424,309.94z"/>
	<path style="fill:#020202;" d="M387.551,213.417c-4.03-0.891-8.029,1.65-8.923,5.684c-7.322,33.013-37.209,56.974-71.063,56.974
		c-40.147,0-72.81-32.661-72.81-72.808c0-40.148,32.662-72.811,72.81-72.811c33.853,0,63.739,23.96,71.062,56.973
		c0.896,4.034,4.895,6.578,8.923,5.684c4.034-0.895,6.578-4.891,5.684-8.923c-8.742-39.405-43.927-68.695-85.67-68.695
		c-48.397,0-87.772,39.375-87.772,87.773c0,73.489,85.816,114.676,143.063,68.156c15.334-12.459,26.124-29.891,30.38-49.083
		C394.129,218.306,391.585,214.312,387.551,213.417z"/>
	<path style="fill:#020202;" d="M108.698,369.68c0,19.384,15.77,35.153,35.154,35.153s35.154-15.77,35.154-35.153
		c0-19.385-15.77-35.155-35.154-35.155S108.698,350.296,108.698,369.68z M143.852,349.487c11.134,0,20.192,9.058,20.192,20.193
		c0,11.133-9.058,20.191-20.192,20.191s-20.192-9.058-20.192-20.191C123.66,358.545,132.719,349.487,143.852,349.487z"/>
	<path style="fill:#020202;" d="M307.806,146.275c-31.49,0-57.11,25.62-57.11,57.11s25.62,57.109,57.11,57.109
		s57.11-25.619,57.11-57.109S339.298,146.275,307.806,146.275z M307.806,245.532c-23.241,0-42.148-18.907-42.148-42.147
		s18.907-42.148,42.148-42.148s42.148,18.908,42.148,42.148S331.048,245.532,307.806,245.532z"/>
</g>
<g>
</g>
<g>
</g>
<g>
</g>
<g>
</g>
<g>
</g>
<g>
</g>
<g>
</g>
<g>
</g>
<g>
</g>
<g>
</g>
<g>
</g>
<g>
</g>
<g>
</g>
<g>
</g>
<g>
</g>
</svg>
