<svg id="Gradient" height="512" viewBox="0 0 512 512" width="512" xmlns="http://www.w3.org/2000/svg" xmlns:xlink="http://www.w3.org/1999/xlink"><linearGradient id="linear-gradient" gradientUnits="userSpaceOnUse" x1="256" x2="256" y1="496" y2="16"><stop offset="0" stop-color="#12c2e9"/><stop offset=".5" stop-color="#c471ed"/><stop offset="1" stop-color="#f64f59"/></linearGradient><path d="m68.169 447.023c3.666 2 90.906 48.977 187.831 48.977 105.008 0 184.772-47.134 188.116-49.14a8 8 0 0 0 3.884-6.86c0-64.593-19.807-123.7-55.771-166.442-25.158-29.9-56.724-50.28-91.539-59.662a104 104 0 1 0 -89.38 0c-34.815 9.382-66.381 29.765-91.539 59.662-35.964 42.742-55.771 101.849-55.771 166.442a8 8 0 0 0 4.169 7.023zm99.831-327.023a88 88 0 1 1 88 88 88.1 88.1 0 0 1 -88-88zm-35.987 163.859c32.487-38.601 76.515-59.859 123.987-59.859s91.5 21.258 123.987 59.859c32.681 38.838 51.056 92.48 51.977 151.474-17.119 9.267-88.256 44.667-175.964 44.667-81.11 0-157.5-35.609-175.96-44.856.96-58.921 19.327-112.488 51.973-151.285z" fill="url(#linear-gradient)"/></svg>