<?xml version="1.0" encoding="iso-8859-1"?>
<!-- Generator: Adobe Illustrator 19.0.0, SVG Export Plug-In . SVG Version: 6.00 Build 0)  -->
<svg version="1.1" id="Capa_1" xmlns="http://www.w3.org/2000/svg" xmlns:xlink="http://www.w3.org/1999/xlink" x="0px" y="0px"
	 viewBox="0 0 512.121 512.121" style="enable-background:new 0 0 512.121 512.121;" xml:space="preserve">
<g transform="translate(-1 -1)">
	<g transform="translate(1 1)">
		<path style="fill:#2E7D32;" d="M471.595,377.779c-1.446,2.519-2.211,5.372-2.219,8.277V503.56l-25.6-15.36l-38.059-22.784
			c-5.631-3.351-12.675-3.219-18.176,0.341c-1.109,0.682-2.219,1.365-3.413,2.048c-42.443,25.814-91.712,38.161-141.312,35.413
			c-2.56-0.085-5.035-0.256-7.595-0.512C105.501,491.777,6.427,382.213,8.565,252.05S113.319,15.634,243.329,8.968h0.085
			c10.835-0.581,21.696-0.438,32.512,0.427c84.17,6.808,159.065,56.051,198.677,130.629S513.082,304.227,471.595,377.779z"/>
		<path style="fill:#4CAF50;" d="M445.995,377.779c-1.446,2.519-2.211,5.372-2.219,8.277V503.56l-59.648-35.755l-4.011-2.389
			c-5.631-3.351-12.675-3.219-18.176,0.341c-35.799,22.583-76.845,35.491-119.125,37.461c-2.56-0.085-5.035-0.256-7.595-0.512
			C105.501,491.777,6.427,382.213,8.565,252.05S113.319,15.634,243.329,8.968h0.085c2.304,0.085,4.608,0.256,6.912,0.427
			c84.17,6.808,159.065,56.051,198.677,130.629S487.482,304.227,445.995,377.779z"/>
		<path style="fill:#558B30;" d="M452.31,256.094c-0.015,108.389-87.878,196.251-196.267,196.267c-4.352,0-8.619-0.171-12.8-0.427
			c-103.204-6.741-183.465-92.416-183.465-195.84S140.04,66.995,243.243,60.254c4.181-0.256,8.448-0.427,12.8-0.427
			C364.432,59.842,452.295,147.705,452.31,256.094z"/>
		<ellipse style="fill:#8BC34A;" cx="243.243" cy="256.094" rx="183.467" ry="195.84"/>
		<g>
			<circle style="fill:#FFFFFF;" cx="256.043" cy="145.16" r="34.133"/>
			<path style="fill:#FFFFFF;" d="M238.977,256.094v68.267c0,4.713-3.821,8.533-8.533,8.533h-17.067
				c-4.713,0-8.533,3.82-8.533,8.533v34.133c0,4.713,3.82,8.533,8.533,8.533h102.4c4.713,0,8.533-3.821,8.533-8.533v-34.133
				c0-4.713-3.821-8.533-8.533-8.533H298.71c-4.713,0-8.533-3.82-8.533-8.533v-102.4c0-4.713-3.821-8.533-8.533-8.533H221.91
				c-4.713,0-8.533,3.821-8.533,8.533v17.067c0,4.713,3.821,8.533,8.533,8.533h8.533
				C235.156,247.56,238.977,251.381,238.977,256.094z"/>
		</g>
	</g>
	<g>
		<path d="M257.043,188.827c23.564,0,42.667-19.103,42.667-42.667s-19.103-42.667-42.667-42.667s-42.667,19.103-42.667,42.667
			C214.404,169.713,233.491,188.799,257.043,188.827z M257.043,120.56c14.138,0,25.6,11.462,25.6,25.6
			c0,14.138-11.462,25.6-25.6,25.6c-14.139,0-25.6-11.462-25.6-25.6C231.459,132.028,242.911,120.576,257.043,120.56z"/>
		<path d="M214.377,393.627h102.4c9.421-0.011,17.056-7.645,17.067-17.067v-34.133c-0.011-9.421-7.645-17.056-17.067-17.067H299.71
			v-102.4c-0.011-9.421-7.645-17.056-17.067-17.067H222.91c-9.421,0.011-17.056,7.645-17.067,17.067v17.067
			c0.011,9.421,7.645,17.056,17.067,17.067l8.533-0.009v68.275h-17.067c-9.421,0.011-17.056,7.645-17.067,17.067v34.133
			C197.321,385.981,204.956,393.616,214.377,393.627z M214.377,342.427h17.067c9.421-0.011,17.056-7.645,17.067-17.067v-68.267
			c-0.011-9.421-7.645-17.056-17.067-17.067h-8.533V222.96h59.733v102.4c0.011,9.421,7.645,17.056,17.067,17.067h17.067v34.133
			h-102.4V342.427z"/>
		<path d="M235.564,512.219c7.233,0.583,14.435,0.878,21.604,0.884c48.094,0.09,95.226-13.471,135.917-39.108
			c2.777-1.823,6.342-1.936,9.229-0.292l63.675,38.175c2.636,1.581,5.918,1.622,8.593,0.108c2.675-1.515,4.328-4.351,4.328-7.425
			V387.052c0.013-1.428,0.395-2.829,1.108-4.067c55.895-98.974,39.85-222.949-39.4-304.432S237.886-22.413,137.398,30.712
			S-16.527,196.848,6.179,308.224S122.299,502.673,235.564,512.219L235.564,512.219z M88.006,88.202
			c44.915-44.914,105.856-70.109,169.375-70.025c6.258,0,12.539,0.244,18.842,0.733c81.271,6.565,153.59,54.106,191.841,126.112
			s37.158,158.545-2.899,229.562c-2.165,3.799-3.309,8.094-3.321,12.466v102.442l-50.75-30.425
			c-8.391-4.982-18.876-4.798-27.087,0.475c-43.817,27.603-95.456,40.125-147.05,35.658
			c-92.652-7.815-172.357-68.666-204.312-155.983S22.286,153.976,88.006,88.202z"/>
		<path d="M257.043,461.894c113.108,0,204.8-91.692,204.8-204.8s-91.692-204.8-204.8-204.8s-204.8,91.692-204.8,204.8
			C52.373,370.148,143.989,461.764,257.043,461.894z M257.043,69.36c103.682,0,187.733,84.051,187.733,187.733
			s-84.051,187.733-187.733,187.733S69.31,360.776,69.31,257.094C69.427,153.46,153.41,69.477,257.043,69.36z"/>
	</g>
</g>
<g>
</g>
<g>
</g>
<g>
</g>
<g>
</g>
<g>
</g>
<g>
</g>
<g>
</g>
<g>
</g>
<g>
</g>
<g>
</g>
<g>
</g>
<g>
</g>
<g>
</g>
<g>
</g>
<g>
</g>
</svg>
