<svg height="512" viewBox="0 0 512 512" width="512" xmlns="http://www.w3.org/2000/svg" xmlns:xlink="http://www.w3.org/1999/xlink"><linearGradient id="New_Gradient_Swatch_1" gradientUnits="userSpaceOnUse" x1="316.485" x2="389.456" y1="364.485" y2="291.515"><stop offset=".004" stop-color="#f1cccd"/><stop offset="1" stop-color="#faeeee"/></linearGradient><linearGradient id="New_Gradient_Swatch_1-2" x1="316.485" x2="389.456" xlink:href="#New_Gradient_Swatch_1" y1="412.485" y2="339.515"/><linearGradient id="New_Gradient_Swatch_1-3" x1="308.485" x2="381.456" xlink:href="#New_Gradient_Swatch_1" y1="460.485" y2="387.515"/><linearGradient id="New_Gradient_Swatch_1-4" x1="300.485" x2="373.456" xlink:href="#New_Gradient_Swatch_1" y1="508.485" y2="435.515"/><linearGradient id="New_Gradient_Swatch_1-5" x1="179.373" x2="366.507" xlink:href="#New_Gradient_Swatch_1" y1="472.627" y2="285.493"/><linearGradient id="New_Gradient_Swatch_11" gradientUnits="userSpaceOnUse" x1="76" x2="212" y1="468" y2="332"><stop offset=".011" stop-color="#60c6be"/><stop offset="1" stop-color="#80d1cb"/></linearGradient><linearGradient id="New_Gradient_Swatch_5" gradientUnits="userSpaceOnUse" x1="206.508" x2="305.492" y1="145.305" y2="46.321"><stop offset=".011" stop-color="#f8c73f"/><stop offset="1" stop-color="#fada7f"/></linearGradient><linearGradient id="New_Gradient_Swatch_5-2" gradientTransform="matrix(.878 .479 -.479 .878 129.735 -195.81)" x1="410.136" x2="450.143" xlink:href="#New_Gradient_Swatch_5" y1="253.785" y2="117.877"/><linearGradient id="New_Gradient_Swatch_5-3" gradientTransform="matrix(-.878 .479 .479 .878 382.265 -195.81)" x1="495.353" x2="364.926" xlink:href="#New_Gradient_Swatch_5" y1="205.028" y2="166.635"/><g id="_22-guarantee" data-name="22-guarantee"><g id="linear_color" data-name="linear color"><path d="m304 304h88a24 24 0 0 1 24 24 24 24 0 0 1 -24 24h-88a0 0 0 0 1 0 0v-48a0 0 0 0 1 0 0z" fill="url(#New_Gradient_Swatch_1)"/><path d="m304 352h88a24 24 0 0 1 24 24 24 24 0 0 1 -24 24h-88a0 0 0 0 1 0 0v-48a0 0 0 0 1 0 0z" fill="url(#New_Gradient_Swatch_1-2)"/><path d="m296 400h88a24 24 0 0 1 24 24 24 24 0 0 1 -24 24h-88a0 0 0 0 1 0 0v-48a0 0 0 0 1 0 0z" fill="url(#New_Gradient_Swatch_1-3)"/><path d="m288 448h88a24 24 0 0 1 24 24 24 24 0 0 1 -24 24h-88a0 0 0 0 1 0 0v-48a0 0 0 0 1 0 0z" fill="url(#New_Gradient_Swatch_1-4)"/><path d="m304 304v-55c0-16 0-49-48-49v65l-24 39h1l-49 32v128a32 32 0 0 0 32 32h136v-192z" fill="url(#New_Gradient_Swatch_1-5)"/><path d="m104 304h80v192h-80z" fill="url(#New_Gradient_Swatch_11)"/><path d="m256 16.208 21.898 44.371 48.966 7.115-35.432 34.538 8.365 48.768-43.797-23.025-43.797 23.025 8.365-48.768-35.432-34.538 48.966-7.115z" fill="url(#New_Gradient_Swatch_5)"/><path d="m458.259 112.868-2.011 49.44 39.587 29.685-47.642 13.364-15.999 46.823-27.432-41.18-49.475-.747 30.687-38.815-14.578-47.284 46.398 17.19z" fill="url(#New_Gradient_Swatch_5-2)"/><path d="m53.741 112.868 2.011 49.44-39.587 29.685 47.642 13.364 15.999 46.823 27.432-41.18 49.475-.747-30.687-38.815 14.578-47.284-46.398 17.19z" fill="url(#New_Gradient_Swatch_5-3)"/><path d="m392 292h-76v-43c0-8.791 0-23.5-7.644-36.562-9.492-16.216-27.107-24.438-52.356-24.438a12 12 0 0 0 -12 12v61.6l-21.483 34.91-26.517 17.321v-9.831a12 12 0 0 0 -12-12h-80a12 12 0 0 0 -12 12v192a12 12 0 0 0 12 12h80a11.978 11.978 0 0 0 10.246-5.778 43.714 43.714 0 0 0 21.754 5.778h160a35.973 35.973 0 0 0 30.151-55.635 37.017 37.017 0 0 0 3.314-2.92 35.948 35.948 0 0 0 4.686-45.08 37.017 37.017 0 0 0 3.314-2.92 35.957 35.957 0 0 0 1.35-49.432 36 36 0 0 0 -26.815-60.013zm-220 192h-56v-168h56zm212.5-3.525a11.959 11.959 0 0 1 -8.5 3.525h-160a20.023 20.023 0 0 1 -20-20v-121.5l43.562-28.448a12.15 12.15 0 0 0 5.262-7.99l21.4-34.768a12 12 0 0 0 1.776-6.294v-52.1c21.979 3.739 24 18.617 24 36.1v55a12 12 0 0 0 12 12h88a12 12 0 0 1 0 24h-24a12 12 0 0 0 0 24h24a12 12 0 0 1 0 24h-24a12 12 0 0 0 0 24h16a12 12 0 0 1 0 24h-16a12 12 0 0 0 0 24h8a12 12 0 0 1 8.5 20.475z"/><circle cx="144" cy="465" r="12"/><path d="m207.674 106.421-7.3 42.551a12 12 0 0 0 17.412 12.649l38.214-20.089 38.212 20.089c8.372 4.767 19.357-3.2 17.412-12.649l-7.3-42.551 30.916-30.134a12 12 0 0 0 -6.65-20.468l-42.723-6.208-19.106-38.711a12 12 0 0 0 -21.522 0l-19.106 38.711-42.723 6.208a12 12 0 0 0 -6.65 20.468zm28.153-33.967a12 12 0 0 0 9.035-6.564l11.138-22.568 11.138 22.568a12 12 0 0 0 9.035 6.564l24.9 3.619-18.017 17.566a12 12 0 0 0 -3.451 10.621l4.254 24.8-22.275-11.709a12 12 0 0 0 -11.168 0l-22.275 11.709 4.254-24.8a12 12 0 0 0 -3.451-10.621l-18.021-17.566z"/><path d="m503.034 182.392-34.539-25.9 1.755-43.137a12 12 0 0 0 -18.9-10.3l-35.302 24.845-40.483-15a12 12 0 0 0 -15.636 14.787l12.719 41.256-26.774 33.867a12 12 0 0 0 9.232 19.441l43.166.651 23.936 35.93c5.114 8.213 18.516 6.441 21.342-2.773l13.959-40.853 41.567-11.661a12 12 0 0 0 3.958-21.154zm-58.082 11.408a12 12 0 0 0 -8.114 7.674l-8.138 23.817-13.952-20.944a12 12 0 0 0 -9.805-5.347l-25.163-.38 15.608-19.741a12 12 0 0 0 2.053-10.978l-7.414-24.048 23.6 8.744a12 12 0 0 0 11.076-1.44l20.58-14.483-1.023 25.145a12 12 0 0 0 4.791 10.088l20.134 15.1z"/><path d="m156.894 222.252c9.646.168 15.458-12.073 9.232-19.441l-26.774-33.867 12.719-41.256a12 12 0 0 0 -15.636-14.788l-40.483 15-35.3-24.845a12 12 0 0 0 -18.9 10.3l1.755 43.137-34.539 25.9a12 12 0 0 0 3.958 21.154l41.567 11.661 13.957 40.853c2.826 9.216 16.229 10.984 21.342 2.773l23.936-35.93zm-59.643-17.9-13.951 20.939-8.137-23.813a12 12 0 0 0 -8.114-7.674l-24.231-6.8 20.134-15.1a12 12 0 0 0 4.791-10.088l-1.023-25.145 20.58 14.487a12 12 0 0 0 11.076 1.44l23.6-8.744-7.417 24.046a12 12 0 0 0 2.053 10.978l15.608 19.741-25.163.38a12 12 0 0 0 -9.806 5.348z"/></g></g></svg>