<svg height="512pt" viewBox="0 0 512 512" width="512pt" xmlns="http://www.w3.org/2000/svg"><path d="m500.976562 255.5c0 135.839844-110.121093 245.957031-245.960937 245.957031s-245.960937-110.117187-245.960937-245.957031 110.121093-245.960938 245.960937-245.960938 245.960937 110.121094 245.960937 245.960938zm0 0" fill="#ff6c6c"/><path d="m326.875 186.171875c-13.460938-4.578125-27.261719-7.933594-41.179688-10.003906-10.039062-1.492188-20.136718-2.316407-30.214843-2.453125-15.855469-.214844-31.660157 1.277344-47.089844 4.558594-36.96875 7.859374-71.777344 26-99.953125 55.574218-.617188.621094-1.234375 1.242188-1.847656 1.902344-19.25 20.726562-18.050782 53.121094 2.675781 72.371094 2.191406 2.035156 4.539063 3.867187 6.992187 5.453125 6.332032 1.933593 15.773438.171875 20.980469-3.914063l45.949219-36.039062c8.3125-6.519532 10.996094-18.121094 5.972656-27.414063-.0625-.109375-.121094-.21875-.179687-.328125-1.984375-3.605468-.507813-8.109375 3.25-9.789062 17.519531-7.832032 36.269531-12.117188 55.15625-12.816406 18.882812-.695313 37.863281 2.191406 55.898437 8.703124 3.875 1.398438 5.675782 5.785157 3.960938 9.53125-.050782.113282-.101563.226563-.152344.339844-4.328125 9.628906-.792969 20.996094 7.972656 26.878906l52.742188 35.410157c5.1875 3.480469 12.015625 3.265625 16.976562-.53125 2.332032-1.722657 4.535156-3.722657 6.574219-5.914063 18.632813-20.066406 18.121094-51.125-.769531-70.523437-.625-.617188-1.246094-1.230469-1.90625-1.847657-.664063-.613281-1.324219-1.1875-1.984375-1.761718-5.085938-4.605469-8.089844-6.753906-13.5-10.738282 0 0-27.042969-20.082031-46.324219-26.648437zm0 0" fill="#fff"/><path d="m437.019531 74.980469c-48.351562-48.351563-112.640625-74.980469-181.019531-74.980469-53.316406 0-104.417969 16.230469-147.78125 46.9375-4.523438 3.203125-5.59375 9.472656-2.390625 13.996094 3.203125 4.523437 9.46875 5.59375 13.996094 2.390625 39.953125-28.289063 87.039062-43.246094 136.175781-43.246094 63.015625 0 122.261719 24.542969 166.820312 69.101563 44.558594 44.558593 69.097657 103.804687 69.097657 166.820312s-24.539063 122.261719-69.097657 166.820312c-44.558593 44.558594-103.804687 69.097657-166.820312 69.097657s-122.261719-24.539063-166.820312-69.097657c-44.558594-44.558593-69.101563-103.804687-69.101563-166.820312 0-47 13.78125-92.390625 39.851563-131.253906 3.089843-4.605469 1.863281-10.84375-2.742188-13.929688-4.605469-3.09375-10.84375-1.863281-13.929688 2.742188-28.300781 42.1875-43.257812 91.441406-43.257812 142.441406 0 68.378906 26.628906 132.667969 74.980469 181.019531 48.351562 48.351563 112.640625 74.980469 181.019531 74.980469s132.667969-26.628906 181.019531-74.980469c48.351563-48.351562 74.980469-112.640625 74.980469-181.019531 0-68.382812-26.628906-132.667969-74.980469-181.019531zm0 0"/><path d="m319.847656 437.917969c-20.601562 6.164062-42.058594 9.480469-63.769531 9.851562-21.714844.363281-43.265625-2.207031-64.0625-7.667969-5.367187-1.402343-10.851563 1.800782-12.261719 7.164063-1.40625 5.363281 1.800782 10.851563 7.164063 12.257813 21.152343 5.554687 43.019531 8.359374 65.066406 8.359374 1.476563 0 2.957031-.011718 4.4375-.035156 23.546875-.402344 46.820313-4 69.179687-10.691406 5.3125-1.589844 8.332032-7.1875 6.742188-12.5-1.589844-5.308594-7.183594-8.332031-12.496094-6.738281zm0 0"/><path d="m82.902344 271.625c.605468 16.347656 7.542968 31.480469 19.53125 42.613281 2.621094 2.4375 5.4375 4.632813 8.375 6.53125.78125.503907 1.628906.898438 2.515625 1.167969 2.679687.820312 5.640625 1.210938 8.6875 1.210938 7.671875 0 15.878906-2.476563 21.425781-6.824219l45.945312-36.042969c11.554688-9.0625 15.457032-24.457031 9.847657-37.519531 15.410156-6.476563 31.714843-10.070313 48.527343-10.691407 16.789063-.625 33.300782 1.757813 49.128907 7.074219-4.632813 13.4375.390625 28.496094 12.582031 36.683594l52.742188 35.40625c8.746093 5.871094 20.230468 5.527344 28.609374-.839844 2.757813-2.042969 5.414063-4.4375 7.894532-7.109375 22.234375-23.941406 21.824218-60.996094-.933594-84.359375-.039062-.039062-.082031-.082031-.121094-.121093-.699218-.695313-1.402344-1.386719-2.140625-2.074219-.703125-.648438-1.402343-1.261719-2.15625-1.917969-5.085937-4.597656-8.304687-6.96875-13.171875-10.546875l-1.007812-.738281c-1.15625-.859375-28.539063-21.105469-49.074219-28.09375-13.972656-4.753906-28.382813-8.261719-42.832031-10.414063l-3.40625-.582031c-25.984375-4.421875-52.132813-3.476562-77.726563 2.8125-40.457031 8.636719-76.726562 28.816406-104.90625 58.363281-.671875.675781-1.339843 1.355469-2.007812 2.074219-11.132813 11.984375-16.929688 27.589844-16.328125 43.9375zm31.046875-30.28125c.535156-.578125 1.074219-1.121094 1.613281-1.664062.046875-.046876.09375-.09375.144531-.144532 25.421875-26.683594 58.195313-44.902344 94.773438-52.679687.105469-.023438.210937-.046875.3125-.074219 22.953125-5.660156 46.40625-6.515625 69.710937-2.550781l3.507813.597656c.070312.011719.136719.023437.207031.035156 13.292969 1.976563 26.554688 5.199219 39.421875 9.578125 17.546875 5.972656 43.316406 25.011719 43.605469 25.226563l1.050781.773437c4.703125 3.460938 7.292969 5.363282 11.664063 9.324219.050781.042969.160156.136719.207031.179687.558593.488282 1.121093.972657 1.6875 1.5.554687.515626 1.074219 1.03125 1.597656 1.546876 15.230469 15.695312 15.476563 40.554687.546875 56.628906-1.65625 1.785156-3.398438 3.355468-5.179688 4.671875-.046874.035156-.09375.070312-.140624.105469-1.542969 1.179687-3.660157 1.246093-5.273438.164062l-52.742188-35.410156c-4.773437-3.199219-6.667968-9.40625-4.382812-14.492188l.09375-.210937c1.992188-4.347657 2.078125-9.359375.234375-13.753907-1.828125-4.355468-5.425781-7.777343-9.867187-9.382812-19.179688-6.929688-39.273438-10.066406-59.726563-9.308594-20.472656.757813-40.296875 5.367188-58.925781 13.703125-4.3125 1.929688-7.644532 5.605469-9.148438 10.082031-1.511718 4.515626-1.058594 9.503907 1.238282 13.683594l.148437.273438c2.625 4.851562 1.191406 11.1875-3.335937 14.738281l-45.949219 36.039063c-2.355469 1.851562-7.351563 2.9375-10.691407 2.460937-1.472656-1.042969-2.898437-2.199219-4.253906-3.457031-8.058594-7.484375-12.722656-17.65625-13.128906-28.644532-.40625-10.988281 3.492188-21.476562 10.980469-29.539062zm0 0"/><path d="m355.15625 417.941406-.601562.253906c-5.101563 2.171876-7.476563 8.066407-5.304688 13.167969 1.625 3.820313 5.335938 6.113281 9.242188 6.113281 1.3125 0 2.644531-.257812 3.925781-.804687l.601562-.253906c5.101563-2.171875 7.476563-8.070313 5.304688-13.171875-2.171875-5.101563-8.066407-7.476563-13.167969-5.304688zm0 0"/><path d="m79.710938 95.132812c1.304687 0 2.632812-.253906 3.910156-.796874l.601562-.253907c5.105469-2.164062 7.488282-8.058593 5.324219-13.160156-2.164063-5.105469-8.054687-7.492187-13.160156-5.328125l-.601563.253906c-5.105468 2.164063-7.488281 8.058594-5.324218 13.160156 1.621093 3.828126 5.339843 6.125 9.25 6.125zm0 0"/></svg>