<svg id="Capa_1" enable-background="new 0 0 512 512" height="512" viewBox="0 0 512 512" width="512" xmlns="http://www.w3.org/2000/svg"><g><g><g><path d="m504.5 261.426c0-61.918-64.567-112.113-144.214-112.113s-144.214 50.195-144.214 112.113 64.567 112.113 144.214 112.113c.196 0 .391 0 .586-.001 3.928-.012 7.579 2.045 9.542 5.447 18.704 32.414 63.091 40.689 80.513 42.72 2.845.332 4.798-2.779 3.251-5.189-5.901-9.192-16.804-28.168-21.215-48.904-1.042-4.9 1.348-9.867 5.819-12.127 39.557-19.99 65.718-54.648 65.718-94.059z" fill="#ffe07d"/><path d="m438.782 355.486c39.556-19.991 65.718-54.649 65.718-94.06 0-61.918-64.567-112.113-144.214-112.113-10.818 0-21.354.933-31.492 2.689 64.5 11.17 112.723 55.916 112.723 109.425 0 39.411-26.162 74.07-65.718 94.06-4.471 2.26-6.862 7.227-5.819 12.127 1.437 6.754 3.564 13.318 5.981 19.421 20.818 25.773 59.088 32.821 74.967 34.672 2.845.332 4.798-2.779 3.251-5.189-5.901-9.192-16.804-28.168-21.215-48.904-1.043-4.901 1.348-9.868 5.818-12.128z" fill="#ffd064"/><path d="m196.963 90.269c-104.638 0-189.463 65.944-189.463 147.29 0 34.685 15.424 66.568 41.227 91.734 3.045 2.97 4.191 7.387 3.071 11.49-9.077 33.256-30.093 62.899-39.544 75.081-1.881 2.424-.104 5.942 2.964 5.865 20.966-.523 79.784-5.216 115.397-40.23 2.9-2.851 7.059-3.977 11.016-3.039 17.504 4.151 36.08 6.389 55.331 6.389 104.637 0 189.463-65.944 189.463-147.29.001-81.346-84.825-147.29-189.462-147.29z" fill="#95d6a4"/><g fill="#78c2a4"><path d="m81.247 368.177c-21.287 22.663-33.49 32.548-65.259 42.743-1.374 1.866-2.634 3.527-3.733 4.943-1.881 2.424-.104 5.942 2.964 5.865 20.967-.523 79.784-5.216 115.397-40.23 2.9-2.851 7.06-3.977 11.017-3.039-.009-.017-.02-.033-.028-.05-14.459-3.421-28.183-8.149-40.947-14.008-6.616-3.034-14.429-1.529-19.411 3.776z"/><path d="m196.963 90.269c-10.731 0-21.248.704-31.492 2.037 89.646 11.661 157.971 72.249 157.971 145.253 0 72.985-68.29 133.561-157.902 145.244 10.224 1.329 20.714 2.046 31.423 2.046 104.637 0 189.463-65.944 189.463-147.29s-84.826-147.29-189.463-147.29z"/></g></g><g fill="#f0f7ff"><circle cx="80.258" cy="236.726" r="18.493"/><circle cx="154.411" cy="236.726" r="18.493"/><circle cx="228.564" cy="236.726" r="18.493"/><circle cx="302.716" cy="236.726" r="18.493"/></g></g><g><path d="m393.926 237.559c0-93.502-98.562-154.79-196.963-154.79-98.794 0-196.963 61.576-196.963 154.79 0 35.265 15.445 69.75 43.491 97.104 1.073 1.047 1.484 2.636 1.072 4.146-8.809 32.271-29.673 61.423-38.234 72.459-2.663 3.433-3.101 7.973-1.142 11.85 1.915 3.791 5.701 6.113 9.931 6.113.096 0 .191-.001.287-.003 41.893-1.045 90.452-12.869 120.468-42.379 1.049-1.032 2.554-1.44 4.028-1.089 18.442 4.374 37.641 6.591 57.062 6.591 98.765-.002 196.963-61.553 196.963-154.792zm-250.564 133.604c-6.521-1.549-13.254.317-18.005 4.988-30.017 29.513-79.032 36.222-102.235 37.713 10.599-14.631 27.832-41.502 35.912-71.106 1.847-6.766-.096-13.982-5.07-18.834-25.49-24.861-38.964-54.726-38.964-86.365 0-77.08 81.628-139.79 181.963-139.79s181.963 62.709 181.963 139.79-81.628 139.79-181.963 139.79c-18.257 0-36.29-2.082-53.601-6.186z"/><path d="m442.165 362.18c43.729-22.099 69.835-59.764 69.835-100.754 0-57.931-52.367-107.431-124.518-117.702-4.095-.582-7.898 2.267-8.481 6.368-.584 4.101 2.267 7.898 6.368 8.482 64.684 9.208 111.631 52.463 111.631 102.852 0 35.212-23.028 67.873-61.601 87.367-7.5 3.791-11.519 12.171-9.772 20.381 3.657 17.185 11.442 33.098 17.669 43.884-44.291-7.372-61.078-28.624-66.386-37.822-3.277-5.678-9.405-9.198-16.018-9.198-.02 0-.039 0-.058 0l-.55.001c-8.317 0-16.645-.577-24.75-1.716-4.091-.575-7.894 2.282-8.47 6.384s2.282 7.894 6.384 8.47c8.794 1.235 17.823 1.861 26.836 1.861l.61-.001h.011c1.255 0 2.407.649 3.012 1.696 20.313 35.203 67.008 44.191 86.141 46.421 4.226.492 8.252-1.439 10.507-5.05 2.249-3.603 2.221-8.063-.075-11.64-5.763-8.976-16.048-26.94-20.191-46.412-.331-1.556.436-3.149 1.866-3.872z"/><path d="m80.258 210.733c-14.333 0-25.993 11.661-25.993 25.993s11.66 25.993 25.993 25.993 25.993-11.661 25.993-25.993-11.66-25.993-25.993-25.993zm0 36.987c-6.062 0-10.993-4.932-10.993-10.993s4.932-10.993 10.993-10.993 10.993 4.932 10.993 10.993-4.932 10.993-10.993 10.993z"/><path d="m154.411 210.733c-14.333 0-25.993 11.661-25.993 25.993s11.66 25.993 25.993 25.993 25.993-11.661 25.993-25.993-11.66-25.993-25.993-25.993zm0 36.987c-6.062 0-10.993-4.932-10.993-10.993s4.932-10.993 10.993-10.993 10.993 4.932 10.993 10.993-4.931 10.993-10.993 10.993z"/><path d="m228.563 210.733c-14.333 0-25.993 11.661-25.993 25.993s11.66 25.993 25.993 25.993 25.993-11.661 25.993-25.993-11.66-25.993-25.993-25.993zm0 36.987c-6.062 0-10.993-4.932-10.993-10.993s4.932-10.993 10.993-10.993 10.993 4.932 10.993 10.993-4.931 10.993-10.993 10.993z"/><path d="m302.717 210.733c-14.333 0-25.993 11.661-25.993 25.993s11.66 25.993 25.993 25.993 25.993-11.661 25.993-25.993-11.66-25.993-25.993-25.993zm0 36.987c-6.062 0-10.993-4.932-10.993-10.993s4.932-10.993 10.993-10.993 10.993 4.932 10.993 10.993-4.932 10.993-10.993 10.993z"/></g></g></svg>