<?xml version="1.0"?>
<svg xmlns="http://www.w3.org/2000/svg" width="512" height="512" viewBox="0 0 128 128"><title>BATHTUB</title><g><g><rect x="1.75" y="58.502" width="124.5" height="11" rx="4" fill="#1689fc"/><path d="M7.75,69.5h112.5a0,0,0,0,1,0,0v21.75a24,24,0,0,1-24,24H31.75a24,24,0,0,1-24-24V69.5A0,0,0,0,1,7.75,69.5Z" fill="#0d70b2"/><path d="M31.75,115.252a23.926,23.926,0,0,1-9.2-1.83l-2.485,5.867a5.006,5.006,0,0,0,4.61,6.959h0a5.007,5.007,0,0,0,4.61-3.053l3.365-7.943Z" fill="#c5c9f7"/><path d="M96.25,115.252a23.926,23.926,0,0,0,9.2-1.83l2.485,5.867a5.006,5.006,0,0,1-4.61,6.959h0a5.006,5.006,0,0,1-4.61-3.053l-3.365-7.943Z" fill="#c5c9f7"/><path d="M120.247,58.5h-8V15.752a6.006,6.006,0,0,0-6-6H96.5a6.006,6.006,0,0,0-6,6V25.934h-8V15.752a14.015,14.015,0,0,1,14-14h9.75a14.015,14.015,0,0,1,14,14Z" fill="#e1e4fb"/><path d="M71.781,40h29.432a4,4,0,0,1,4,4v3.544a0,0,0,0,1,0,0H67.781a0,0,0,0,1,0,0V44A4,4,0,0,1,71.781,40Z" fill="#00ddc1"/><path d="M100.032,40H72.961a20.009,20.009,0,0,1,4.4-12.521l1.242-1.547H94.388l1.242,1.547A20.009,20.009,0,0,1,100.032,40Z" fill="#0d70b2"/><path d="M55.3,58.5a7.306,7.306,0,0,0-13.423-5.438,6.445,6.445,0,0,0-6.436-1.832A10.612,10.612,0,0,0,14.687,51.1,6.457,6.457,0,0,0,7.21,58.5Z" fill="#c5c9f7"/></g><g><path d="M122.25,56.752H122v-41A15.767,15.767,0,0,0,106.247,0H96.5a15.767,15.767,0,0,0-15.75,15.75v8.432H78.605a1.755,1.755,0,0,0-1.365.654L76,26.386a21.833,21.833,0,0,0-4.713,11.89A5.755,5.755,0,0,0,66.031,44v3.545a1.749,1.749,0,0,0,1.75,1.75h37.432a1.749,1.749,0,0,0,1.75-1.75V44a5.755,5.755,0,0,0-5.255-5.725A21.827,21.827,0,0,0,97,26.387l-1.241-1.548a1.75,1.75,0,0,0-1.365-.655H92.247V15.752A4.254,4.254,0,0,1,96.5,11.5h9.75a4.254,4.254,0,0,1,4.25,4.25v41H97.125a1.75,1.75,0,0,0,0,3.5H122.25a2.253,2.253,0,0,1,2.25,2.25v3a2.253,2.253,0,0,1-2.25,2.25H5.75A2.253,2.253,0,0,1,3.5,65.5v-3a2.253,2.253,0,0,1,2.25-2.25H68.875a1.75,1.75,0,0,0,0-3.5H57.281c0-.021,0-.043,0-.063a9.057,9.057,0,0,0-15.72-6.14A8.218,8.218,0,0,0,36.7,49.263a12.361,12.361,0,0,0-23.3-.009,8.259,8.259,0,0,0-7.988,7.515A5.752,5.752,0,0,0,0,62.5v3a5.756,5.756,0,0,0,5.75,5.75H6v20a1.75,1.75,0,0,0,3.5,0v-20h109v20a22.282,22.282,0,0,1-13.879,20.61c-.6.246-1.217.469-1.838.66-.069.021-.141.039-.211.06-.631.187-1.268.35-1.913.479-.06.013-.12.021-.18.033-.664.128-1.333.23-2.009.3-.028,0-.057,0-.085.006-.706.067-1.418.1-2.135.1H31.75c-.675,0-1.344-.038-2.009-.1-.1-.009-.2-.016-.3-.026-.669-.069-1.333-.165-1.991-.294l-.115-.024a22.109,22.109,0,0,1-4.11-1.254c-.042-.018-.086-.025-.128-.039a22.171,22.171,0,0,1-9.162-7.187,1.75,1.75,0,1,0-2.8,2.1,25.738,25.738,0,0,0,9.136,7.646l-1.814,4.28A6.757,6.757,0,0,0,30.9,123.878L33.81,117H94.19l2.912,6.877a6.758,6.758,0,0,0,12.444-5.273L107.72,114.3A25.776,25.776,0,0,0,122,91.252v-20h.25A5.756,5.756,0,0,0,128,65.5v-3A5.756,5.756,0,0,0,122.25,56.752ZM103.463,44v1.8H69.531V44a2.253,2.253,0,0,1,2.25-2.25h29.432A2.253,2.253,0,0,1,103.463,44Zm-9.2-15.424A18.322,18.322,0,0,1,98.2,38.251H74.8a18.322,18.322,0,0,1,3.932-9.674l.717-.893h14.1ZM114,56.752v-41A7.759,7.759,0,0,0,106.247,8H96.5a7.759,7.759,0,0,0-7.75,7.75v8.432h-4.5V15.752A12.263,12.263,0,0,1,96.5,3.5h9.75a12.263,12.263,0,0,1,12.25,12.25v41Zm-100.372-4a4.807,4.807,0,0,1,.78.071,1.747,1.747,0,0,0,1.991-1.35,8.862,8.862,0,0,1,17.331.113,1.749,1.749,0,0,0,2.167,1.337,4.623,4.623,0,0,1,4.7,1.338,1.749,1.749,0,0,0,2.8-.326,5.559,5.559,0,0,1,10.39,2.755v.063H8.934A4.757,4.757,0,0,1,13.625,52.751Zm14.05,69.762a3.251,3.251,0,0,1-3,1.985,3.255,3.255,0,0,1-3-4.526l1.828-4.315a25.678,25.678,0,0,0,3.129.833l.154.031c.448.087.9.16,1.355.223.107.015.213.033.32.047.416.052.835.091,1.256.123.105.009.209.024.314.031Zm76.817-6.863,1.831,4.322a3.255,3.255,0,0,1-3,4.526,3.253,3.253,0,0,1-3-1.985l-2.358-5.568c.105-.007.208-.022.312-.03q.534-.042,1.062-.105c.172-.021.344-.042.516-.066.372-.052.741-.114,1.107-.182.132-.025.264-.044.395-.071q.718-.145,1.423-.331c.148-.039.294-.084.441-.125q.51-.144,1.013-.307C104.321,115.7,104.407,115.679,104.492,115.65Z"/><path d="M84.875,60.252a1.75,1.75,0,0,0,0-3.5h-3.75a1.75,1.75,0,0,0,0,3.5Z"/></g></g></svg>
