<svg id="Filled_cutting_cutting_Ex" height="512" viewBox="0 0 512 512" width="512" xmlns="http://www.w3.org/2000/svg" data-name="Filled cutting cutting Ex"><g><path d="m24 120h20a20 20 0 0 1 20 20v276a0 0 0 0 1 0 0h-40a0 0 0 0 1 0 0v-296a0 0 0 0 1 0 0z" fill="#fa5d3f"/><path d="m64 352h404a20 20 0 0 1 20 20v44a0 0 0 0 1 0 0h-424a0 0 0 0 1 0 0v-64a0 0 0 0 1 0 0z" fill="#fa5d3f"/><path d="m64 272h380a20 20 0 0 1 20 20v40a20 20 0 0 1 -20 20h-380a0 0 0 0 1 0 0v-80a0 0 0 0 1 0 0z" fill="#fac850"/><path d="m105.344 272h-41.344v-108a20 20 0 0 1 20-20h10.344a20 20 0 0 1 19.846 17.519l11 88a20 20 0 0 1 -19.846 22.481z" fill="#79d8eb"/><path d="m88 416h-64v48h19.17a40 40 0 0 0 37.947-27.351z" fill="#994635"/><path d="m424 416h64v48h-19.17a40 40 0 0 1 -37.947-27.351z" fill="#994635"/><path d="m208 256h206a10 10 0 0 1 10 10v54a0 0 0 0 1 0 0h-216a0 0 0 0 1 0 0v-64a0 0 0 0 1 0 0z" fill="#79d8eb"/><path d="m160 256h48v64h-48z" fill="#e4f7fb"/><path d="m318.533 166.311-10.198 18.647-18.646 10.198 18.646 10.198 10.198 18.646 10.198-18.646 18.647-10.198-18.647-10.198z" fill="none"/><g fill="#fac850"><path d="m318.533 166.311-10.198 18.647-18.646 10.198 18.646 10.198 10.198 18.646 10.198-18.646 18.647-10.198-18.647-10.198z"/><path d="m220.844 80-10.198 18.646-18.646 10.198 18.646 10.198 10.198 18.647 10.198-18.647 18.647-10.198-18.647-10.198z"/><path d="m371.156 48-10.198 18.646-18.647 10.198 18.647 10.198 10.198 18.647 10.198-18.647 18.646-10.198-18.646-10.198z"/></g><g><path d="m469.282 344.03a27.839 27.839 0 0 0 2.718-12.03v-40a28.032 28.032 0 0 0 -28-28h-12.111a18.026 18.026 0 0 0 -17.889-16h-254a8 8 0 0 0 -8 8v8h-21.359a28.016 28.016 0 0 0 2.487-15.473l-11-88a28.044 28.044 0 0 0 -27.783-24.527h-10.345a27.839 27.839 0 0 0 -12.03 2.718 28.034 28.034 0 0 0 -27.97-26.718h-20a8 8 0 0 0 -8 8v40h16v-32h12a12.013 12.013 0 0 1 12 12v268h-24v-232h-16v288a8 8 0 0 0 8 8h19.17a47.938 47.938 0 0 0 45.537-32.821l5.059-15.179h274.234v-16h-296v-48h396a12.013 12.013 0 0 1 12 12v36h-96v16h34.234l5.059 15.18a47.939 47.939 0 0 0 45.537 32.82h19.17a8 8 0 0 0 8-8v-92a28.034 28.034 0 0 0 -26.718-27.97zm-392.382 79.97-3.373 10.119a31.957 31.957 0 0 1 -30.357 21.881h-11.17v-32zm339.1-158v46h-200v-48h198a2 2 0 0 1 2 2zm-248-2h32v48h-32zm-84-112h10.345a12.019 12.019 0 0 1 11.906 10.512l11 88a12 12 0 0 1 -11.906 13.488h-33.345v-100a12.013 12.013 0 0 1 12-12zm-12 192v-64h80v40a8 8 0 0 0 8 8h264a8 8 0 0 0 8-8v-40h12a12.013 12.013 0 0 1 12 12v40a12.013 12.013 0 0 1 -12 12zm408 112h-11.17a31.957 31.957 0 0 1 -30.357-21.88l-3.373-10.12h44.9z"/><path d="m285.85 202.174 16.59 9.074 9.075 16.591a8 8 0 0 0 14.037 0l9.074-16.591 16.591-9.074a8 8 0 0 0 0-14.037l-16.591-9.074-9.074-16.59a8 8 0 0 0 -14.037 0l-9.075 16.59-16.59 9.074a8 8 0 0 0 0 14.037zm26.324-10.2a8 8 0 0 0 3.18-3.18l3.179-5.814 3.18 5.814a8 8 0 0 0 3.18 3.18l5.812 3.178-5.812 3.18a7.989 7.989 0 0 0 -3.18 3.18l-3.18 5.813-3.179-5.813a8 8 0 0 0 -3.18-3.18l-5.813-3.18z"/><path d="m188.161 115.863 16.591 9.074 9.074 16.59a8 8 0 0 0 14.037 0l9.074-16.59 16.59-9.074a8 8 0 0 0 0-14.037l-16.59-9.074-9.074-16.591a8 8 0 0 0 -14.037 0l-9.074 16.591-16.591 9.074a8 8 0 0 0 0 14.037zm26.324-10.2a7.989 7.989 0 0 0 3.18-3.18l3.18-5.812 3.178 5.812a8 8 0 0 0 3.18 3.18l5.813 3.18-5.813 3.178a8 8 0 0 0 -3.18 3.18l-3.178 5.813-3.18-5.813a8 8 0 0 0 -3.18-3.18l-5.812-3.178z"/><path d="m338.473 83.863 16.59 9.074 9.074 16.59a8 8 0 0 0 14.037 0l9.074-16.59 16.591-9.074a8 8 0 0 0 0-14.037l-16.591-9.074-9.074-16.591a8 8 0 0 0 -14.037 0l-9.074 16.591-16.59 9.074a8 8 0 0 0 0 14.037zm26.324-10.2a8 8 0 0 0 3.18-3.18l3.178-5.812 3.18 5.812a7.989 7.989 0 0 0 3.18 3.18l5.812 3.18-5.812 3.178a8 8 0 0 0 -3.18 3.18l-3.18 5.813-3.178-5.814a8 8 0 0 0 -3.18-3.18l-5.813-3.178z"/></g></g></svg>