<svg id="Layer_1" height="512" viewBox="0 0 512 512" width="512" xmlns="http://www.w3.org/2000/svg" data-name="Layer 1"><path d="m504 371.47v91.63h-486v-91.63a33.658 33.658 0 0 1 33.66-33.65c1.13 0 2.25.06 3.35.16a33.669 33.669 0 0 1 30.3 33.49v24.33h351.38v-24.33a33.669 33.669 0 0 1 30.3-33.49c1.11-.1 2.23-.16 3.36-.16a33.656 33.656 0 0 1 33.65 33.65z" fill="#00acea"/><path d="m412.86 463.1h67.86v35.9h-67.86z" fill="#00efd1"/><path d="m466.98 337.82.01.16a33.669 33.669 0 0 0 -30.3 33.49v24.33h-351.38v-24.33a33.669 33.669 0 0 0 -30.3-33.49l.01-.16v-64.17a33.649 33.649 0 0 1 33.65-33.65h344.66a33.649 33.649 0 0 1 33.65 33.65zm-87.46-7.13a16.15 16.15 0 1 0 -22.84 0 16.145 16.145 0 0 0 22.84 0zm-110 0a16.15 16.15 0 1 0 -22.84 0 16.145 16.145 0 0 0 22.84 0zm-110 0a16.15 16.15 0 1 0 -22.84 0 16.145 16.145 0 0 0 22.84 0z" fill="#fedb41"/><path d="m399.08 93.84 20.93 69.76h-100.02l20.93-69.76z" fill="#00efd1"/><path d="m379.52 307.85a16.15 16.15 0 1 1 -22.84 0 16.145 16.145 0 0 1 22.84 0z" fill="#00efd1"/><path d="m269.52 307.85a16.15 16.15 0 1 1 -22.84 0 16.145 16.145 0 0 1 22.84 0z" fill="#00efd1"/><path d="m180.44 135.63v-54.24l27.62-24.57v146.42h-.47l-27.15-24.35z" fill="#fedb41"/><path d="m208.06 56.63v.19l-27.62 24.57h-145.02l-27.42-24.22v-.54h56.4 87.26z" fill="#00acea"/><path d="m207.59 203.24h-199.51l27.34-24.35h145.02z" fill="#00acea"/><path d="m180.44 135.63v43.26h-145.02v-26.22h.02l41.66-31.27 54.33 36.96z" fill="#00efd1"/><path d="m180.44 81.39v54.24l-49.01 22.73-54.33-36.96-41.66 31.27h-.02v-71.28zm-37.85 31.59a14.215 14.215 0 1 0 -14.22 14.21 14.216 14.216 0 0 0 14.22-14.21z" fill="#f4b844"/><path d="m159.52 307.85a16.15 16.15 0 1 1 -22.84 0 16.145 16.145 0 0 1 22.84 0z" fill="#00efd1"/><path d="m128.37 98.77a14.21 14.21 0 1 1 -14.21 14.21 14.216 14.216 0 0 1 14.21-14.21z" fill="#00efd1"/><path d="m41.28 463.1h67.87v35.9h-67.87z" fill="#00efd1"/><path d="m35.42 152.67v26.22l-27.34 24.35h-.08v-146.07l27.42 24.22z" fill="#fedb41"/><g fill="#083863"><path d="m473 331.917v-58.267a39.712 39.712 0 0 0 -39.67-39.65h-57.33v-64h44.01a6.292 6.292 0 0 0 5.747-8.024l-20.93-69.73a5.974 5.974 0 0 0 -5.747-4.246h-58.16a5.93 5.93 0 0 0 -5.747 4.2l-20.93 69.72a6.379 6.379 0 0 0 .934 5.486 6.18 6.18 0 0 0 4.813 2.6h44.01v64h-275.33a39.712 39.712 0 0 0 -39.67 39.644v58.267a39.419 39.419 0 0 0 -37 39.553v91.63a5.916 5.916 0 0 0 6 5.9h17v30a6.246 6.246 0 0 0 6.28 6h67.87a5.874 5.874 0 0 0 5.85-6v-30h292v30a5.883 5.883 0 0 0 5.86 6h67.86a6.246 6.246 0 0 0 6.28-6v-30h17a5.916 5.916 0 0 0 6-5.9v-91.63a39.414 39.414 0 0 0 -37-39.553zm-127.616-231.917h49.232l17.329 58h-83.89zm-256.714 146h344.66a27.7 27.7 0 0 1 27.67 27.65v59.276c-18 4.222-30 19.931-30 38.544v18.53h-340v-18.53c0-18.6-12-34.3-30-38.539v-59.281a27.7 27.7 0 0 1 27.67-27.65zm14.33 247h-56v-24h56zm372 0h-56v-24h56zm23-36h-474v-85.53a27.686 27.686 0 0 1 27.66-27.65c.887 0 1.65.044 2.6.131a27.416 27.416 0 0 1 24.74 27.519v24.33a6.445 6.445 0 0 0 6.31 6.2h351.38a6.445 6.445 0 0 0 6.31-6.2v-24.33a27.4 27.4 0 0 1 24.684-27.514c1.014-.092 1.858-.136 2.743-.136a27.616 27.616 0 0 1 27.573 27.65z"/><path d="m214 203.24v-146.61a5.644 5.644 0 0 0 -5.94-5.63h-53.915l-41.873-42.058a6 6 0 0 0 -8.484.093l-41.872 41.965h-53.916a5.7 5.7 0 0 0 -6 5.63v146.61a5.869 5.869 0 0 0 6.08 5.76h199.98a5.749 5.749 0 0 0 5.94-5.76zm-200-132.766 15 13.626v92.1l-15 13.733zm160 61.326-42.229 19.686-51.406-35.047a6.246 6.246 0 0 0 -7.132.162l-32.233 24.079v-53.68h133zm-133 23.884 36.062-26.911 50.888 34.548a6.166 6.166 0 0 0 3.428 1.039 5.167 5.167 0 0 0 2.33-.557l40.292-18.777v27.974h-133zm137.157-80.684h-140.467l-14.445-12h169.255zm-140.457 110h140.44l13.77 12h-168.076zm148.3-8.788v-92.129l16-13.895v120.033zm-77.97-154.357 29.145 29.145h-58.29z"/><path d="m128.37 133.19a20.21 20.21 0 1 0 -20.21-20.21 20.237 20.237 0 0 0 20.21 20.21zm0-28.42a8.21 8.21 0 1 1 -8.21 8.21 8.225 8.225 0 0 1 8.21-8.21z"/><path d="m340.305 347.06a6 6 0 0 0 8.485 0l8.486-8.477a22.087 22.087 0 0 0 21.655 0l8.477 8.477a6 6 0 1 0 8.485-8.485l-8.479-8.478a22.073 22.073 0 0 0 0-21.653l8.478-8.485a6 6 0 0 0 -8.489-8.482l-8.47 8.479a22.086 22.086 0 0 0 -21.665 0l-8.479-8.478a6 6 0 1 0 -8.484 8.485l8.486 8.486a22.209 22.209 0 0 0 0 21.647l-8.488 8.479a6 6 0 0 0 .002 8.485zm27.8-37.942a10.149 10.149 0 0 1 7.173 17.329 10.15 10.15 0 1 1 -7.169-17.333z"/><path d="m230.305 347.06a6 6 0 0 0 8.485 0l8.486-8.477a22.087 22.087 0 0 0 21.655 0l8.477 8.477a6 6 0 1 0 8.485-8.485l-8.479-8.478a22.073 22.073 0 0 0 0-21.653l8.478-8.485a6 6 0 0 0 -8.489-8.482l-8.47 8.479a22.086 22.086 0 0 0 -21.665 0l-8.479-8.478a6 6 0 0 0 -8.484 8.485l8.486 8.486a22.209 22.209 0 0 0 0 21.647l-8.488 8.479a6 6 0 0 0 .002 8.485zm27.8-37.942a10.149 10.149 0 0 1 7.173 17.329 10.15 10.15 0 1 1 -7.169-17.333z"/><path d="m120.305 347.06a6 6 0 0 0 8.485 0l8.486-8.477a22.087 22.087 0 0 0 21.655 0l8.477 8.477a6 6 0 1 0 8.485-8.485l-8.479-8.478a22.073 22.073 0 0 0 0-21.653l8.478-8.485a6 6 0 0 0 -8.489-8.482l-8.47 8.479a22.086 22.086 0 0 0 -21.665 0l-8.479-8.478a6 6 0 0 0 -8.484 8.485l8.486 8.486a22.209 22.209 0 0 0 0 21.647l-8.488 8.479a6 6 0 0 0 .002 8.485zm27.8-37.942a10.149 10.149 0 0 1 7.173 17.329 10.15 10.15 0 1 1 -7.169-17.333z"/></g></svg>