<svg id="Layer_3" enable-background="new 0 0 64 64" height="512" viewBox="0 0 64 64" width="512" xmlns="http://www.w3.org/2000/svg"><g><path d="m13 36v20c0 3.314 2.686 6 6 6h26c3.314 0 6-2.686 6-6v-20" fill="#758190"/><path d="m13 36v20c0 3.314 2.686 6 6 6h5.857c9.695-5.119 16.665-14.693 18.194-26z" fill="#8892a0"/><path d="m40.283 6.994h5.414v6h-5.414z" fill="#a8b0bc" transform="matrix(.707 -.707 .707 .707 5.525 33.326)"/><path d="m42.093 12.925c1.132-1.499 2.041-3.171 2.683-4.974l-1.993-1.993-3.828 3.828z" fill="#c1c8d1"/><path d="m60 41v2c0 2.761-2.239 5-5 5h-4v-4h3c1.105 0 2-.895 2-2v-1z" fill="#e7e4dd"/><path d="m4 41v2c0 2.761 2.239 5 5 5h4v-4h-3c-1.105 0-2-.895-2-2v-1z" fill="#e7e4dd"/><path d="m51 36h-38c-1.657 0-3-1.343-3-3 0-1.657 1.343-3 3-3h38c1.657 0 3 1.343 3 3 0 1.657-1.343 3-3 3z" fill="#a8b0bc"/><path d="m47.025 10.201-4.243-4.243c-.781-.781-.781-2.047 0-2.828.781-.781 2.047-.781 2.828 0l4.243 4.243c.781.781.781 2.047 0 2.828-.78.781-2.047.781-2.828 0z" fill="#8892a0"/><path d="m60 41h-4c-1.105 0-2-.895-2-2 0-1.105.895-2 2-2h4c1.105 0 2 .895 2 2 0 1.105-.895 2-2 2z" fill="#a8b0bc"/><path d="m4 41h4c1.105 0 2-.895 2-2 0-1.105-.895-2-2-2h-4c-1.105 0-2 .895-2 2 0 1.105.895 2 2 2z" fill="#a8b0bc"/><path d="m49.854 30c3.124-3.124-.358-11.672-7.778-19.092s-15.968-10.902-19.092-7.778z" fill="#e7e4dd"/><g><path d="m45 59.998v-2c1.103 0 2-.896 2-2v-13.999h2v13.999c-.001 2.206-1.795 4-4 4z" fill="#cbc3b6"/></g><g><path d="m16.707 27.707-1.415-1.415 1.939-1.939c.488-.488.768-1.163.768-1.853 0-.701-.272-1.359-.768-1.854l-.878-.878c-.873-.873-1.353-2.034-1.353-3.268 0-1.235.48-2.396 1.353-3.269l1.939-1.939 1.415 1.415-1.939 1.939c-.488.488-.768 1.163-.768 1.854 0 .7.272 1.359.768 1.854l.878.878c.873.873 1.353 2.033 1.353 3.268s-.48 2.396-1.353 3.269z" fill="#e7e4dd"/></g><g><path d="m25.707 27.707-1.415-1.415 1.939-1.939c.488-.488.768-1.163.768-1.853 0-.701-.272-1.359-.768-1.854l-.878-.878c-.873-.873-1.353-2.034-1.353-3.268 0-1.235.48-2.396 1.353-3.269l1.939-1.939 1.415 1.415-1.939 1.939c-.488.488-.768 1.163-.768 1.854 0 .7.272 1.359.768 1.854l.878.878c.873.873 1.353 2.033 1.353 3.268s-.48 2.396-1.353 3.269z" fill="#e7e4dd"/></g><path d="m45.611 3.13c-.781-.781-2.047-.781-2.828 0s-.781 2.047 0 2.828l1.993 1.993c.525-1.472.877-3.024 1.017-4.64z" fill="#a8b0bc"/><path d="m10 33c0 1.657 1.343 3 3 3h30.051c.207-1.534.324-3.097.324-4.688 0-.44-.017-.876-.033-1.312h-30.342c-1.657 0-3 1.343-3 3z" fill="#c1c8d1"/><g><path d="m63 38.999c0-1.654-1.346-3-3-3h-4c-1.655 0-3 1.346-3 3.001 0 1.301.838 2.4 1.999 2.814v.185c0 .551-.448.999-1 .999h-1.999v-6.142c1.72-.447 3-1.999 3-3.856 0-2.002-1.482-3.649-3.404-3.94 1.349-3.641-1.03-9.851-6.107-15.908l1.666-1.666c.398.19.831.3 1.285.3.802 0 1.555-.312 2.121-.878.567-.566.879-1.32.879-2.122 0-.801-.312-1.555-.878-2.121l-4.243-4.242c-1.133-1.133-3.11-1.133-4.242 0-.567.566-.879 1.32-.879 2.122 0 .454.11.887.3 1.285l-1.666 1.666c-7.104-5.955-14.422-8.201-17.555-5.073-.39.391-.39 1.024 0 1.415l25.161 25.162h-34.439c-2.205 0-3.999 1.794-3.999 4 0 1.857 1.279 3.409 3 3.856v6.144h-2c-.552 0-1-.449-1-1.001v-.183c1.161-.414 2-1.515 2-2.817 0-1.654-1.346-3-3-3h-4.001c-1.654.001-2.999 1.348-2.999 3 0 .802.312 1.555.878 2.121.321.321.706.55 1.122.697v1.183c0 3.308 2.691 6 6 6h3v6.998c0 3.86 3.14 7 7 7h26c3.859 0 7-3.14 7-6.998v-7.002h3c3.308 0 6-2.69 6-5.998v-1.186c1.161-.414 2-1.514 2-2.815zm-19.51-35.163c.189-.189.44-.292.707-.292s.518.104.707.293l4.243 4.243c.189.189.292.44.292.707s-.104.518-.293.708c-.377.378-1.035.379-1.414 0l-4.243-4.245c-.189-.189-.292-.44-.292-.707 0-.266.103-.517.293-.707zm-.707 3.536 2.828 2.828-1.445 1.445c-.445-.485-.905-.967-1.383-1.445s-.961-.938-1.445-1.383zm-1.415 4.243c6.751 6.751 9.547 13.774 8.332 16.817l-25.149-25.149c3.048-1.209 10.066 1.581 16.817 8.332zm-30.368 21.385c0-1.103.897-2 1.999-2h36.852.003s.002 0 .003 0h1.143c1.103 0 2 .897 2 2 0 1.102-.897 1.998-2 1.998h-38c-1.103 0-2-.896-2-1.998zm-7 4.999h4c.551 0 1 .448 1 1.001 0 .551-.449 1-1 1l-4-.002c-.268 0-.519-.104-.708-.292-.188-.188-.292-.439-.292-.707 0-.552.449-1 1-1zm4.999 9.001c-2.206 0-4-1.795-4-4v-1.001l2.001.001c0 1.654 1.346 3 3 3h2v2zm36.001 13.998h-26c-2.757 0-5-2.242-5-5v-19h36v19.002c0 2.756-2.243 4.998-5 4.998zm10-14h-3v-2h1.999c1.654 0 3-1.346 3-2.999v-.001h2v1.002c.001 2.204-1.793 3.998-3.999 3.998zm5-7h-4c-.551 0-.999-.448-.999-.999 0-.552.448-1 .999-1h4c.552 0 1 .448 1 1.001 0 .551-.449.998-1 .998z"/><path d="m47 55.998c0 1.104-.897 2-2 2v2c2.206 0 4-1.794 4-4v-13.999h-2z"/><path d="m17.231 20.646c.489.488.769 1.164.769 1.854 0 .689-.28 1.365-.768 1.853l-1.939 1.939 1.415 1.415 1.939-1.939c.872-.873 1.353-2.034 1.353-3.269 0-1.216-.493-2.407-1.354-3.268l-.878-.878c-.496-.495-.768-1.153-.768-1.853 0-.69.28-1.366.768-1.854l1.939-1.939-1.415-1.415-1.939 1.939c-.873.873-1.353 2.034-1.353 3.269 0 1.234.48 2.395 1.353 3.268z"/><path d="m28.707 12.707-1.415-1.415-1.939 1.939c-.873.873-1.353 2.034-1.353 3.269 0 1.234.48 2.395 1.353 3.268l.878.878c.489.488.769 1.164.769 1.854 0 .689-.28 1.365-.768 1.853l-1.939 1.939 1.415 1.415 1.939-1.939c.872-.873 1.353-2.034 1.353-3.269 0-1.216-.493-2.407-1.354-3.268l-.878-.878c-.496-.495-.768-1.153-.768-1.853 0-.69.28-1.366.768-1.854z"/></g></g></svg>