<svg id="Capa_1" enable-background="new 0 0 512 512" height="512" viewBox="0 0 512 512" width="512" xmlns="http://www.w3.org/2000/svg"><g><g><g><g><path d="m431.745 469.422h-391.884c-17.872 0-32.361-14.488-32.361-32.361v-362.122c0-17.872 14.488-32.361 32.361-32.361h391.884c28.854 0 52.245 23.391 52.245 52.245v322.353c0 28.855-23.391 52.246-52.245 52.246z" fill="#e7a561"/><path d="m431.745 42.578h-54.619c28.854 0 52.245 23.391 52.245 52.245v322.353c0 28.854-23.391 52.245-52.245 52.245h54.619c28.854 0 52.245-23.391 52.245-52.245v-322.353c0-28.854-23.391-52.245-52.245-52.245z" fill="#e28424"/><path d="m483.974 314.737h-108.706c-32.439 0-58.737-26.297-58.737-58.737 0-32.439 26.297-58.737 58.737-58.737h108.707c11.336 0 20.526 9.19 20.526 20.526v76.422c-.001 11.336-9.191 20.526-20.527 20.526z" fill="#e28424"/><path d="m483.974 197.263h-54.619c11.336 0 20.526 9.189 20.526 20.526v76.422c0 11.336-9.19 20.526-20.526 20.526h54.619c11.336 0 20.526-9.19 20.526-20.526v-76.422c0-11.336-9.19-20.526-20.526-20.526z" fill="#df751c"/></g><circle cx="375.477" cy="256" fill="#ffd064" r="23.617"/></g></g><g><g><path d="m305.13 414.15h39.59c4.142 0 7.5-3.357 7.5-7.5s-3.358-7.5-7.5-7.5h-39.59c-4.142 0-7.5 3.357-7.5 7.5s3.358 7.5 7.5 7.5z"/><path d="m225.95 414.15h39.59c4.142 0 7.5-3.357 7.5-7.5s-3.358-7.5-7.5-7.5h-39.59c-4.142 0-7.5 3.357-7.5 7.5s3.358 7.5 7.5 7.5z"/><path d="m146.77 414.15h39.59c4.142 0 7.5-3.357 7.5-7.5s-3.358-7.5-7.5-7.5h-39.59c-4.142 0-7.5 3.357-7.5 7.5s3.358 7.5 7.5 7.5z"/><path d="m376.81 406.65c0 4.143 3.358 7.5 7.5 7.5h39.59c4.142 0 7.5-3.357 7.5-7.5s-3.358-7.5-7.5-7.5h-39.59c-4.143 0-7.5 3.358-7.5 7.5z"/><path d="m107.18 399.15h-39.59c-4.142 0-7.5 3.357-7.5 7.5s3.358 7.5 7.5 7.5h39.59c4.142 0 7.5-3.357 7.5-7.5s-3.358-7.5-7.5-7.5z"/><path d="m146.77 112.851h39.59c4.142 0 7.5-3.357 7.5-7.5s-3.358-7.5-7.5-7.5h-39.59c-4.142 0-7.5 3.357-7.5 7.5s3.358 7.5 7.5 7.5z"/><path d="m107.18 97.851h-39.59c-4.142 0-7.5 3.357-7.5 7.5s3.358 7.5 7.5 7.5h39.59c4.142 0 7.5-3.357 7.5-7.5s-3.358-7.5-7.5-7.5z"/><path d="m225.95 112.851h39.59c4.142 0 7.5-3.357 7.5-7.5s-3.358-7.5-7.5-7.5h-39.59c-4.142 0-7.5 3.357-7.5 7.5s3.358 7.5 7.5 7.5z"/><path d="m305.13 112.851h39.59c4.142 0 7.5-3.357 7.5-7.5s-3.358-7.5-7.5-7.5h-39.59c-4.142 0-7.5 3.357-7.5 7.5s3.358 7.5 7.5 7.5z"/><path d="m423.9 112.851c4.142 0 7.5-3.357 7.5-7.5s-3.358-7.5-7.5-7.5h-39.59c-4.142 0-7.5 3.357-7.5 7.5s3.358 7.5 7.5 7.5z"/><path d="m491.49 190.794v-95.971c0-32.943-26.802-59.745-59.745-59.745h-333.12c-4.142 0-7.5 3.357-7.5 7.5s3.358 7.5 7.5 7.5h333.12c24.672 0 44.745 20.072 44.745 44.745v3.027h-13c-4.142 0-7.5 3.357-7.5 7.5s3.358 7.5 7.5 7.5h13v76.912h-101.222c-36.523 0-66.237 29.714-66.237 66.237s29.714 66.237 66.237 66.237h6.295c4.142 0 7.5-3.357 7.5-7.5s-3.358-7.5-7.5-7.5h-6.295c-28.252 0-51.237-22.985-51.237-51.237s22.985-51.237 51.237-51.237h108.707c7.183 0 13.026 5.844 13.026 13.026v76.422c0 7.179-5.838 13.02-13.016 13.026-.003 0-.007 0-.01 0-.007 0-.013.001-.019.001h-67.33c-4.142 0-7.5 3.357-7.5 7.5s3.358 7.5 7.5 7.5h59.854c.032 91.789.009 4.404.013 76.913h-13.003c-4.142 0-7.5 3.357-7.5 7.5s3.358 7.5 7.5 7.5h13v3.026c0 24.673-20.073 44.745-44.745 44.745h-391.885c-13.708 0-24.86-11.152-24.86-24.861v-22.91h13c4.142 0 7.5-3.357 7.5-7.5s-3.358-7.5-7.5-7.5h-13v-286.3h13c4.142 0 7.5-3.357 7.5-7.5s-3.358-7.5-7.5-7.5h-13v-22.911c0-13.709 11.152-24.861 24.86-24.861h23.39c4.142 0 7.5-3.357 7.5-7.5s-3.358-7.5-7.5-7.5h-23.39c-21.979 0-39.86 17.882-39.86 39.861v362.121c0 21.979 17.881 39.861 39.86 39.861h391.884c32.943 0 59.745-26.802 59.745-59.745-.01-78.043.016-12.354-.012-95.968 11.82-3.29 20.522-14.143 20.522-26.998v-76.422c.001-12.85-8.695-23.7-20.509-26.994z"/><path d="m375.477 224.883c-17.158 0-31.117 13.959-31.117 31.117s13.959 31.117 31.117 31.117 31.117-13.959 31.117-31.117-13.959-31.117-31.117-31.117zm0 47.234c-8.887 0-16.117-7.23-16.117-16.117s7.23-16.117 16.117-16.117 16.117 7.23 16.117 16.117-7.23 16.117-16.117 16.117z"/></g></g></g></svg>