<?xml version="1.0" encoding="iso-8859-1"?>
<!-- Generator: Adobe Illustrator 19.0.0, SVG Export Plug-In . SVG Version: 6.00 Build 0)  -->
<svg version="1.1" id="Capa_1" xmlns="http://www.w3.org/2000/svg" xmlns:xlink="http://www.w3.org/1999/xlink" x="0px" y="0px"
	 viewBox="0 0 511.997 511.997" style="enable-background:new 0 0 511.997 511.997;" xml:space="preserve">
<path style="fill:#ED1C24;" d="M42.669,418.132h59.732v51.199H42.669V418.132z"/>
<path style="fill:#FBB03B;" d="M136.534,392.532h59.732v76.799h-59.732V392.532z"/>
<path style="fill:#F8CF26;" d="M230.399,349.866h59.732v119.465h-59.732V349.866z"/>
<path style="fill:#39B54A;" d="M324.264,290.134h59.732v179.197h-59.732V290.134z"/>
<path style="fill:#0071BC;" d="M418.129,170.669h59.732v298.662h-59.732V170.669z"/>
<path d="M42.669,51.205H153.6v17.066H42.669V51.205z"/>
<path d="M42.669,85.337H153.6v17.066H42.669V85.337z"/>
<path d="M42.669,119.47h76.799v17.066H42.669V119.47z"/>
<path d="M42.669,153.603h76.799v17.066H42.669V153.603z"/>
<path d="M0.003,494.931h511.991v17.066H0.003V494.931z"/>
<path d="M439.88,69.756l13.773-39.355l25.105,50.218c2.108,4.215,7.236,5.931,11.452,3.823s5.931-7.236,3.823-11.452L459.899,4.724
	c-2.108-4.215-7.228-5.931-11.443-3.823c0,0,0,0-0.009,0l-68.266,34.133c-4.215,2.108-5.931,7.236-3.823,11.452
	s7.236,5.931,11.452,3.823l49.441-24.704l-13.491,38.519C364.464,233.004,211.737,351.479,33.41,366.933l1.451,17.066
	C219.903,367.965,378.381,245.01,439.88,69.756L439.88,69.756z"/>
<path d="M42.669,409.599c-4.71,0-8.533,3.823-8.533,8.533v51.199c0,4.71,3.823,8.533,8.533,8.533h59.732
	c4.71,0,8.533-3.823,8.533-8.533v-51.199c0-4.71-3.823-8.533-8.533-8.533H42.669z M93.868,460.798H51.202v-34.133h42.666V460.798z"
	/>
<path d="M136.534,383.999c-4.71,0-8.533,3.823-8.533,8.533v76.799c0,4.71,3.823,8.533,8.533,8.533h59.732
	c4.71,0,8.533-3.823,8.533-8.533v-76.799c0-4.71-3.823-8.533-8.533-8.533H136.534z M187.733,460.798h-42.666v-59.732h42.666V460.798
	z"/>
<path d="M230.399,341.333c-4.71,0-8.533,3.823-8.533,8.533v119.465c0,4.71,3.823,8.533,8.533,8.533h59.732
	c4.71,0,8.533-3.823,8.533-8.533V349.866c0-4.71-3.823-8.533-8.533-8.533H230.399z M281.598,460.798h-42.666V358.399h42.666V460.798
	z"/>
<path d="M324.264,281.601c-4.71,0-8.533,3.823-8.533,8.533v179.197c0,4.71,3.823,8.533,8.533,8.533h59.732
	c4.71,0,8.533-3.823,8.533-8.533V290.134c0-4.71-3.823-8.533-8.533-8.533H324.264z M375.463,460.798h-42.666V298.667h42.666V460.798
	z"/>
<path d="M418.129,162.136c-4.71,0-8.533,3.823-8.533,8.533v298.662c0,4.71,3.823,8.533,8.533,8.533h59.732
	c4.71,0,8.533-3.823,8.533-8.533V170.669c0-4.71-3.823-8.533-8.533-8.533H418.129z M469.328,460.798h-42.666V179.202h42.666V460.798
	z"/>
<g>
</g>
<g>
</g>
<g>
</g>
<g>
</g>
<g>
</g>
<g>
</g>
<g>
</g>
<g>
</g>
<g>
</g>
<g>
</g>
<g>
</g>
<g>
</g>
<g>
</g>
<g>
</g>
<g>
</g>
</svg>
