<svg id="Capa_1" enable-background="new 0 0 512 512" height="512" viewBox="0 0 512 512" width="512" xmlns="http://www.w3.org/2000/svg"><g><g><g><path d="m504.5 346.385c.077 55.7-92.408 70.513-206.574 70.356s-206.781-15.226-206.858-70.926c-.077-55.699 92.411-100.725 206.577-100.568s206.778 45.438 206.855 101.138z" fill="#d7aa8b"/><path d="m488.722 307.728c.501 2.854.774 5.74.778 8.657.077 55.699-92.408 70.513-206.574 70.355-86.703-.119-160.963-8.845-191.713-37.431 3.899 52.833 94.977 67.277 206.713 67.431 114.166.157 206.651-14.656 206.574-70.355-.019-13.687-5.637-26.743-15.778-38.657z" fill="#ce9775"/><g fill="#c6855b"><path d="m178.569 306.231c1.989 10.266 2.48 20.885 1.457 31.559-1.024 10.686 6.732 20.209 17.323 21.272.64.064 1.274.096 1.903.097 9.794.013 18.166-7.481 19.128-17.521 1.382-14.418.71-28.808-1.995-42.769-3.077-15.876-8.537-29.912-15.111-42.135-13.408 3.437-25.941 7.573-37.397 12.311 6.448 10.459 11.917 22.863 14.692 37.186z"/><path d="m297.133 245.25c-16.165-.003-31.891.901-46.98 2.611 12.469 13.15 26.175 32.733 31.17 58.511 1.989 10.266 2.48 20.885 1.457 31.559-1.024 10.686 6.732 20.209 17.323 21.272.64.064 1.274.096 1.903.097 9.794.013 18.166-7.481 19.128-17.521 1.382-14.418.71-28.808-1.995-42.769-4.103-21.168-12.43-39.087-22.006-53.76z"/><path d="m382.882 306.753c1.527 10.345 1.541 20.974.04 31.59-1.502 10.626 5.82 20.494 16.354 22.039.636.093 1.268.154 1.897.184 9.784.461 18.485-6.643 19.896-16.627 2.027-14.339 2.002-28.742-.075-42.811-2.177-14.746-6.449-28.023-11.817-39.809-16.143-5.075-33.823-9.081-52.614-11.828 11.212 13.608 22.72 32.884 26.319 57.262z"/></g></g><g><path d="m316.772 111.776c39.44 39.331-15.482 115.203-96.321 195.819s-156.983 135.45-196.423 96.119-5.879-136.568 74.96-217.184c80.839-80.617 178.344-114.085 217.784-74.754z" fill="#c6855b"/><path d="m316.772 111.776c-7.895-7.873-18.121-12.821-30.07-15.066.023.022.047.043.07.066 39.44 39.332-15.482 115.203-96.321 195.82-64.587 64.408-126.174 112.353-168.443 108.971.652.732 1.322 1.451 2.02 2.147 39.44 39.331 115.584-15.502 196.423-96.118 80.839-80.617 135.76-156.488 96.321-195.82z" fill="#c17e4e"/><g fill="#f2d59c"><path d="m57.91 313.851c8.666 5.853 16.521 13.014 23.346 21.286 6.832 8.28 19.05 9.53 27.291 2.792.498-.407.969-.833 1.415-1.277 6.935-6.916 7.555-18.135 1.136-25.914-9.218-11.172-19.868-20.872-31.653-28.832-13.402-9.051-27.188-15.115-40.479-19.109-7.05 11.911-12.988 23.698-17.738 35.149 11.955 2.836 24.592 7.74 36.682 15.905z"/><path d="m98.627 186.894c-11.433 11.428-21.913 23.187-31.373 35.066 18.115.481 41.654 4.637 63.415 19.333 8.666 5.853 16.521 13.014 23.346 21.286 6.832 8.28 19.05 9.53 27.291 2.792.498-.407.969-.833 1.415-1.277 6.935-6.916 7.555-18.135 1.136-25.914-9.218-11.172-19.868-20.872-31.653-28.832-17.87-12.068-36.429-18.85-53.577-22.454z"/><path d="m202.752 169.749c8.395 6.235 15.921 13.741 22.366 22.309 6.452 8.576 18.606 10.376 27.148 4.02.516-.384 1.006-.788 1.472-1.211 7.244-6.593 8.373-17.768 2.312-25.826-8.706-11.572-18.908-21.739-30.325-30.219-11.967-8.888-24.376-15.255-36.505-19.793-15.003 7.826-30.338 17.495-45.568 28.84 17.548 1.695 39.316 7.187 59.1 21.88z"/></g></g></g><path d="m481.854 290.398c-3.161-2.681-7.892-2.29-10.571.868-2.679 3.159-2.291 7.893.869 10.571 16.233 13.768 24.826 29.177 24.848 44.562.015 10.328-3.688 19.059-11.321 26.691-12.763 12.764-36.512 22.271-70.587 28.26-30.589 5.375-68.898 7.984-117.152 7.888-74.499-.101-127.053-6.548-159.935-19.656 12.666-9.012 26.217-19.829 40.749-32.523 4.399 5.263 10.706 8.741 17.776 9.455 14.684 1.483 27.898-9.388 29.315-24.158.947-9.877.968-19.823.075-29.623 13.165-13.134 25.04-25.532 35.714-37.292 6.012 10.29 10.152 21.135 12.322 32.354 1.853 9.561 2.31 19.459 1.357 29.421-1.408 14.76 9.373 27.974 24.091 29.461 14.648 1.48 27.757-9.308 29.19-24.179 1.456-15.099.752-30.21-2.092-44.915-3-15.488-8.397-30.441-16.066-44.617 14.402.45 28.489 1.621 42.087 3.485 12.521 15.866 20.243 33.143 22.938 51.398 1.422 9.635 1.434 19.541.033 29.444-2.075 14.683 8.104 28.369 22.698 30.511 14.48 2.125 28.211-8.03 30.301-22.815 2.127-15.05 2.1-30.176-.082-44.957-1.313-8.892-3.425-17.69-6.303-26.304 7.46 2.864 14.571 5.999 21.265 9.405 3.635 1.85 8.183.455 10.085-3.283 1.879-3.691.409-8.207-3.283-10.086-41.217-20.976-98.196-32.537-156.761-31.991 4.036-5.23 7.795-10.327 11.28-15.298 21.967-31.336 32.646-57.016 32.646-78.506 0-14.776-5.14-27.395-15.276-37.503-21.208-21.151-57.113-24.484-101.098-9.387-42.189 14.48-87.391 44.362-127.278 84.14-57.788 57.632-93.688 125.303-93.688 176.605 0 21.275 6.477 38.98 18.732 51.201 10.165 10.137 22.665 15.204 37.403 15.203 15.602 0 33.712-5.678 54.213-17.031 4.202-2.327 8.517-4.899 12.944-7.704 34.203 16.529 91.414 24.633 174.627 24.745 47.564.064 89.006-2.708 119.769-8.114 37.693-6.624 63.402-17.231 78.597-32.427 10.448-10.448 15.735-23.004 15.714-37.319-.028-19.921-10.452-39.278-30.145-55.98zm-78.204-22.984c4.824 11.251 8.172 22.941 9.924 34.808 1.972 13.358 1.995 27.041.068 40.667-.922 6.522-6.852 11.015-13.278 10.072-6.447-.945-10.94-7.033-10.017-13.568 1.602-11.327 1.586-22.677-.047-33.735-2.369-16.049-8.09-31.372-17.032-45.754 10.533 2.074 20.692 4.581 30.382 7.51zm-192.736 73.51c-.585 6.121-5.589 10.733-11.651 10.733-3.712 0-7.078-1.702-9.302-4.584 6.981-6.338 14.18-13.088 21.606-20.255.009 4.7-.202 9.411-.653 14.106zm100.862-40.492c2.57 13.291 3.206 26.959 1.888 40.632-.63 6.54-6.354 11.335-12.81 10.683-6.477-.654-11.235-6.534-10.608-13.104 1.089-11.392.563-22.729-1.562-33.699-2.79-14.423-8.38-28.262-16.628-41.222 3.143-3.611 6.172-7.163 9.079-10.653 3.929-.149 7.894-.258 11.88-.297 9.224 14.978 15.533 30.993 18.761 47.66zm-122.128-173.174c11.358 4.544 21.982 10.439 31.602 17.584 10.839 8.052 20.53 17.71 28.804 28.708 3.698 4.916 3.111 11.695-1.365 15.769-5.142 4.679-13.363 3.835-17.579-1.77-6.877-9.142-14.914-17.156-23.887-23.82-13.017-9.668-27.889-16.457-44.37-20.304 8.913-5.977 17.87-11.383 26.795-16.167zm-147.158 144.567c11.707 4.045 22.705 9.508 32.757 16.296 11.189 7.558 21.305 16.773 30.066 27.391 3.918 4.749 3.641 11.555-.648 15.831-4.917 4.903-13.162 4.427-17.623-.979-7.282-8.825-15.671-16.473-24.934-22.729-9.27-6.261-19.51-11.132-30.507-14.582 3.209-7 6.845-14.093 10.889-21.228zm60.592 122.25c-33.789 18.712-57.915 20.129-73.758 4.329-9.505-9.479-14.324-23.132-14.324-40.58 0-15.324 3.789-32.634 10.763-50.876 10.128 3.036 19.513 7.421 27.949 13.118 8.071 5.451 15.392 12.128 21.759 19.845 10.057 12.189 28.654 13.152 39.786 2.052 9.798-9.77 10.497-25.246 1.625-35.998-9.676-11.726-20.859-21.911-33.24-30.273-10.282-6.944-21.453-12.617-33.289-16.97 6.147-9.734 12.995-19.48 20.487-29.104 15.321.864 36.291 4.83 55.63 17.892 8.072 5.45 15.392 12.127 21.758 19.843 9.454 11.458 26.427 13.143 37.824 3.826 11.48-9.384 13.015-26.348 3.588-37.771-5.958-7.221-12.555-13.923-19.607-19.92-3.154-2.682-7.889-2.301-10.572.855-2.684 3.155-2.301 7.889.855 10.572 6.382 5.427 12.355 11.496 17.753 18.039 4.191 5.08 3.514 12.501-1.513 16.611-5.041 4.122-12.559 3.332-16.759-1.76-7.282-8.825-15.67-16.472-24.933-22.727-15.192-10.261-33.162-16.864-52.61-19.438 5.949-6.959 12.219-13.812 18.786-20.51 11.12 2.646 21.744 6.484 31.626 11.45 3.641 1.83 8.186.413 10.069-3.333 1.86-3.701.368-8.209-3.333-10.069-8.224-4.133-16.907-7.543-25.921-10.23 10.497-9.857 21.298-18.994 32.252-27.301 20.066 2.368 37.735 9.124 52.545 20.123 7.819 5.808 14.832 12.805 20.845 20.797 9.501 12.629 28.064 14.4 39.66 3.847 10.237-9.316 11.637-24.741 3.257-35.881-9.138-12.147-19.853-22.823-31.847-31.732-7.215-5.358-14.929-10.085-23.054-14.141 6.287-2.803 12.53-5.275 18.699-7.393 16.632-5.709 31.774-8.547 44.976-8.547 17.186 0 31.08 4.812 40.661 14.367 7.313 7.293 10.868 16.086 10.868 26.882 0 18.05-10.069 41.566-29.929 69.896-9.926 14.159-22.393 30.697-35.218 44.044-44.688 46.505-98.817 105.542-154.114 136.166z"/></g></svg>