<?xml version="1.0" encoding="iso-8859-1"?>
<!-- Generator: Adobe Illustrator 19.0.0, SVG Export Plug-In . SVG Version: 6.00 Build 0)  -->
<svg xmlns="http://www.w3.org/2000/svg" xmlns:xlink="http://www.w3.org/1999/xlink" version="1.1" id="Capa_1" x="0px" y="0px" viewBox="0 0 512.002 512.002" style="enable-background:new 0 0 512.002 512.002;" xml:space="preserve" width="512" height="512">
<g>
	<g>
		<path style="fill:#FFEAA8;" d="M374.466,73.409c-34.435-34.435-90.267-34.435-124.702,0L374.466,198.11    C408.901,163.675,408.901,107.844,374.466,73.409z"/>
		<path style="fill:#FFC269;" d="M312.115,71.631c-17.708,0-33.742,7.178-45.346,18.783l90.692,90.692    c11.604-11.605,18.783-27.638,18.783-45.346C376.244,100.342,347.532,71.631,312.115,71.631z"/>
		<path style="fill:#EDF4FF;" d="M342.804,198.513l-13.282-13.282c-6.013-6.014-9.391-14.169-9.391-22.673v-10.767H175.84v10.767    c0,8.504-3.378,16.66-9.391,22.673l-13.282,13.282c-6.013,6.013-9.391,14.169-9.391,22.673v267.283    c0,8.854,7.178,16.032,16.032,16.032h176.355c8.854,0,16.032-7.178,16.032-16.032V221.187    C352.195,212.682,348.817,204.527,342.804,198.513z"/>
		<path style="fill:#DBEAFF;" d="M320.131,151.792H175.84c-4.427,0-8.016-3.589-8.016-8.016v-16.032    c0-4.427,3.589-8.016,8.016-8.016h144.29c4.427,0,8.016,3.589,8.016,8.016v16.032    C328.147,148.203,324.558,151.792,320.131,151.792z"/>
		<path style="fill:#DBEAFF;" d="M215.921,464.421V191.873c0-8.841,7.192-16.032,16.032-16.032h88.699h2.459    c-1.892-4.143-2.981-8.64-2.981-13.282v-10.767H175.84v10.767c0,8.504-3.378,16.66-9.392,22.673l-13.281,13.282    c-6.014,6.013-9.392,14.169-9.392,22.673v267.283c0,8.854,7.179,16.032,16.032,16.032h176.355c8.854,0,16.032-7.178,16.032-16.032    v-8.016H231.953C223.113,480.453,215.921,473.261,215.921,464.421z"/>
		<path style="fill:#FFC269;" d="M320.131,480.453c4.427,0,8.016-3.589,8.016-8.016V222.561c-2.801,0.815-6.151,1.376-10.719,1.376    c-17.385,0-17.385-8.016-34.767-8.016c-17.373,0-17.373,8.016-34.744,8.016c-17.357,0-17.357-8.016-34.714-8.016    c-17.353,0-17.353,8.016-34.708,8.016c-4.542,0-7.879-0.557-10.67-1.367v249.867c0,4.427,3.589,8.016,8.016,8.016H320.131z"/>
		<path style="fill:#FFA95F;" d="M175.84,480.453h56.113c-8.84,0-16.032-7.192-16.032-16.032V216.083    c-0.91-0.052-1.695-0.162-2.718-0.162c-17.353,0-17.353,8.016-34.708,8.016c-4.542,0-7.879-0.557-10.67-1.367v249.867    C167.824,476.864,171.414,480.453,175.84,480.453z"/>
		<path style="fill:#C3DDFF;" d="M175.84,151.792h40.081v-32.065H175.84c-4.427,0-8.016,3.589-8.016,8.016v16.032    C167.824,148.203,171.413,151.792,175.84,151.792z"/>
	</g>
	<path d="M379.769,68.106c-18.071-18.071-42.098-28.023-67.654-28.023c-25.556,0-49.583,9.952-67.654,28.023   c-2.929,2.929-2.929,7.678,0,10.606l33.515,33.515h-52.05l-9.178-70.8c-1.253-9.667-8.173-17.44-17.63-19.805L113.53,0.226   c-4.014-1.005-8.09,1.438-9.095,5.457c-1.005,4.018,1.438,8.09,5.457,9.095l85.588,21.397c3.429,0.857,5.938,3.676,6.392,7.181   l8.928,68.872h-34.96c-8.556,0-15.516,6.96-15.516,15.516v16.033c0,5.836,3.242,10.925,8.016,13.574v5.209   c0,6.561-2.555,12.73-7.195,17.37l-13.282,13.282c-7.473,7.473-11.588,17.408-11.588,27.976v267.283   c0,12.976,10.557,23.532,23.532,23.532h176.354c12.976,0,23.532-10.557,23.532-23.532V221.186c0-10.568-4.115-20.503-11.588-27.976   l-13.282-13.282c-4.64-4.64-7.195-10.809-7.195-17.37v-0.676l41.532,41.531c1.464,1.464,3.384,2.197,5.303,2.197   s3.839-0.732,5.303-2.197c18.071-18.071,28.023-42.098,28.023-67.654C407.792,110.203,397.84,86.177,379.769,68.106z    M335.03,148.069c0.394-1.365,0.617-2.802,0.617-4.292v-0.516h56.756c-1.458,15.751-7.528,31.146-18.193,43.989L335.03,148.069z    M335.647,128.26v-0.517c0-1.49-0.223-2.927-0.617-4.292l12.073-12.073c2.929-2.929,2.929-7.677,0-10.606   c-2.928-2.929-7.677-2.929-10.606,0l-12.073,12.073c-1.365-0.394-2.802-0.617-4.293-0.617h-0.516V55.435   c16.239,1.488,31.461,7.793,43.995,18.223l-3.065,3.065c-2.929,2.929-2.929,7.678,0,10.606c1.464,1.464,3.384,2.197,5.303,2.197   s3.839-0.732,5.303-2.197l3.059-3.059c10.665,12.843,16.735,28.238,18.193,43.989H335.647z M260.62,73.658   c12.534-10.431,27.756-16.736,43.995-18.223v56.792h-5.426L260.62,73.658z M336.163,497.002H159.808   c-4.705,0-8.532-3.828-8.532-8.532V224.195c2.502,0.6,4.458,1.501,6.715,2.543c4.77,2.203,10.176,4.699,20.503,4.699   c10.326,0,15.731-2.497,20.5-4.699c4.012-1.853,7.181-3.317,14.209-3.317c5.904,0,9.086,1.034,12.33,2.463l31.047,239.502   c0.49,3.78,3.715,6.537,7.428,6.537c0.321,0,0.646-0.021,0.974-0.063c4.107-0.533,7.006-4.294,6.474-8.402l-30.127-232.41   c1.958,0.245,4.13,0.39,6.588,0.39c10.333,0,15.742-2.496,20.514-4.698c4.017-1.854,7.19-3.318,14.229-3.318   c7.046,0,10.222,1.464,14.243,3.319c4.775,2.202,10.187,4.697,20.524,4.697s15.75-2.496,20.524-4.697   c2.267-1.046,4.234-1.942,6.743-2.542v264.271C344.695,493.174,340.867,497.002,336.163,497.002z M337.501,203.817   c1.699,1.7,3.116,3.606,4.233,5.66c-4.192,0.935-7.256,2.347-10.063,3.642c-4.021,1.854-7.197,3.319-14.243,3.319   s-10.222-1.464-14.243-3.319c-4.775-2.202-10.187-4.697-20.524-4.697c-10.333,0-15.742,2.496-20.515,4.698   c-4.017,1.854-7.19,3.318-14.229,3.318c-3.726,0-6.364-0.414-8.622-1.076l-4.209-32.47c-0.532-4.107-4.294-7.002-8.402-6.474   c-4.107,0.533-7.006,4.294-6.474,8.402l3.189,24.603c-2.809-0.608-6.114-1.002-10.196-1.002c-10.326,0-15.73,2.497-20.5,4.699   c-4.012,1.853-7.181,3.317-14.209,3.317c-7.031,0-10.202-1.464-14.215-3.317c-2.805-1.295-5.866-2.704-10.045-3.638   c1.117-2.056,2.535-3.964,4.236-5.665l13.282-13.282c7.473-7.473,11.588-17.408,11.588-27.976v-3.267h88.693   c4.142,0,7.5-3.358,7.5-7.5s-3.358-7.5-7.5-7.5h-96.193c-0.285,0-0.516-0.231-0.516-0.516v-16.033c0-0.285,0.231-0.516,0.516-0.516   h144.29c0.285,0,0.516,0.231,0.516,0.516v16.033c0,0.285-0.231,0.516-0.516,0.516h-16.032c-4.142,0-7.5,3.358-7.5,7.5   s3.358,7.5,7.5,7.5h8.532v3.267c0,10.568,4.116,20.503,11.588,27.976L337.501,203.817z"/>
</g>















</svg>
