<svg height="512" viewBox="0 0 512 512" width="512" xmlns="http://www.w3.org/2000/svg"><g><g><path d="m64 16h384v480h-384z" fill="#ff5023"/><path d="m88 40h240v352h-240z" fill="#78b9eb"/><path d="m88 200h240v32h-240z" fill="#3e3d42"/><path d="m128 104h64v96h-64z" fill="#ffda44"/><path d="m224 296h64v96h-64z" fill="#ffda44"/><path d="m128 296h64v96h-64z" fill="#d8d7da"/><path d="m288 120v80h-64v-80l16-16v-40h32v40z" fill="#d8d7da"/><path d="m88 416h240v56h-240z" fill="#3e3d42"/><path d="m352 40h72v208h-72z" fill="#006df0"/><path d="m352 320h72v80h-72z" fill="#006df0"/><path d="m352 272h72v24h-72z" fill="#d8d7da"/></g><g><path d="m448 8h-384a8 8 0 0 0 -8 8v480a8 8 0 0 0 8 8h384a8 8 0 0 0 8-8v-480a8 8 0 0 0 -8-8zm-8 480h-368v-464h368z"/><path d="m328 32h-240a8 8 0 0 0 -8 8v352a8 8 0 0 0 8 8h240a8 8 0 0 0 8-8v-352a8 8 0 0 0 -8-8zm-144 352h-48v-80h48zm96 0h-48v-80h48zm40 0h-24v-88a8 8 0 0 0 -8-8h-64a8 8 0 0 0 -8 8v88h-16v-88a8 8 0 0 0 -8-8h-64a8 8 0 0 0 -8 8v88h-24v-144h224zm0-160h-224v-16h224zm-184-32v-80h48v80zm130.34-82.34 13.66 13.65v68.69h-48v-68.69l13.66-13.65a8.008 8.008 0 0 0 2.34-5.66v-32h16v32a8.008 8.008 0 0 0 2.34 5.66zm53.66 82.34h-24v-72a8.008 8.008 0 0 0 -2.34-5.66l-13.66-13.65v-36.69a8 8 0 0 0 -8-8h-32a8 8 0 0 0 -8 8v36.69l-13.66 13.65a8.008 8.008 0 0 0 -2.34 5.66v72h-16v-88a8 8 0 0 0 -8-8h-64a8 8 0 0 0 -8 8v88h-24v-144h224z"/><path d="m88 480h240a8 8 0 0 0 8-8v-56a8 8 0 0 0 -8-8h-240a8 8 0 0 0 -8 8v56a8 8 0 0 0 8 8zm8-56h224v40h-224z"/><path d="m352 256h72a8 8 0 0 0 8-8v-208a8 8 0 0 0 -8-8h-72a8 8 0 0 0 -8 8v208a8 8 0 0 0 8 8zm8-208h56v192h-56z"/><path d="m352 408h72a8 8 0 0 0 8-8v-80a8 8 0 0 0 -8-8h-72a8 8 0 0 0 -8 8v80a8 8 0 0 0 8 8zm8-80h56v64h-56z"/><path d="m352 304h72a8 8 0 0 0 8-8v-24a8 8 0 0 0 -8-8h-72a8 8 0 0 0 -8 8v24a8 8 0 0 0 8 8zm8-24h56v8h-56z"/></g></g></svg>