<svg id="Filled" height="512" viewBox="0 0 512 512" width="512" xmlns="http://www.w3.org/2000/svg"><path d="m176 312v-160.506a16 16 0 0 0 -5.757-12.292l-42.243-35.202h-48l-42.243 35.2a16 16 0 0 0 -5.757 12.294v160.506a16 16 0 0 0 16 16 16 16 0 0 0 -16 16 16 16 0 0 0 16 16 16 16 0 0 0 -16 16 16 16 0 0 0 16 16 16 16 0 0 0 -16 16 16 16 0 0 0 16 16 16 16 0 0 0 -16 16v16a32 32 0 0 0 32 32h80a32 32 0 0 0 32-32v-16a16 16 0 0 0 -16-16 16 16 0 0 0 16-16 16 16 0 0 0 -16-16 16 16 0 0 0 16-16 16 16 0 0 0 -16-16 16 16 0 0 0 16-16 16 16 0 0 0 -16-16 16 16 0 0 0 16-16z" fill="#ffd33a"/><path d="m480 216v-50.108a16 16 0 0 0 -8.062-13.892l-103.938-48h-48l-103.938 48a16 16 0 0 0 -8.062 13.892v50.108a16 16 0 0 0 16 16 16 16 0 0 0 -16 16 16 16 0 0 0 16 16 16 16 0 0 0 -16 16 16 16 0 0 0 16 16 16 16 0 0 0 -16 16 16 16 0 0 0 16 16 16 16 0 0 0 -16 16 16 16 0 0 0 16 16 16 16 0 0 0 -16 16 16 16 0 0 0 16 16 16 16 0 0 0 -16 16 16 16 0 0 0 16 16 16 16 0 0 0 -16 16v16a32 32 0 0 0 32 32h208a32 32 0 0 0 32-32v-16a16 16 0 0 0 -16-16 16 16 0 0 0 16-16 16 16 0 0 0 -16-16 16 16 0 0 0 16-16 16 16 0 0 0 -16-16 16 16 0 0 0 16-16 16 16 0 0 0 -16-16 16 16 0 0 0 16-16 16 16 0 0 0 -16-16 16 16 0 0 0 16-16 16 16 0 0 0 -16-16 16 16 0 0 0 16-16 16 16 0 0 0 -16-16 16 16 0 0 0 16-16z" fill="#ffd33a"/><path d="m88 24h32a16 16 0 0 1 16 16v32a0 0 0 0 1 0 0h-64a0 0 0 0 1 0 0v-32a16 16 0 0 1 16-16z" fill="#ea9f26"/><path d="m80 72h48v32h-48z" fill="#f2c837"/><path d="m32 168h144v128h-144z" fill="#ea9f26"/><path d="m104 200-5.839 10.38c-3.988 7.09-10.161 13.62-13.949 20.24-2.152 3.761-4.212 7.571-4.212 12.047 0 12.131 10.207 21.9 24 21.308 13.793.589 24-9.177 24-21.308 0-4.476-2.06-8.286-4.212-12.047-3.788-6.62-9.961-13.15-13.949-20.24z" fill="#f2c837"/><path d="m328 24h32a16 16 0 0 1 16 16v32a0 0 0 0 1 0 0h-64a0 0 0 0 1 0 0v-32a16 16 0 0 1 16-16z" fill="#ea9f26"/><path d="m320 72h48v32h-48z" fill="#f2c837"/><path d="m240 224h208v144h-208z" fill="#ea9f26"/><path d="m344 264-5.839 10.38c-3.988 7.09-10.161 13.62-13.949 20.24-2.152 3.761-4.212 7.571-4.212 12.047 0 12.131 10.207 21.9 24 21.308 13.793.589 24-9.177 24-21.308 0-4.476-2.06-8.286-4.212-12.047-3.788-6.62-9.961-13.15-13.949-20.24z" fill="#f2c837"/><path d="m24 456a40.045 40.045 0 0 0 40 40h80a40.045 40.045 0 0 0 40-40v-16a23.9 23.9 0 0 0 -6.131-16 23.943 23.943 0 0 0 0-32 23.943 23.943 0 0 0 0-32 23.943 23.943 0 0 0 0-32 23.9 23.9 0 0 0 6.131-16v-160.506a23.937 23.937 0 0 0 -8.635-18.437l-39.365-32.804v-20.253a8 8 0 0 0 8-8v-32a24.028 24.028 0 0 0 -24-24h-32a24.028 24.028 0 0 0 -24 24v32a8 8 0 0 0 8 8v20.253l-39.365 32.8a23.937 23.937 0 0 0 -8.635 18.441v160.506a23.9 23.9 0 0 0 6.131 16 23.943 23.943 0 0 0 0 32 23.943 23.943 0 0 0 0 32 23.943 23.943 0 0 0 0 32 23.9 23.9 0 0 0 -6.131 16zm56-416a8.009 8.009 0 0 1 8-8h32a8.009 8.009 0 0 1 8 8v24h-48zm40 40v16h-32v-16zm-80 71.494a7.978 7.978 0 0 1 2.878-6.146l40.022-33.348h42.2l40.017 33.348a7.976 7.976 0 0 1 2.883 6.146v8.506h-128zm0 24.506h128v112h-128zm0 128h128v8a8.009 8.009 0 0 1 -8 8h-112a8.009 8.009 0 0 1 -8-8zm8 32h112a8 8 0 0 1 0 16h-112a8 8 0 0 1 0-16zm0 32h112a8 8 0 0 1 0 16h-112a8 8 0 0 1 0-16zm0 32h112a8 8 0 0 1 0 16h-112a8 8 0 0 1 0-16zm-8 40a8.009 8.009 0 0 1 8-8h112a8.009 8.009 0 0 1 8 8v16a24.027 24.027 0 0 1 -24 24h-80a24.027 24.027 0 0 1 -24-24z"/><path d="m123.511 216.172a91.625 91.625 0 0 1 -6.7-9.714l-5.839-10.38a8 8 0 0 0 -13.946 0l-5.839 10.38a91.625 91.625 0 0 1 -6.7 9.714 102.943 102.943 0 0 0 -7.22 10.475c-2.222 3.886-5.267 9.208-5.267 16.02a28.57 28.57 0 0 0 8.877 20.812 31.567 31.567 0 0 0 23.123 8.501q.6.019 1.192.02a31.323 31.323 0 0 0 21.931-8.521 28.57 28.57 0 0 0 8.877-20.812c0-6.812-3.045-12.134-5.269-16.02a102.943 102.943 0 0 0 -7.22-10.475zm-7.458 35.755a15.643 15.643 0 0 1 -11.711 4.054q-.171-.006-.342-.006t-.342.006a15.64 15.64 0 0 1 -11.711-4.054 12.712 12.712 0 0 1 -3.947-9.26c0-2.37 1.368-4.948 3.156-8.074a90.128 90.128 0 0 1 6.122-8.806c2.294-3.051 4.653-6.188 6.722-9.558 2.069 3.37 4.428 6.507 6.722 9.558a90.128 90.128 0 0 1 6.122 8.806c1.788 3.126 3.156 5.7 3.156 8.074a12.712 12.712 0 0 1 -3.947 9.26z"/><path d="m200 456a40.045 40.045 0 0 0 40 40h208a40.045 40.045 0 0 0 40-40v-16a23.9 23.9 0 0 0 -6.131-16 23.943 23.943 0 0 0 0-32 23.943 23.943 0 0 0 0-32 23.943 23.943 0 0 0 0-32 23.943 23.943 0 0 0 0-32 23.943 23.943 0 0 0 0-32 23.943 23.943 0 0 0 0-32 23.9 23.9 0 0 0 6.131-16v-50.108a24.052 24.052 0 0 0 -12.093-20.838c-.2-.115-.4-.22-.614-.317l-99.293-45.854v-18.883a8 8 0 0 0 8-8v-32a24.028 24.028 0 0 0 -24-24h-32a24.028 24.028 0 0 0 -24 24v32a8 8 0 0 0 8 8v18.883l-99.292 45.854c-.209.1-.415.2-.615.317a24.052 24.052 0 0 0 -12.093 20.838v50.108a23.9 23.9 0 0 0 6.131 16 23.943 23.943 0 0 0 0 32 23.943 23.943 0 0 0 0 32 23.943 23.943 0 0 0 0 32 23.943 23.943 0 0 0 0 32 23.943 23.943 0 0 0 0 32 23.943 23.943 0 0 0 0 32 23.9 23.9 0 0 0 -6.131 16zm264-136h-8v-16h8a8 8 0 0 1 0 16zm8 24a8.009 8.009 0 0 1 -8 8h-8v-16h8a8.009 8.009 0 0 1 8 8zm-8-56h-8v-16h8a8 8 0 0 1 0 16zm0-32h-8v-16h8a8 8 0 0 1 0 16zm-144-216a8.009 8.009 0 0 1 8-8h32a8.009 8.009 0 0 1 8 8v24h-48zm40 40v16h-32v-16zm-144 96h168a8 8 0 0 0 0-16h-165.386a7.87 7.87 0 0 1 1.171-.907l101.973-47.093h44.484l101.974 47.093a7.922 7.922 0 0 1 1.171.907h-53.387a8 8 0 0 0 0 16h56v40a8.009 8.009 0 0 1 -8 8h-240a8.009 8.009 0 0 1 -8-8zm224 64v112h-192v-112zm-216 0h8v16h-8a8 8 0 0 1 0-16zm0 32h8v16h-8a8 8 0 0 1 0-16zm0 32h8v16h-8a8 8 0 0 1 0-16zm0 32h8v16h-8a8 8 0 0 1 0-16zm0 32h240a8 8 0 0 1 0 16h-240a8 8 0 0 1 0-16zm0 32h240a8 8 0 0 1 0 16h-240a8 8 0 0 1 0-16zm-8 40a8.009 8.009 0 0 1 8-8h240a8.009 8.009 0 0 1 8 8v16a24.028 24.028 0 0 1 -24 24h-208a24.028 24.028 0 0 1 -24-24z"/><path d="m344 335.98q.6.019 1.192.02a31.325 31.325 0 0 0 21.931-8.521 28.566 28.566 0 0 0 8.877-20.812c0-6.813-3.046-12.135-5.269-16.02a103.09 103.09 0 0 0 -7.221-10.477 91.547 91.547 0 0 1 -6.7-9.712l-5.839-10.38a8 8 0 0 0 -13.946 0l-5.839 10.38a91.547 91.547 0 0 1 -6.7 9.712 103.017 103.017 0 0 0 -7.22 10.476c-2.224 3.886-5.27 9.208-5.27 16.021a28.566 28.566 0 0 0 8.877 20.812 31.493 31.493 0 0 0 23.127 8.501zm-12.843-37.387a90.019 90.019 0 0 1 6.122-8.808c2.293-3.05 4.652-6.187 6.721-9.557 2.069 3.37 4.428 6.507 6.721 9.557a90.1 90.1 0 0 1 6.123 8.809c1.788 3.125 3.156 5.7 3.156 8.073a12.708 12.708 0 0 1 -3.947 9.26 15.647 15.647 0 0 1 -11.711 4.054q-.171-.006-.342-.006t-.342.006a15.654 15.654 0 0 1 -11.711-4.054 12.708 12.708 0 0 1 -3.947-9.26c0-2.367 1.368-4.948 3.157-8.074z"/></svg>