<svg id="Capa_1" enable-background="new 0 0 512 512" height="512" viewBox="0 0 512 512" width="512" xmlns="http://www.w3.org/2000/svg"><g><g><path d="m161.709 37.5h75.082v56.554h-75.082z" fill="#f6a7d2"/><path d="m206.791 37.5h30v56.554h-30z" fill="#f28cc4"/><path d="m276.565 184.365h-154.63v-70.311c0-11.046 8.954-20 20-20h114.629c11.046 0 20 8.954 20 20v70.311z" fill="#f6c2e0"/><path d="m256.565 94.054h-30c11.046 0 20 8.954 20 20v70.311h30v-70.311c0-11.046-8.955-20-20-20z" fill="#f6a7d2"/><path d="m298.75 504.5h-199c-16.569 0-30-13.431-30-30v-199.5c0-71.521 57.979-129.5 129.5-129.5 71.521 0 129.5 57.979 129.5 129.5v199.5c0 16.569-13.431 30-30 30z" fill="#f6a7d2"/><path d="m199.25 145.5c-5.075 0-10.078.302-15 .87 64.453 7.436 114.5 62.184 114.5 128.63v199.5c0 16.569-13.431 30-30 30h30c16.569 0 30-13.431 30-30v-199.5c0-71.521-57.979-129.5-129.5-129.5z" fill="#f28cc4"/><path d="m99.75 467.5v-191.231c0-54.779 43.741-100.233 98.518-100.764 55.312-.537 100.482 44.304 100.482 99.495v192.5c0 3.866-3.134 7-7 7h-185c-3.866 0-7-3.134-7-7z" fill="#fff"/><g><path d="m392.741 123.506c-6.44 0-12.393-4.18-14.353-10.663l-10.962-36.26c-7.067-23.376-28.224-39.083-52.646-39.083h-235.53c-8.284 0-15-6.716-15-15s6.716-15 15-15h235.53c18.384 0 35.904 5.792 50.666 16.751 14.761 10.958 25.376 26.052 30.697 43.65l10.962 36.26c2.397 7.93-2.088 16.302-10.018 18.699-1.445.437-2.908.646-4.346.646z" fill="#d8ecfe"/></g><path d="m407.105 104.161-10.962-36.26c-5.321-17.598-15.937-32.691-30.697-43.65-14.761-10.959-32.282-16.751-50.666-16.751h-30c18.384 0 35.904 5.792 50.666 16.751 14.761 10.958 25.376 26.052 30.697 43.65l10.962 36.26c.624 2.065.772 4.158.524 6.17l.76 2.512c1.96 6.483 7.912 10.663 14.353 10.663 1.438 0 2.9-.208 4.347-.646 7.929-2.397 12.414-10.769 10.016-18.699z" fill="#c4e2ff"/><circle cx="199.25" cy="325" fill="#f6a7d2" r="66"/><path d="m199.25 259c-5.162 0-10.179.612-15 1.733 29.221 6.794 51 32.979 51 64.267s-21.779 57.473-51 64.267c4.821 1.121 9.838 1.733 15 1.733 36.451 0 66-29.549 66-66s-29.549-66-66-66z" fill="#f28cc4"/><path d="m447.75 230.452c0 25.131-20.373 45.504-45.504 45.504s-45.504-20.373-45.504-45.504c0-20.746 31.011-62.104 41.832-75.904 1.871-2.386 5.474-2.386 7.344 0 10.821 13.799 41.832 55.157 41.832 75.904z" fill="#eaf6ff"/><path d="m405.918 154.547c-1.871-2.385-5.474-2.385-7.344 0-2.751 3.508-6.809 8.802-11.328 15.081 13.258 18.42 30.504 45.351 30.504 60.823 0 19.873-12.745 36.761-30.504 42.961 4.698 1.64 9.742 2.543 15 2.543 25.131 0 45.504-20.373 45.504-45.504 0-20.746-31.011-62.104-41.832-75.904z" fill="#d8ecfe"/></g><path d="m92.25 276.269v191.231c0 7.995 6.505 14.5 14.5 14.5h185c7.995 0 14.5-6.505 14.5-14.5v-65.619c0-4.142-3.357-7.5-7.5-7.5s-7.5 3.358-7.5 7.5v65.119h-184v-190.731c-.005-51.306 41.416-93.269 92.006-93.269 24.369 0 47.313 9.448 64.695 26.662 17.604 17.433 27.299 40.638 27.299 65.338v91.881c0 4.142 3.357 7.5 7.5 7.5s7.5-3.358 7.5-7.5v-91.881c0-28.734-11.273-55.724-31.743-75.997-20.214-20.018-46.898-31.003-75.246-31.003-58.828 0-107.008 48.743-107.011 108.269zm222.53-231.269c21.092 0 39.363 13.564 45.468 33.753l10.962 36.26c3.537 11.842 16.208 18.607 28.049 15.026 11.658-3.525 18.611-16.4 15.025-28.049l-10.962-36.26c-5.79-19.15-17.342-35.575-33.405-47.501-16.064-11.925-35.131-18.229-55.137-18.229h-140.982c-4.143 0-7.5 3.358-7.5 7.5s3.357 7.5 7.5 7.5h140.982c16.762 0 32.736 5.281 46.195 15.273s23.138 23.754 27.989 39.798l10.962 36.26c1.196 3.958-1.051 8.153-5.008 9.35-3.906 1.181-8.178-1.088-9.352-5.009l-10.962-36.26c-8.03-26.564-32.072-44.412-59.824-44.412h-235.53c-4.136 0-7.5-3.365-7.5-7.5 0-4.136 3.364-7.5 7.5-7.5h59.548c4.143 0 7.5-3.358 7.5-7.5s-3.357-7.5-7.5-7.5h-59.548c-12.406 0-22.5 10.093-22.5 22.5s10.094 22.5 22.5 22.5h74.959v41.55h-12.269c-15.163 0-27.5 12.336-27.5 27.5v53.432c-31.767 25.112-52.19 63.974-52.19 107.518v199.5c0 20.678 16.822 37.5 37.5 37.5h199c20.678 0 37.5-16.822 37.5-37.5v-199.5c0-43.544-20.423-82.406-52.19-107.518v-53.432c0-15.164-12.337-27.5-27.5-27.5h-12.269v-41.55zm-145.571 0h60.082v41.55h-60.082zm152.041 230v199.5c0 12.407-10.094 22.5-22.5 22.5h-199c-12.406 0-22.5-10.093-22.5-22.5v-199.5c0-67.271 54.729-122 122-122s122 54.729 122 122zm-64.69-173.45c6.893 0 12.5 5.607 12.5 12.5v43.116c-20.458-12.166-44.33-19.166-69.81-19.166s-49.352 7-69.81 19.166v-43.116c0-6.893 5.607-12.5 12.5-12.5zm155.26 48.37c-2.322-2.962-5.811-4.662-9.572-4.662-.001 0-.001 0-.002 0-3.761 0-7.25 1.699-9.574 4.661-16.22 20.686-43.43 58.656-43.43 80.532 0 29.227 23.777 53.004 53.004 53.004s53.004-23.777 53.004-53.004c0-21.88-27.21-59.847-43.43-80.531zm-9.574 118.536c-20.955 0-38.004-17.048-38.004-38.004 0-11.94 14.498-37.985 38.003-68.41 18.775 24.333 38.005 54.249 38.005 68.41 0 20.955-17.049 38.004-38.004 38.004zm-202.996-16.956c-40.528 0-73.5 32.972-73.5 73.5s32.972 73.5 73.5 73.5 73.5-32.972 73.5-73.5-32.972-73.5-73.5-73.5zm0 132c-32.257 0-58.5-26.243-58.5-58.5s26.243-58.5 58.5-58.5 58.5 26.243 58.5 58.5-26.243 58.5-58.5 58.5z"/></g></svg>