<svg id="Layer_1" enable-background="new 0 0 512 512" height="512" viewBox="0 0 512 512" width="512" xmlns="http://www.w3.org/2000/svg"><g><g><path clip-rule="evenodd" d="m101.075 13.055c-10.885 0-19.757 8.901-19.757 19.758v42.152h241.224v-42.152c0-10.857-8.901-19.758-19.785-19.758z" fill="#ccf5fc" fill-rule="evenodd"/></g><g><path clip-rule="evenodd" d="m81.318 74.964-71.318 83.623h251.315l61.227-83.623z" fill="#66e0f7" fill-rule="evenodd"/></g><g><path clip-rule="evenodd" d="m322.542 74.964-61.227 83.623h122.426z" fill="#fff" fill-rule="evenodd"/></g><g><path clip-rule="evenodd" d="m10 158.587v126.54 11.055c0 13.833 11.31 25.144 25.143 25.144 13.804 0 25.114-11.339 25.114-25.144v-16.101c0-13.805 11.31-25.144 25.143-25.144 13.804 0 25.114 11.339 25.114 25.144v17.603c0 13.833 11.31 25.144 25.143 25.144s25.143-11.339 25.143-25.144v-39.742c0-13.805 11.31-25.144 25.114-25.144 13.833 0 25.143 11.339 25.143 25.144v53.405c0 13.805 11.31 25.115 25.143 25.115 13.804 0 25.114-11.31 25.114-25.115v-34.356-118.404z" fill="#fff" fill-rule="evenodd"/></g><g><path clip-rule="evenodd" d="m318.489 344.002 8.901 100.177 4.875 54.766h148.929l13.776-154.943c-13.861-7.002-30.245-7.002-44.135 0-13.861 7.03-30.245 7.03-44.106 0-6.718-3.402-14.201-5.272-22.053-5.272-7.88 0-15.363 1.871-22.081 5.272-13.861 7.03-30.245 7.03-44.106 0z" fill="#fff" fill-rule="evenodd"/></g><g><path clip-rule="evenodd" d="m383.741 265.114h-72.254l7.001 78.889c13.861 7.03 30.245 7.03 44.106 0 6.718-3.402 14.201-5.272 22.081-5.272 7.852 0 15.335 1.871 22.053 5.272 13.861 7.03 30.245 7.03 44.106 0 13.889-7.002 30.273-7.002 44.135 0l7.03-78.889z" fill="#ccf5fc" fill-rule="evenodd"/></g><g><path clip-rule="evenodd" d="m261.315 158.587v118.404 34.356 132.833h66.074l-8.9-100.178-7.002-78.888h72.254v-106.527z" fill="#66e0f7" fill-rule="evenodd"/></g><g><path clip-rule="evenodd" d="m10 444.18h251.315v54.766h-251.315z" fill="#ccf5fc" fill-rule="evenodd"/></g><g><path clip-rule="evenodd" d="m261.315 444.18v54.765h70.95l-4.876-54.765z" fill="#ccf5fc" fill-rule="evenodd"/></g><g><path clip-rule="evenodd" d="m60.257 296.181c0 13.805-11.31 25.144-25.114 25.144-13.833 0-25.143-11.31-25.143-25.144v147.999h251.315v-132.833c0 13.805-11.31 25.115-25.114 25.115-13.833 0-25.143-11.31-25.143-25.115v-53.405c0-13.805-11.31-25.144-25.143-25.144-13.804 0-25.114 11.339-25.114 25.144v39.742c0 13.805-11.31 25.144-25.143 25.144s-25.143-11.31-25.143-25.144v-17.603c0-13.805-11.31-25.144-25.114-25.144-13.833 0-25.143 11.339-25.143 25.144v16.1z" fill="#66e0f7" fill-rule="evenodd"/></g><g><path d="m0 158.587v340.358c0 5.522 4.478 10 10 10h322.265 148.93c5.18 0 9.502-3.955 9.961-9.113l20.805-233.832c.248-2.796-.688-5.566-2.583-7.637s-4.571-3.25-7.378-3.25h-108.259v-96.526c.018-.753-.045-1.92-.502-3.25-.412-1.199-.991-2.087-1.429-2.656l-59.269-80.985v-38.883c0-16.408-13.361-29.758-29.785-29.758h-201.681c-16.408 0-29.757 13.35-29.757 29.758v38.466l-68.926 80.819c-.506.672-1.127 1.644-1.614 2.913-.546 1.418-.723 2.684-.778 3.576zm486.162 171.696c-13.283-3.042-27.448-1.45-39.849 4.8-10.976 5.569-24.084 5.568-35.065-.003-8.323-4.214-17.263-6.351-26.571-6.351-9.326 0-18.275 2.137-26.604 6.354-9.381 4.759-20.313 5.436-30.145 2.062l-5.512-62.031h168.654zm-164.825 158.662h-50.022v-34.765h46.933zm-9.85-233.832c-2.806 0-5.483 1.179-7.377 3.249-1.895 2.07-2.832 4.841-2.584 7.636l7.014 78.933c.011.116.016.234.031.349l7.899 88.899h-45.156v-265.592h102.427v86.526zm-125.572-32.315c-19.362 0-35.115 15.766-35.115 35.144v39.742c0 8.351-6.793 15.144-15.143 15.144s-15.143-6.793-15.143-15.144v-17.604c0-19.378-15.752-35.144-35.114-35.144-19.378 0-35.144 15.766-35.144 35.144v16.102c0 8.351-6.78 15.144-15.114 15.144-8.35 0-15.143-6.793-15.143-15.144v-127.595h231.314v142.76c0 8.335-6.78 15.115-15.114 15.115-8.35 0-15.143-6.78-15.143-15.115v-53.405c.002-19.378-15.763-35.144-35.141-35.144zm-99.982-137.834h216.894l-46.584 63.623h-224.572zm278.098 63.623h-83.001l41.51-56.693zm-272.713-115.774c0-5.381 4.377-9.758 9.757-9.758h201.682c5.396 0 9.785 4.377 9.785 9.758v32.151h-221.224zm-71.318 421.367h70.758c5.522 0 10-4.478 10-10s-4.478-10-10-10h-70.758v-106.29c4.588 2.2 9.724 3.435 15.143 3.435 19.362 0 35.114-15.766 35.114-35.144v-16.101c0-8.351 6.793-15.144 15.144-15.144 8.334 0 15.114 6.793 15.114 15.144v17.604c0 19.378 15.765 35.144 35.143 35.144s35.143-15.766 35.143-35.144v-39.742c0-8.351 6.78-15.144 15.115-15.144 8.35 0 15.143 6.793 15.143 15.144v53.405c0 19.362 15.765 35.115 35.143 35.115 5.408 0 10.534-1.231 15.114-3.425v91.143h-70.757c-5.522 0-10 4.478-10 10s4.478 10 10 10h70.757v34.766h-231.316zm452.045 34.765h-130.63l-11.612-130.69c12.55 2.319 25.714.55 37.31-5.331 5.496-2.783 11.405-4.194 17.563-4.194 6.14 0 12.04 1.411 17.53 4.191 8.324 4.222 17.454 6.331 26.583 6.331 9.122 0 18.241-2.107 26.548-6.32 9.036-4.553 19.496-5.364 29.027-2.447z"/><path d="m135.657 434.18c-5.522 0-10 4.478-10 10s4.478 10 10 10h.057c5.522 0 9.972-4.478 9.972-10s-4.506-10-10.029-10z"/></g></g></svg>