<?xml version="1.0"?>
<svg xmlns="http://www.w3.org/2000/svg" viewBox="0 0 512 512" width="512" height="512"><g id="Filled_outline" data-name="Filled outline"><path d="M384,144A119.956,119.956,0,1,1,326.53,41.56,120.005,120.005,0,0,1,384,144Z" style="fill:#ffb531"/><path d="M384,144a120.013,120.013,0,0,1-235.17,33.78,126.185,126.185,0,0,0,52.41,11.32A126.975,126.975,0,0,0,328.21,62.13a125.68,125.68,0,0,0-1.68-20.57A119.923,119.923,0,0,1,384,144Z" style="fill:#ffa912"/><path d="M320,224a119.956,119.956,0,1,1-57.47-102.44A120.005,120.005,0,0,1,320,224Z" style="fill:#f59898"/><path d="M320,224A120.013,120.013,0,0,1,84.83,257.78,126.973,126.973,0,0,0,264.21,142.13a125.68,125.68,0,0,0-1.68-20.57A119.923,119.923,0,0,1,320,224Z" style="fill:#ed9191"/><path d="M320,216,431.392,37.773A29.3,29.3,0,0,1,456.242,24H458.7A29.3,29.3,0,0,1,488,53.305h0a29.307,29.307,0,0,1-6.889,18.876L360,216Z" style="fill:#f2dec2"/><path d="M432,248a119.94,119.94,0,1,1-64.16-106.24A120.005,120.005,0,0,1,432,248Z" style="fill:#7a432a"/><path d="M432,248a120.008,120.008,0,0,1-237.76,23.15,153.205,153.205,0,0,0,173.6-129.39A119.98,119.98,0,0,1,432,248Z" style="fill:#6e3c26"/><polygon points="416 312 412.73 336 392 488 120 488 99.27 336 96 312 416 312" style="fill:#f2dec2"/><polygon points="416 312 412.73 336 99.27 336 96 312 416 312" style="fill:#ead7bc"/><rect x="72" y="280" width="368" height="32" rx="16" ry="16" style="fill:#f2dec2"/><path d="M288,272v32a16,16,0,0,0,32,0v-8a16,16,0,0,1,32,0v24a16,16,0,0,0,32,0V272Z" style="fill:#6e3c26"/><path d="M128,192v16a8,8,0,0,0,16,0V192h16v16a24,24,0,0,1-48,0V192ZM496,53.3a37.362,37.362,0,0,1-8.778,24.042L411.4,167.378a128.018,128.018,0,0,1,25.553,108.393A24.01,24.01,0,0,1,424,320h-1.017L399.927,489.081A8,8,0,0,1,392,496H120a8,8,0,0,1-7.927-6.919L89.017,320H88a24,24,0,1,1,0-48h98.268A128.589,128.589,0,0,1,184,248a126.884,126.884,0,0,1,12.473-55.182,129.174,129.174,0,0,1,64.992-62.436A112.015,112.015,0,0,0,200,112a110.821,110.821,0,0,0-49.227,11.372c-.076.038-.153.074-.231.109a112.193,112.193,0,0,0-58.517,130.39L76.6,258.129a128.052,128.052,0,0,1,63.8-147.424A127.988,127.988,0,0,1,383.767,98.87l40.839-65.34A37.118,37.118,0,0,1,456.24,16h2.46A37.341,37.341,0,0,1,496,53.3ZM200,96a127.972,127.972,0,0,1,79.957,28.055,128.407,128.407,0,0,1,83.79,6.846l8.876-14.2A111.994,111.994,0,0,0,264,32a110.772,110.772,0,0,0-69.937,24.518,112.811,112.811,0,0,0-34.024,45.839A127.17,127.17,0,0,1,200,96ZM88,304H280V288H88a8,8,0,0,0,0,16Zm318.835,16H392a24,24,0,0,1-48,0V296a8,8,0,0,0-16,0v8a23.986,23.986,0,0,1-41.869,16H105.165l21.818,160H385.017ZM432,296a7.985,7.985,0,0,0-8-8H392v16h32a7.981,7.981,0,0,0,8-8Zm-8-48a112.2,112.2,0,0,0-60.882-99.682l-.019-.01,0,0A110.744,110.744,0,0,0,312,136a112.007,112.007,0,0,0-31.669,4.544c-1.968.568-3.887,1.19-5.909,1.916a112.93,112.93,0,0,0-63.515,57.262A111,111,0,0,0,200,248a112.355,112.355,0,0,0,2.595,24H288a8,8,0,0,1,8,8v24a8.009,8.009,0,0,0,8.548,7.982A8.19,8.19,0,0,0,312,303.717V296a24.028,24.028,0,0,1,23.588-24C349.013,271.776,360,283.119,360,296.546V320a8.009,8.009,0,0,0,8.548,7.982A8.19,8.19,0,0,0,376,319.717V280a8,8,0,0,1,8-8h37.408A112.419,112.419,0,0,0,424,248ZM480,53.3A21.324,21.324,0,0,0,458.7,32h-2.46a21.208,21.208,0,0,0-18.07,10.016l-60.195,96.308a125.974,125.974,0,0,1,22.5,17.189l74.513-88.486A21.365,21.365,0,0,0,480,53.3ZM140.586,342.919l-15.853,2.162,2.33,17.092,15.854-2.162Zm-11.1,37.015,10.52,77.147,15.853-2.162-10.52-77.147ZM368,200a8,8,0,0,1-16,0V184H336v16a24,24,0,0,0,48,0V184H368ZM248,64h16V48H248Zm64,16H296V96h16ZM192,144H176v16h16Zm56,72h16V200H248Zm40-32h16V168H288Zm24,200a8,8,0,0,1-16,0V368H280v16a24,24,0,0,0,48,0V368H312Z"/></g></svg>
