<svg id="Capa_1" enable-background="new 0 0 511.921 511.921" height="512" viewBox="0 0 511.921 511.921" width="512" xmlns="http://www.w3.org/2000/svg"><g><g><g clip-rule="evenodd" fill-rule="evenodd"><path d="m180.518 281.532c-31.255-34.123-39.708-121.142-8.26-151.835-15.089-9.929-33.898-4.726-41.325-1.438-10.243-12.854-20.503-20.737-30.345-25.16-29.222-13.131-54.759 4.244-65.222 12.582-13.987 11.145-49.73 44.944-9.074 95.964-31.109 41.616 41.407 123.303 93.937 131.586 41.623 6.564 81.422 14.333 111.332 44.03h9.097c-3.435-42.327-35.96-79.33-60.14-105.729z" fill="#8cc63f"/><path d="m180.518 281.532c-31.255-34.123-39.708-121.142-8.26-151.835-15.089-9.929-33.898-4.726-41.325-1.438-10.243-12.854-20.503-20.737-30.345-25.16-29.222-13.131-54.759 4.244-65.222 12.582-13.987 11.145-49.73 44.944-9.074 95.964-31.109 41.616 41.407 123.303 93.937 131.586 41.623 6.564 81.422 14.333 111.332 44.03h9.097c-3.435-42.327-35.96-79.33-60.14-105.729zm-34.256-138.933c-19.853 42.49-8.573 114.382 23.195 149.065 16.889 18.439 36.587 40.834 47.696 65.45-28.234-17.143-53.472-23.399-87.088-28.699-35.597-5.613-99.511-65.412-87.491-101.607 1.747-5.259 6.805-10.961 10.165-15.455-23.641-29.668-39.367-52.902-3.46-81.515 32.253-25.702 52.3-6.315 75.64 22.975 4.935-4.273 14.899-8.429 21.343-10.214z" fill="#39b54a"/><path d="m255.96 50.688c-47.023-70.313-162.119-56.241-155.372 52.411 9.842 4.423 20.102 12.305 30.345 25.16 7.427-3.288 26.236-8.491 41.325 1.438 4.693-4.58 10.274-7.906 16.801-9.615 0-65.237 49.017-69.394 66.901-69.394z" fill="#8cc63f"/><path d="m255.96 50.688c-47.023-70.313-162.119-56.241-155.372 52.411 9.842 4.423 20.102 12.305 30.345 25.16 7.427-3.288 26.236-8.491 41.325 1.438 4.693-4.58 10.274-7.906 16.801-9.615 0-65.237 49.017-69.394 66.901-69.394zm-29.991-10.811c-30.461 9.374-48.614 34.064-51.502 69.852-1.409.733-2.782 1.531-4.118 2.391-10.952-3.929-23.261-4.077-34.641-1.273-3.777-6.572-9.376-12.976-12.891-16.894.264-66.948 54.579-92.956 103.152-54.076z" fill="#39b54a"/><path d="m411.332 103.099c6.747-108.652-108.349-122.724-155.372-52.411 17.884 0 66.901 4.157 66.901 69.394 6.526 1.709 12.108 5.034 16.8 9.615 15.089-9.929 33.898-4.726 41.325-1.438 10.244-12.854 20.504-20.737 30.346-25.16z" fill="#8cc63f"/><path d="m322.861 120.082c0-65.237-49.017-69.394-66.901-69.394s-66.901 4.157-66.901 69.394c-6.527 1.709-12.108 5.035-16.801 9.615-31.448 30.693-22.995 117.713 8.26 151.835 24.18 26.398 56.704 63.401 60.139 105.728h30.605c3.435-42.325 35.96-79.33 60.139-105.728 31.255-34.123 39.708-121.143 8.259-151.835-4.691-4.58-10.272-7.906-16.799-9.615z" fill="#8cc63f"/><path d="m322.861 120.082c0-65.237-49.017-69.394-66.901-69.394s-66.901 4.157-66.901 69.394c-6.527 1.709-12.108 5.035-16.801 9.615-31.448 30.693-22.995 117.713 8.26 151.835 24.18 26.398 56.704 63.401 60.139 105.728h30.605c3.435-42.325 35.96-79.33 60.139-105.728 31.255-34.123 39.708-121.143 8.259-151.835-4.691-4.58-10.272-7.906-16.799-9.615zm-69.242 252.179c-8.095-39.053-35.787-72.198-62.039-100.86-13.531-14.772-20.599-40.557-22.962-59.987-2.486-20.437-1.795-55.452 14.118-70.983 5.929-5.786 13.627-6.756 21.324-8.771 0-37.958 5.962-65.973 51.901-65.973s51.901 28.014 51.901 65.973c7.697 2.015 15.394 2.985 21.323 8.771 15.913 15.531 16.604 50.545 14.118 70.982-2.363 19.43-9.431 45.215-22.962 59.987-26.252 28.661-53.944 61.807-62.039 100.86h-4.683z" fill="#39b54a"/><path d="m476.554 115.681c-10.463-8.338-35.999-25.712-65.222-12.582-9.842 4.422-20.102 12.305-30.346 25.16-7.427-3.288-26.236-8.491-41.325 1.438 31.449 30.693 22.996 117.713-8.26 151.836-24.18 26.398-56.704 63.403-60.139 105.728h9.096c29.91-29.697 69.709-37.466 111.332-44.03 52.53-8.283 125.045-89.97 93.936-131.586 40.657-51.02 4.914-84.819-9.072-95.964z" fill="#8cc63f"/><path d="m188.872 387.26c-8.25 0-15 6.75-15 15s6.751 15 15 15h133.906c8.249 0 15-6.75 15-15s-6.75-15-15-15c-44.635 0-89.27 0-133.906 0z" fill="#c69c6d"/><path d="m240.96 435.398.001-18.138h-23.907l-31.59 39.642c-5.142 6.452-4.069 15.937 2.383 21.078 6.452 5.142 15.937 4.07 21.079-2.383z" fill="#8cc63f"/><path d="m270.96 417.26h-30v70.428c0 8.25 6.75 15 15 15s15-6.75 15-15z" fill="#8cc63f"/><path d="m326.456 456.903-31.59-39.642h-23.906v18.138l32.035 40.201c5.142 6.452 14.626 7.524 21.079 2.383 6.451-5.143 7.524-14.628 2.382-21.08z" fill="#8cc63f"/><path d="m255.96 50.688c47.023-70.313 162.119-56.241 155.372 52.411-9.842 4.423-20.102 12.305-30.345 25.16-7.427-3.288-26.236-8.491-41.325 1.438-4.693-4.58-10.274-7.906-16.801-9.615 0-65.237-49.017-69.394-66.901-69.394zm29.992-10.811c30.461 9.374 48.614 34.064 51.502 69.852 1.409.733 2.782 1.531 4.118 2.391 10.952-3.929 23.261-4.077 34.641-1.273 3.777-6.572 9.376-12.976 12.891-16.894-.264-66.948-54.579-92.956-103.152-54.076z" fill="#39b54a"/><path d="m337.778 402.26h-163.906c0 8.25 6.751 15 15 15h133.906c8.25 0 15-6.75 15-15z" fill="#957552"/><path d="m240.96 417.26v70.428c0 8.25 6.75 15 15 15v-70.428h15v-15c-10 0-20 0-30 0z" fill="#39b54a"/><path d="m208.925 475.599 32.035-40.201.001-18.138h-23.907l-11.953 15h22.739l-39.993 45.721c6.452 5.142 15.937 4.07 21.078-2.382z" fill="#39b54a"/><path d="m331.402 281.532c31.255-34.123 39.708-121.142 8.26-151.835 15.089-9.929 33.898-4.726 41.325-1.438 10.243-12.854 20.503-20.737 30.345-25.16 29.222-13.131 54.759 4.244 65.222 12.582 13.986 11.145 49.73 44.944 9.074 95.964 31.109 41.616-41.407 123.303-93.936 131.586-41.623 6.564-81.422 14.333-111.332 44.03h-9.097c3.435-42.327 35.96-79.33 60.139-105.729zm34.256-138.933c19.853 42.49 8.573 114.382-23.195 149.065-16.888 18.439-36.587 40.834-47.696 65.45 28.234-17.143 53.473-23.399 87.088-28.699 35.597-5.613 99.511-65.412 87.491-101.607-1.747-5.259-6.805-10.961-10.164-15.455 23.641-29.668 39.367-52.902 3.46-81.515-32.253-25.702-52.3-6.315-75.64 22.975-4.936-4.273-14.9-8.429-21.344-10.214z" fill="#39b54a"/><path d="m302.995 475.599-32.035-40.201-.001-18.138h23.907l11.953 15h-22.739l39.993 45.721c-6.451 5.142-15.936 4.07-21.078-2.382z" fill="#39b54a"/></g><g><path d="m314.811 267.22-11.061-10.131c9.877-10.785 16.162-33.491 18.046-51.36v-14.611h15l-.039 15.764c-2.026 19.798-8.855 46.046-21.946 60.338zm136.872-17.484h-15v-15h15zm-376.443 0h-15v-15h15zm261.556-73.619h-15v-15h15zm118.347-15.395h-15v-15h15zm-383.364 0h-15v-15h15zm228.583-31.598h-15v-15h15zm64.527-71.038h-15v-15h15zm-202.857 0h-15v-15h15z" fill="#fff"/></g></g><g><path d="m208.274 223.494-14.864 2.012c4.748 35.074 38.778 63.24 55.052 72.01v27.484h15v-74.551c18.134-8.786 33.656-28.443 42.544-44.88l-13.193-7.135c-7.963 14.725-18.758 27.297-29.351 34.646v-136.508h-15v49.657l-16.782-16.998-10.674 10.538 27.456 27.809v112.372c-14.307-10.008-36.808-31.486-40.188-56.456z"/><path d="m203.331 358.94c-25.035-12.547-53.042-17.676-81.934-22.233-20.197-3.185-45.312-18.895-65.543-40.999l-11.064 10.129c22.417 24.492 50.876 41.998 74.271 45.687 27.679 4.365 54.438 9.243 77.549 20.827z"/><path d="m150.176 21.124c25.36-10.444 56.957-5.025 80.492 13.805l9.371-11.713c-27.729-22.183-65.244-28.45-95.574-15.962-28.738 11.833-46.782 37.576-50.808 72.487l14.9 1.719c3.373-29.246 18.154-50.674 41.619-60.336z"/><path d="m351.679 17.88 3.51-14.584c-28.116-6.763-59.258.683-83.306 19.921l9.371 11.713c20.455-16.365 46.784-22.739 70.425-17.05z"/><path d="m403.359 81.46 14.9-1.72c-3.849-33.354-20.723-58.579-47.513-71.03l-6.322 13.603c21.879 10.168 35.706 31.174 38.935 59.147z"/><path d="m481.228 110.701c-13.6-10.838-27.614-17.101-41.652-18.614-22.186-2.394-42.663 7.076-60.94 28.154-10.934-3.523-25.389-4.642-37.999 1.236-3.207-2.458-6.675-4.448-10.39-5.949-1.959-45.501-28.786-71.455-74.285-71.455-45.505 0-72.334 25.958-74.286 71.471-3.676 1.506-7.11 3.517-10.295 5.98-12.635-5.93-27.138-4.813-38.1-1.281-29.88-34.319-67.018-37.885-102.588-9.542-35.588 28.358-40.392 65.379-13.556 102.189-11.708 20.977-5.376 50.708 17.601 80.917l11.939-9.081c-20.523-26.983-25.898-52.293-14.377-67.706l3.467-4.637-3.608-4.527c-31.881-40.007-13.311-68.537 7.882-85.424s53.146-28.621 85.028 11.386l3.607 4.527 5.293-2.343c5.726-2.535 16.441-5.206 26.322-2.608-9.329 13.512-14.747 32.89-15.279 56.4l14.996.339c.766-33.893 12.336-57.037 30.951-61.91l5.601-1.466v-5.789c0-51.157 32.303-61.895 59.401-61.895s59.4 10.738 59.4 61.895v5.789l5.601 1.466c15.487 4.055 23.021 19.44 26.615 31.633 10.945 37.141.601 93.144-21.705 117.495-3 3.274-5.449 5.977-7.709 8.503l11.182 9.999c2.218-2.48 4.629-5.14 7.588-8.37 25.752-28.114 37.449-89.735 25.032-131.867-2.548-8.646-5.988-16.083-10.227-22.253 9.85-2.551 20.507.114 26.212 2.639l5.294 2.343 3.607-4.527c15.742-19.754 32.933-28.776 51.115-26.818 11.164 1.204 22.574 6.396 33.913 15.432 21.192 16.888 39.763 45.417 7.883 85.425l-3.608 4.527 3.467 4.637c11.521 15.412 6.146 40.723-14.378 67.706l11.939 9.081c22.977-30.209 29.309-59.94 17.602-80.917 26.835-36.811 22.032-73.832-13.556-102.19z"/><path d="m390.524 336.707c-28.892 4.556-56.897 9.685-81.935 22.233l6.721 13.41c23.113-11.584 49.872-16.461 77.55-20.827 23.397-3.689 51.856-21.196 74.271-45.688l-11.064-10.127c-20.23 22.105-45.344 37.814-65.543 40.999z"/><path d="m322.779 380.645h-42.979c5.225-29.542 24.921-55.874 39.857-73.645l-11.482-9.651c-16.512 19.646-38.43 49.131-43.586 83.296h-17.264c-5.964-39.955-34.586-74.157-61.275-103.294-13.812-15.079-23.662-43.017-25.707-72.909l-14.965 1.023c2.266 33.123 13.612 64.55 29.611 82.017 24.639 26.9 51.018 58.232 57.139 93.163h-43.255c-12.406 0-22.499 10.093-22.499 22.5s10.093 22.5 22.499 22.5h44.589v8.015l-30.4 38.15c-1.238 1.554-3.022 2.534-5.025 2.76-2.002.224-3.961-.332-5.515-1.569-3.233-2.577-3.769-7.305-1.191-10.539l13.661-17.143-11.73-9.348-13.661 17.143c-7.731 9.702-6.128 23.886 3.574 31.618 4.135 3.295 9.083 4.895 14 4.895 6.619 0 13.182-2.901 17.618-8.468l18.67-23.429v30.845c0 12.406 10.093 22.5 22.499 22.5s22.5-10.093 22.5-22.5v-30.844l18.67 23.429c4.437 5.568 10.998 8.468 17.618 8.468 4.916 0 9.864-1.6 13.999-4.894 4.688-3.735 7.642-9.087 8.318-15.071.677-5.984-1.009-11.861-4.744-16.547l-13.66-17.143-11.73 9.348 13.66 17.143c1.238 1.554 1.796 3.512 1.569 5.514s-1.207 3.787-2.761 5.025c-3.234 2.575-7.962 2.043-10.539-1.191l-30.4-38.149v-8.016h44.318c12.406 0 22.5-10.094 22.5-22.5s-10.095-22.502-22.501-22.502zm-59.319 107.928c0 4.135-3.364 7.5-7.5 7.5-4.135 0-7.499-3.364-7.499-7.5v-62.928h14.999zm59.319-77.928h-133.907c-4.135 0-7.499-3.364-7.499-7.5 0-4.135 3.364-7.5 7.499-7.5h133.906c4.136 0 7.5 3.364 7.5 7.5.001 4.136-3.364 7.5-7.499 7.5z"/></g></g></svg>