<svg id="Filled" height="512" viewBox="0 0 512 512" width="512" xmlns="http://www.w3.org/2000/svg"><path d="m24 24h400v32h-400z" fill="#d46109"/><path d="m24 456h400v32h-400z" fill="#d46109"/><path d="m24 456 32-32-16-16v-304l16-16-32-32h400l-32 32 16 16v304l-16 16 32 32z" fill="#ff750a"/><circle cx="224" cy="256" fill="#ffb632" r="104"/><path d="m88 344v-80l272-72v80z" fill="#dadcde"/><path d="m272 392h40.02c15.714 0 34.336 8.2 47.98 16 21.8 12.457 42.2 12.457 64 0l16-8c5.044-3.362 17.938-8 24-8 16.957 0 24 13.746 24 30.7a65.3 65.3 0 0 1 -65.3 65.3h-150.7z" fill="#ffb632"/><path d="m384 488h-112a48 48 0 0 1 0-96s41 3.5 48 48c3.06 19.45 15.67 31.07 28.89 37.99 17.05 8.9 35.11 10.01 35.11 10.01z" fill="#eba72e"/><path d="m88 96h272a8 8 0 0 0 0-16h-272a8 8 0 0 0 0 16z"/><path d="m83.12 350.34a8 8 0 0 0 6.927 1.393l56.4-14.93a112.021 112.021 0 0 0 184.957-48.959l30.639-8.111a8 8 0 0 0 5.957-7.733v-80a8 8 0 0 0 -10.047-7.733l-40.1 10.615a111.994 111.994 0 0 0 -205.645 54.435l-26.252 6.95a8 8 0 0 0 -5.956 7.733v80a8 8 0 0 0 3.12 6.34zm140.88 1.66a95.273 95.273 0 0 1 -58.86-20.144l147.553-39.056a95.822 95.822 0 0 1 -88.693 59.2zm0-192a96.366 96.366 0 0 1 77.409 39.234l-172.771 45.734a96.135 96.135 0 0 1 95.362-84.968zm-128 110.158 256-67.764v63.448l-256 67.764z"/><path d="m464 384c-17.452 0-40.569 14.79-44.195 17.183q-1.916 1.086-3.805 2.026v-299.209a8 8 0 0 0 -2.343-5.657l-10.344-10.343 26.344-26.343a7.979 7.979 0 0 0 2.343-5.657v-32a8 8 0 0 0 -8-8h-400a8 8 0 0 0 -8 8v32a7.979 7.979 0 0 0 2.343 5.657l26.344 26.343-10.344 10.343a8 8 0 0 0 -2.343 5.657v304a8 8 0 0 0 2.343 5.657l10.344 10.343-26.344 26.343a7.979 7.979 0 0 0 -2.343 5.657v32a8 8 0 0 0 8 8h398.7a73.38 73.38 0 0 0 73.3-73.3c0-23.87-12.262-38.7-32-38.7zm-432-352h384v16h-384zm29.657 397.657a8 8 0 0 0 0-11.314l-13.657-13.656v-297.374l13.657-13.656a8 8 0 0 0 0-11.314l-18.343-18.343h361.372l-18.343 18.343a8 8 0 0 0 0 11.314l13.657 13.656v301.342c-11.888 2.076-23.523-.453-36.03-7.6-11.146-6.37-32.715-17.055-51.95-17.055h-40.02a56.069 56.069 0 0 0 -50.586 32h-133.414a8 8 0 0 0 0 16h128.581a55.368 55.368 0 0 0 0 16h-173.267zm-29.657 50.343v-16h189.414a56.251 56.251 0 0 0 11.448 16zm240 0a40 40 0 0 1 -.411-80 50.323 50.323 0 0 1 17.779 6.234c12.572 7.276 20.22 19.054 22.729 35.007 2.5 15.89 10.979 29.132 24.712 38.757zm150.7 0h-38.408a90.059 90.059 0 0 1 -31.692-9.1c-14.2-7.433-22.511-18.249-24.7-32.145-2.929-18.621-11.278-30.834-20.056-38.757h4.173c15.538 0 34.244 9.364 44.011 14.946 24.2 13.83 47.735 13.83 71.938 0 .163-.09 24.951-14.944 36.034-14.944 7.3 0 16 3.938 16 22.7a57.361 57.361 0 0 1 -57.3 57.3z"/></svg>