<svg id="Flat" height="512" viewBox="0 0 512 512" width="512" xmlns="http://www.w3.org/2000/svg"><path d="m488 256v49.36a32 32 0 0 1 -21.35 30.175l-114.65 40.465v-34.86l93.381-33.348a16 16 0 0 0 10.619-15.068v-20.724a16 16 0 0 0 -16-16h-88v-32h104a32 32 0 0 1 32 32z" fill="#d9dbdd"/><path d="m310.071 432h-158.071c-110.75-80-88-248-88-248h334.071s22.75 168-88 248z" fill="#e0e2e5"/><path d="m399.01 248c-4.04 56.08-22.39 135.93-88.94 184h-158.07c-66.55-48.07-84.9-127.92-88.94-184z" fill="#f4ae40"/><path d="m480 424s0 64-72 64h-304c-72 0-72-64-72-64z" fill="#d9dbdd"/><path d="m280 296a8 8 0 0 1 -8-8v-104a8 8 0 0 1 16 0v104a8 8 0 0 1 -8 8z" fill="#c46f2a"/><path d="m312 312v80h-64v-80l32-32z" fill="#e07e30"/><g fill="#e0e2e5"><path d="m229.333 160a8 8 0 0 1 -5.656-13.657c.738-.768 19.066-20.445-1.2-54.227-14.184-23.64-10.778-42.645-5.423-54.427a55.778 55.778 0 0 1 15.48-20.089 8 8 0 0 1 9.633 12.774 40.217 40.217 0 0 0 -10.8 14.5c-5.18 11.913-3.556 25.038 4.827 39.011 26.905 44.841-.042 72.612-1.2 73.773a7.974 7.974 0 0 1 -5.661 2.342z"/><path d="m136 160a8 8 0 0 1 -5.657-13.657c1.831-1.871 17.638-19.048 0-36.686-15.287-15.288-14.383-30.836-10.932-41.187a49.74 49.74 0 0 1 10.932-18.127 8 8 0 0 1 11.343 11.285c-1.862 1.9-17.666 19.078-.029 36.715 15.287 15.288 14.383 30.836 10.932 41.187a49.74 49.74 0 0 1 -10.932 18.127 7.976 7.976 0 0 1 -5.657 2.343z"/><path d="m328 160a8 8 0 0 1 -5.657-13.657c1.831-1.871 17.637-19.048 0-36.686-15.287-15.288-14.383-30.836-10.933-41.187a49.765 49.765 0 0 1 10.933-18.127 8 8 0 0 1 11.343 11.285c-1.863 1.9-17.665 19.078-.029 36.715 15.287 15.288 14.383 30.836 10.933 41.187a49.765 49.765 0 0 1 -10.933 18.127 7.974 7.974 0 0 1 -5.657 2.343z"/></g></svg>