<svg id="Layer_1" enable-background="new 0 0 512.16 512.16" height="512" viewBox="0 0 512.16 512.16" width="512" xmlns="http://www.w3.org/2000/svg"><g><circle cx="256.08" cy="256.08" fill="#ff4a4a" r="256.08"/><path d="m256.543 0v512.148c141.215-.251 255.617-114.8 255.617-256.074s-114.401-255.823-255.617-256.074z" fill="#e20059"/><path d="m396.074 191.459h-70.641c-2.455 0-4.445-1.99-4.445-4.445v-70.641c0-7.922-6.422-14.343-14.343-14.343h-100.204c-7.922 0-14.343 6.422-14.343 14.343v70.641c0 2.455-1.99 4.445-4.445 4.445h-70.641c-7.922 0-14.343 6.422-14.343 14.343v100.204c0 7.922 6.422 14.343 14.343 14.343h70.641c2.455 0 4.445 1.99 4.445 4.445v70.64c0 7.922 6.422 14.343 14.343 14.343h100.204c7.922 0 14.343-6.422 14.343-14.343v-70.64c0-2.455 1.99-4.445 4.445-4.445h70.641c7.922 0 14.343-6.422 14.343-14.343v-100.203c0-7.922-6.421-14.344-14.343-14.344z" fill="#fff"/><path d="m396.074 191.459h-70.641c-2.455 0-4.445-1.99-4.445-4.445v-70.641c0-7.922-6.422-14.343-14.343-14.343h-50.102v307.748h50.102c7.922 0 14.343-6.422 14.343-14.343v-70.64c0-2.455 1.99-4.445 4.445-4.445h70.641c7.922 0 14.343-6.422 14.343-14.343v-100.204c0-7.922-6.421-14.344-14.343-14.344z" fill="#f4f1f1"/></g></svg>