<?xml version="1.0" encoding="iso-8859-1"?>
<!-- Generator: Adobe Illustrator 19.0.0, SVG Export Plug-In . SVG Version: 6.00 Build 0)  -->
<svg version="1.1" id="Capa_1" xmlns="http://www.w3.org/2000/svg" xmlns:xlink="http://www.w3.org/1999/xlink" x="0px" y="0px"
	 viewBox="0 0 512 512" style="enable-background:new 0 0 512 512;" xml:space="preserve">
<g>
	<path style="fill:#5BD185;" d="M86.856,206.582c12.855,12.856,31.066,17.095,47.454,12.719
		c4.377-16.388,0.138-34.598-12.719-47.455c-12.856-12.856-31.067-17.095-47.455-12.719
		C69.76,175.515,73.999,193.724,86.856,206.582z"/>
	<path style="fill:#FFC16D;" d="M430.768,224.205c-35.035,112.779-156.606,200.547-287.801,165.394
		c-7.459,5.296-15.016,11.748-19.506,24.607c22.962,19.289,46.861,34.496,71.012,45.684
		c126.806,58.741,260.53,6.655,301.814-147.417c4.736-17.675,8.65-58.816,2.756-91.096c-20.107-17.01-22.886-36.288-25.273-49.315
		c-8.208-1.155-20.537,2.394-27.409,9.636C443.351,204.329,446.777,219.14,430.768,224.205z"/>
	<path style="fill:#FF4060;" d="M239.689,368.563c0-44.947-25.822-83.864-63.441-102.726c-15.465-7.754-32.925-12.118-51.403-12.118
		C61.418,253.719,10,305.137,10,368.563c0,63.428,51.417,114.844,114.843,114.844c25.975,0,49.93-8.628,69.169-23.168l0.461-0.35
		c-24.15-11.188-48.05-26.396-71.012-45.684c4.489-12.858,12.046-19.312,19.506-24.607c32.203,8.628,63.826,9.851,93.732,5.116
		l0.271-1.21C238.748,385.475,239.689,377.129,239.689,368.563z"/>
	<path style="fill:#C8E27C;" d="M176.251,265.839c37.617,18.862,63.438,57.778,63.438,102.724c0,8.566-0.941,16.912-2.719,24.942
		l-0.271,1.21c68.286-10.813,127.618-52.689,164.456-108.391l-0.21-0.689c-10.971-34.238-39.271-52.47-33.913-82.661
		c14.981-84.438-15.047-113.606-50.931-118.396c-35.884-4.789-73.191,15.39-80.878,100.802
		c-2.996,33.28-39.783,40.085-58.709,79.889L176.251,265.839z"/>
</g>
<path d="M508.88,219.58c-0.416-2.278-1.609-4.342-3.378-5.838c-16.56-14.009-19.356-29.456-21.603-41.867l-0.294-1.617
	c-0.776-4.236-4.178-7.5-8.442-8.1c-1.472-0.207-3.03-0.313-4.631-0.313c-9.517,0-22.925,4.01-31.426,12.967
	c-1.45,1.529-2.381,3.477-2.659,5.566c-0.715,5.374-1.083,10.292-1.407,14.631c-1.225,16.351-2.308,18.085-7.289,19.661
	c-3.122,0.988-5.562,3.441-6.533,6.567c-4.691,15.102-10.916,29.554-18.449,43.189c-3.721-7.104-7.833-13.494-11.66-19.44
	c-9.36-14.542-16.754-26.03-14.228-40.267c8.186-46.144,4.031-80.904-12.353-103.316c-9.124-12.481-22.122-20.99-37.918-24.965
	c3.144-24.532,20.192-35.654,29.629-38.183c5.335-1.429,8.501-6.913,7.071-12.248c-1.43-5.334-6.914-8.503-12.247-7.071
	c-19.485,5.221-40.298,24.388-44.273,55.002c-15.96-0.045-30.455,4.829-42.383,14.359c-21.796,17.415-34.965,49.777-39.142,96.185
	c-1.257,13.965-10.291,22.113-22.796,33.388c-10.207,9.204-21.577,19.48-30.685,35.015c-11.345-4.62-23.515-7.617-36.223-8.702
	c3.602-23.552,20.167-34.306,29.421-36.785c5.335-1.429,8.501-6.913,7.071-12.247c-1.43-5.335-6.914-8.503-12.247-7.071
	c-5.025,1.346-10.136,3.631-15.027,6.789c-2.275-11.229-7.779-21.761-16.113-30.094c-11.166-11.166-26.013-17.315-41.805-17.315
	c-5.169,0-10.317,0.675-15.302,2.005c-3.457,0.923-6.158,3.624-7.081,7.081c-5.433,20.347,0.433,42.228,15.309,57.107
	c10.351,10.351,23.87,16.381,38.37,17.207c-1.264,4.138-2.204,8.542-2.75,13.212C50.957,248.915,0,302.899,0,368.563
	c0,68.839,56.005,124.844,124.843,124.844c25.584,0,49.954-7.604,70.817-22.028c3.286,1.442,6.583,2.83,9.895,4.136
	c30.096,11.871,60.512,17.891,90.401,17.891c48.076,0,92.696-15.708,129.036-45.427c37.983-31.063,65.977-77.026,80.953-132.92
	C510.832,296.829,515.143,253.875,508.88,219.58z M215.863,232.724c13.451-12.13,27.36-24.673,29.321-46.448
	c3.669-40.765,14.336-68.473,31.707-82.352c10.312-8.239,23.058-11.416,37.888-9.434c14.646,1.955,25.952,8.252,33.603,18.718
	c13.04,17.838,16.003,47.452,8.805,88.018c-3.897,21.961,6.779,38.546,17.103,54.587c5.786,8.989,11.742,18.257,15.792,29.046
	c-33.703,48.67-84.844,84.163-141.117,97.16c0.48-4.462,0.724-8.957,0.724-13.455c0-45.109-24.051-84.706-60.001-106.647
	C197.17,249.602,206.644,241.038,215.863,232.724z M82.692,167.679c1.382-0.146,2.771-0.221,4.165-0.221
	c10.449,0,20.274,4.069,27.662,11.457c8.402,8.402,12.461,20.184,11.234,31.831c-1.381,0.146-2.771,0.22-4.162,0.22h-0.002
	c-10.451,0-20.276-4.069-27.664-11.456C85.524,191.108,81.466,179.328,82.692,167.679z M124.843,473.407
	c-57.811,0-104.843-47.032-104.843-104.844s47.032-104.844,104.843-104.844c57.812,0,104.845,47.032,104.845,104.844
	c0,5.764-0.471,11.518-1.402,17.179c-6.433,0.83-12.91,1.357-19.417,1.579c1.37-6.133,2.086-12.4,2.086-18.758
	c0-11.262-2.167-22.256-6.44-32.675c-2.095-5.108-7.934-7.554-13.047-5.457c-5.109,2.096-7.553,7.937-5.457,13.047
	c3.281,7.999,4.944,16.438,4.944,25.085c0,6.288-0.891,12.465-2.633,18.446c-14.312-0.921-28.645-3.286-42.767-7.07
	c-2.876-0.771-5.948-0.219-8.377,1.505c-8.888,6.31-17.845,14.247-23.158,29.465c-1.369,3.922-0.171,8.282,3.01,10.954
	c18.369,15.431,37.563,28.512,57.333,39.131C159.23,469.145,142.38,473.407,124.843,473.407z M486.627,309.884
	c-27.437,102.393-98.715,163.523-190.67,163.523c-53.682,0-110.347-22.009-160.292-62.119c2.647-4.752,5.92-8.023,9.437-10.815
	c18.777,4.633,37.874,6.979,56.837,6.979c53.669,0,105.418-18.289,149.652-52.89c22.489-17.591,41.98-38.788,57.593-62.292
	c0.186-0.252,0.361-0.512,0.522-0.78c12.325-18.699,22.197-38.846,29.159-59.796c14.015-7.052,15.084-21.336,16.121-35.192
	c0.237-3.167,0.48-6.415,0.851-9.842c2.66-1.926,6.185-3.451,9.719-4.235c2.665,12.715,7.847,29.036,24.222,44.107
	C494.411,255.994,491.047,293.387,486.627,309.884z"/>
<path d="M314.768,133.515c7.275,3.05,11.292,25.001,4.894,61.054c-0.965,5.438,2.661,10.629,8.1,11.594
	c0.591,0.105,1.179,0.156,1.759,0.156c4.757,0,8.975-3.408,9.835-8.254c5.721-32.24,7.441-72.809-16.854-82.995
	c-5.09-2.132-10.953,0.263-13.089,5.356C307.276,125.518,309.673,131.378,314.768,133.515z"/>
<path d="M374.591,399.3c-0.004,0.002-0.047,0.034-0.05,0.036c-4.454,3.261-5.403,9.501-2.146,13.957
	c1.955,2.674,4.997,4.089,8.08,4.089c2.054,0,4.127-0.628,5.909-1.93l0.229-0.169c4.418-3.314,5.302-9.573,1.988-13.992
	C385.289,396.872,379.009,395.985,374.591,399.3z"/>
<path d="M352.195,413.114c-34.227,17.508-63.104,16.815-63.53,16.796c-5.497-0.191-10.141,4.093-10.357,9.603
	c-0.216,5.518,4.082,10.167,9.601,10.383c0.153,0.006,0.691,0.024,1.584,0.024c7.147,0,36.934-1.161,71.81-19.002
	c4.917-2.515,6.864-8.54,4.35-13.457C363.136,412.546,357.112,410.599,352.195,413.114z"/>
<path d="M171.824,322.05c1.956,1.978,4.532,2.967,7.109,2.967c2.541,0,5.084-0.963,7.033-2.891
	c3.926-3.884,3.96-10.216,0.076-14.142l-0.329-0.33c-3.915-3.893-10.246-3.878-14.142,0.038c-3.895,3.916-3.878,10.248,0.038,14.143
	L171.824,322.05z"/>
<g>
</g>
<g>
</g>
<g>
</g>
<g>
</g>
<g>
</g>
<g>
</g>
<g>
</g>
<g>
</g>
<g>
</g>
<g>
</g>
<g>
</g>
<g>
</g>
<g>
</g>
<g>
</g>
<g>
</g>
</svg>
