<?xml version="1.0" encoding="utf-8"?>
<!-- Generator: Adobe Illustrator 19.0.0, SVG Export Plug-In . SVG Version: 6.00 Build 0)  -->
<svg xmlns="http://www.w3.org/2000/svg" xmlns:xlink="http://www.w3.org/1999/xlink" version="1.1" id="Layer_1" x="0px" y="0px" viewBox="0 2 98 98" style="enable-background:new 0 2 98 98;" xml:space="preserve" width="512" height="512">
<style type="text/css">
	.st0{fill:url(#SVGID_1_);}
	.st1{fill:url(#SVGID_2_);}
</style>
<g>
	
		<linearGradient id="SVGID_1_" gradientUnits="userSpaceOnUse" x1="49" y1="92.6667" x2="49" y2="7.6346" gradientTransform="matrix(1 0 0 -1 0 104)">
		<stop offset="0" style="stop-color:#00EFD1"/>
		<stop offset="1" style="stop-color:#00ACEA"/>
	</linearGradient>
	<path class="st0" d="M49,11C25.8,11,7,29.8,7,53s18.8,42,42,42s42-18.8,42-42S72.2,11,49,11z M49,89c-19.9,0-36-16.1-36-36   s16.1-36,36-36s36,16.1,36,36S68.9,89,49,89z"/>
	
		<linearGradient id="SVGID_2_" gradientUnits="userSpaceOnUse" x1="49" y1="92.6667" x2="49" y2="7.6346" gradientTransform="matrix(1 0 0 -1 0 104)">
		<stop offset="0" style="stop-color:#00EFD1"/>
		<stop offset="1" style="stop-color:#00ACEA"/>
	</linearGradient>
	<path class="st1" d="M66,50H52V36c0-1.7-1.3-3-3-3s-3,1.3-3,3v14H32c-1.7,0-3,1.3-3,3s1.3,3,3,3h14v14c0,1.7,1.3,3,3,3s3-1.3,3-3   V56h14c1.7,0,3-1.3,3-3S67.7,50,66,50z"/>
</g>
</svg>
