<svg height="512" viewBox="0 0 512 512" width="512" xmlns="http://www.w3.org/2000/svg"><g id="Filled_stroke_cut_Ex" data-name="Filled stroke cut Ex"><g><path d="m400 312 54.426 54.426a60 60 0 0 1 17.574 42.427v49.147a30 30 0 0 1 -30 30h-26v-56h-16z" fill="#fa5d3f"/><path d="m120 464v-160l88-56h96l88 56v160z" fill="#fa5d3f"/><path d="m304 248-48 48-48-48 8-32h80z" fill="#ffd4cf"/><path d="m299.035 228.142-3.035-12.142h-80l-3.086 12.345 26.93 13.465a36 36 0 0 0 32.363-.082z" fill="#fbb8b0"/><path d="m332 120h-12v-32h-128v32h-12a20 20 0 0 0 -20 20v8a20 20 0 0 0 20 20h12v13.459a30 30 0 0 0 16.583 26.833l38.417 19.208a20 20 0 0 0 17.979-.045l38.575-19.534a30 30 0 0 0 16.446-26.765v-13.156h12a20 20 0 0 0 20-20v-8a20 20 0 0 0 -20-20z" fill="#ffd4cf"/><g><path d="m216 128h16v16h-16z"/><path d="m280 128h16v16h-16z"/></g><path d="m256 200c-13.458 0-24-8.785-24-20h16c0 1.41 3.037 4 8 4s8-2.59 8-4h16c0 11.215-10.542 20-24 20z"/><path d="m234 24h44a50 50 0 0 1 50 50v14a0 0 0 0 1 0 0h-144a0 0 0 0 1 0 0v-14a50 50 0 0 1 50-50z" fill="#fa5d3f"/><path d="m296.906 115.271-18.718-12.479a40 40 0 0 0 -44.376 0l-18.718 12.479a20 20 0 0 1 -31.094-16.641v-10.63l33.149-18.416a80 80 0 0 1 77.7 0l33.151 18.416v10.63a20 20 0 0 1 -31.094 16.641z" fill="#fac850"/><path d="m112 280h288v208h-288z" fill="#fac850"/><path d="m128 432h-32v56h88a56 56 0 0 0 -56-56z" fill="#ffd4cf"/><path d="m224 280h64v72h-64z" fill="#fa7d29"/><path d="m224 440h64v48h-64z" fill="#fa7d29"/><path d="m112 312-54.426 54.426a60 60 0 0 0 -17.574 42.427v49.147a30 30 0 0 0 30 30h26v-56h16z" fill="#fa5d3f"/><path d="m384 432h32v56h-88a56 56 0 0 1 56-56z" fill="#ffd4cf"/><path d="m136 304h16v16h-16z"/><path d="m168 304h32v16h-32z"/><path d="m136 336h64v16h-64z"/><path d="m340 312h28a0 0 0 0 1 0 0v20a20 20 0 0 1 -20 20h-28a0 0 0 0 1 0 0v-20a20 20 0 0 1 20-20z" fill="#fffffe"/><path d="m348 360h-28a8 8 0 0 1 -8-8v-20a28.032 28.032 0 0 1 28-28h28a8 8 0 0 1 8 8v20a28.032 28.032 0 0 1 -28 28zm-20-16h20a12.013 12.013 0 0 0 12-12v-12h-20a12.013 12.013 0 0 0 -12 12z"/><path d="m460.084 360.77-30.427-30.427-11.314 11.314 30.427 30.426a51.663 51.663 0 0 1 15.23 36.77v49.147a22.025 22.025 0 0 1 -22 22h-18v-40h16v-16h-32v-144a8 8 0 0 0 -8-8h-43.384l-45.629-29.037-6.622-26.487 2.8-1.419a37.818 37.818 0 0 0 20.835-33.901v-5.156h4a28.032 28.032 0 0 0 28-28v-8a28.033 28.033 0 0 0 -27.395-27.993 27.972 27.972 0 0 0 3.395-13.377v-24.63a58.066 58.066 0 0 0 -58-58h-44a58.066 58.066 0 0 0 -58 58v24.63a27.972 27.972 0 0 0 3.4 13.377 28.033 28.033 0 0 0 -27.4 27.993v8a28.032 28.032 0 0 0 28 28h4v5.459a37.792 37.792 0 0 0 21.006 33.988l2.566 1.283-6.559 26.233-45.629 29.037h-43.384a8 8 0 0 0 -8 8v28.686l-29.657 29.657 11.314 11.314 18.343-18.343v92.686h-32v16h16v40h-18a22.025 22.025 0 0 1 -22-22v-49.147a51.666 51.666 0 0 1 15.229-36.77l6.427-6.426-11.312-11.314-6.428 6.427a67.554 67.554 0 0 0 -19.916 48.083v49.147a38.043 38.043 0 0 0 38 38h372a38.043 38.043 0 0 0 38-38v-49.147a67.554 67.554 0 0 0 -19.916-48.083zm-228.084-72.77h48v56h-48zm59.314-16 13.805-13.8 21.694 13.8zm-92.976-162.79a11.827 11.827 0 0 1 -6.338-10.58v-5.923l29.033-16.13a71.581 71.581 0 0 1 69.934 0l29.033 16.13v5.923a12 12 0 0 1 -18.656 9.984l-18.718-12.478a47.871 47.871 0 0 0 -53.252 0l-18.718 12.478a11.828 11.828 0 0 1 -12.318.596zm145.662 30.79v8a12.013 12.013 0 0 1 -12 12h-4v-32h4a12.013 12.013 0 0 1 12 12zm-110-108h44a42.047 42.047 0 0 1 42 42v.4l-21.264-11.809a87.481 87.481 0 0 0 -85.472 0l-21.264 11.809v-.4a42.047 42.047 0 0 1 42-42zm-54 128a12.013 12.013 0 0 1 -12-12v-8a12.013 12.013 0 0 1 12-12h4v32zm20 21.459v-55.111a27.935 27.935 0 0 0 19.531-4.421l18.718-12.479a31.918 31.918 0 0 1 35.5 0l18.718 12.479a27.952 27.952 0 0 0 19.533 4.42v54.809a21.894 21.894 0 0 1 -12.062 19.627l-38.573 19.533a12.051 12.051 0 0 1 -10.788.028l-38.415-19.207a21.881 21.881 0 0 1 -12.162-19.678zm43.421 53.2a28.12 28.12 0 0 0 25.172-.064l21.133-10.7 5.415 21.657-26.455 26.448h-25.372l-26.455-26.454 5.372-21.486zm-36.54 23.54 13.805 13.801h-35.5zm-86.881 29.801h96v64a8 8 0 0 0 8 8h64a8 8 0 0 0 8-8v-64h96v136h-8a64.1 64.1 0 0 0 -63.5 56h-24.5v-40a8 8 0 0 0 -8-8h-64a8 8 0 0 0 -8 8v40h-24.5a64.1 64.1 0 0 0 -63.5-56h-8zm-16 192v-40h24a48.078 48.078 0 0 1 47.333 40zm128 0v-32h48v32zm176 0h-71.333a48.078 48.078 0 0 1 47.333-40h24z"/></g></g></svg>