<svg id="Capa_1" enable-background="new 0 0 512 512" height="512" viewBox="0 0 512 512" width="512" xmlns="http://www.w3.org/2000/svg"><g><path d="m498.63 244.096-22.291-17.104 17.104-22.291c6.006-7.827 2.953-19.221-6.162-22.997l-25.958-10.752 10.752-25.958c3.776-9.115-2.122-19.331-11.904-20.618l-27.856-3.667 3.667-27.857c1.288-9.781-7.053-18.123-16.835-16.835l-11.903 1.567v356.831l11.903 1.567c9.782 1.288 18.123-7.053 16.835-16.835l-3.667-27.856 27.856-3.667c9.782-1.288 15.68-11.503 11.904-20.618l-10.752-25.958 25.958-10.752c9.115-3.775 12.168-15.169 6.162-22.997l-17.104-22.291 22.291-17.104c7.827-6.006 7.827-17.802 0-23.808z" fill="#fa6348"/><path d="m387.624 460.171 3.667-27.856 15.953 2.1c4.7-2.787 7.77-8.695 7.009-15.268l-3.225-27.856 24.493-3.667c8.601-1.288 13.787-11.503 10.467-20.618l-9.454-25.958 22.824-10.752c8.015-3.775 10.699-15.169 5.418-22.997l-15.039-22.291 19.6-17.104c6.882-6.006 6.882-17.802 0-23.808l-19.6-17.104 15.039-22.291c5.281-7.827 2.596-19.221-5.418-22.997l-22.824-10.752 9.454-25.958c3.32-9.115-1.866-19.331-10.467-20.618l-24.493-3.667 3.225-27.857c.761-6.573-2.309-12.48-7.01-15.268l-15.954 2.101-.316-2.398-3.352-25.458c-1.288-9.782-11.503-15.679-20.618-11.904l-25.958 10.752-10.752-25.958c-3.776-9.115-15.17-12.168-22.997-6.162l-22.291 17.104-17.101-22.291c-6.006-7.827-17.802-7.827-23.808 0l-17.104 22.291-22.291-17.104c-7.827-6.006-19.221-2.953-22.997 6.162l-10.752 25.958-25.958-10.752c-9.115-3.775-19.331 2.123-20.618 11.904l-3.667 27.856-27.856-3.667c-9.782-1.288-18.123 7.053-16.835 16.835l3.667 27.856-27.856 3.667c-9.782 1.288-15.68 11.503-11.904 20.618l10.752 25.958-25.958 10.752c-9.115 3.776-12.168 15.169-6.162 22.997l17.104 22.291-22.291 17.104c-7.827 6.006-7.827 17.802 0 23.808l22.291 17.104-17.104 22.291c-6.006 7.827-2.953 19.221 6.162 22.997l25.958 10.752-10.752 25.958c-3.776 9.115 2.122 19.331 11.904 20.618l27.856 3.667-3.667 27.856c-1.288 9.782 7.053 18.123 16.835 16.835l27.856-3.667 3.667 27.856c1.288 9.781 11.503 15.679 20.618 11.904l25.958-10.752 10.752 25.958c3.775 9.115 15.169 12.168 22.997 6.162l22.291-17.104 17.104 22.291c6.006 7.827 17.802 7.827 23.808 0l17.104-22.291 22.291 17.104c7.827 6.006 19.221 2.953 22.997-6.162l10.752-25.958 25.958 10.752c9.115 3.776 19.33-2.122 20.618-11.904z" fill="#fc7c49"/><g fill="#fffbdb"><path d="m330.246 270.246c-33.137 0-60 26.863-60 60s26.863 60 60 60 60-26.863 60-60-26.863-60-60-60zm0 90c-16.568 0-30-13.431-30-30 0-16.568 13.432-30 30-30 16.569 0 30 13.432 30 30 0 16.569-13.431 30-30 30z"/><path d="m181.754 121.754c-33.137 0-60 26.863-60 60s26.863 60 60 60 60-26.863 60-60-26.863-60-60-60zm0 90c-16.568 0-30-13.431-30-30 0-16.568 13.432-30 30-30 16.569 0 30 13.432 30 30 0 16.569-13.432 30-30 30z"/><path d="m146.752 365.248c-5.858-5.858-5.858-15.355 0-21.213l197.283-197.283c5.858-5.858 15.355-5.858 21.213 0s5.858 15.355 0 21.213l-197.283 197.283c-5.858 5.858-15.355 5.858-21.213 0z"/></g><path d="m512 256c0-7.053-3.209-13.561-8.805-17.854l-16.341-12.539 12.539-16.341c4.294-5.595 5.709-12.712 3.884-19.525-1.826-6.813-6.61-12.268-13.126-14.966l-19.029-7.882 7.882-19.029c2.699-6.516 2.225-13.757-1.302-19.865s-9.56-10.139-16.553-11.06l-20.419-2.688 2.688-20.421c.921-6.992-1.411-13.863-6.398-18.85s-11.859-7.319-18.851-6.399l-20.421 2.688-2.688-20.42c-.921-6.993-4.952-13.026-11.061-16.553-6.107-3.526-13.348-4-19.863-1.301l-19.029 7.882-7.882-19.029c-2.699-6.516-8.155-11.3-14.968-13.125-6.812-1.826-13.928-.41-19.523 3.884l-16.341 12.539-12.538-16.34c-4.294-5.597-10.802-8.806-17.855-8.806s-13.561 3.209-17.854 8.805l-12.538 16.34-16.34-12.538c-5.595-4.294-12.711-5.71-19.524-3.884-6.813 1.825-12.268 6.609-14.968 13.125l-7.882 19.029-19.029-7.882c-6.517-2.7-13.758-2.225-19.865 1.302-6.108 3.526-10.139 9.56-11.06 16.552l-2.688 20.421-20.42-2.689c-6.992-.92-13.864 1.412-18.851 6.399s-7.319 11.858-6.398 18.851l2.688 20.42-20.42 2.688c-6.993.92-13.025 4.952-16.552 11.06-3.526 6.108-4.001 13.348-1.302 19.865l7.882 19.029-19.029 7.882c-6.516 2.699-11.3 8.154-13.125 14.966-1.826 6.813-.41 13.93 3.883 19.525l12.539 16.341-16.34 12.538c-5.598 4.294-8.807 10.802-8.807 17.855s3.209 13.561 8.805 17.855l16.34 12.538-12.539 16.341c-4.293 5.595-5.709 12.712-3.883 19.525 1.825 6.813 6.609 12.268 13.125 14.966l19.029 7.882-7.882 19.029c-2.699 6.516-2.225 13.756 1.302 19.864s9.56 10.139 16.552 11.06l20.421 2.688-2.689 20.42c-.92 6.993 1.412 13.864 6.399 18.851s11.858 7.317 18.851 6.399l20.42-2.688 2.688 20.42c.921 6.993 4.952 13.026 11.061 16.553 6.108 3.526 13.349 4 19.864 1.302l19.029-7.882 7.882 19.028c2.699 6.516 8.154 11.3 14.966 13.125 6.812 1.826 13.929.41 19.525-3.883l16.341-12.539 12.538 16.34c4.294 5.597 10.802 8.806 17.855 8.806s13.561-3.209 17.854-8.805l12.539-16.34 16.34 12.539c5.595 4.293 12.71 5.709 19.525 3.883 6.813-1.825 12.268-6.609 14.966-13.125l7.882-19.029 19.029 7.882c6.517 2.699 13.757 2.225 19.863-1.301 6.108-3.526 10.14-9.56 11.061-16.553l2.688-20.42 20.421 2.688c6.991.917 13.863-1.412 18.852-6.399 4.986-4.987 7.318-11.858 6.397-18.851l-2.688-20.42 20.421-2.688c6.992-.921 13.024-4.952 16.551-11.06s4.001-13.348 1.302-19.865l-7.882-19.028 19.029-7.882c6.516-2.699 11.3-8.154 13.126-14.966 1.825-6.813.41-13.93-3.884-19.525l-12.539-16.341 16.341-12.538c5.597-4.295 8.806-10.803 8.806-17.856zm-17.936 5.954-22.291 17.104c-1.578 1.211-2.61 2.999-2.87 4.971s.274 3.967 1.485 5.545l17.104 22.291c1.432 1.866 1.904 4.239 1.295 6.511-.608 2.272-2.204 4.091-4.377 4.991l-25.958 10.752c-3.827 1.585-5.645 5.973-4.059 9.799l10.752 25.958c.899 2.173.741 4.588-.435 6.625s-3.188 3.381-5.519 3.688l-27.857 3.667c-4.106.541-6.997 4.308-6.456 8.415l3.667 27.856c.307 2.332-.471 4.623-2.134 6.286s-3.949 2.443-6.287 2.134l-27.856-3.667c-1.969-.258-3.966.275-5.544 1.486s-2.61 2.999-2.87 4.971l-3.667 27.856c-.308 2.332-1.651 4.344-3.688 5.52-2.036 1.175-4.452 1.334-6.624.434l-25.958-10.752c-3.827-1.585-8.214.233-9.799 4.059l-10.752 25.958c-.9 2.173-2.72 3.768-4.991 4.377-2.27.609-4.645.138-6.512-1.295l-22.29-17.104c-1.577-1.21-3.57-1.744-5.544-1.486-1.973.26-3.761 1.292-4.972 2.87l-17.104 22.291c-1.431 1.865-3.6 2.935-5.953 2.935s-4.522-1.07-5.954-2.936c0 0-17.104-22.291-17.104-22.291-1.211-1.578-2.999-2.61-4.971-2.87-.327-.043-.653-.064-.979-.064-1.642 0-3.249.54-4.566 1.55l-22.291 17.104c-1.866 1.432-4.24 1.905-6.511 1.295-2.272-.608-4.091-2.204-4.991-4.377l-10.752-25.958c-1.585-3.827-5.974-5.645-9.799-4.059l-25.958 10.752c-2.173.899-4.588.742-6.624-.434-2.037-1.176-3.381-3.188-3.688-5.52l-3.667-27.856c-.26-1.972-1.292-3.76-2.87-4.971-1.578-1.21-3.572-1.746-5.545-1.486l-27.856 3.667c-2.327.31-4.623-.47-6.286-2.134-1.663-1.663-2.441-3.954-2.134-6.286l3.667-27.856c.541-4.107-2.351-7.874-6.457-8.415l-27.856-3.667c-2.332-.307-4.344-1.651-5.52-3.688s-1.334-4.451-.434-6.624l10.752-25.958c1.585-3.827-.232-8.214-4.059-9.799l-25.958-10.752c-2.173-.9-3.769-2.719-4.377-4.991-.609-2.272-.137-4.645 1.295-6.511l17.104-22.291c1.211-1.578 1.745-3.573 1.486-5.545-.26-1.972-1.292-3.76-2.87-4.971l-22.291-17.104c-1.866-1.432-2.936-3.602-2.936-5.954s1.07-4.522 2.937-5.954l22.291-17.104c1.578-1.211 2.61-2.999 2.87-4.971.259-1.972-.275-3.967-1.486-5.545l-17.104-22.291c-1.432-1.866-1.904-4.239-1.295-6.511.608-2.272 2.204-4.091 4.377-4.991l25.958-10.752c1.838-.761 3.298-2.221 4.059-4.059s.761-3.902 0-5.74l-10.752-25.958c-.9-2.173-.742-4.587.434-6.625 1.176-2.037 3.188-3.381 5.52-3.688l27.856-3.667c4.106-.541 6.998-4.308 6.457-8.415l-3.667-27.856c-.307-2.332.47-4.623 2.133-6.286s3.956-2.439 6.286-2.134l27.856 3.667c4.115.537 7.875-2.351 8.415-6.457l3.667-27.856c.307-2.332 1.651-4.343 3.688-5.52 2.039-1.176 4.452-1.333 6.625-.434l25.958 10.752c3.827 1.584 8.214-.232 9.799-4.059l10.752-25.958c.9-2.173 2.719-3.769 4.991-4.377 2.274-.609 4.646-.136 6.511 1.295l22.29 17.104c3.286 2.521 7.995 1.901 10.516-1.384l17.104-22.291c1.432-1.865 3.602-2.935 5.954-2.935s4.523 1.07 5.955 2.936l17.104 22.291c1.211 1.578 2.999 2.611 4.972 2.871 1.968.258 3.966-.275 5.544-1.486l22.291-17.104c1.865-1.432 4.236-1.903 6.511-1.295 2.272.609 4.092 2.205 4.992 4.377l10.752 25.958c1.585 3.826 5.971 5.644 9.799 4.059l25.958-10.752c2.173-.9 4.589-.742 6.624.434 2.037 1.176 3.381 3.188 3.688 5.52l3.667 27.856c.539 4.106 4.306 6.996 8.414 6.457l27.857-3.667c2.326-.31 4.622.47 6.286 2.134 1.663 1.663 2.44 3.954 2.134 6.286l-3.667 27.857c-.541 4.107 2.35 7.875 6.457 8.415l27.855 3.667c2.332.307 4.344 1.651 5.52 3.688s1.334 4.452.435 6.625l-10.752 25.958c-1.585 3.827.231 8.214 4.059 9.799l25.958 10.752c2.173.9 3.769 2.719 4.377 4.991.609 2.272.137 4.645-1.295 6.511l-17.104 22.291c-1.211 1.578-1.745 3.573-1.485 5.545s1.292 3.76 2.87 4.971l22.291 17.104c1.863 1.429 2.933 3.599 2.933 5.951s-1.07 4.522-2.936 5.954z"/><path d="m261.304 271.91c-2.93-2.929-7.678-2.928-10.607 0l-88.035 88.035c-2.924 2.924-7.682 2.924-10.607 0-2.924-2.924-2.924-7.683 0-10.607l197.284-197.283c1.416-1.417 3.299-2.197 5.303-2.197 2.003 0 3.887.78 5.303 2.197 2.925 2.924 2.925 7.683 0 10.607l-88.035 88.035c-2.929 2.929-2.929 7.678 0 10.606 2.93 2.929 7.678 2.929 10.607 0l88.035-88.035c8.771-8.773 8.771-23.047-.001-31.82-4.25-4.25-9.899-6.59-15.909-6.59-6.011 0-11.66 2.341-15.91 6.59l-197.283 197.283c-8.773 8.772-8.773 23.047 0 31.82 4.386 4.387 10.148 6.58 15.91 6.58s11.523-2.193 15.91-6.58l88.035-88.035c2.928-2.928 2.928-7.677 0-10.606z"/><path d="m330.246 262.746c-37.22 0-67.5 30.28-67.5 67.5s30.28 67.5 67.5 67.5 67.5-30.28 67.5-67.5-30.28-67.5-67.5-67.5zm0 120c-28.948 0-52.5-23.551-52.5-52.5s23.552-52.5 52.5-52.5 52.5 23.551 52.5 52.5-23.552 52.5-52.5 52.5z"/><path d="m330.246 292.746c-20.678 0-37.5 16.822-37.5 37.5s16.822 37.5 37.5 37.5 37.5-16.822 37.5-37.5-16.822-37.5-37.5-37.5zm0 60c-12.406 0-22.5-10.093-22.5-22.5s10.094-22.5 22.5-22.5 22.5 10.093 22.5 22.5-10.094 22.5-22.5 22.5z"/><path d="m249.254 181.754c0-37.22-30.28-67.5-67.5-67.5s-67.5 30.28-67.5 67.5 30.28 67.5 67.5 67.5 67.5-30.28 67.5-67.5zm-120 0c0-28.949 23.551-52.5 52.5-52.5s52.5 23.551 52.5 52.5-23.551 52.5-52.5 52.5-52.5-23.551-52.5-52.5z"/><path d="m219.254 181.754c0-20.678-16.822-37.5-37.5-37.5s-37.5 16.822-37.5 37.5 16.822 37.5 37.5 37.5 37.5-16.822 37.5-37.5zm-60 0c0-12.407 10.093-22.5 22.5-22.5s22.5 10.093 22.5 22.5-10.093 22.5-22.5 22.5-22.5-10.093-22.5-22.5z"/></g></svg>