<svg id="Layer_1" enable-background="new 0 0 511.998 511.998" height="512" viewBox="0 0 511.998 511.998" width="512" xmlns="http://www.w3.org/2000/svg"><g><path d="m0 93.34h511.998v325.318h-511.998z" fill="#ff5b5b"/><path d="m144.952 93.34h367.046v325.318h-367.046z" fill="#e50058"/><path d="m511.988 262.021h-352.036v-168.681h-30v168.681h-129.942v30h129.942v126.637h30v-126.637h352.036z" fill="#fff79f"/><path d="m159.952 262.021v-168.681h-15v325.318h15v-126.637h352.036v-30z" fill="#ffde55"/><g><path d="m327.729 140.343h130.375v30h-130.375z" fill="#fff5f5"/></g><g><path d="m327.729 195.346h130.375v30h-130.375z" fill="#fff5f5"/></g><path d="m216.218 205.755c-8.883-8.884-20.694-13.775-33.257-13.775s-24.375 4.892-33.258 13.775c-1.678 1.678-3.26 3.768-4.751 6.249-1.491-2.48-3.073-4.571-4.751-6.249-8.883-8.884-20.694-13.775-33.257-13.775s-24.374 4.892-33.257 13.775c-8.884 8.883-13.776 20.694-13.776 33.257s4.893 24.375 13.776 33.258c4.571 4.572 13.573 11.072 38.985 15.817l-33.396 33.396 21.213 21.213 44.463-44.463 44.464 44.463 21.213-21.213-33.397-33.396c25.414-4.745 34.415-11.245 38.987-15.817 18.336-18.338 18.336-48.177-.001-66.515zm-126.307 33.257c0-4.549 1.772-8.826 4.989-12.044 3.218-3.217 7.494-4.988 12.044-4.988s8.826 1.771 11.983 4.925c2.332 2.672 6.128 14.285 8.952 33.307-15.848-2.259-29.683-5.924-32.979-9.154-3.216-3.219-4.989-7.496-4.989-12.046zm105.095 12.044c-3.297 3.23-17.134 6.896-32.981 9.155 2.821-19.019 6.606-30.62 8.892-33.243 3.218-3.217 7.495-4.988 12.045-4.988 4.549 0 8.826 1.771 12.043 4.988 6.641 6.641 6.641 17.447.001 24.088z" fill="#ffde55"/><g><path d="m327.729 140.343h130.375v30h-130.375z" fill="#e1ebf0"/></g><g><path d="m327.729 195.346h130.375v30h-130.375z" fill="#e1ebf0"/></g><path d="m216.218 205.755c-8.883-8.884-20.694-13.775-33.257-13.775s-24.375 4.892-33.258 13.775c-1.678 1.678-3.26 3.768-4.751 6.249v86.23l44.464 44.463 21.213-21.213-33.397-33.396c25.414-4.745 34.415-11.245 38.987-15.817 18.336-18.339 18.336-48.178-.001-66.516zm-21.212 45.301c-3.297 3.23-17.134 6.896-32.981 9.155 2.821-19.019 6.606-30.62 8.892-33.243 3.218-3.217 7.495-4.988 12.045-4.988 4.549 0 8.826 1.771 12.043 4.988 6.641 6.641 6.641 17.447.001 24.088z" fill="#ffb655"/></g></svg>