<svg id="Capa_1" enable-background="new 0 0 512 512" height="512" viewBox="0 0 512 512" width="512" xmlns="http://www.w3.org/2000/svg"><g><g><path d="m424.339 227.944c-44.272 0-80.161 35.889-80.161 80.161s35.89 80.161 80.161 80.161 80.161-35.89 80.161-80.161c0-44.272-35.89-80.161-80.161-80.161zm0 128.258c-26.563 0-48.097-21.534-48.097-48.097s21.534-48.097 48.097-48.097 48.097 21.534 48.097 48.097c-.001 26.563-21.534 48.097-48.097 48.097z" fill="#5d5360"/><circle cx="424.339" cy="308.105" fill="#857e87" r="15.546"/><path d="m174.094 298.934 43.904-58.814 47.02 47.945-40.637 22.609z" fill="#9b959d"/><path d="m231.952 179.847h-60.587c-7.305 0-14.215-3.321-18.778-9.025l-15.218-19.022c-6.085-7.606-15.298-12.034-25.038-12.034h-48.718l229.462 175.353v-49.099z" fill="#db4655"/><path d="m87.661 227.944c-44.272 0-80.161 35.889-80.161 80.161s35.89 80.161 80.161 80.161 80.161-35.89 80.161-80.161c.001-44.272-35.889-80.161-80.161-80.161zm0 128.258c-26.563 0-48.097-21.534-48.097-48.097s21.534-48.097 48.097-48.097 48.097 21.534 48.097 48.097-21.533 48.097-48.097 48.097z" fill="#5d5360"/><circle cx="87.661" cy="308.105" fill="#857e87" r="14.574"/><path d="m152.081 269.802c-3.871-2.15-8.751-.755-10.901 3.115l-7.786 14.017c-2.15 3.87-.755 8.75 3.115 10.9l78.157 44.339 9.714-31.499z" fill="#dad8db"/><path d="m453.127 194.166-40.095-63.007c-2.943-4.625-8.045-7.425-13.526-7.425h-15.247l15.925 42.468c3.93 10.481-3.818 21.661-15.011 21.661h-49.011v-8.016c0-17.709-14.356-32.065-32.065-32.065h-33.617c-14.562 0-28.69 4.956-40.061 14.053l-10.412 8.329c-6.75 5.4-8.004 15.178-2.835 22.106l57.219 76.697-19.726 5.069-51.065 34.225c-6.704 4.493-9.023 13.269-5.414 20.488l3.072 6.144c4.074 8.147 12.401 13.293 21.509 13.293h100.78c11.869 0 21.964-8.66 23.768-20.391l6.784-44.096c3.738-24.293 21.031-44.313 44.524-51.542l45.694-14.06c10.115-3.113 14.492-15.002 8.81-23.931z" fill="#e5646e"/><circle cx="256" cy="284.056" fill="#b6b1b7" r="24.048"/><path d="m255.655 193.835-24.63 17.004 19.574 26.238 21.602-15.657c1.339-.97 2.95-1.493 4.603-1.493h75.39v-32.065h-77.902c-6.683.001-13.199 2.089-18.637 5.973z" fill="#dad8db"/><path d="m347.877 324.137h-1.667-113.533c-6.112 0-11.607-3.396-14.34-8.863l-5.868-11.737-.457-.914-8.412 5.638c-6.704 4.493-9.023 13.269-5.414 20.487l3.073 6.144c4.074 8.147 12.4 13.293 21.509 13.293h100.78c11.87 0 21.964-8.66 23.769-20.392z" fill="#db4655"/></g><g><path d="m449.48 224.128c5.648-2.594 10.015-7.278 12.204-13.224 2.559-6.949 1.746-14.518-2.229-20.765l-40.096-63.008c-4.343-6.824-11.764-10.898-19.853-10.898h-15.247c-2.46 0-4.763 1.207-6.165 3.228-1.401 2.021-1.722 4.602-.858 6.905l8.224 21.931h-17.234c-4.142 0-7.5 3.358-7.5 7.5s3.358 7.5 7.5 7.5h22.859l2.076 5.537c.997 2.658.641 5.521-.976 7.855-1.618 2.334-4.174 3.672-7.013 3.672h-41.511v-.516c0-21.816-17.749-39.564-39.564-39.564h-33.618c-16.203 0-32.094 5.574-44.746 15.696l-20.46 16.368h-33.908c-5.055 0-9.765-2.264-12.922-6.21l-15.217-19.021c-7.549-9.437-18.81-14.849-30.895-14.849h-48.718c-3.215 0-6.072 2.049-7.104 5.094s-.007 6.408 2.546 8.362l141.019 107.903-20.313 23.021-24.038-13.401c-3.623-2.013-7.813-2.494-11.798-1.355s-7.289 3.761-9.301 7.385l-7.785 14.017c-2.013 3.623-2.494 7.813-1.355 11.798.398 1.394.988 2.697 1.727 3.897.682 2.975 1.048 6.033 1.048 9.117 0 22.386-18.212 40.597-40.597 40.597s-40.597-18.211-40.597-40.597c0-22.385 18.211-40.597 40.597-40.597 6.426 0 12.569 1.456 18.258 4.326 3.697 1.865 8.208.381 10.074-3.318 1.866-3.698.381-8.208-3.317-10.075-7.804-3.937-16.22-5.934-25.015-5.934-30.656 0-55.597 24.941-55.597 55.597s24.94 55.597 55.597 55.597c29.958 0 54.444-23.821 55.544-53.515l16.256 9.115c-5.418 35.297-35.64 61.465-71.801 61.465-40.065.002-72.661-32.594-72.661-72.66 0-40.065 32.596-72.661 72.661-72.661 14.116 0 27.8 4.049 39.572 11.71 3.471 2.258 8.118 1.276 10.377-2.196s1.276-8.118-2.196-10.377c-14.212-9.249-30.726-14.137-47.753-14.137-48.336 0-87.661 39.326-87.661 87.661 0 48.337 39.325 87.662 87.661 87.662 21.852 0 42.785-8.088 58.943-22.774 13.528-12.296 22.764-28.351 26.644-45.961l21.87 12.262c5.544 10.135 16.021 16.393 27.649 16.393h100.78c8.578 0 16.382-3.371 22.088-8.957 14.5 29.532 44.845 49.038 78.705 49.038 48.336 0 87.661-39.325 87.661-87.662-.001-39.602-26.399-73.144-62.521-83.977zm-25.141 75.444c4.705 0 8.532 3.828 8.532 8.532 0 4.705-3.828 8.533-8.532 8.533s-8.532-3.828-8.532-8.533c0-4.704 3.827-8.532 8.532-8.532zm-189.236-131.881c10.003-8.002 22.566-12.409 35.376-12.409h33.618c13.545 0 24.564 11.02 24.564 24.564v.516h-54.37c-8.295 0-16.247 2.548-22.996 7.37l-18.304 13.075-14.723-19.648zm-122.772-20.425c7.503 0 14.495 3.36 19.182 9.219l15.217 19.021c6.02 7.524 14.999 11.84 24.635 11.84h32.792l49.031 65.293c-7.214.641-13.734 3.718-18.735 8.403l-148.697-113.776zm143.669 120.242c9.125 0 16.548 7.424 16.548 16.549s-7.423 16.548-16.548 16.548-16.548-7.423-16.548-16.548 7.423-16.549 16.548-16.549zm-43.983-4.744 14.211 10.874c-1.146 3.264-1.776 6.769-1.776 10.419 0 .034.002.067.003.102l-13.842 9.689-17.443-9.725zm-72.065 27.812 7.786-14.018c.025-.046.104-.187.309-.246.206-.058.346.02.383.04l48.527 27.054-3.72 2.604c-3.844 2.692-6.126 6.924-6.526 11.37l-46.557-26.103c-.046-.026-.187-.104-.246-.309s.018-.345.044-.392zm183.594 50.11h-100.78c-6.309 0-11.98-3.505-14.802-9.147l-6.292-12.585c-.114-.228-.042-.509.165-.654l26.722-18.705c5.429 9.55 15.691 16.011 27.44 16.011 17.396 0 31.548-14.152 31.548-31.548 0-7.493-2.63-14.38-7.01-19.798l-19.318-25.779 15.337-10.955c.089-.063.193-.097.301-.097h75.334c4.142 0 7.5-3.358 7.5-7.5 0-4.143-3.358-7.5-7.5-7.5h-75.334c-3.252 0-6.37.999-9.019 2.89l-15.618 11.155-10.235-13.658 18.026-12.875c4.19-2.993 9.127-4.576 14.277-4.576h110.88c7.716 0 14.947-3.787 19.342-10.128s5.401-14.441 2.692-21.667l-12.125-32.334h4.425c2.933 0 5.624 1.477 7.198 3.952l40.096 63.007c1.442 2.265 1.736 5.009.809 7.529s-2.931 4.417-5.498 5.207l-45.693 14.06c-26.064 8.02-45.585 30.617-49.731 57.57l-6.784 44.095c-1.248 8.128-8.127 14.03-16.353 14.03zm100.793 40.08c-32.148 0-60.472-21.207-69.615-51.816.001-.005.002-.011.003-.016l6.784-44.096c2.822-18.343 14.655-34.127 31.037-42.211l5.914 16.263c-18.196 9.557-29.721 28.394-29.721 49.214 0 30.656 24.941 55.597 55.597 55.597s55.597-24.941 55.597-55.597c0-20.74-11.417-39.614-29.796-49.258-3.668-1.925-8.202-.512-10.126 3.156-1.925 3.668-.512 8.201 3.156 10.126 13.426 7.044 21.766 20.83 21.766 35.976 0 22.386-18.211 40.597-40.597 40.597s-40.597-18.211-40.597-40.597c0-14.508 7.664-27.697 19.911-34.939l6.02 16.556c-5.399 4.316-8.867 10.95-8.867 18.383 0 12.976 10.557 23.533 23.532 23.533s23.532-10.557 23.532-23.533-10.557-23.532-23.532-23.532c-.192 0-.381.01-.572.015l-17.081-46.975c5.745-1.434 11.661-2.169 17.653-2.169 40.065 0 72.661 32.596 72.661 72.661.002 40.066-32.594 72.662-72.659 72.662z"/><path d="m87.661 284.572c-12.976 0-23.532 10.557-23.532 23.532 0 12.976 10.557 23.533 23.532 23.533s23.532-10.557 23.532-23.533c0-12.975-10.556-23.532-23.532-23.532zm0 32.065c-4.705 0-8.532-3.828-8.532-8.533 0-4.704 3.828-8.532 8.532-8.532s8.532 3.828 8.532 8.532c0 4.706-3.827 8.533-8.532 8.533z"/></g></g></svg>