<?xml version="1.0" encoding="iso-8859-1"?>
<!-- Generator: Adobe Illustrator 19.0.0, SVG Export Plug-In . SVG Version: 6.00 Build 0)  -->
<svg version="1.1" id="Capa_1" xmlns="http://www.w3.org/2000/svg" xmlns:xlink="http://www.w3.org/1999/xlink" x="0px" y="0px"
	 viewBox="0 0 512 512" style="enable-background:new 0 0 512 512;" xml:space="preserve">
<g>
	<path style="fill:#D7E9FF;" d="M131.988,291.993c0,5.514-1.121,10.793-3.12,15.598c-6.077,14.316-20.315,24.393-36.87,24.393
		c-15.196,0-28.392-8.482-35.191-20.957c-3.039-5.678-4.8-12.152-4.8-19.033c0-22.074,17.917-39.991,39.991-39.991
		C114.071,252.002,131.988,269.919,131.988,291.993z"/>
	<path style="fill:#D7E9FF;" d="M403.924,252.002c22.073,0,39.991,17.917,39.991,39.991c0,5.514-1.117,10.793-3.116,15.598
		c-6.077,14.316-20.324,24.393-36.875,24.393c-17.917,0-33.109-11.842-38.232-28.072c-1.117-3.764-1.758-7.764-1.758-11.918
		C363.934,269.919,381.852,252.002,403.924,252.002z"/>
	<path style="fill:#D7E9FF;" d="M499.901,260.001v7.998l-23.994-7.998v-13.517v-0.078
		C494.145,254.244,499.901,260.001,499.901,260.001z"/>
</g>
<path style="fill:#94C1FF;" d="M371.932,220.01c52.87,8.158,85.098,18.315,103.976,26.396v0.078v13.517l23.994,7.998v15.996
	l8.076,7.998l-8.076,7.998v7.998h-47.988l-11.114-0.398c1.999-4.805,3.116-10.084,3.116-15.598
	c0-22.074-17.918-39.991-39.991-39.991c-22.072,0-39.99,17.917-39.99,39.991c0,4.154,0.641,8.154,1.758,11.918l-9.756,4.078H139.986
	l-11.118-0.398c2-4.805,3.12-10.084,3.12-15.598c0-22.074-17.917-39.991-39.99-39.991s-39.991,17.917-39.991,39.991
	c0,6.881,1.761,13.355,4.8,19.033l-12.798-3.037c0,0-27.994,0-31.993-23.994c-3.28-19.676-7.998-39.991-7.998-39.991h39.991
	l-23.995-15.996v-7.998l71.983-7.999c0,0,10.478-5.999,30.071-12.797v0.082l9.919,4.717c0,0,15.996,15.997,223.947,15.997
	L371.932,220.01L371.932,220.01z"/>
<path style="fill:#D7E9FF;" d="M52.007,307.989c0,0-27.993,0-31.993-23.994c-3.28-19.676-7.998-39.991-7.998-39.991l15.997-15.996
	v-7.998l71.983-7.999c0,0,8.889-5.045,25.432-11.119l-3.358-1.597v-0.082c-19.593,6.799-30.071,12.797-30.071,12.797l-71.983,7.999
	v7.998L4.019,244.004c0,0,4.718,20.315,7.998,39.991c3.999,23.994,31.993,23.994,31.993,23.994l12.798,3.037
	c-0.367-0.686-0.656-1.42-0.984-2.131L52.007,307.989z"/>
<path style="fill:#5C9EFF;" d="M499.901,283.995v-15.996v-7.998c0,0-5.757-5.757-23.994-13.595
	c-18.878-8.08-103.976-26.396-103.976-26.396l0,0c0,0,75.725,19.999,94.603,28.079c18.238,7.838,25.369,14.246,25.369,14.246v5.664
	l-0.023,17.621l5.499,6.373l-5.499,6.373l0.023,9.623h7.998v-7.998l8.076-7.998L499.901,283.995z"/>
<path style="fill:#94C1FF;" d="M475.907,252.479c11.271,5.694,15.996,9.856,15.996,9.856v2.992l7.998,2.672v-7.998
	c0,0-5.757-5.757-23.994-13.595v0.078V252.479z"/>
<path style="fill:#D7E9FF;" d="M243.962,180.019c53.987,0,108.857,28.712,127.97,39.991h-15.996
	c-207.951,0-223.947-15.997-223.947-15.997l-9.919-4.717v-0.082C147.825,190.337,189.494,180.019,243.962,180.019z"/>
<g>
	<path style="fill:#FFFFFF;" d="M268.659,218.862l9.475-35.343c-5.265-1.007-10.56-1.835-15.918-2.425l-9.975,37.222
		C257.49,218.51,262.941,218.694,268.659,218.862z"/>
	<path style="fill:#FFFFFF;" d="M276.884,219.084l9.092-33.938c-1.305-0.297-2.608-0.578-3.913-0.855l-9.295,34.691
		C274.096,219.018,275.525,219.049,276.884,219.084z"/>
</g>
<polygon style="fill:#D7E9FF;" points="20.015,228.008 44.009,244.004 4.019,244.004 "/>
<g>
	<polygon style="fill:#FFFFFF;" points="24.814,231.207 20.015,228.008 4.019,244.004 12.017,244.004 	"/>
	<path style="fill:#FFFFFF;" d="M60.006,291.993c0-20.707,15.82-37.55,35.991-39.588c-1.336-0.133-2.628-0.402-3.999-0.402
		c-22.073,0-39.991,17.917-39.991,39.991c0,22.15,17.917,39.99,39.991,39.99c1.371,0,2.663-0.266,3.999-0.406
		C75.826,329.554,60.006,312.769,60.006,291.993z"/>
</g>
<path style="fill:#94C1FF;" d="M123.99,291.993c0,20.705-15.82,37.553-35.991,39.584c1.335,0.141,2.628,0.406,3.999,0.406
	c22.073,0,39.99-17.918,39.99-39.99c0-22.152-17.917-39.991-39.99-39.991c-1.371,0-2.664,0.27-3.999,0.402
	C108.17,254.431,123.99,271.216,123.99,291.993z"/>
<path style="fill:#FFFFFF;" d="M371.932,291.993c0-20.707,15.816-37.55,35.992-39.588c-1.336-0.133-2.633-0.402-4-0.402
	c-22.072,0-39.99,17.917-39.99,39.991c0,22.15,17.918,39.99,39.99,39.99c1.367,0,2.664-0.266,4-0.406
	C387.748,329.554,371.932,312.769,371.932,291.993z"/>
<path style="fill:#94C1FF;" d="M435.916,291.993c0,20.705-15.816,37.553-35.991,39.584c1.336,0.141,2.633,0.406,3.999,0.406
	c22.073,0,39.991-17.918,39.991-39.99c0-22.152-17.918-39.991-39.991-39.991c-1.366,0-2.663,0.27-3.999,0.402
	C420.1,254.431,435.916,271.216,435.916,291.993z"/>
<g>
	<path style="fill:#116FFF;" d="M43.99,311.987c-10.853,0-32.333-5.717-35.937-27.336c-3.222-19.324-7.9-39.542-7.947-39.741
		c-0.312-1.348,0.09-2.758,1.066-3.734l14.824-14.825v-6.342c0-2.039,1.531-3.75,3.558-3.976l71.182-7.908
		c7.237-3.948,62.052-32.106,153.206-32.106c68.651,0,122.116,35.098,129.497,40.178c103.304,16.012,128.251,39.959,129.266,40.975
		c0.75,0.75,1.172,1.766,1.172,2.828v22.322l6.928,6.826c0.758,0.75,1.195,1.773,1.195,2.844s-0.438,2.094-1.195,2.842l-8.115,7.998
		c-1.577,1.562-4.107,1.547-5.654-0.031c-1.547-1.576-1.531-4.107,0.039-5.654l5.225-5.154l-5.225-5.156
		c-0.758-0.748-1.195-1.771-1.195-2.842v-22.133c-5.904-4.561-35.726-24.231-124.58-37.9c-0.609-0.094-1.203-0.336-1.71-0.695
		c-0.555-0.395-55.854-39.249-125.646-39.249c-93.649,0-149.43,31.153-149.984,31.465c-0.473,0.27-0.996,0.441-1.539,0.504
		l-68.425,7.604v4.417c0,1.062-0.422,2.077-1.171,2.827L8.389,245.27c1.301,5.788,4.909,22.214,7.553,38.069
		c3.402,20.416,27.045,20.65,28.048,20.65c2.21,0,3.999,1.789,3.999,4S46.2,311.987,43.99,311.987z"/>
	<path style="fill:#116FFF;" d="M43.986,248.003c-0.761,0-1.531-0.219-2.214-0.672l-23.994-15.996
		c-1.84-1.227-2.335-3.706-1.109-5.546c1.223-1.839,3.694-2.339,5.546-1.109l23.994,15.997c1.839,1.226,2.335,3.706,1.109,5.545
		C46.548,247.378,45.278,248.003,43.986,248.003z"/>
	<path style="fill:#116FFF;" d="M43.99,248.003H3.999c-2.21,0-3.999-1.789-3.999-3.999c0-2.21,1.789-3.999,3.999-3.999H43.99
		c2.21,0,3.999,1.789,3.999,3.999C47.989,246.214,46.2,248.003,43.99,248.003z"/>
	<path style="fill:#116FFF;" d="M203.956,211.754c-1.504,0-2.941-0.848-3.62-2.297l-7.999-16.98
		c-0.941-1.995-0.085-4.377,1.914-5.319c1.988-0.957,4.378-0.085,5.319,1.914l7.998,16.98c0.941,1.996,0.086,4.378-1.914,5.319
		C205.104,211.633,204.526,211.754,203.956,211.754z"/>
	<path style="fill:#116FFF;" d="M227.946,248.003H211.95c-2.21,0-3.999-1.789-3.999-3.999c0-2.21,1.789-3.999,3.999-3.999h15.996
		c2.21,0,3.999,1.789,3.999,3.999C231.945,246.214,230.157,248.003,227.946,248.003z"/>
	<path style="fill:#116FFF;" d="M92.217,295.991c-2.207,0-4.038-1.787-4.038-3.998s1.75-4,3.96-4h0.078c2.21,0,3.999,1.789,3.999,4
		S94.427,295.991,92.217,295.991z"/>
	<path style="fill:#116FFF;" d="M91.979,335.981c-24.256,0-43.99-19.729-43.99-43.988c0-24.259,19.734-43.99,43.99-43.99
		s43.989,19.73,43.989,43.99S116.234,335.981,91.979,335.981z M91.979,256.001c-19.847,0-35.991,16.144-35.991,35.992
		c0,19.846,16.145,35.99,35.991,35.99s35.991-16.145,35.991-35.99C127.97,272.146,111.825,256.001,91.979,256.001z"/>
	<path style="fill:#116FFF;" d="M91.979,279.995c-2.21,0-3.999-1.789-3.999-3.998v-7.998c0-2.211,1.789-4,3.999-4
		s3.999,1.789,3.999,4v7.998C95.978,278.206,94.189,279.995,91.979,279.995z"/>
	<path style="fill:#116FFF;" d="M91.979,319.985c-2.21,0-3.999-1.787-3.999-3.998v-7.998c0-2.211,1.789-4,3.999-4
		s3.999,1.789,3.999,4v7.998C95.978,318.198,94.189,319.985,91.979,319.985z"/>
	<path style="fill:#116FFF;" d="M75.982,295.991h-7.998c-2.211,0-3.999-1.787-3.999-3.998s1.788-4,3.999-4h7.998
		c2.21,0,3.999,1.789,3.999,4S78.192,295.991,75.982,295.991z"/>
	<path style="fill:#116FFF;" d="M115.973,295.991h-7.998c-2.21,0-3.999-1.787-3.999-3.998s1.789-4,3.999-4h7.998
		c2.21,0,3.999,1.789,3.999,4S118.183,295.991,115.973,295.991z"/>
	<path style="fill:#116FFF;" d="M80.669,284.683c-1.023,0-2.047-0.391-2.828-1.172l-5.654-5.654c-1.562-1.562-1.562-4.094,0-5.656
		s4.093-1.562,5.654,0l5.655,5.656c1.562,1.561,1.562,4.092,0,5.654C82.715,284.292,81.692,284.683,80.669,284.683z"/>
	<path style="fill:#116FFF;" d="M108.943,312.956c-1.023,0-2.047-0.391-2.828-1.172l-5.655-5.654c-1.562-1.562-1.562-4.092,0-5.654
		c1.562-1.562,4.093-1.562,5.655,0l5.655,5.654c1.562,1.562,1.562,4.094,0,5.654C110.989,312.565,109.966,312.956,108.943,312.956z"
		/>
	<path style="fill:#116FFF;" d="M75.014,312.956c-1.023,0-2.046-0.391-2.827-1.172c-1.562-1.561-1.562-4.092,0-5.654l5.654-5.654
		c1.562-1.562,4.093-1.562,5.655,0s1.562,4.092,0,5.654l-5.655,5.654C77.06,312.565,76.037,312.956,75.014,312.956z"/>
	<path style="fill:#116FFF;" d="M103.288,284.683c-1.023,0-2.046-0.391-2.827-1.172c-1.562-1.562-1.562-4.094,0-5.654l5.655-5.656
		c1.562-1.562,4.093-1.562,5.655,0s1.562,4.094,0,5.656l-5.655,5.654C105.335,284.292,104.312,284.683,103.288,284.683z"/>
	<path style="fill:#116FFF;" d="M404.143,295.991c-2.21,0-4.038-1.787-4.038-3.998s1.75-4,3.96-4h0.078c2.211,0,3.999,1.789,3.999,4
		S406.354,295.991,404.143,295.991z"/>
	<path style="fill:#116FFF;" d="M403.9,335.981c-24.252,0-43.989-19.729-43.989-43.988c0-24.259,19.737-43.99,43.989-43.99
		c24.26,0,43.99,19.73,43.99,43.99S428.16,335.981,403.9,335.981z M403.9,256.001c-19.839,0-35.991,16.144-35.991,35.992
		c0,19.846,16.152,35.99,35.991,35.99c19.855,0,35.992-16.145,35.992-35.99C439.893,272.146,423.756,256.001,403.9,256.001z"/>
	<path style="fill:#116FFF;" d="M403.9,279.995c-2.202,0-3.999-1.789-3.999-3.998v-7.998c0-2.211,1.797-4,3.999-4
		c2.219,0,4,1.789,4,4v7.998C407.9,278.206,406.119,279.995,403.9,279.995z"/>
	<path style="fill:#116FFF;" d="M403.9,319.985c-2.202,0-3.999-1.787-3.999-3.998v-7.998c0-2.211,1.797-4,3.999-4
		c2.219,0,4,1.789,4,4v7.998C407.9,318.198,406.119,319.985,403.9,319.985z"/>
	<path style="fill:#116FFF;" d="M387.904,295.991h-7.998c-2.202,0-3.999-1.787-3.999-3.998s1.797-4,3.999-4h7.998
		c2.219,0,3.999,1.789,3.999,4S390.123,295.991,387.904,295.991z"/>
	<path style="fill:#116FFF;" d="M427.895,295.991h-7.998c-2.202,0-3.998-1.787-3.998-3.998s1.796-4,3.998-4h7.998
		c2.219,0,4,1.789,4,4S430.113,295.991,427.895,295.991z"/>
	<path style="fill:#116FFF;" d="M392.591,284.683c-1.016,0-2.046-0.391-2.827-1.172l-5.655-5.654c-1.562-1.562-1.562-4.094,0-5.656
		s4.093-1.562,5.655,0l5.654,5.656c1.562,1.561,1.562,4.092,0,5.654C394.637,284.292,393.622,284.683,392.591,284.683z"/>
	<path style="fill:#116FFF;" d="M420.865,312.956c-1.016,0-2.046-0.391-2.827-1.172l-5.655-5.654c-1.562-1.562-1.562-4.092,0-5.654
		c1.562-1.562,4.093-1.562,5.655,0l5.655,5.654c1.562,1.562,1.562,4.094,0,5.654C422.912,312.565,421.896,312.956,420.865,312.956z"
		/>
	<path style="fill:#116FFF;" d="M386.936,312.956c-1.015,0-2.046-0.391-2.827-1.172c-1.562-1.561-1.562-4.092,0-5.654l5.655-5.654
		c1.562-1.562,4.093-1.562,5.654,0c1.562,1.562,1.562,4.092,0,5.654l-5.654,5.654C388.982,312.565,387.967,312.956,386.936,312.956z
		"/>
	<path style="fill:#116FFF;" d="M415.211,284.683c-1.016,0-2.047-0.391-2.828-1.172c-1.562-1.562-1.562-4.094,0-5.654l5.655-5.656
		c1.562-1.562,4.093-1.562,5.655,0s1.562,4.094,0,5.656l-5.655,5.654C417.257,284.292,416.242,284.683,415.211,284.683z"/>
	<path style="fill:#116FFF;" d="M355.912,224.009c-203.722,0-225.013-15.411-226.771-17.168c-1.562-1.562-1.562-4.093,0-5.655
		c1.476-1.476,3.823-1.562,5.389-0.242c1.449,0.953,26.306,15.067,221.381,15.067c2.219,0,3.999,1.788,3.999,3.999
		C359.911,222.22,358.131,224.009,355.912,224.009z"/>
	<path style="fill:#116FFF;" d="M355.912,311.987H139.967c-2.21,0-3.999-1.787-3.999-3.998s1.789-4,3.999-4h215.945
		c2.219,0,3.999,1.789,3.999,4S358.131,311.987,355.912,311.987z"/>
	<path style="fill:#116FFF;" d="M508.001,311.987H451.89c-2.203,0-3.999-1.787-3.999-3.998s1.796-4,3.999-4h56.111
		c2.203,0,3.999,1.789,3.999,4S510.204,311.987,508.001,311.987z"/>
	<path style="fill:#116FFF;" d="M499.878,271.997c-0.414,0-0.844-0.062-1.265-0.203l-23.995-8.002
		c-2.093-0.695-3.218-2.959-2.522-5.057c0.695-2.093,2.944-3.222,5.054-2.527l23.994,7.994c2.093,0.703,3.233,2.969,2.53,5.062
		C503.111,270.935,501.558,271.997,499.878,271.997z"/>
	<path style="fill:#116FFF;" d="M475.884,263.999c-2.202,0-3.999-1.789-3.999-3.998v-13.568c0-2.21,1.797-3.999,3.999-3.999
		c2.218,0,3.999,1.789,3.999,3.999v13.568C479.883,262.21,478.102,263.999,475.884,263.999z"/>
</g>
<g>
</g>
<g>
</g>
<g>
</g>
<g>
</g>
<g>
</g>
<g>
</g>
<g>
</g>
<g>
</g>
<g>
</g>
<g>
</g>
<g>
</g>
<g>
</g>
<g>
</g>
<g>
</g>
<g>
</g>
</svg>
