<?xml version="1.0" encoding="iso-8859-1"?>
<!-- Generator: Adobe Illustrator 19.0.0, SVG Export Plug-In . SVG Version: 6.00 Build 0)  -->
<svg version="1.1" id="Capa_1" xmlns="http://www.w3.org/2000/svg" xmlns:xlink="http://www.w3.org/1999/xlink" x="0px" y="0px"
	 viewBox="0 0 512 512" style="enable-background:new 0 0 512 512;" xml:space="preserve">
<path style="fill:#FF504A;" d="M438.162,273.162H386.19c-40.719,0-74.067,33.204-74.067,73.923v81.51
	c0,24.431,20.097,44.444,44.529,44.444H467.7c24.432,0,44.3-20.013,44.3-44.444v-81.51C512,306.365,478.881,273.162,438.162,273.162
	z"/>
<path style="fill:#FF7959;" d="M412.176,273.161H386.19c-40.719,0-74.067,33.204-74.067,73.923v81.51
	c0,24.431,20.097,44.444,44.529,44.444h55.524L412.176,273.161L412.176,273.161z"/>
<path style="fill:#FF504A;" d="M412.176,121.737c-36.623,0-66.417,29.795-66.417,66.417c0,36.623,29.794,66.418,66.417,66.418
	s66.417-29.795,66.417-66.418C478.593,151.533,448.799,121.737,412.176,121.737z"/>
<path style="fill:#FF7959;" d="M412.176,121.737c-36.623,0-66.417,29.795-66.417,66.417c0,36.623,29.794,66.418,66.417,66.418
	V121.737z"/>
<path style="fill:#2FD163;" d="M126.038,273.162H74.067C33.348,273.162,0,306.365,0,347.084v81.51
	c0,24.431,20.097,44.444,44.529,44.444h111.048c24.432,0,44.3-20.013,44.3-44.444v-81.51
	C199.877,306.365,166.758,273.162,126.038,273.162z"/>
<path style="fill:#7EFF76;" d="M100.053,273.161H74.067C33.348,273.161,0,306.365,0,347.084v81.51
	c0,24.431,20.097,44.444,44.529,44.444h55.524C100.053,473.039,100.053,273.161,100.053,273.161z"/>
<path style="fill:#3594C7;" d="M301.222,234.766h-90.444c-40.719,0-73.846,33.127-73.846,73.846v149.521
	c0,8.157,6.613,14.769,14.769,14.769h208.598c8.157,0,14.769-6.612,14.769-14.769V308.612
	C375.068,267.893,341.941,234.766,301.222,234.766z"/>
<path style="fill:#16DCFA;" d="M256.499,234.766h-45.721c-40.719,0-73.846,33.127-73.846,73.846v149.521
	c0,8.157,6.613,14.769,14.769,14.769h104.798L256.499,234.766L256.499,234.766z"/>
<path style="fill:#3594C7;" d="M256,38.96c-48.97,0-88.81,39.84-88.81,88.81s39.839,88.81,88.81,88.81s88.81-39.84,88.81-88.81
	S304.97,38.96,256,38.96z"/>
<path style="fill:#16DCFA;" d="M256,38.96c-48.97,0-88.81,39.84-88.81,88.81s39.839,88.81,88.81,88.81V38.96z"/>
<path style="fill:#2FD163;" d="M100.053,121.737c-36.623,0-66.417,29.795-66.417,66.417c0,36.623,29.794,66.418,66.417,66.418
	s66.417-29.795,66.417-66.418C166.47,151.533,136.676,121.737,100.053,121.737z"/>
<path style="fill:#7EFF76;" d="M100.053,121.737c-36.623,0-66.417,29.795-66.417,66.417c0,36.623,29.794,66.418,66.417,66.418
	V121.737z"/>
<g>
</g>
<g>
</g>
<g>
</g>
<g>
</g>
<g>
</g>
<g>
</g>
<g>
</g>
<g>
</g>
<g>
</g>
<g>
</g>
<g>
</g>
<g>
</g>
<g>
</g>
<g>
</g>
<g>
</g>
</svg>
