<svg id="Capa_1" enable-background="new 0 0 512 512" height="512" viewBox="0 0 512 512" width="512" xmlns="http://www.w3.org/2000/svg" xmlns:xlink="http://www.w3.org/1999/xlink"><linearGradient id="SVGID_1_" gradientUnits="userSpaceOnUse" x1="74.981" x2="437.02" y1="437.019" y2="74.98"><stop offset="0" stop-color="#230be0"/><stop offset="1" stop-color="#dda2fc"/></linearGradient><radialGradient id="SVGID_2_" cx="256.001" cy="256" gradientUnits="userSpaceOnUse" r="256"><stop offset="0" stop-color="#230be0"/><stop offset="1" stop-color="#dda2fc" stop-opacity="0"/></radialGradient><linearGradient id="lg1"><stop offset="0" stop-color="#dda2fc"/><stop offset=".1867" stop-color="#e1adfc"/><stop offset=".511" stop-color="#ebc9fd"/><stop offset=".9317" stop-color="#fcf7ff"/><stop offset="1" stop-color="#fff"/></linearGradient><linearGradient id="SVGID_3_" gradientUnits="userSpaceOnUse" x1="-150.016" x2="477.776" xlink:href="#lg1" y1="580.436" y2="-47.356"/><linearGradient id="SVGID_4_" gradientUnits="userSpaceOnUse" x1="-370.082" x2="457.159" xlink:href="#lg1" y1="999.987" y2="172.745"/><linearGradient id="SVGID_5_" gradientTransform="matrix(0 1 -1 0 2960 0)" gradientUnits="userSpaceOnUse" x1="862.895" x2="7.208" xlink:href="#lg1" y1="3276.061" y2="2420.374"/><linearGradient id="lg2"><stop offset="0" stop-color="#c96ff8"/><stop offset=".1795" stop-color="#ce7bf9"/><stop offset=".5008" stop-color="#da9afb"/><stop offset=".924" stop-color="#eecbfe"/><stop offset="1" stop-color="#f2d5ff"/></linearGradient><linearGradient id="SVGID_6_" gradientTransform="matrix(0 1 -1 0 2960 0)" gradientUnits="userSpaceOnUse" x1="637.45" x2="-65.813" xlink:href="#lg2" y1="3177.276" y2="2474.013"/><linearGradient id="SVGID_7_" gradientTransform="matrix(0 1 -1 0 2960 0)" gradientUnits="userSpaceOnUse" x1="984.002" x2="104.351" xlink:href="#lg2" y1="3396.912" y2="2517.26"/><linearGradient id="SVGID_8_" gradientTransform="matrix(0 1 -1 0 2960 0)" gradientUnits="userSpaceOnUse" x1="625.548" x2="56.677" xlink:href="#lg1" y1="3158.419" y2="2589.547"/><linearGradient id="SVGID_9_" gradientTransform="matrix(0 1 -1 0 2960 0)" gradientUnits="userSpaceOnUse" x1="952.048" x2="175.861" xlink:href="#lg1" y1="3372.117" y2="2595.93"/><linearGradient id="lg3"><stop offset="0" stop-color="#230be0"/><stop offset="1" stop-color="#f2d5ff"/></linearGradient><linearGradient id="SVGID_10_" gradientUnits="userSpaceOnUse" x1="55.186" x2="439.661" xlink:href="#lg3" y1="469.038" y2="84.563"/><linearGradient id="SVGID_11_" gradientUnits="userSpaceOnUse" x1="41.506" x2="491.511" xlink:href="#lg3" y1="564.345" y2="114.341"/><linearGradient id="SVGID_12_" gradientUnits="userSpaceOnUse" x1="86.651" x2="376.229" xlink:href="#lg3" y1="398.567" y2="108.99"/><linearGradient id="SVGID_13_" gradientUnits="userSpaceOnUse" x1="136.092" x2="350.547" xlink:href="#lg3" y1="349.145" y2="134.69"/><g><circle cx="256" cy="256" fill="url(#SVGID_1_)" r="256"/><circle cx="256" cy="256" fill="url(#SVGID_2_)" r="256"/><g><path d="m128.5 97.143c-16.536.696-30.661 14.822-31.357 31.357-3.44 85-3.44 170 0 255 .696 16.537 14.821 30.66 31.357 31.357 33.75 1.366 67.5 2.19 101.25 2.471-.875-107.552-.875-215.104 0-322.656-33.75.281-67.5 1.105-101.25 2.471z" fill="url(#SVGID_3_)"/><path d="m383.5 97.143c-10-.405-20-.762-30-1.071 3.25 106.619 3.25 213.238 0 319.857 10-.31 20-.667 30-1.071 16.536-.697 30.661-14.821 31.357-31.357 3.44-85 3.44-170 0-255-.696-16.538-14.821-30.661-31.357-31.358z" fill="url(#SVGID_4_)"/><path d="m384.599 384.599c-41.474-41.474-85.037-85.037-128.599-128.599 43.562-43.563 87.125-87.125 128.599-128.599-.568-16.684-14.562-30.798-31.099-31.33-41.25-1.277-82.5-1.743-123.75-1.4-16.538.145-30.219 14.13-30.485 31.047-1.229 86.854-1.229 173.708 0 260.562.266 16.918 13.947 30.902 30.485 31.047 41.25.344 82.5-.123 123.75-1.4 16.537-.529 30.53-14.645 31.099-31.328z" fill="url(#SVGID_5_)"/><path d="m127.401 127.401c-2.785 85.733-2.785 171.465 0 257.198 23.955.778 47.909 1.339 71.864 1.682 18.297-43.156 37.516-86.718 56.735-130.281-19.219-43.563-38.438-87.125-56.735-130.281-23.955.343-47.909.904-71.864 1.682z" fill="url(#SVGID_6_)"/><path d="m384.599 127.401c-61.778-2.007-123.556-2.568-185.334-1.682-1.229 86.854-1.229 173.708 0 260.562 61.778.885 123.556.325 185.334-1.682 2.785-85.733 2.785-171.465 0-257.198z" fill="url(#SVGID_7_)"/><path d="m142.122 142.122c-1.913 75.918-1.913 151.837 0 227.755 18.979.478 37.959.837 56.939 1.076 18.501-38.078 37.72-76.516 56.939-114.953-19.219-38.438-38.438-76.875-56.939-114.954-18.98.239-37.959.598-56.939 1.076z" fill="url(#SVGID_8_)"/><path d="m369.878 142.122c-56.939-1.435-113.878-1.793-170.817-1.076-.957 76.636-.957 153.272 0 229.908 56.939.718 113.878.359 170.817-1.076 1.913-75.918 1.913-151.837 0-227.756z" fill="url(#SVGID_9_)"/><path d="m156.997 355.003c0-.006 17.401.355 41.886.624 10.06-8.622 20.182-17.302 30.348-26.018-10.23-8.792-20.492-17.592-30.766-26.377-24.116 5.168-41.978 26.282-41.468 51.771z" fill="url(#SVGID_10_)"/><path d="m302.042 302.035c-28.547.121-63.541.125-92.087.003-3.948-.017-7.79.406-11.49 1.194.09 17.465.229 34.93.418 52.395 58.11.953 156.121-.44 156.121-.624.597-29.387-23.284-53.039-52.962-52.968z" fill="url(#SVGID_11_)"/><path d="m313.617 229.178c.089 31.701-25.828 57.552-57.617 57.573-31.79-.022-57.707-25.872-57.617-57.573.13-31.702 26.047-57.719 57.617-57.74 31.57.018 57.487 26.038 57.617 57.74z" fill="url(#SVGID_12_)"/><path d="m271.375 256.001c-31.838-.013-57.686-25.8-57.525-57.56.014-3.131.288-6.201.783-9.199-9.984 10.403-16.206 24.468-16.251 39.936-.089 31.701 25.828 57.552 57.617 57.573 28.662-.012 52.532-21.044 56.899-48.392-10.467 10.849-25.201 17.641-41.523 17.642z" fill="url(#SVGID_13_)"/></g></g></svg>