<svg enable-background="new 0 0 256 256" height="512" viewBox="0 0 256 256" width="512" xmlns="http://www.w3.org/2000/svg"><g id="Layer_41"><g><g><g><path d="m153.151 227.451h-79.703c-3.006 0-5.444 2.437-5.444 5.444 0 3.006 2.437 5.443 5.444 5.443h79.703c3.006 0 5.443-2.437 5.443-5.443 0-3.007-2.437-5.444-5.443-5.444z" fill="#edf4fc"/></g></g><g><g><path d="m91.294 202.504h44.011v24.947h-44.011z" fill="#c7d7e5"/></g></g><g><g><path d="m232.488 119.039h-50.264c-6.02 0-10.946 4.926-10.946 10.946v97.406c0 6.02 4.926 10.946 10.946 10.946h50.264c6.02 0 10.946-4.926 10.946-10.946v-97.406c0-6.02-4.925-10.946-10.946-10.946z" fill="#5290db"/></g></g><g><g><path d="m171.278 129.985c0-6.021 4.926-10.946 10.946-10.946h41.874v-73.431c0-6.392-5.23-11.622-11.622-11.622h-198.354c-6.392 0-11.622 5.23-11.622 11.622v145.274c0 6.392 5.23 11.622 11.622 11.622h157.156z" fill="#5290db"/></g></g><g><g><path d="m171.278 171.512h-168.778v19.37c0 6.392 5.23 11.622 11.622 11.622h157.156z" fill="#edf4fc"/></g></g><g><g><path d="m113.299 181.275c-3.166 0-5.732 2.566-5.732 5.732 0 3.166 2.566 5.732 5.732 5.732s5.732-2.566 5.732-5.732c0-3.165-2.566-5.732-5.732-5.732z" fill="#c7d7e5"/></g></g><g><g><path d="m171.278 129.985c0-6.021 4.926-10.946 10.946-10.946h32.19v-73.431c0-1.065-.872-1.937-1.937-1.937h-198.355c-1.065 0-1.937.872-1.937 1.937v125.904h159.093z" fill="#edf4fc"/></g></g><g><g><g><path d="m151.5 152.026v-23.366h-14v23.366c0 2.561-2.076 4.636-4.636 4.636h-37.728c-2.56 0-4.636-2.076-4.636-4.636v-23.366h-15v23.366c0 2.561-2.076 4.636-4.636 4.636h-37.728c-2.56 0-4.636-2.076-4.636-4.636v-23.366h-16.315v42.852h159.093v-14.85h-15.141c-2.561 0-4.637-2.076-4.637-4.636z" fill="#70d6f9"/></g></g></g><g><g><path d="m230.603 128.66h-11.261c-1.554 0-2.978.926-3.552 2.37-1.333 3.353-4.606 5.725-8.434 5.725-3.829 0-7.102-2.371-8.434-5.725-.574-1.445-1.997-2.37-3.552-2.37h-11.261c-1.773 0-3.21 1.437-3.21 3.21v93.637c0 1.773 1.437 3.21 3.21 3.21h46.495c1.773 0 3.21-1.437 3.21-3.21v-93.637c-.001-1.773-1.438-3.21-3.211-3.21z" fill="#edf4fc"/></g></g><g><g><path d="m216.5 155.662c0 4.97-4.029 9-9 9s-9-4.03-9-9h-17.601v69.845c0 1.773 1.437 3.21 3.21 3.21h46.495c1.773 0 3.21-1.437 3.21-3.21v-69.845z" fill="#70d6f9"/></g></g><g><g><path d="m194.926 184.827h24.861c3.098 0 5.609-2.511 5.609-5.609s-2.511-5.609-5.609-5.609h-24.861c-3.098 0-5.609 2.511-5.609 5.609-.001 3.098 2.511 5.609 5.609 5.609z" fill="#fcdd86"/></g></g><g><g><path d="m219.786 194.182h-24.861c-3.098 0-5.609 2.511-5.609 5.609s2.511 5.609 5.609 5.609h24.861c3.098 0 5.609-2.511 5.609-5.609.001-3.098-2.511-5.609-5.609-5.609z" fill="#fcdd86"/></g></g><g><g><circle cx="207.5" cy="155.662" fill="#fc657e" r="9"/></g></g><g><g><path d="m200.5 173.609h-5.574c-3.098 0-5.609 2.511-5.609 5.609s2.511 5.609 5.609 5.609h5.574z" fill="#edb311"/></g></g><g><g><path d="m200.5 194.182h-5.574c-3.098 0-5.609 2.511-5.609 5.609s2.511 5.609 5.609 5.609h5.574z" fill="#edb311"/></g></g><g><g><path d="m70.864 104.662h-37.728c-2.56 0-4.636 2.076-4.636 4.636v42.728c0 2.561 2.076 4.636 4.636 4.636h37.728c2.561 0 4.636-2.076 4.636-4.636v-42.728c0-2.56-2.076-4.636-4.636-4.636z" fill="#fcdd86"/></g></g><g><g><path d="m171.278 129.985c0-6.021 4.926-10.946 10.946-10.946h16.276v-9.741c0-2.561-2.076-4.636-4.636-4.636h-37.728c-2.56 0-4.636 2.076-4.636 4.636v42.728c0 2.561 2.076 4.636 4.636 4.636h15.141v-26.677z" fill="#fcdd86"/></g></g><g><g><path d="m132.864 104.662h-37.728c-2.56 0-4.636 2.076-4.636 4.636v42.728c0 2.561 2.076 4.636 4.636 4.636h37.728c2.561 0 4.636-2.076 4.636-4.636v-42.728c0-2.56-2.076-4.636-4.636-4.636z" fill="#fcdd86"/></g></g><g><g><path d="m78.926 90.975h69.861c3.098 0 5.609-2.511 5.609-5.609s-2.511-5.609-5.609-5.609h-69.861c-3.098 0-5.609 2.511-5.609 5.609-.001 3.098 2.511 5.609 5.609 5.609z" fill="#fcdd86"/></g></g><g><g><circle cx="194.5" cy="62.662" fill="#fc657e" r="9"/></g></g><g><g><path d="m85.5 79.757h-6.574c-3.098 0-5.609 2.511-5.609 5.609s2.511 5.609 5.609 5.609h6.574z" fill="#edb311"/></g></g><g><g><g><path d="m45.206 67.662h-11.706c-2.761 0-5-2.239-5-5s2.239-5 5-5h11.706c2.761 0 5 2.239 5 5s-2.239 5-5 5z" fill="#70d6f9"/></g></g></g><g><g><path d="m255.887 101.941c-4.497-.842-8.038-4.319-8.888-8.726-.043-.221-.352-.222-.395 0-.86 4.405-4.408 7.874-8.907 8.707-.226.042-.226.344 0 .387 4.497.842 8.038 4.319 8.889 8.726.043.221.352.222.395 0 .86-4.405 4.408-7.874 8.907-8.707.225-.042.225-.345-.001-.387z" fill="#f5c84c"/></g></g><g><g><path d="m158.903 20.27c-2.586-.482-4.625-2.479-5.116-5.012-.025-.127-.202-.127-.227 0-.492 2.534-2.53 4.531-5.117 5.012-.13.024-.13.198 0 .222 2.586.482 4.625 2.479 5.117 5.012.025.127.202.127.227 0 .492-2.534 2.53-4.531 5.116-5.012.129-.024.129-.198 0-.222z" fill="#87d147"/></g></g><g><g><path d="m38.442 220.649h2.33v-2.33c0-1.744 1.413-3.157 3.157-3.157s3.157 1.413 3.157 3.157v2.33h2.329c1.744 0 3.157 1.413 3.157 3.157s-1.413 3.157-3.157 3.157h-2.329v2.33c0 1.744-1.413 3.157-3.157 3.157s-3.157-1.413-3.157-3.157v-2.33h-2.33c-1.744 0-3.157-1.413-3.157-3.157 0-1.743 1.413-3.157 3.157-3.157z" fill="#70d6f9"/></g></g><g><g><circle cx="18.659" cy="215.417" fill="#f5c84c" r="3.377"/></g></g><g><g><circle cx="236.721" cy="79.539" fill="#fc657e" r="3.377"/></g></g><g><g><path d="m211.1 217.162h-7.2c-1.381 0-2.5-1.119-2.5-2.5s1.119-2.5 2.5-2.5h7.2c1.381 0 2.5 1.119 2.5 2.5s-1.119 2.5-2.5 2.5z"/></g></g><g><g><path d="m173.283 65.162h-4.89c-1.381 0-2.5-1.119-2.5-2.5s1.119-2.5 2.5-2.5h4.89c1.381 0 2.5 1.119 2.5 2.5s-1.119 2.5-2.5 2.5z"/></g></g><g><g><path d="m158.07 65.162h-4.89c-1.381 0-2.5-1.119-2.5-2.5s1.119-2.5 2.5-2.5h4.89c1.381 0 2.5 1.119 2.5 2.5s-1.119 2.5-2.5 2.5z"/></g></g><g><g><path d="m142.856 65.162h-4.89c-1.381 0-2.5-1.119-2.5-2.5s1.119-2.5 2.5-2.5h4.89c1.381 0 2.5 1.119 2.5 2.5s-1.119 2.5-2.5 2.5z"/></g></g><g><g><path d="m74.017 157.52c-.683 0-1.362-.278-1.855-.824l-43.905-48.576c-.926-1.024-.846-2.605.178-3.531 1.024-.927 2.606-.846 3.531.178l43.905 48.576c.926 1.024.846 2.605-.178 3.531-.479.433-1.079.646-1.676.646z"/></g></g><g><g><path d="m29.983 157.52c-.598 0-1.197-.213-1.675-.646-1.024-.926-1.104-2.506-.178-3.531l44.031-48.716c.925-1.024 2.506-1.105 3.531-.178 1.024.926 1.104 2.506.178 3.531l-44.031 48.716c-.493.546-1.173.824-1.856.824z"/></g></g><g><g><path d="m136.017 157.52c-.683 0-1.362-.278-1.855-.824l-43.905-48.576c-.926-1.024-.846-2.605.178-3.531 1.024-.927 2.606-.846 3.531.178l43.905 48.576c.926 1.024.846 2.605-.178 3.531-.479.433-1.079.646-1.676.646z"/></g></g><g><g><path d="m91.983 157.52c-.598 0-1.197-.213-1.675-.646-1.024-.926-1.104-2.506-.178-3.531l44.031-48.716c.925-1.024 2.507-1.105 3.531-.178 1.024.926 1.104 2.506.178 3.531l-44.031 48.716c-.493.546-1.173.824-1.856.824z"/></g></g><g><g><path d="m171.529 129.32c-.683 0-1.362-.278-1.855-.824l-18.417-20.376c-.926-1.024-.846-2.605.178-3.531 1.024-.927 2.605-.846 3.531.178l18.417 20.376c.926 1.024.846 2.605-.178 3.531-.479.433-1.079.646-1.676.646z"/></g></g><g><g><path d="m152.983 157.52c-.598 0-1.197-.213-1.675-.646-1.024-.926-1.104-2.506-.178-3.531l18.089-20.014c.925-1.024 2.506-1.105 3.531-.178 1.024.926 1.104 2.506.178 3.531l-18.089 20.014c-.493.546-1.173.824-1.856.824z"/></g></g><g><g><path d="m185.686 121.339c-.598 0-1.197-.213-1.675-.646-1.024-.926-1.104-2.506-.178-3.531l11.329-12.535c.925-1.024 2.506-1.105 3.531-.178 1.024.926 1.104 2.506.178 3.531l-11.329 12.535c-.494.546-1.174.824-1.856.824z"/></g></g><g><g><path d="m153.151 240.838h-79.703c-4.38 0-7.944-3.563-7.944-7.943s3.563-7.944 7.944-7.944h79.703c4.38 0 7.943 3.563 7.943 7.944 0 4.379-3.563 7.943-7.943 7.943zm-79.703-10.887c-1.623 0-2.944 1.321-2.944 2.944s1.321 2.943 2.944 2.943h79.703c1.623 0 2.943-1.32 2.943-2.943s-1.32-2.944-2.943-2.944z"/></g></g><g><g><path d="m135.305 229.951h-44.011c-1.381 0-2.5-1.119-2.5-2.5v-24.947c0-1.381 1.119-2.5 2.5-2.5h44.011c1.381 0 2.5 1.119 2.5 2.5v24.947c0 1.381-1.119 2.5-2.5 2.5zm-41.511-5h39.011v-19.947h-39.011z"/></g></g><g><g><path d="m232.488 240.838h-50.264c-7.414 0-13.446-6.032-13.446-13.446v-97.406c0-7.415 6.032-13.446 13.446-13.446h50.264c7.415 0 13.446 6.032 13.446 13.446v97.406c.001 7.414-6.031 13.446-13.446 13.446zm-50.264-119.299c-4.657 0-8.446 3.789-8.446 8.446v97.406c0 4.657 3.789 8.446 8.446 8.446h50.264c4.657 0 8.446-3.789 8.446-8.446v-97.406c0-4.657-3.789-8.446-8.446-8.446z"/></g></g><g><g><path d="m170.5 205.004h-156.378c-7.787 0-14.122-6.335-14.122-14.122v-145.274c0-7.787 6.335-14.122 14.122-14.122h198.354c7.787 0 14.122 6.335 14.122 14.122v72.637c0 1.381-1.119 2.5-2.5 2.5s-2.5-1.119-2.5-2.5v-72.637c0-5.03-4.092-9.122-9.122-9.122h-198.354c-5.03 0-9.122 4.092-9.122 9.122v145.274c0 5.03 4.092 9.122 9.122 9.122h156.378c1.381 0 2.5 1.119 2.5 2.5s-1.119 2.5-2.5 2.5z"/></g></g><g><g><path d="m170.458 174.012h-167.333c-1.381 0-2.5-1.119-2.5-2.5s1.119-2.5 2.5-2.5h167.333c1.381 0 2.5 1.119 2.5 2.5s-1.119 2.5-2.5 2.5z"/></g></g><g><g><path d="m113.299 195.24c-4.54 0-8.232-3.693-8.232-8.232s3.693-8.232 8.232-8.232 8.232 3.693 8.232 8.232-3.693 8.232-8.232 8.232zm0-11.465c-1.782 0-3.232 1.45-3.232 3.232s1.45 3.232 3.232 3.232 3.232-1.45 3.232-3.232-1.449-3.232-3.232-3.232z"/></g></g><g><g><path d="m12.185 173.375c-1.381 0-2.5-1.119-2.5-2.5v-125.267c0-2.446 1.99-4.437 4.437-4.437h198.354c2.447 0 4.437 1.99 4.437 4.437v72.788c0 1.381-1.119 2.5-2.5 2.5s-2.5-1.119-2.5-2.5v-72.225h-197.228v124.704c0 1.381-1.119 2.5-2.5 2.5z"/></g></g><g><g><g><path d="m27.375 131.16h-14.333c-1.381 0-2.5-1.119-2.5-2.5s1.119-2.5 2.5-2.5h14.333c1.381 0 2.5 1.119 2.5 2.5s-1.119 2.5-2.5 2.5z"/></g></g><g><g><path d="m89.781 131.16h-13.698c-1.381 0-2.5-1.119-2.5-2.5s1.119-2.5 2.5-2.5h13.698c1.381 0 2.5 1.119 2.5 2.5s-1.119 2.5-2.5 2.5z"/></g></g><g><g><path d="m150.833 131.16h-12.333c-1.381 0-2.5-1.119-2.5-2.5s1.119-2.5 2.5-2.5h12.333c1.381 0 2.5 1.119 2.5 2.5s-1.119 2.5-2.5 2.5z"/></g></g></g><g><g><path d="m230.604 231.217h-46.495c-3.148 0-5.71-2.562-5.71-5.71v-93.637c0-3.148 2.562-5.71 5.71-5.71h11.261c2.616 0 4.922 1.55 5.875 3.948 1.001 2.519 3.4 4.147 6.111 4.147s5.109-1.628 6.111-4.148c.953-2.398 3.259-3.947 5.875-3.947h11.261c3.148 0 5.71 2.562 5.71 5.71v93.637c0 3.148-2.561 5.71-5.709 5.71zm-46.495-100.057c-.392 0-.71.318-.71.71v93.637c0 .392.318.71.71.71h46.495c.392 0 .71-.318.71-.71v-93.637c0-.392-.318-.71-.71-.71h-11.261c-.546 0-1.04.319-1.229.794-1.763 4.436-5.986 7.301-10.758 7.301s-8.995-2.866-10.758-7.301c-.188-.475-.682-.794-1.228-.794z"/></g></g><g><g><path d="m197.625 158.162h-15.792c-1.381 0-2.5-1.119-2.5-2.5s1.119-2.5 2.5-2.5h15.792c1.381 0 2.5 1.119 2.5 2.5s-1.119 2.5-2.5 2.5z"/></g></g><g><g><path d="m232.969 158.162h-15.677c-1.381 0-2.5-1.119-2.5-2.5s1.119-2.5 2.5-2.5h15.677c1.381 0 2.5 1.119 2.5 2.5s-1.119 2.5-2.5 2.5z"/></g></g><g><g><path d="m219.787 187.327h-24.861c-4.472 0-8.109-3.638-8.109-8.109 0-4.472 3.638-8.109 8.109-8.109h24.861c4.471 0 8.109 3.638 8.109 8.109s-3.638 8.109-8.109 8.109zm-24.861-11.219c-1.714 0-3.109 1.395-3.109 3.109s1.395 3.109 3.109 3.109h24.861c1.714 0 3.109-1.395 3.109-3.109s-1.395-3.109-3.109-3.109z"/></g></g><g><g><path d="m219.787 207.9h-24.861c-4.472 0-8.109-3.638-8.109-8.109 0-4.472 3.638-8.109 8.109-8.109h24.861c4.471 0 8.109 3.638 8.109 8.109s-3.638 8.109-8.109 8.109zm-24.861-11.218c-1.714 0-3.109 1.395-3.109 3.109s1.395 3.109 3.109 3.109h24.861c1.714 0 3.109-1.395 3.109-3.109s-1.395-3.109-3.109-3.109z"/></g></g><g><g><path d="m207.5 167.162c-6.341 0-11.5-5.159-11.5-11.5s5.159-11.5 11.5-11.5 11.5 5.159 11.5 11.5-5.159 11.5-11.5 11.5zm0-18c-3.584 0-6.5 2.916-6.5 6.5s2.916 6.5 6.5 6.5 6.5-2.916 6.5-6.5-2.916-6.5-6.5-6.5z"/></g></g><g><g><path d="m200.5 186.813c-1.381 0-2.5-1.119-2.5-2.5v-10.188c0-1.381 1.119-2.5 2.5-2.5s2.5 1.119 2.5 2.5v10.188c0 1.381-1.119 2.5-2.5 2.5z"/></g></g><g><g><path d="m200.5 207.5c-1.381 0-2.5-1.119-2.5-2.5v-10.219c0-1.381 1.119-2.5 2.5-2.5s2.5 1.119 2.5 2.5v10.219c0 1.381-1.119 2.5-2.5 2.5z"/></g></g><g><g><path d="m70.864 159.162h-37.728c-3.935 0-7.136-3.201-7.136-7.136v-42.728c0-3.935 3.201-7.136 7.136-7.136h37.728c3.935 0 7.136 3.201 7.136 7.136v42.728c0 3.935-3.201 7.136-7.136 7.136zm-37.728-52c-1.178 0-2.136.958-2.136 2.136v42.728c0 1.178.958 2.136 2.136 2.136h37.728c1.178 0 2.136-.958 2.136-2.136v-42.728c0-1.178-.958-2.136-2.136-2.136z"/></g></g><g><g><path d="m170.458 159.162h-14.322c-3.935 0-7.136-3.201-7.136-7.136v-42.728c0-3.935 3.201-7.136 7.136-7.136h37.728c3.935 0 7.136 3.201 7.136 7.136v8.947c0 1.381-1.119 2.5-2.5 2.5s-2.5-1.119-2.5-2.5v-8.947c0-1.178-.958-2.136-2.136-2.136h-37.728c-1.178 0-2.136.958-2.136 2.136v42.728c0 1.178.958 2.136 2.136 2.136h14.322c1.381 0 2.5 1.119 2.5 2.5s-1.119 2.5-2.5 2.5z"/></g></g><g><g><path d="m132.864 159.162h-37.728c-3.935 0-7.136-3.201-7.136-7.136v-42.728c0-3.935 3.201-7.136 7.136-7.136h37.728c3.935 0 7.136 3.201 7.136 7.136v42.728c0 3.935-3.201 7.136-7.136 7.136zm-37.728-52c-1.178 0-2.136.958-2.136 2.136v42.728c0 1.178.958 2.136 2.136 2.136h37.728c1.178 0 2.136-.958 2.136-2.136v-42.728c0-1.178-.958-2.136-2.136-2.136z"/></g></g><g><g><path d="m148.787 93.475h-69.861c-4.472 0-8.109-3.638-8.109-8.109s3.638-8.109 8.109-8.109h69.861c4.471 0 8.109 3.638 8.109 8.109s-3.638 8.109-8.109 8.109zm-69.861-11.218c-1.714 0-3.109 1.395-3.109 3.109s1.395 3.109 3.109 3.109h69.861c1.714 0 3.109-1.395 3.109-3.109s-1.395-3.109-3.109-3.109z"/></g></g><g><g><path d="m194.5 74.162c-6.341 0-11.5-5.159-11.5-11.5s5.159-11.5 11.5-11.5 11.5 5.159 11.5 11.5-5.159 11.5-11.5 11.5zm0-18c-3.584 0-6.5 2.916-6.5 6.5s2.916 6.5 6.5 6.5 6.5-2.916 6.5-6.5-2.916-6.5-6.5-6.5z"/></g></g><g><g><path d="m85.5 92.667c-1.381 0-2.5-1.119-2.5-2.5v-9.834c0-1.381 1.119-2.5 2.5-2.5s2.5 1.119 2.5 2.5v9.834c0 1.381-1.119 2.5-2.5 2.5z"/></g></g><g><g><g><path d="m45.206 70.162h-11.706c-4.136 0-7.5-3.364-7.5-7.5s3.364-7.5 7.5-7.5h11.706c4.136 0 7.5 3.364 7.5 7.5s-3.365 7.5-7.5 7.5zm-11.706-10c-1.378 0-2.5 1.122-2.5 2.5s1.122 2.5 2.5 2.5h11.706c1.378 0 2.5-1.122 2.5-2.5s-1.122-2.5-2.5-2.5z"/></g></g></g></g></g></svg>