<?xml version="1.0" encoding="iso-8859-1"?>
<!-- Generator: Adobe Illustrator 19.0.0, SVG Export Plug-In . SVG Version: 6.00 Build 0)  -->
<svg version="1.1" id="Capa_1" xmlns="http://www.w3.org/2000/svg" xmlns:xlink="http://www.w3.org/1999/xlink" x="0px" y="0px"
	 viewBox="0 0 512 512" style="enable-background:new 0 0 512 512;" xml:space="preserve">
<path style="fill:#455A64;" d="M256,0c-76.544,0.094-138.573,62.122-138.667,138.667V224c0,5.891,4.776,10.667,10.667,10.667h42.667
	c5.891,0,10.667-4.776,10.667-10.667v-85.333C181.333,97.429,214.763,64,256,64s74.667,33.429,74.667,74.667V224
	c0,5.891,4.776,10.667,10.667,10.667H384c5.891,0,10.667-4.776,10.667-10.667v-85.333C394.573,62.122,332.544,0.094,256,0z"/>
<path style="fill:#FFC107;" d="M128,213.333h256c29.455,0,53.333,23.878,53.333,53.333v192C437.333,488.122,413.455,512,384,512H128
	c-29.455,0-53.333-23.878-53.333-53.333v-192C74.667,237.211,98.545,213.333,128,213.333z"/>
<path style="fill:#455A64;" d="M309.333,330.667c0.124-29.455-23.653-53.434-53.108-53.558
	c-29.455-0.124-53.434,23.653-53.558,53.108c-0.086,20.36,11.427,38.992,29.674,48.023l-8.235,57.6
	c-0.825,5.833,3.235,11.23,9.068,12.055c0.494,0.07,0.993,0.105,1.492,0.105h42.667c5.891,0.06,10.715-4.667,10.774-10.558
	c0.005-0.543-0.03-1.086-0.108-1.623l-8.235-57.6C297.788,369.199,309.216,350.82,309.333,330.667z"/>
<path d="M384,234.667h-42.667c-5.891,0-10.667-4.776-10.667-10.667v-85.333C330.667,97.429,297.237,64,256,64
	s-74.667,33.429-74.667,74.667V224c0,5.891-4.776,10.667-10.667,10.667H128c-5.891,0-10.667-4.776-10.667-10.667v-85.333
	C117.333,62.083,179.417,0,256,0s138.667,62.083,138.667,138.667V224C394.667,229.891,389.891,234.667,384,234.667z M352,213.333
	h21.333v-74.667c0-64.801-52.532-117.333-117.333-117.333S138.667,73.865,138.667,138.667v74.667H160v-74.667
	c0-53.019,42.981-96,96-96s96,42.981,96,96V213.333z"/>
<path d="M384,512H128c-29.455,0-53.333-23.878-53.333-53.333v-192c0-29.455,23.878-53.333,53.333-53.333h256
	c29.455,0,53.333,23.878,53.333,53.333v192C437.333,488.122,413.455,512,384,512z M128,234.667c-17.673,0-32,14.327-32,32v192
	c0,17.673,14.327,32,32,32h256c17.673,0,32-14.327,32-32v-192c0-17.673-14.327-32-32-32H128z"/>
<path d="M277.333,448h-42.667c-5.891,0.06-10.715-4.667-10.774-10.558c-0.005-0.543,0.03-1.086,0.108-1.623l8.235-57.6
	c-26.396-13.072-37.196-45.067-24.124-71.463c13.072-26.396,45.067-37.196,71.463-24.124c26.396,13.072,37.196,45.067,24.124,71.463
	c-5.183,10.466-13.658,18.941-24.124,24.124l8.235,57.6c0.837,5.831-3.212,11.237-9.044,12.074
	C278.29,447.96,277.812,447.996,277.333,448z M246.955,426.667h18.091l-7.68-53.717c-0.756-5.251,2.462-10.26,7.552-11.755
	c13.666-3.853,23.099-16.329,23.083-30.528c0-17.673-14.327-32-32-32s-32,14.327-32,32c-0.017,14.199,9.417,26.675,23.083,30.528
	c5.09,1.495,8.308,6.504,7.552,11.755L246.955,426.667z"/>
<g>
</g>
<g>
</g>
<g>
</g>
<g>
</g>
<g>
</g>
<g>
</g>
<g>
</g>
<g>
</g>
<g>
</g>
<g>
</g>
<g>
</g>
<g>
</g>
<g>
</g>
<g>
</g>
<g>
</g>
</svg>
