<?xml version="1.0" encoding="iso-8859-1"?>
<!-- Generator: Adobe Illustrator 19.0.0, SVG Export Plug-In . SVG Version: 6.00 Build 0)  -->
<svg version="1.1" id="Capa_1" xmlns="http://www.w3.org/2000/svg" xmlns:xlink="http://www.w3.org/1999/xlink" x="0px" y="0px"
	 viewBox="0 0 512 512" style="enable-background:new 0 0 512 512;" xml:space="preserve">
<polygon style="fill:#06F5DD;" points="396,67.5 396,414.5 336,444.5 336,37.5 "/>
<polygon style="fill:#8CFFF3;" points="366,37.5 366,444.5 116,414.5 116,67.5 "/>
<g>
	<path style="fill:#BFBFBF;" d="M366,414.5l-30,90h30c16.5,0,30-13.5,30-30v-60H366z"/>
	<path style="fill:#BFBFBF;" d="M366,7.5h-30l30,60h30v-30C396,21,382.5,7.5,366,7.5z"/>
</g>
<g>
	<path style="fill:#DBDBDB;" d="M366,414.5v60c0,16.5-13.5,30-30,30H146c-16.5,0-30-13.5-30-30v-60H366z"/>
	<path style="fill:#DBDBDB;" d="M366,37.5v30H116v-30c0-16.5,13.5-30,30-30h190C352.5,7.5,366,21,366,37.5z"/>
</g>
<circle style="fill:#FFFFFF;" cx="256" cy="459.5" r="15"/>
<path d="M366,0H146c-20.678,0-37.5,16.822-37.5,37.5v437c0,20.678,16.822,37.5,37.5,37.5h220c20.678,0,37.5-16.822,37.5-37.5v-437
	C403.5,16.822,386.678,0,366,0z M146,15h220c12.407,0,22.5,10.093,22.5,22.5V60h-265V37.5C123.5,25.093,133.593,15,146,15z M366,497
	H146c-12.407,0-22.5-10.093-22.5-22.5V422H146c4.142,0,7.5-3.358,7.5-7.5s-3.358-7.5-7.5-7.5h-22.5V75h265v332H176
	c-4.142,0-7.5,3.358-7.5,7.5s3.358,7.5,7.5,7.5h212.5v52.5C388.5,486.907,378.407,497,366,497z"/>
<path d="M256,45h30c4.142,0,7.5-3.358,7.5-7.5S290.142,30,286,30h-30c-4.142,0-7.5,3.358-7.5,7.5S251.858,45,256,45z"/>
<path d="M256,437c-12.407,0-22.5,10.093-22.5,22.5S243.593,482,256,482c12.407,0,22.5-10.093,22.5-22.5S268.407,437,256,437z
	 M256,467c-4.136,0-7.5-3.364-7.5-7.5s3.364-7.5,7.5-7.5c4.136,0,7.5,3.364,7.5,7.5S260.136,467,256,467z"/>
<circle cx="226" cy="37.5" r="7.5"/>
<g>
</g>
<g>
</g>
<g>
</g>
<g>
</g>
<g>
</g>
<g>
</g>
<g>
</g>
<g>
</g>
<g>
</g>
<g>
</g>
<g>
</g>
<g>
</g>
<g>
</g>
<g>
</g>
<g>
</g>
</svg>
